<?xml version="1.0" encoding="UTF-8" standalone="no" ?>
<!DOCTYPE svg PUBLIC "-//W3C//DTD SVG 1.1//EN" "http://www.w3.org/Graphics/SVG/1.1/DTD/svg11.dtd">
<svg xmlns="http://www.w3.org/2000/svg" xmlns:xlink="http://www.w3.org/1999/xlink" version="1.1" width="640" height="640" viewBox="0 0 640 640" xml:space="preserve">
<desc>Created with Fabric.js 4.6.0</desc>
<defs>
</defs>
<g transform="matrix(-1 0 0 1.06 144.55 373.26)" id="gO5OGVz7RVNzmVQf5Tt_Z"  >
<path style="stroke: rgb(55,45,39); stroke-width: 30; stroke-dasharray: none; stroke-linecap: butt; stroke-dashoffset: 0; stroke-linejoin: miter; stroke-miterlimit: 4; fill: rgb(255,255,255); fill-opacity: 0; fill-rule: nonzero; opacity: 1;" vector-effect="non-scaling-stroke"  transform=" translate(0, 0)" d="M 0 142.98094 L 0 -142.98092999999997 z" stroke-linecap="round" />
</g>
<g transform="matrix(-1 0 0 1 107.31 186.63)" id="Es5JLDsoMEDegXI0Cy4k4"  >
<path style="stroke: rgb(214,38,38); stroke-width: 30; stroke-dasharray: none; stroke-linecap: round; stroke-dashoffset: 0; stroke-linejoin: round; stroke-miterlimit: 10; fill: none; fill-rule: nonzero; opacity: 1;" vector-effect="non-scaling-stroke"  transform=" translate(-542.41, -195.79)" d="M 548.4922010398614 204.1201213171577 Q 548.4922010398614 204.0901213171577 548.4922010398614 203.53552859618716 Q 548.4922010398614 202.98093587521663 548.4922010398614 202.4263431542461 Q 548.4922010398614 201.87175043327557 548.4922010398614 201.31715771230503 Q 548.4922010398614 200.7625649913345 548.4922010398614 200.20797227036397 Q 548.4922010398614 199.65337954939343 548.4922010398614 199.09878682842287 Q 548.4922010398614 198.5441941074523 548.4922010398614 197.98960138648178 Q 548.4922010398614 197.43500866551125 548.4922010398614 196.88041594454072 Q 548.4922010398614 196.32582322357018 547.9376083188907 196.32582322357018 Q 547.3830155979201 196.32582322357018 547.3830155979201 195.77123050259965 Q 547.3830155979201 195.21663778162912 547.9376083188907 191.33448873483536 Q 548.4922010398614 187.4523396880416 549.0467937608319 185.78856152512998 Q 549.6013864818024 184.12478336221835 549.6013864818024 183.57019064124782 Q 549.6013864818024 183.0155979202773 549.6013864818024 182.46100519930675 Q 549.6013864818024 181.90641247833622 549.6013864818024 182.46100519930675 Q 549.6013864818024 183.0155979202773 550.1559792027729 183.57019064124782 Q 550.7105719237434 184.12478336221835 550.7105719237434 184.67937608318888 Q 550.7105719237434 185.23396880415942 551.2651646447139 185.23396880415942 Q 551.8197573656844 185.23396880415942 551.8197573656844 185.78856152512998 Q 551.8197573656844 186.34315424610054 552.374350086655 186.89774696707107 Q 552.9289428076256 187.4523396880416 552.9289428076256 188.00693240901214 Q 552.9289428076256 188.56152512998267 553.4835355285961 188.56152512998267 Q 554.0381282495666 188.56152512998267 554.0381282495666 189.1161178509532 Q 554.0381282495666 189.67071057192373 554.0381282495666 190.22530329289427 Q 554.0381282495666 190.7798960138648 554.5927209705371 191.33448873483533 Q 555.1473136915076 191.88908145580587 555.1473136915076 192.44367417677643 Q 555.1473136915076 192.998266897747 555.7019064124783 193.55285961871752 Q 556.2564991334489 194.10745233968805 556.2564991334489 194.66204506065858 Q 556.2564991334489 195.21663778162912 556.8110918544194 195.77123050259965 Q 557.3656845753899 196.32582322357018 557.3656845753899 197.43500866551125 Q 557.3656845753899 198.5441941074523 557.9202772963604 200.20797227036394 Q 558.4748700173309 201.87175043327557 559.0294627383014 202.4263431542461 Q 559.5840554592719 202.98093587521663 559.5840554592719 203.53552859618716 Q 559.5840554592719 204.0901213171577 559.5840554592719 204.64471403812823 Q 559.5840554592719 205.19930675909876 559.5840554592719 205.75389948006932 Q 559.5840554592719 206.30849220103988 560.1386481802425 206.30849220103988 Q 560.6932409012131 206.30849220103988 561.2478336221836 206.30849220103988 Q 561.8024263431541 206.30849220103988 562.3570190641246 205.75389948006932 Q 562.9116117850951 205.19930675909876 562.9116117850951 204.64471403812823 Q 562.9116117850951 204.0901213171577 563.4662045060658 203.53552859618716 Q 564.0207972270364 202.98093587521663 564.0207972270364 201.87175043327557 Q 564.0207972270364 200.7625649913345 564.0207972270364 200.20797227036397 Q 564.0207972270364 199.65337954939343 564.0207972270364 199.09878682842287 Q 564.0207972270364 198.5441941074523 564.0207972270364 197.43500866551125 Q 564.0207972270364 196.32582322357018 564.0207972270364 195.77123050259965 Q 564.0207972270364 195.21663778162912 564.0207972270364 194.66204506065858 Q 564.0207972270364 194.10745233968805 564.0207972270364 193.55285961871752 Q 564.0207972270364 192.998266897747 564.0207972270364 191.33448873483536 Q 564.0207972270364 189.67071057192373 564.0207972270364 188.00693240901214 Q 564.0207972270364 186.34315424610054 564.0207972270364 185.23396880415945 Q 564.0207972270364 184.12478336221835 563.4662045060658 183.0155979202773 Q 562.9116117850951 181.90641247833622 562.3570190641246 181.3518197573657 Q 561.8024263431541 180.79722703639516 561.2478336221836 180.79722703639516 Q 560.6932409012131 180.79722703639516 560.6932409012131 180.24263431542462 Q 560.6932409012131 179.6880415944541 560.6932409012131 179.13344887348353 Q 560.6932409012131 178.57885615251297 560.1386481802425 177.4696707105719 Q 559.5840554592719 176.36048526863084 559.5840554592719 175.25129982668977 Q 559.5840554592719 174.1421143847487 559.5840554592719 173.03292894280762 Q 559.5840554592719 171.92374350086652 559.0294627383014 171.369150779896 Q 558.4748700173309 170.81455805892546 558.4748700173309 170.25996533795492 Q 558.4748700173309 169.7053726169844 557.9202772963604 169.15077989601386 Q 557.3656845753899 168.59618717504333 556.8110918544194 168.0415944540728 Q 556.2564991334489 167.48700173310226 556.2564991334489 166.93240901213173 Q 556.2564991334489 166.3778162911612 555.7019064124783 166.3778162911612 Q 555.1473136915076 166.3778162911612 555.1473136915076 165.82322357019063 Q 555.1473136915076 165.26863084922007 554.5927209705371 165.26863084922007 Q 554.0381282495666 165.26863084922007 554.0381282495666 164.71403812824954 Q 554.0381282495666 164.159445407279 552.9289428076255 164.159445407279 Q 551.8197573656844 164.159445407279 551.2651646447139 164.159445407279 Q 550.7105719237434 164.159445407279 549.6013864818024 164.159445407279 Q 548.4922010398614 164.159445407279 547.9376083188907 164.159445407279 Q 547.3830155979201 164.159445407279 546.8284228769496 164.159445407279 Q 546.2738301559791 164.159445407279 546.2738301559791 164.71403812824954 Q 546.2738301559791 165.26863084922007 545.7192374350086 165.26863084922007 Q 545.1646447140381 165.26863084922007 544.6100519930675 165.82322357019063 Q 544.0554592720969 166.3778162911612 543.5008665511264 166.3778162911612 Q 542.9462738301559 166.3778162911612 542.3916811091854 166.93240901213173 Q 541.8370883882149 167.48700173310226 541.2824956672442 168.0415944540728 Q 540.7279029462736 168.59618717504333 540.1733102253031 168.59618717504333 Q 539.6187175043326 168.59618717504333 538.5095320623916 168.59618717504333 Q 537.4003466204506 168.59618717504333 536.2911611785095 168.59618717504333 Q 535.1819757365683 168.59618717504333 533.5181975736567 168.59618717504333 Q 531.8544194107451 168.59618717504333 530.7452339688041 168.59618717504333 Q 529.6360485268631 168.59618717504333 529.0814558058925 168.59618717504333 Q 528.5268630849218 168.59618717504333 527.4176776429808 168.0415944540728 Q 526.3084922010398 167.48700173310226 525.7538994800692 167.48700173310226 Q 525.1993067590986 167.48700173310226 524.6447140381281 167.48700173310226 Q 524.0901213171576 167.48700173310226 523.5355285961871 166.93240901213173 Q 522.9809358752166 166.3778162911612 522.4263431542461 166.3778162911612 Q 521.8717504332756 166.3778162911612 521.317157712305 166.3778162911612 Q 520.7625649913343 166.3778162911612 520.2079722703638 166.3778162911612 Q 519.6533795493933 166.3778162911612 519.6533795493933 166.93240901213173 Q 519.6533795493933 167.48700173310226 519.6533795493933 168.0415944540728 Q 519.6533795493933 168.59618717504333 519.6533795493933 169.15077989601386 Q 519.6533795493933 169.7053726169844 520.2079722703638 169.7053726169844 Q 520.7625649913343 169.7053726169844 520.7625649913343 170.25996533795492 Q 520.7625649913343 170.81455805892546 521.317157712305 170.81455805892546 Q 521.8717504332756 170.81455805892546 521.8717504332756 171.369150779896 Q 521.8717504332756 171.92374350086652 521.8717504332756 172.47833622183708 Q 521.8717504332756 173.03292894280764 521.8717504332756 173.58752166377818 Q 521.8717504332756 174.1421143847487 521.8717504332756 174.69670710571924 Q 521.8717504332756 175.25129982668977 521.8717504332756 175.8058925476603 Q 521.8717504332756 176.36048526863084 521.8717504332756 176.91507798960137 Q 521.8717504332756 177.4696707105719 521.8717504332756 178.02426343154244 Q 521.8717504332756 178.57885615251297 521.8717504332756 179.13344887348353 Q 521.8717504332756 179.6880415944541 521.8717504332756 180.24263431542462 Q 521.8717504332756 180.79722703639516 521.8717504332756 181.3518197573657 Q 521.8717504332756 181.90641247833622 521.8717504332756 182.46100519930675 Q 521.8717504332756 183.0155979202773 521.8717504332756 183.57019064124782 Q 521.8717504332756 184.12478336221835 521.8717504332756 184.67937608318888 Q 521.8717504332756 185.23396880415942 521.8717504332756 185.78856152512998 Q 521.8717504332756 186.34315424610054 521.8717504332756 186.89774696707107 Q 521.8717504332756 187.4523396880416 521.8717504332756 188.00693240901214 Q 521.8717504332756 188.56152512998267 521.8717504332756 189.1161178509532 Q 521.8717504332756 189.67071057192373 521.8717504332756 190.22530329289427 Q 521.8717504332756 190.7798960138648 521.8717504332756 191.33448873483533 Q 521.8717504332756 191.88908145580587 521.8717504332756 192.44367417677643 Q 521.8717504332756 192.998266897747 521.8717504332756 193.55285961871752 Q 521.8717504332756 194.10745233968805 521.8717504332756 194.66204506065858 Q 521.8717504332756 195.21663778162912 522.4263431542461 195.77123050259965 Q 522.9809358752166 196.32582322357018 522.9809358752166 196.88041594454072 Q 522.9809358752166 197.43500866551125 522.9809358752166 197.98960138648178 Q 522.9809358752166 198.5441941074523 522.9809358752166 199.09878682842287 Q 522.9809358752166 199.65337954939343 522.9809358752166 200.20797227036397 Q 522.9809358752166 200.7625649913345 522.9809358752166 201.31715771230503 Q 522.9809358752166 201.87175043327557 522.9809358752166 202.4263431542461 Q 522.9809358752166 202.98093587521663 522.9809358752166 203.53552859618716 Q 522.9809358752166 204.0901213171577 522.9809358752166 204.64471403812823 Q 522.9809358752166 205.19930675909876 522.9809358752166 205.75389948006932 Q 522.9809358752166 206.30849220103988 522.9809358752166 206.86308492201042 Q 522.9809358752166 207.41767764298095 522.9809358752166 207.97227036395148 Q 522.9809358752166 208.526863084922 522.9809358752166 209.08145580589255 Q 522.9809358752166 209.63604852686308 522.9809358752166 210.1906412478336 Q 522.9809358752166 210.74523396880414 522.9809358752166 211.29982668977468 Q 522.9809358752166 211.8544194107452 523.5355285961871 211.8544194107452 Q 524.0901213171576 211.8544194107452 524.0901213171576 211.29982668977468 Q 524.0901213171576 210.74523396880414 524.6447140381281 210.74523396880414 Q 525.1993067590986 210.74523396880414 525.1993067590986 210.1906412478336 Q 525.1993067590986 209.63604852686308 525.7538994800692 209.63604852686308 Q 526.3084922010398 209.63604852686308 526.8630849220103 209.08145580589255 Q 527.4176776429808 208.526863084922 527.4176776429808 207.97227036395148 Q 527.4176776429808 207.41767764298095 527.9722703639513 207.41767764298095 Q 528.5268630849218 207.41767764298095 529.0814558058925 206.86308492201042 Q 529.6360485268631 206.30849220103988 530.1906412478336 206.30849220103988 Q 530.7452339688041 206.30849220103988 531.2998266897746 206.30849220103988 Q 531.8544194107451 206.30849220103988 532.4090121317156 206.30849220103988 Q 532.9636048526861 206.30849220103988 533.5181975736567 206.86308492201042 Q 534.0727902946273 207.41767764298095 535.1819757365683 207.41767764298095 Q 536.2911611785094 207.41767764298095 536.84575389948 207.97227036395148 Q 537.4003466204506 208.526863084922 537.9549393414211 208.526863084922 Q 538.5095320623916 208.526863084922 539.6187175043326 208.526863084922 Q 540.7279029462736 208.526863084922 541.8370883882147 209.08145580589255 Q 542.9462738301559 209.63604852686308 543.5008665511264 210.1906412478336 Q 544.0554592720969 210.74523396880414 544.6100519930675 210.74523396880414 Q 545.1646447140381 210.74523396880414 546.2738301559791 211.29982668977468 Q 547.3830155979201 211.8544194107452 547.9376083188907 211.8544194107452 Q 548.4922010398614 211.8544194107452 549.6013864818024 212.40901213171577 Q 550.7105719237434 212.96360485268633 551.2651646447139 212.96360485268633 Q 551.8197573656844 212.96360485268633 552.374350086655 213.51819757365686 Q 552.9289428076256 214.0727902946274 553.4835355285961 214.0727902946274 Q 554.0381282495666 214.0727902946274 554.0381282495666 214.62738301559793 Q 554.0381282495666 215.18197573656846 554.5927209705371 215.18197573656846 Q 555.1473136915076 215.18197573656846 555.1473136915076 215.736568457539 Q 555.1473136915076 216.29116117850953 555.7019064124783 216.29116117850953 Q 556.2564991334489 216.29116117850953 556.2564991334489 216.84575389948006 Q 556.2564991334489 217.4003466204506 556.8110918544194 217.4003466204506 Q 557.3656845753899 217.4003466204506 557.3656845753899 217.95493934142112 Q 557.3656845753899 218.50953206239166 557.9202772963604 218.50953206239166 Q 558.4748700173309 218.50953206239166 558.4748700173309 219.06412478336222 Q 558.4748700173309 219.61871750433278 559.0294627383014 219.61871750433278 Q 559.5840554592719 219.61871750433278 559.5840554592719 220.1733102253033 Q 559.5840554592719 220.72790294627384 560.1386481802425 220.72790294627384 Q 560.6932409012131 220.72790294627384 560.6932409012131 221.28249566724438 Q 560.6932409012131 221.8370883882149 561.2478336221836 221.8370883882149 Q 561.8024263431541 221.8370883882149 561.8024263431541 222.39168110918544 Q 561.8024263431541 222.94627383015597 562.3570190641246 222.94627383015597 Q 562.9116117850951 222.94627383015597 562.9116117850951 223.5008665511265 Q 562.9116117850951 224.05545927209704 563.4662045060658 224.05545927209704 Q 564.0207972270364 224.05545927209704 564.0207972270364 224.61005199306757 Q 564.0207972270364 225.1646447140381 564.0207972270364 225.71923743500867 Q 564.0207972270364 226.27383015597923 564.5753899480069 226.82842287694976 L 565.1599826689774 227.4130155979203" stroke-linecap="round" />
</g>
<g transform="matrix(-1 0 0 1 130.05 193.26)" id="_2S8UErAHF02DAdWiiH9r"  >
<path style="stroke: rgb(55,45,39); stroke-width: 30; stroke-dasharray: none; stroke-linecap: butt; stroke-dashoffset: 0; stroke-linejoin: miter; stroke-miterlimit: 4; fill: rgb(255,255,255); fill-opacity: 0; fill-rule: nonzero; opacity: 1;" vector-effect="non-scaling-stroke"  transform=" translate(0, 0)" d="M -20 34.54073 L -60 14.540730000000003 L -60 -34.610049999999994 L -12.372340000000001 -41.691979999999994 L -12.372340000000001 -41.691979999999994 C 4.342949999999998 -44.17743999999999 20.376579999999997 -50.042539999999995 34.75024 -58.92941999999999 L 60 -74.54073 L 60 74.54073 C 60 74.54073 34.07279 44.540729999999996 14.072789999999998 34.540729999999996 C -5.927210000000002 24.540729999999996 -20 34.540729999999996 -20 34.540729999999996 z" stroke-linecap="round" />
</g>
</svg>