<?xml version="1.0" encoding="UTF-8" standalone="no" ?>
<!DOCTYPE svg PUBLIC "-//W3C//DTD SVG 1.1//EN" "http://www.w3.org/Graphics/SVG/1.1/DTD/svg11.dtd">
<svg xmlns="http://www.w3.org/2000/svg" xmlns:xlink="http://www.w3.org/1999/xlink" version="1.1" width="640" height="640" viewBox="0 0 640 640" xml:space="preserve">
<desc>Created with Fabric.js 4.6.0</desc>
<defs>
</defs>
<g transform="matrix(1 0 0 1 305.38 380.97)" id="3_bf_4BJ1BocEVFF2qNut"  >
<path style="stroke: rgb(55,45,39); stroke-width: 30; stroke-dasharray: none; stroke-linecap: round; stroke-dashoffset: 0; stroke-linejoin: round; stroke-miterlimit: 10; fill: none; fill-rule: nonzero; opacity: 1;" vector-effect="non-scaling-stroke"  transform=" translate(-305.38, -380.97)" d="M 311.37987499999997 236.95406250000002 Q 311.37987499999997 236.98406250000002 311.37987499999997 237.407546875 Q 311.37987499999997 237.83103125 311.37987499999997 238.88978125 Q 311.37987499999997 239.94853125 311.37987499999997 240.795515625 Q 311.37987499999997 241.6425 311.16567187499993 242.701234375 Q 310.95146874999995 243.75996875 310.95146874999995 246.300953125 Q 310.95146874999995 248.8419375 310.95146874999995 250.32417187500002 Q 310.95146874999995 251.80640625000004 310.95146874999995 254.347375 Q 310.95146874999995 256.88834375 310.73726562499996 257.94709375 Q 310.5230625 259.00584375 310.094640625 261.5468125 Q 309.66621875 264.08778125 309.45201562499994 265.570015625 Q 309.23781249999996 267.05225 308.809390625 271.28721874999997 Q 308.38096874999997 275.5221875 308.38096874999997 277.639671875 Q 308.38096874999997 279.75715625 307.95254687499994 282.50987499999997 Q 307.52412499999997 285.26259375 307.309921875 286.95657812499996 Q 307.09571874999995 288.6505625 306.88149999999996 290.344546875 Q 306.66728125 292.03853125 306.238875 296.061734375 Q 305.81046875 300.08493749999997 305.59624999999994 302.41417187499997 Q 305.38203124999995 304.74340624999996 304.9536093749999 308.343125 Q 304.52518749999996 311.94284375 304.310984375 313.63682812499997 Q 304.09678125 315.3308125 303.668359375 319.142265625 Q 303.2399375 322.95371875 302.81153125 324.85945312499996 Q 302.38312499999995 326.76518749999997 301.9547031249999 331.00015625 Q 301.52628124999995 335.235125 301.31207812499997 336.929109375 Q 301.097875 338.62309375 301.097875 340.31707812499997 Q 301.097875 342.0110625 301.097875 346.246015625 Q 301.097875 350.48096875 300.88365624999994 352.386703125 Q 300.66943749999996 354.2924375 300.24101562499993 357.68040625000003 Q 299.81259374999996 361.068375 299.598390625 363.18584375 Q 299.3841875 365.3033125 299.598390625 369.96178125 Q 299.81259374999996 374.62025 299.81259374999996 376.52596875 Q 299.81259374999996 378.4316875 299.598390625 382.45490625 Q 299.3841875 386.478125 299.3841875 388.383859375 Q 299.3841875 390.28959375 299.81260937499997 394.312796875 Q 300.24103125 398.336 300.455234375 400.24175 Q 300.66943749999996 402.1475 300.88365624999994 403.62971875 Q 301.097875 405.1119375 301.097875 408.28815625000004 Q 301.097875 411.464375 301.097875 413.158375 Q 301.097875 414.852375 301.31207812499997 417.60509375 Q 301.52628124999995 420.35781249999997 301.74048437499994 421.62828125 Q 301.9546875 422.89875 301.9546875 425.6515 Q 301.9546875 428.40425 302.16890624999996 429.88646874999995 Q 302.38312499999995 431.36868749999996 302.597328125 433.90965625 Q 302.81153125 436.450625 302.81153125 437.509375 Q 302.81153125 438.568125 302.81153125 439.838625 Q 302.81153125 441.109125 302.81153125 443.65009375 Q 302.81153125 446.1910625 302.81153125 447.4615625 Q 302.81153125 448.7320625 302.81153125 451.48478124999997 Q 302.81153125 454.2375 302.81153125 455.71971874999997 Q 302.81153125 457.2019375 303.23995312499994 459.5311875 Q 303.66837499999997 461.8604375 303.66837499999997 462.70740624999996 Q 303.66837499999997 463.554375 303.66837499999997 465.883625 Q 303.66837499999997 468.212875 303.66837499999997 469.27159374999997 Q 303.66837499999997 470.3303125 303.66837499999997 471.3890625 Q 303.66837499999997 472.4478125 303.45415625 474.56528125 Q 303.2399375 476.68275 303.2399375 477.7415 Q 303.2399375 478.80025 303.2399375 481.34121875 Q 303.2399375 483.8821875 303.2399375 485.3644375 Q 303.2399375 486.8466875 303.2399375 488.75240625 Q 303.2399375 490.658125 303.2399375 491.71687499999996 Q 303.2399375 492.775625 303.2399375 494.25784375 Q 303.2399375 495.7400625 303.2399375 496.5870625 Q 303.2399375 497.4340625 303.2399375 498.28106249999996 Q 303.2399375 499.12806249999994 303.2399375 500.61028124999996 Q 303.2399375 502.0925 303.02573437499996 502.9395 Q 302.81153125 503.78650000000005 302.81153125 505.4805 Q 302.81153125 507.17449999999997 302.81153125 508.02146875 Q 302.81153125 508.8684375 302.81153125 510.7741875 Q 302.81153125 512.6799374999999 302.81153125 513.5269375 Q 302.81153125 514.3739375 302.81153125 515.64440625 Q 302.81153125 516.9148749999999 302.81153125 517.338375 Q 302.81153125 517.761875 302.81153125 518.8206250000001 Q 302.81153125 519.879375 303.02573437499996 520.514625 Q 303.2399375 521.149875 303.2399375 521.78509375 Q 303.2399375 522.4203125 303.2399375 523.2673125 Q 303.2399375 524.1143125 303.2399375 524.5378125 L 303.2399375 524.9913124999999" stroke-linecap="round" />
</g>
<g transform="matrix(1 0 0 1 264.25 218.15)" id="yBhXM9ligmjJ3TgYr5Zp0"  >
<path style="stroke: rgb(55,45,39); stroke-width: 30; stroke-dasharray: none; stroke-linecap: round; stroke-dashoffset: 0; stroke-linejoin: round; stroke-miterlimit: 10; fill: none; fill-rule: nonzero; opacity: 1;" vector-effect="non-scaling-stroke"  transform=" translate(-264.25, -218.15)" d="M 310.55306249999995 229.39112500000002 Q 310.5230625 229.36112500000002 309.88043749999997 228.09064062500002 Q 309.23781249999996 226.82015625000003 308.38096874999997 225.54965625000003 Q 307.52412499999997 224.27915625000003 306.45307812499993 223.43217187500002 Q 305.38203124999995 222.58518750000002 301.9546875 220.679453125 Q 298.52734375 218.77371875000003 297.027890625 217.92673437500002 Q 295.5284375 217.07975000000002 293.172140625 215.59750000000003 Q 290.81584375 214.11525 289.744796875 213.69176562500002 Q 288.67375 213.26828125 287.60270312499995 212.84478125 Q 286.53165624999997 212.42128125000002 284.17535937499997 211.78603125 Q 281.8190625 211.15078125000002 277.96329687499997 210.30379687500002 Q 274.10753124999997 209.4568125 272.393859375 209.24506250000002 Q 270.6801875 209.03331250000002 269.39493749999997 208.82156250000003 Q 268.10968749999995 208.6098125 266.39601562499996 208.1863125 Q 264.68234375 207.76281250000002 263.825515625 207.551078125 Q 262.9686875 207.33934375 261.25501562499994 207.12759375000002 Q 259.54134374999995 206.91584375000002 258.68449999999996 206.91584375000002 Q 257.82765624999996 206.91584375000002 256.97082812499997 206.91584375000002 Q 256.114 206.91584375000002 254.400328125 206.91584375000002 Q 252.68665625 206.91584375000002 251.82981249999997 206.91584375000002 Q 250.97296874999995 206.91584375000002 248.61667187499995 206.91584375000002 Q 246.26037499999995 206.91584375000002 244.76092187499995 206.91584375000002 Q 243.26146874999995 206.91584375000002 241.11937499999996 207.12759375000002 Q 238.97728124999998 207.33934375 238.12045312499998 207.551078125 Q 237.263625 207.76281250000002 235.54995312499997 208.1863125 Q 233.83628124999996 208.6098125 232.97943749999996 208.82156250000003 Q 232.12259374999996 209.03331250000002 231.26576562499997 209.24506250000002 Q 230.40893749999998 209.4568125 228.90946874999997 209.8803125 Q 227.40999999999997 210.30381250000002 226.55317187499998 210.30381250000002 Q 225.69634374999998 210.30381250000002 223.98267187499997 210.72729687500004 Q 222.26899999999995 211.15078125000002 221.62637499999997 211.36253125000002 Q 220.98375 211.57428125 220.12690625 211.57428125 Q 219.2700625 211.57428125 219.05585937499998 211.57428125 Q 218.84165624999997 211.57428125 218.41323437499997 211.36253125000002 L 217.95481249999997 211.12078125000002" stroke-linecap="round" />
</g>
<g transform="matrix(1 0 0 1 229.78 160.75)" id="em5MsWIsylG6nABRLo2sB"  >
<path style="stroke: rgb(55,43,43); stroke-width: 30; stroke-dasharray: none; stroke-linecap: round; stroke-dashoffset: 0; stroke-linejoin: round; stroke-miterlimit: 10; fill: none; fill-rule: nonzero; opacity: 1;" vector-effect="non-scaling-stroke"  transform=" translate(-229.78, -160.75)" d="M 208.58962499999998 201.01687500000003 Q 208.55962499999998 200.98687500000003 208.55962499999998 200.563390625 Q 208.55962499999998 200.13990625000002 208.34542187499997 199.50465625000004 Q 208.13121874999996 198.86940625000003 207.48859374999998 197.17542187500004 Q 206.84596875 195.48143750000003 206.63174999999998 193.999203125 Q 206.41753124999997 192.51696875000002 205.56070312499997 189.34075 Q 204.70387499999998 186.16453125 204.48965624999997 184.89404687500002 Q 204.27543749999995 183.62356250000002 204.06123437499997 182.35307812500002 Q 203.84703125 181.08259375 203.63282812499997 179.176859375 Q 203.41862499999996 177.271125 203.41862499999996 176.635875 Q 203.41862499999996 176.000625 203.63282812499997 173.883140625 Q 203.84703125 171.76565625 204.06123437499997 170.495171875 Q 204.27543749999995 169.22468750000002 204.70385937499995 166.47196875000003 Q 205.13228124999995 163.71925000000002 205.34648437499996 162.23701562500003 Q 205.56068749999997 160.75478125 205.98910937499997 158.213796875 Q 206.41753124999997 155.67281250000002 206.84595312499997 154.61407812500002 Q 207.27437499999996 153.55534375000002 207.48857812499998 152.70834375 Q 207.70278125 151.86134375 208.55962499999998 150.167359375 Q 209.41646874999998 148.473375 210.27329687499997 147.626390625 Q 211.13012499999996 146.77940625000002 213.27221874999998 145.297171875 Q 215.4143125 143.8149375 216.48535937499997 143.1796875 Q 217.55640624999995 142.54443750000002 218.84165624999997 141.062203125 Q 220.12690625 139.57996875 220.76953124999997 138.521234375 Q 221.41215624999995 137.4625 223.12582812499997 135.55676562500003 Q 224.8395 133.65103125000002 225.69632812499998 132.8040390625 Q 226.55315624999997 131.957046875 228.48104687499998 130.2630625 Q 230.40893749999998 128.569078125 231.26576562499997 127.93383593749999 Q 232.12259374999996 127.29859375 232.97943749999996 126.6633515625 Q 233.83628124999996 126.028109375 237.47782812499997 125.18111718749999 Q 241.119375 124.33412499999999 242.61884374999997 123.910625 Q 244.11831249999994 123.487125 245.83196874999996 123.0636328125 Q 247.54562499999997 122.640140625 248.40246874999997 122.428390625 Q 249.25931249999996 122.21664062500001 250.54456249999996 121.793140625 Q 251.82981249999995 121.369640625 252.68665624999997 121.1578984375 Q 253.5435 120.94615624999999 254.82874999999999 120.73440624999999 L 256.14399999999995 120.49265625" stroke-linecap="round" />
</g>
<g transform="matrix(1 0 0 1 285.03 98.25)" id="2LMhMH1PhoNjmAYj3Kd3z"  >
<path style="stroke: rgb(62,53,53); stroke-width: 30; stroke-dasharray: none; stroke-linecap: round; stroke-dashoffset: 0; stroke-linejoin: round; stroke-miterlimit: 10; fill: none; fill-rule: nonzero; opacity: 1;" vector-effect="non-scaling-stroke"  transform=" translate(-285.03, -98.25)" d="M 253.08506249999996 108.211265625 Q 253.11506249999996 108.241265625 253.54348437499996 108.45301562499999 Q 253.97190624999996 108.66476562499999 254.61453124999997 109.08826562499999 Q 255.25715624999998 109.511765625 256.32820312499996 110.1470078125 Q 257.39925 110.78224999999999 257.82767187499996 110.994 Q 258.25609375 111.20575000000001 258.68449999999996 111.4174921875 Q 259.11290625 111.629234375 259.96975 111.4174921875 Q 260.82659375 111.20575000000001 261.46921875 111.20575000000001 Q 262.11184375 111.20575000000001 262.75446875 111.20575000000001 Q 263.39709374999995 111.20575000000001 264.25393749999995 111.20575000000001 Q 265.11078124999995 111.20575000000001 267.0386562499999 111.20575000000001 Q 268.96653124999995 111.20575000000001 269.823359375 110.994 Q 270.6801875 110.78224999999999 272.393859375 110.35875 Q 274.10753124999997 109.93525000000001 274.75015625 109.7235078125 Q 275.39278125 109.511765625 276.035421875 109.300015625 Q 276.67806249999995 109.088265625 278.39171875 108.2412734375 Q 280.105375 107.39428124999999 280.96221875 106.97078124999999 Q 281.8190625 106.54728125 283.31853125 105.488546875 Q 284.818 104.4298125 285.674828125 103.7945703125 Q 286.53165624999997 103.159328125 288.24532812499996 101.67708593750001 Q 289.95899999999995 100.19484375 291.0300468749999 99.5596015625 Q 292.10109374999996 98.924359375 293.172140625 98.5008671875 Q 294.2431875 98.077375 296.599484375 97.23038281250001 Q 298.95578125 96.383390625 299.81260937499997 95.959890625 Q 300.66943749999996 95.536390625 302.16890624999996 94.68939843749999 Q 303.66837499999997 93.84240625 304.311 93.4189140625 Q 304.953625 92.995421875 306.02467187499997 92.1484296875 Q 307.09571874999995 91.30143749999999 307.52412499999997 90.8779375 Q 307.95253125 90.4544375 308.809375 90.0309453125 Q 309.66621875 89.60745312499999 310.30884374999994 89.18395312499999 Q 310.95146874999995 88.760453125 311.808296875 88.1252109375 Q 312.665125 87.48996875 313.093546875 87.27821875000001 Q 313.52196875 87.06646875 313.95039062499995 86.85472656249999 Q 314.3788125 86.642984375 315.235640625 86.007734375 Q 316.09246874999997 85.372484375 316.520890625 85.1607421875 L 316.97931249999993 84.919" stroke-linecap="round" />
</g>
<g transform="matrix(1 0 0 1 348.21 129.64)" id="-pX-9Rs98wD9EC1xGbxF9"  >
<path style="stroke: rgb(55,45,39); stroke-width: 30; stroke-dasharray: none; stroke-linecap: round; stroke-dashoffset: 0; stroke-linejoin: round; stroke-miterlimit: 10; fill: none; fill-rule: nonzero; opacity: 1;" vector-effect="non-scaling-stroke"  transform=" translate(-348.21, -129.64)" d="M 315.6340625 84.132 Q 315.6640625 84.102 315.878265625 83.6785078125 Q 316.09246874999997 83.255015625 316.30668749999995 82.83151562500001 Q 316.52090625 82.408015625 316.735109375 82.196265625 Q 316.94931249999996 81.984515625 317.80615624999996 81.7727734375 Q 318.66299999999995 81.56103125 319.519828125 81.34928124999999 Q 320.37665625 81.13753125 323.161375 80.92578125 Q 325.94609375 80.71403125 327.01714062499997 80.71403125 Q 328.08818749999995 80.71403125 330.0160625 80.71403125 Q 331.94393749999995 80.71403125 332.80076562499994 80.71403125 Q 333.65759375 80.71403125 335.58548437499996 80.92578125 Q 337.513375 81.13753125 338.584421875 81.34928124999999 Q 339.65546874999995 81.56103125 342.4401718749999 81.9845234375 Q 345.22487499999994 82.408015625 346.72434374999995 82.83151562500001 Q 348.22381249999995 83.255015625 351.00853125 84.1020078125 Q 353.79325 84.949 354.650078125 85.1607421875 Q 355.50690625 85.372484375 356.149546875 85.79598437499999 Q 356.7921875 86.219484375 358.291625 87.70171875 Q 359.7910625 89.183953125 360.43371874999997 90.0309453125 Q 361.0763749999999 90.8779375 361.9331875 92.148421875 Q 362.79 93.41890624999999 363.2184375 94.2658984375 Q 363.64687499999997 95.11289062499999 364.50368749999996 96.80687499999999 Q 365.36049999999994 98.500859375 365.7889375 99.34785156250001 Q 366.217375 100.19484375 366.64578124999997 101.25358593749999 Q 367.07418749999994 102.312328125 367.93103124999993 104.64155468749999 Q 368.78787499999993 106.97078125 369.21628124999995 108.2412734375 Q 369.6446875 109.511765625 370.2873125 112.264484375 Q 370.9299375 115.017203125 371.14415625 116.28769531249999 Q 371.35837499999997 117.55818749999999 372.001 119.8874140625 Q 372.643625 122.21664062500001 372.85784375 123.0636328125 Q 373.07206249999996 123.910625 373.71468749999997 126.02810156250001 Q 374.3573125 128.14557812500001 374.78571875 129.20432031250002 Q 375.214125 130.26306250000002 376.07096875 132.59228906250002 Q 376.9278125 134.921515625 377.35621875 135.9802578125 Q 377.78462499999995 137.03900000000002 378.42724999999996 139.36823437500001 Q 379.06987499999997 141.69746875 379.06987499999997 142.756203125 Q 379.06987499999997 143.8149375 379.06987499999997 145.085421875 Q 379.06987499999997 146.35590625 379.28409374999995 148.685140625 Q 379.49831249999994 151.014375 379.49831249999994 152.073109375 Q 379.49831249999994 153.13184375 379.71253125 155.46107812500003 Q 379.92675 157.79031250000003 380.1409375 158.637296875 Q 380.355125 159.48428125 380.56934375 161.813515625 Q 380.78356249999996 164.14275 380.78356249999996 164.989734375 Q 380.78356249999996 165.83671875000002 380.78356249999996 166.68371875000003 Q 380.78356249999996 167.53071875 380.78356249999996 169.6481875 Q 380.78356249999996 171.76565625 380.78356249999996 172.82440625 Q 380.78356249999996 173.88315625 380.78356249999996 175.36539062500003 Q 380.78356249999996 176.84762500000002 380.78356249999996 177.48285937500003 Q 380.78356249999996 178.11809375 380.78356249999996 178.32984375 L 380.78356249999996 178.57159375" stroke-linecap="round" />
</g>
<g transform="matrix(1 0 0 1 350.15 200.35)" id="cAiIrFlrOWAYNIMecggpM"  >
<path style="stroke: rgb(55,45,39); stroke-width: 30; stroke-dasharray: none; stroke-linecap: round; stroke-dashoffset: 0; stroke-linejoin: round; stroke-miterlimit: 10; fill: none; fill-rule: nonzero; opacity: 1;" vector-effect="non-scaling-stroke"  transform=" translate(-350.15, -200.35)" d="M 382.0688125 160.72478125 Q 382.0688125 160.75478125 382.0688125 161.39001562500002 Q 382.0688125 162.02525000000003 382.0688125 162.23700000000002 Q 382.0688125 162.44875000000002 382.0688125 162.87225 Q 382.0688125 163.29575000000003 381.64040624999996 163.50750000000002 Q 381.21199999999993 163.71925000000002 380.569375 163.931 Q 379.92675 164.14275 378.42728125 164.989734375 Q 376.9278125 165.83671875000002 376.2851875 166.47196875000003 Q 375.6425625 167.10721875000002 374.14309375 168.58945312500003 Q 372.643625 170.07168750000002 371.78678125 171.13042187500002 Q 370.9299375 172.18915625000002 369.43046875 173.45964062500002 Q 367.931 174.73012500000002 367.0741875 175.36537500000003 Q 366.217375 176.000625 364.71790625 177.271109375 Q 363.2184375 178.54159375 362.36159375 179.38859375 Q 361.50475 180.23559375000002 360.43371874999997 181.50607812500002 Q 359.36268749999994 182.7765625 356.57796874999997 184.89404687500002 Q 353.79325 187.01153125000002 352.508 187.858515625 Q 351.22274999999996 188.7055 348.86645312499996 190.39948437500001 Q 346.51015624999997 192.09346875000003 345.65331249999997 192.94046875000004 Q 344.79646875 193.78746875000002 343.082796875 195.69320312500003 Q 341.369125 197.5989375 340.51229687499995 198.445921875 Q 339.65546874999995 199.29290625000002 338.15599999999995 200.775140625 Q 336.65653125 202.25737500000002 335.79970312499995 203.104375 Q 334.94287499999996 203.951375 333.871828125 205.010109375 Q 332.80078125 206.06884375 331.08710937499995 208.18632812500002 Q 329.37343749999997 210.30381250000002 328.73081249999996 210.93904687500003 Q 328.08818749999995 211.57428125 327.23134374999995 213.05651562500003 Q 326.37449999999995 214.53875000000002 325.73187499999995 215.17400000000004 Q 325.08925 215.80925000000002 323.804 217.50323437500003 Q 322.51874999999995 219.19721875000002 322.0903281249999 220.25595312500002 Q 321.66190624999996 221.31468750000002 321.233484375 223.008671875 Q 320.80506249999996 224.70265625000002 320.590859375 225.33790625 Q 320.37665625 225.97315625000002 319.94823437499997 227.243640625 Q 319.5198125 228.514125 319.305609375 229.14937500000002 Q 319.09140625 229.784625 318.87720312499994 230.631609375 Q 318.66299999999995 231.47859375000002 318.44878124999997 233.17257812500003 Q 318.2345625 234.86656250000001 318.2345625 235.50181250000003 Q 318.2345625 236.13706250000004 318.2345625 237.40754687500004 Q 318.2345625 238.67803125000003 318.2345625 239.31328125000002 L 318.2345625 239.97853125" stroke-linecap="round" />
</g>
<g transform="matrix(1 0 0 1 347.58 208.2)" id="FpCzepQnQJ-uN-Qy0uEaO"  >
<path style="stroke: rgb(55,45,39); stroke-width: 30; stroke-dasharray: none; stroke-linecap: round; stroke-dashoffset: 0; stroke-linejoin: round; stroke-miterlimit: 10; fill: none; fill-rule: nonzero; opacity: 1;" vector-effect="non-scaling-stroke"  transform=" translate(-347.58, -208.2)" d="M 367.532625 189.12900000000002 Q 367.502625 189.12900000000002 366.64578125 189.12900000000002 Q 365.78893750000003 189.12900000000002 365.36053125 189.12900000000002 Q 364.932125 189.12900000000002 363.8610625 190.18773437500002 Q 362.79 191.24646875000002 361.9331875 192.30521875000002 Q 361.0763749999999 193.36396875000003 359.79109374999996 194.63445312500002 Q 358.5058125 195.90493750000002 355.9353125 198.02242187500002 Q 353.3648125 200.13990625000002 352.0795625 201.19864062500002 Q 350.7943125 202.25737500000002 348.86643749999996 204.37485937500003 Q 346.93856249999993 206.49234375 346.08171874999994 207.551078125 Q 345.22487499999994 208.6098125 343.51120312499995 210.727296875 Q 341.79753124999996 212.84478125 340.94070312499997 214.115265625 Q 340.083875 215.38575 338.370203125 217.291484375 Q 336.65653125 219.19721875000002 336.228109375 219.83246875000003 Q 335.79968749999995 220.46771875000002 334.94285937499995 221.31470312500002 Q 334.08603124999996 222.16168750000003 332.372359375 223.64392187500002 Q 330.6586875 225.12615625 329.15921875 226.184890625 L 327.62975 227.273625" stroke-linecap="round" />
</g>
<g transform="matrix(1 0 0 1 333.31 163.33)" id="aR2fv0joobqYd4Pse5Hq8"  >
<path style="stroke: rgb(247,47,58); stroke-width: 30; stroke-dasharray: none; stroke-linecap: round; stroke-dashoffset: 0; stroke-linejoin: round; stroke-miterlimit: 10; fill: none; fill-rule: nonzero; opacity: 1;" vector-effect="non-scaling-stroke"  transform=" translate(-333.31, -163.33)" d="M 306.688 109.538 Q 306.688 109.568 306.688 110.08 Q 306.688 110.592 306.688 111.104 Q 306.688 111.616 307.2 113.664 Q 307.712 115.712 308.224 119.296 Q 308.736 122.88000000000001 308.736 125.44 Q 308.736 127.99999999999999 308.736 129.024 Q 308.736 130.048 308.736 130.56 Q 308.736 131.072 308.736 131.584 Q 308.736 132.096 309.248 133.12 Q 309.76 134.144 310.272 136.192 Q 310.784 138.24 310.784 140.8 Q 310.784 143.36 310.784 144.38400000000001 Q 310.784 145.40800000000002 310.784 145.92000000000002 Q 310.784 146.43200000000002 310.784 146.94400000000002 Q 310.784 147.45600000000002 311.296 150.52800000000002 Q 311.808 153.60000000000002 312.32 155.64800000000002 Q 312.832 157.69600000000003 312.832 159.23200000000003 Q 312.832 160.768 313.344 161.28 Q 313.856 161.792 313.856 162.304 Q 313.856 162.816 313.856 163.328 Q 313.856 163.84 314.368 166.4 Q 314.88 168.96 315.392 174.08 Q 315.904 179.20000000000002 316.928 187.904 Q 317.952 196.608 318.464 199.168 Q 318.976 201.728 318.976 202.24 Q 318.976 202.752 318.976 203.264 Q 318.976 203.776 318.976 204.288 Q 318.976 204.8 318.976 205.312 Q 318.976 205.824 318.976 206.336 Q 318.976 206.848 318.464 207.36 Q 317.952 207.872 317.952 208.38400000000001 Q 317.952 208.89600000000002 317.952 211.45600000000002 Q 317.952 214.01600000000002 317.44 216.06400000000002 Q 316.928 218.11200000000002 316.928 218.62400000000002 Q 316.928 219.13600000000002 316.928 219.64800000000002 Q 316.928 220.16000000000003 316.416 220.16000000000003 Q 315.904 220.16000000000003 316.416 220.16000000000003 Q 316.928 220.16000000000003 317.44 220.16000000000003 Q 317.952 220.16000000000003 318.464 219.64800000000002 Q 318.976 219.13600000000002 319.488 218.62400000000002 Q 320 218.11200000000002 320.512 217.60000000000002 Q 321.024 217.08800000000002 322.048 216.57600000000002 Q 323.07199999999995 216.06400000000002 323.07199999999995 215.55200000000002 Q 323.07199999999995 215.04000000000002 324.09599999999995 214.52800000000002 Q 325.11999999999995 214.01600000000002 325.63199999999995 213.50400000000002 Q 326.14399999999995 212.99200000000002 326.65599999999995 211.96800000000002 Q 327.16799999999995 210.94400000000002 327.67999999999995 210.43200000000002 Q 328.19199999999995 209.92000000000002 328.70399999999995 209.40800000000002 Q 329.21599999999995 208.89600000000002 329.72799999999995 208.38400000000001 Q 330.23999999999995 207.872 330.75199999999995 207.36 Q 331.26399999999995 206.848 331.77599999999995 205.824 Q 332.28799999999995 204.8 332.79999999999995 204.8 Q 333.31199999999995 204.8 333.31199999999995 204.288 Q 333.31199999999995 203.776 333.31199999999995 203.264 Q 333.31199999999995 202.752 333.82399999999996 202.752 Q 334.33599999999996 202.752 334.84799999999996 201.216 Q 335.35999999999996 199.68 335.87199999999996 198.656 Q 336.38399999999996 197.632 336.89599999999996 197.12 Q 337.40799999999996 196.608 337.91999999999996 195.584 Q 338.43199999999996 194.56 338.43199999999996 194.048 Q 338.43199999999996 193.536 338.94399999999996 193.024 Q 339.45599999999996 192.51200000000003 340.47999999999996 190.97600000000003 Q 341.50399999999996 189.44000000000003 342.01599999999996 188.92800000000003 Q 342.52799999999996 188.41600000000003 343.03999999999996 187.39200000000002 Q 343.55199999999996 186.36800000000002 344.06399999999996 186.36800000000002 Q 344.57599999999996 186.36800000000002 344.57599999999996 185.85600000000002 Q 344.57599999999996 185.34400000000002 344.57599999999996 184.83200000000002 Q 344.57599999999996 184.32000000000002 345.08799999999997 184.32000000000002 Q 345.59999999999997 184.32000000000002 346.11199999999997 183.29600000000002 Q 346.62399999999997 182.27200000000002 346.62399999999997 181.76000000000002 Q 346.62399999999997 181.24800000000002 347.13599999999997 181.24800000000002 Q 347.64799999999997 181.24800000000002 347.64799999999997 180.73600000000002 Q 347.64799999999997 180.22400000000002 348.15999999999997 179.20000000000002 Q 348.67199999999997 178.17600000000002 348.67199999999997 177.66400000000002 Q 348.67199999999997 177.15200000000002 349.18399999999997 176.12800000000001 Q 349.69599999999997 175.104 349.69599999999997 174.592 Q 349.69599999999997 174.08 350.20799999999997 172.544 Q 350.71999999999997 171.008 351.74399999999997 169.472 Q 352.768 167.936 352.768 167.424 Q 352.768 166.912 352.768 166.4 Q 352.768 165.888 353.28 165.376 Q 353.792 164.864 353.792 164.352 Q 353.792 163.84 353.792 163.328 Q 353.792 162.816 354.304 161.792 Q 354.816 160.768 355.328 159.74400000000003 Q 355.84 158.72000000000003 355.84 158.20800000000003 Q 355.84 157.69600000000003 355.84 157.18400000000003 Q 355.84 156.67200000000003 356.352 156.67200000000003 Q 356.864 156.67200000000003 356.864 156.16000000000003 Q 356.864 155.64800000000002 356.864 155.13600000000002 Q 356.864 154.62400000000002 357.376 154.11200000000002 Q 357.888 153.60000000000002 357.888 153.08800000000002 Q 357.888 152.57600000000002 358.4 152.06400000000002 Q 358.912 151.55200000000002 358.912 151.04000000000002 Q 358.912 150.52800000000002 358.912 150.01600000000002 Q 358.912 149.50400000000002 359.424 148.99200000000002 Q 359.936 148.48000000000002 359.936 147.45600000000002 Q 359.936 146.43200000000002 359.936 145.40800000000002 Q 359.936 144.38400000000001 359.936 143.872 Q 359.936 143.36 359.424 142.848 Q 358.912 142.336 358.912 141.824 Q 358.912 141.312 358.912 140.8 Q 358.912 140.288 358.4 139.776 Q 357.888 139.264 357.888 138.752 Q 357.888 138.24 357.376 136.704 Q 356.864 135.168 356.864 133.632 Q 356.864 132.096 356.864 131.072 Q 356.864 130.048 356.864 129.536 Q 356.864 129.024 356.864 128.512 Q 356.864 127.99999999999999 356.352 126.976 Q 355.84 125.95200000000001 355.84 125.44000000000001 Q 355.84 124.92800000000001 355.84 123.90400000000001 Q 355.84 122.88000000000001 355.328 122.36800000000001 Q 354.816 121.85600000000001 354.816 121.34400000000001 Q 354.816 120.83200000000001 354.816 120.32000000000001 Q 354.816 119.808 354.304 119.296 Q 353.792 118.784 353.792 118.272 Q 353.792 117.76 353.792 117.248 Q 353.792 116.736 353.28 116.224 Q 352.768 115.712 352.768 115.2 Q 352.768 114.688 352.768 114.176 Q 352.768 113.664 352.256 113.664 Q 351.74399999999997 113.664 351.74399999999997 113.152 Q 351.74399999999997 112.64 351.23199999999997 112.64 Q 350.71999999999997 112.64 350.71999999999997 112.128 Q 350.71999999999997 111.616 350.20799999999997 111.616 Q 349.69599999999997 111.616 349.69599999999997 111.104 Q 349.69599999999997 110.592 349.18399999999997 110.592 Q 348.67199999999997 110.592 348.67199999999997 110.08 Q 348.67199999999997 109.568 348.15999999999997 109.568 Q 347.64799999999997 109.568 347.64799999999997 109.056 Q 347.64799999999997 108.544 347.13599999999997 108.544 Q 346.62399999999997 108.544 346.62399999999997 108.032 Q 346.62399999999997 107.52 346.11199999999997 107.52 Q 345.59999999999997 107.52 345.59999999999997 107.008 Q 345.59999999999997 106.496 345.08799999999997 106.496 Q 344.57599999999996 106.496 344.06399999999996 106.496 Q 343.55199999999996 106.496 343.03999999999996 106.496 Q 342.52799999999996 106.496 342.01599999999996 106.496 Q 341.50399999999996 106.496 340.99199999999996 106.496 Q 340.47999999999996 106.496 339.96799999999996 106.496 Q 339.45599999999996 106.496 338.94399999999996 106.496 Q 338.43199999999996 106.496 337.91999999999996 106.496 Q 337.40799999999996 106.496 336.89599999999996 106.496 Q 336.38399999999996 106.496 335.87199999999996 106.496 Q 335.35999999999996 106.496 334.84799999999996 106.496 Q 334.33599999999996 106.496 333.82399999999996 106.496 Q 333.31199999999995 106.496 332.79999999999995 106.496 Q 332.28799999999995 106.496 331.77599999999995 106.496 Q 331.26399999999995 106.496 330.75199999999995 106.496 Q 330.23999999999995 106.496 329.72799999999995 106.496 Q 329.21599999999995 106.496 328.70399999999995 106.496 Q 328.19199999999995 106.496 327.67999999999995 106.496 Q 327.16799999999995 106.496 327.16799999999995 107.008 Q 327.16799999999995 107.52 327.16799999999995 108.032 Q 327.16799999999995 108.544 327.16799999999995 109.056 Q 327.16799999999995 109.568 327.16799999999995 110.08 Q 327.16799999999995 110.592 327.67999999999995 111.104 Q 328.19199999999995 111.616 328.19199999999995 112.64 Q 328.19199999999995 113.664 328.70399999999995 114.176 Q 329.21599999999995 114.688 329.72799999999995 115.2 Q 330.23999999999995 115.712 330.75199999999995 116.736 Q 331.26399999999995 117.76 331.26399999999995 118.272 Q 331.26399999999995 118.784 331.77599999999995 119.808 Q 332.28799999999995 120.83200000000001 332.28799999999995 121.85600000000001 Q 332.28799999999995 122.88000000000001 332.79999999999995 123.39200000000001 Q 333.31199999999995 123.90400000000001 333.31199999999995 124.41600000000001 Q 333.31199999999995 124.92800000000001 333.82399999999996 125.44000000000001 Q 334.33599999999996 125.95200000000001 334.33599999999996 126.46400000000001 Q 334.33599999999996 126.97600000000001 334.33599999999996 127.488 Q 334.33599999999996 127.99999999999999 334.33599999999996 128.512 Q 334.33599999999996 129.024 334.33599999999996 129.536 Q 334.33599999999996 130.048 334.33599999999996 130.56 Q 334.33599999999996 131.072 334.84799999999996 132.096 Q 335.35999999999996 133.12 335.35999999999996 133.632 Q 335.35999999999996 134.144 335.35999999999996 134.656 Q 335.35999999999996 135.168 335.35999999999996 135.68 Q 335.35999999999996 136.192 335.35999999999996 136.704 Q 335.35999999999996 137.216 335.35999999999996 137.728 Q 335.35999999999996 138.24 334.84799999999996 138.752 Q 334.33599999999996 139.264 334.33599999999996 139.776 Q 334.33599999999996 140.288 334.33599999999996 140.8 Q 334.33599999999996 141.312 334.33599999999996 141.824 Q 334.33599999999996 142.336 334.33599999999996 142.848 Q 334.33599999999996 143.36 334.33599999999996 143.872 Q 334.33599999999996 144.38400000000001 333.82399999999996 144.38400000000001 Q 333.31199999999995 144.38400000000001 333.31199999999995 144.89600000000002 Q 333.31199999999995 145.40800000000002 333.31199999999995 145.92000000000002 Q 333.31199999999995 146.43200000000002 333.31199999999995 146.94400000000002 Q 333.31199999999995 147.45600000000002 333.31199999999995 147.96800000000002 Q 333.31199999999995 148.48000000000002 333.31199999999995 148.99200000000002 Q 333.31199999999995 149.50400000000002 333.31199999999995 150.01600000000002 Q 333.31199999999995 150.52800000000002 332.79999999999995 151.55200000000002 Q 332.28799999999995 152.57600000000002 332.28799999999995 153.60000000000002 Q 332.28799999999995 154.62400000000002 332.28799999999995 155.13600000000002 Q 332.28799999999995 155.64800000000002 332.28799999999995 156.16000000000003 Q 332.28799999999995 156.67200000000003 332.28799999999995 157.18400000000003 Q 332.28799999999995 157.69600000000003 332.28799999999995 158.20800000000003 Q 332.28799999999995 158.72000000000003 332.28799999999995 159.74400000000003 Q 332.28799999999995 160.768 332.28799999999995 161.28 Q 332.28799999999995 161.792 331.77599999999995 161.792 Q 331.26399999999995 161.792 331.26399999999995 162.304 Q 331.26399999999995 162.816 331.26399999999995 163.328 Q 331.26399999999995 163.84 330.75199999999995 164.352 Q 330.23999999999995 164.864 330.23999999999995 165.376 Q 330.23999999999995 165.888 329.72799999999995 165.888 Q 329.21599999999995 165.888 329.21599999999995 166.4 Q 329.21599999999995 166.912 329.21599999999995 167.424 Q 329.21599999999995 167.936 329.21599999999995 168.96 L 329.21599999999995 170.014" stroke-linecap="round" />
</g>
</svg>