<?xml version="1.0" encoding="UTF-8" standalone="no" ?>
<!DOCTYPE svg PUBLIC "-//W3C//DTD SVG 1.1//EN" "http://www.w3.org/Graphics/SVG/1.1/DTD/svg11.dtd">
<svg xmlns="http://www.w3.org/2000/svg" xmlns:xlink="http://www.w3.org/1999/xlink" version="1.1" width="640" height="640" viewBox="0 0 640 640" xml:space="preserve">
<desc>Created with Fabric.js 4.6.0</desc>
<defs>
</defs>
<g transform="matrix(1 0 0 1 310.31 231.9)" id="4Z3L6ksdpGBfAVB7Lz6yG"  >
<path style="stroke: rgb(103,78,78); stroke-width: 10; stroke-dasharray: none; stroke-linecap: round; stroke-dashoffset: 0; stroke-linejoin: round; stroke-miterlimit: 10; fill: none; fill-rule: nonzero; opacity: 1;" vector-effect="non-scaling-stroke"  transform=" translate(-310.31, -231.9)" d="M 448.0461249999999 281.87562499999996 Q 448.0451249999999 281.874625 448.0451249999999 281.451125 Q 448.0451249999999 281.027625 447.61671874999996 280.180640625 Q 447.1883125 279.33365625 445.9030625 276.369171875 Q 444.61781249999996 273.40468749999997 443.54678125 271.28721874999997 Q 442.47575 269.16974999999996 439.4768125 263.876046875 Q 436.477875 258.58234375 434.7641875 255.82962500000002 Q 433.0505 253.07690625 430.47999999999996 249.05368750000002 Q 427.9094999999999 245.03046875000004 427.05268749999993 243.54823437500002 Q 426.19587499999994 242.066 423.83956249999994 238.67803125 Q 421.48324999999994 235.2900625 419.76959374999996 233.17257812500003 Q 418.05593749999997 231.05509375000003 414.62859375 226.60839062500003 Q 411.20125 222.16168750000003 409.05915625 220.25595312500002 Q 406.9170625 218.35021875 405.203375 217.07973437500002 Q 403.4896875 215.80925000000002 400.49078125 213.26828125000003 Q 397.491875 210.7273125 395.7781875 209.4568125 Q 394.0645 208.1863125 389.99453124999997 205.22184375 Q 385.9245624999999 202.25737500000002 383.35406249999994 200.986890625 Q 380.78356249999996 199.71640625 377.35621875 197.81067187500003 Q 373.928875 195.90493750000002 372.643625 195.26968750000003 Q 371.35837499999997 194.63443750000002 368.57365625 192.94045312500003 Q 365.78893750000003 191.24646875000002 363.64684375 190.61123437500004 Q 361.50475 189.97600000000003 358.291625 189.34075 Q 355.0785 188.7055 349.937484375 187.858515625 Q 344.79646875 187.01153125000002 342.22596875 186.79978125000002 Q 339.65546874999995 186.58803125000003 332.372359375 185.74103125000002 Q 325.08925 184.89403125 322.94715625 184.68229687500002 Q 320.80506249999996 184.47056250000003 316.94931249999996 184.04706250000004 Q 313.09356249999996 183.62356250000002 310.523046875 183.4118125 Q 307.95253125 183.2000625 301.3120625 182.56481250000002 Q 294.67159375 181.9295625 292.74371874999997 181.9295625 Q 290.81584375 181.9295625 288.67375 181.9295625 Q 286.53165624999997 181.9295625 281.39064062499995 182.35306250000002 Q 276.249625 182.7765625 273.679125 182.9883125 Q 271.10862499999996 183.2000625 268.32390624999994 183.4118125 Q 265.53918749999997 183.62356250000002 264.46814062499993 183.83531250000001 Q 263.39709374999995 184.0470625 261.04079687499996 184.25881250000003 Q 258.68449999999996 184.47056250000003 257.613453125 184.68229687500002 Q 256.54240625 184.89403125 253.75768749999997 185.31753125 Q 250.97296874999995 185.74103125000002 248.83089062499997 186.16453125000004 Q 246.68881249999998 186.58803125000003 243.26146874999998 187.223265625 Q 239.83412499999997 187.85850000000002 238.54887499999998 188.282 Q 237.263625 188.7055 236.19257812499998 189.12900000000002 Q 235.12153124999998 189.5525 232.76523437499998 190.82298437500003 Q 230.40893749999998 192.09346875000003 228.90946874999997 192.94046875000004 Q 227.40999999999997 193.78746875000002 224.62528124999997 195.69320312500003 Q 221.84056249999998 197.5989375 220.126890625 198.657671875 Q 218.41321875 199.71640625 215.62851562499998 201.62214062500001 Q 212.84381249999996 203.52787500000002 212.20118749999997 204.37485937500003 Q 211.5585625 205.22184375 210.27329687499997 206.91582812500002 Q 208.98803124999995 208.6098125 208.34540624999997 209.4568125 Q 207.70278125 210.30381250000002 206.84595312499997 211.15079687500003 Q 205.98912499999994 211.99778125 204.27545312499996 213.903515625 Q 202.56178124999997 215.80925000000002 201.91915624999996 216.86798437500002 Q 201.27653124999995 217.92671875000002 199.99128124999996 220.467703125 Q 198.70603124999997 223.0086875 198.27760937499997 224.27917187500003 Q 197.84918749999997 225.54965625000003 196.34971874999997 227.667140625 Q 194.85024999999996 229.784625 194.20762499999998 230.843359375 Q 193.565 231.90209375 191.85132812499998 233.59607812500002 Q 190.13765624999996 235.2900625 189.49503124999995 236.348796875 Q 188.85240624999994 237.40753125 187.99557812499995 238.25453125 Q 187.13874999999996 239.10153125000002 185.63928124999995 241.21901562500003 Q 184.13981249999995 243.33650000000003 183.28298437499996 244.39523437500003 Q 182.42615624999996 245.45396875000003 181.35510937499996 247.78320312500003 Q 180.28406249999995 250.11243750000003 179.85564062499995 251.17117187500003 Q 179.42721874999995 252.22990625000003 178.78459374999997 253.923890625 Q 178.14196875 255.617875 177.92774999999997 256.253109375 Q 177.71353124999996 256.88834375 177.28512499999997 257.94709375 Q 176.85671874999997 259.00584375 176.64249999999998 259.42934375 Q 176.42828125 259.85284375 176.214078125 260.27632812499996 Q 175.99987499999997 260.6998125 175.57145312499998 261.5468125 Q 175.14303124999998 262.39381249999997 174.92882812499997 262.81731249999996 Q 174.71462499999996 263.2408125 174.28620312499996 264.29954687500003 Q 173.85778124999996 265.35828125 173.64357812499998 265.99353125 Q 173.429375 266.62878125 173.21515624999998 267.475765625 Q 173.00093749999996 268.32275 173.00093749999996 268.5345 Q 173.00093749999996 268.74625 173.00093749999996 269.16975 Q 173.00093749999996 269.59325 173.00093749999996 269.804984375 Q 173.00093749999996 270.01671875 173.00093749999996 270.44021875 Q 173.00093749999996 270.86371875 172.78673437499998 271.28721874999997 Q 172.57253125 271.71071875 172.57253125 272.34596875 L 172.57253125 272.98221874999996" stroke-linecap="round" />
</g>
<g transform="matrix(1 0 0 1 311.85 258.16)" id="N4M8EhJaxdaiwoJ-IyeJs"  >
<path style="stroke: rgb(103,78,78); stroke-width: 10; stroke-dasharray: none; stroke-linecap: round; stroke-dashoffset: 0; stroke-linejoin: round; stroke-miterlimit: 10; fill: none; fill-rule: nonzero; opacity: 1;" vector-effect="non-scaling-stroke"  transform=" translate(-311.85, -258.16)" d="M 315.24565624999997 147.61640625 Q 315.23565625 147.62640625 315.23565625 147.83815625 Q 315.23565625 148.04990625000002 315.02143749999993 148.47339062500004 Q 314.80721874999995 148.89687500000002 314.59301562499996 149.320375 Q 314.3788125 149.743875 313.95039062499995 150.590875 Q 313.52196875 151.43787500000002 313.307765625 152.284859375 Q 313.09356249999996 153.13184375 312.87934375 155.67282812500002 Q 312.665125 158.21381250000002 312.665125 160.11953125000002 Q 312.665125 162.02525000000003 312.665125 164.14273437500003 Q 312.665125 166.26021875 312.87934375 170.2834375 Q 313.09356249999996 174.30665625 313.09356249999996 176.00064062500002 Q 313.09356249999996 177.694625 313.307765625 181.506078125 Q 313.52196875 185.31753125 313.52196875 187.646765625 Q 313.52196875 189.97600000000003 313.95039062499995 194.84620312500002 Q 314.3788125 199.71640625 314.3788125 201.62214062500001 Q 314.3788125 203.52787500000002 314.3788125 206.91584375000002 Q 314.3788125 210.30381250000002 314.16460937499994 211.786046875 Q 313.95040624999996 213.26828125 313.521984375 216.4445 Q 313.09356249999996 219.62071875 312.87934375 221.314703125 Q 312.665125 223.0086875 312.665125 224.27917187500003 Q 312.665125 225.54965625000003 312.45092187499995 227.87889062500003 Q 312.23671874999997 230.20812500000002 312.022515625 231.47860937500002 Q 311.8083125 232.74909375000001 311.8083125 235.50181250000003 Q 311.8083125 238.25453125000004 311.8083125 239.52501562500004 Q 311.8083125 240.79550000000003 311.8083125 243.75998437500002 Q 311.8083125 246.72446875 311.8083125 248.418453125 Q 311.8083125 250.11243750000003 311.8083125 252.86515625 Q 311.8083125 255.617875 311.8083125 256.888359375 Q 311.8083125 258.15884374999996 311.8083125 259.641078125 Q 311.8083125 261.1233125 311.59409374999996 264.08778125000003 Q 311.37987499999997 267.05225 311.16567187499993 268.32275000000004 Q 310.95146874999995 269.59325 310.523046875 273.19295312500003 Q 310.09462499999995 276.79265625 309.88042187499997 278.27490624999996 Q 309.66621875 279.75715625 309.23779687499996 282.29812499999997 Q 308.809375 284.83909374999996 308.595171875 286.321328125 Q 308.38096874999997 287.8035625 308.809390625 291.19153125 Q 309.23781249999996 294.5795 309.23781249999996 296.27348437499995 Q 309.23781249999996 297.96746874999997 309.45201562499994 300.08495312499997 Q 309.66621875 302.2024375 309.66621875 305.16690625 Q 309.66621875 308.131375 309.88042187499997 309.190109375 Q 310.09462499999995 310.24884375 310.523046875 312.789828125 Q 310.95146874999995 315.3308125 311.16567187499993 316.38954687499995 Q 311.37987499999997 317.44828125 311.37987499999997 319.565765625 Q 311.37987499999997 321.68325 311.37987499999997 322.53023437499996 Q 311.37987499999997 323.37721875 311.37987499999997 324.85945312499996 Q 311.37987499999997 326.3416875 311.37987499999997 326.97693749999996 Q 311.37987499999997 327.6121875 311.37987499999997 329.09442187499997 Q 311.37987499999997 330.57665625 311.37987499999997 331.42365625 Q 311.37987499999997 332.27065625 311.37987499999997 332.905890625 Q 311.37987499999997 333.54112499999997 311.37987499999997 334.59985937499994 Q 311.37987499999997 335.65859374999997 311.37987499999997 336.29384374999995 Q 311.37987499999997 336.92909375 311.59409374999996 338.623078125 Q 311.8083125 340.31706249999996 311.8083125 341.1640625 Q 311.8083125 342.0110625 311.8083125 343.705046875 Q 311.8083125 345.39903125 311.8083125 346.24601562500004 Q 311.8083125 347.093 311.8083125 348.363484375 Q 311.8083125 349.63396875 311.8083125 350.26921875 Q 311.8083125 350.90446875 311.8083125 351.32796874999997 Q 311.8083125 351.75146875 311.379890625 352.598453125 Q 310.95146874999995 353.44543749999997 310.95146874999995 353.8689375 Q 310.95146874999995 354.2924375 310.95146874999995 355.77467187499997 Q 310.95146874999995 357.25690625 310.95146874999995 357.89215624999997 Q 310.95146874999995 358.52740625 310.95146874999995 359.79789062500004 Q 310.95146874999995 361.068375 310.95146874999995 361.703609375 Q 310.95146874999995 362.33884374999997 310.95146874999995 363.60934375 Q 310.95146874999995 364.87984374999996 310.95146874999995 365.51507812499995 Q 310.95146874999995 366.1503125 310.95146874999995 366.78556249999997 Q 310.95146874999995 367.4208125 310.95146874999995 368.056046875 L 310.95146874999995 368.70128124999997" stroke-linecap="round" />
</g>
<g transform="matrix(1 0 0 1 316.52 137.25)" id="0ploIf2_MIls6gWZXlMyl"  >
<path style="stroke: rgb(103,78,78); stroke-width: 10; stroke-dasharray: none; stroke-linecap: round; stroke-dashoffset: 0; stroke-linejoin: round; stroke-miterlimit: 10; fill: none; fill-rule: nonzero; opacity: 1;" vector-effect="non-scaling-stroke"  transform=" translate(-316.52, -137.25)" d="M 356.8021875 139.14646875000003 Q 356.7921875 139.15646875000002 356.57796874999997 139.15646875000002 Q 356.3637499999999 139.15646875000002 355.07849999999996 139.57996875000003 Q 353.79325 140.00346875000002 352.72220312499996 140.21521875000002 Q 351.65115624999993 140.42696875000001 349.50906249999997 140.42696875000001 Q 347.36696875 140.42696875000001 346.295921875 140.42696875000001 Q 345.22487499999994 140.42696875000001 342.01174999999995 140.42696875000001 Q 338.79862499999996 140.42696875000001 336.87074999999993 140.21521875000002 Q 334.94287499999996 140.00346875000002 330.0160625 139.15648437500002 Q 325.08925 138.3095 323.589796875 138.09775000000002 Q 322.09034375 137.88600000000002 320.805078125 137.67425000000003 Q 319.5198125 137.4625 316.9493125 136.61550781250003 Q 314.3788125 135.76851562500002 312.87934375 135.34501562500003 Q 311.37987499999997 134.921515625 308.16675 134.70976562500002 Q 304.953625 134.49801562500002 302.597328125 134.49801562500002 Q 300.24103125 134.49801562500002 296.8136875 134.49801562500002 Q 293.38634375 134.49801562500002 291.886875 134.49801562500002 Q 290.38740624999997 134.49801562500002 288.03110937499997 134.49801562500002 Q 285.6748125 134.49801562500002 284.60376562499994 134.49801562500002 Q 283.53271874999996 134.49801562500002 282.67589062499997 134.49801562500002 Q 281.8190625 134.49801562500002 280.105390625 134.49801562500002 Q 278.39171875 134.49801562500002 277.320671875 134.28627343750003 L 276.239625 134.06453125000002" stroke-linecap="round" />
</g>
<g transform="matrix(1 0 0 1 320.81 112.87)" id="69TapAlYBv8lKS9ljBWSR"  >
<path style="stroke: rgb(0,0,0); stroke-width: 10; stroke-dasharray: none; stroke-linecap: round; stroke-dashoffset: 0; stroke-linejoin: round; stroke-miterlimit: 10; fill: none; fill-rule: nonzero; opacity: 1;" vector-effect="non-scaling-stroke"  transform=" translate(-320.81, -112.87)" d="M 356.3637499999999 138.3195 Q 356.3637499999999 138.3095 356.3637499999999 138.09775000000002 Q 356.3637499999999 137.88600000000002 356.3637499999999 137.25075000000004 Q 356.3637499999999 136.61550000000003 355.50692187499993 134.28627343750003 Q 354.65009374999994 131.957046875 354.007453125 130.2630625 Q 353.3648125 128.569078125 352.0795625 125.392859375 Q 350.7943125 122.21664062500001 350.1516875 120.52265625000001 Q 349.50906249999997 118.82867187500001 347.795390625 115.440703125 Q 346.08171875 112.05273437499999 345.224890625 110.35874999999999 Q 344.3680625 108.66476562499999 342.654390625 105.488546875 Q 340.94071875 102.312328125 340.29809374999996 101.04184375 Q 339.65546874999995 99.771359375 338.79862499999996 98.5008671875 Q 337.94178124999996 97.230375 336.228109375 95.11289843750001 Q 334.5144375 92.995421875 333.657609375 92.36017187499999 Q 332.80078125 91.72492187499999 330.444484375 90.4544375 Q 328.08818749999995 89.183953125 326.58871875 88.33696093750001 Q 325.08925 87.48996875 323.37557812499995 85.795984375 Q 321.66190624999996 84.102 321.01928124999995 83.6785078125 Q 320.37665625 83.255015625 319.73403125 82.40802343749999 Q 319.09140625 81.56103125 318.87720312499994 81.56103125 Q 318.66299999999995 81.56103125 318.66299999999995 81.34928124999999 Q 318.66299999999995 81.13753125 318.44878124999997 80.92578125 Q 318.2345625 80.71403125 317.806140625 80.50228125000001 Q 317.37771875 80.29053125 316.520890625 79.8670390625 Q 315.6640625 79.443546875 315.44985937499996 79.443546875 Q 315.23565625 79.443546875 314.59303124999997 79.443546875 Q 313.95040624999996 79.443546875 313.73618749999997 79.443546875 Q 313.52196875 79.443546875 313.093546875 79.443546875 Q 312.665125 79.443546875 312.45092187499995 79.443546875 Q 312.23671874999997 79.443546875 311.59409374999996 79.655296875 Q 310.95146874999995 79.867046875 310.73726562499996 80.0787890625 Q 310.5230625 80.29053125 310.094640625 80.71403125 Q 309.66621875 81.13753125 309.02359375 82.40801562499999 Q 308.38096874999997 83.6785 307.73834374999996 84.7372421875 Q 307.09571874999995 85.795984375 305.59624999999994 88.1252109375 Q 304.09678125 90.4544375 303.45415625 91.5131796875 Q 302.81153125 92.571921875 301.52628125 94.26590625 Q 300.24103125 95.959890625 299.81260937499997 96.80688281249999 Q 299.3841875 97.653875 298.0989375 99.9831015625 Q 296.81368749999996 102.312328125 296.385265625 103.3710703125 Q 295.95684374999996 104.4298125 295.31421875 105.2768046875 Q 294.67159375 106.123796875 293.38634375 107.60603125 Q 292.10109374999996 109.088265625 291.45846874999995 109.9352578125 Q 290.81584375 110.78224999999999 289.95899999999995 112.687984375 Q 289.10215624999995 114.59371875000001 288.88795312499997 115.65245312500001 Q 288.67375 116.71118750000001 288.245328125 117.9816796875 Q 287.81690625 119.252171875 287.60270312499995 119.8874140625 Q 287.38849999999996 120.52265625 286.960078125 121.3696484375 Q 286.53165624999997 122.21664062500001 286.31745312499993 122.6401328125 Q 286.10324999999995 123.06362499999999 285.674828125 123.48712499999999 Q 285.24640624999995 123.910625 285.24640624999995 124.3341171875 Q 285.24640624999995 124.757609375 285.24640624999995 124.969359375 Q 285.24640624999995 125.18110937499999 285.24640624999995 125.81635156249999 Q 285.24640624999995 126.45159374999999 285.24640624999995 126.87509374999999 Q 285.24640624999995 127.29859375 285.24640624999995 127.7220859375 Q 285.24640624999995 128.14557812500001 285.24640624999995 128.357328125 Q 285.24640624999995 128.569078125 285.24640624999995 128.99257812500002 Q 285.24640624999995 129.416078125 285.24640624999995 129.6278203125 Q 285.24640624999995 129.8395625 285.24640624999995 130.4748125 Q 285.24640624999995 131.11006250000003 285.24640624999995 131.32180468750002 Q 285.24640624999995 131.533546875 285.460609375 131.745296875 Q 285.6748125 131.957046875 286.10323437499994 132.59228906250002 Q 286.53165624999997 133.22753125000003 286.745859375 133.65103125000002 Q 286.9600625 134.07453125 287.38848437499996 134.49802343750002 Q 287.81690625 134.921515625 288.03110937499997 135.34501562500003 Q 288.24531249999995 135.76851562500002 289.530578125 136.61550781250003 Q 290.81584375 137.4625 291.45846874999995 137.88600000000002 Q 292.10109374999996 138.3095 293.38634375 139.15648437500002 Q 294.67159375 140.00346875000002 295.528421875 140.21521875000002 Q 296.38525 140.42696875000001 297.02789062499994 140.63871875 Q 297.67053124999995 140.85046875 298.95578125 141.27396875 Q 300.24103125 141.69746875 300.88365624999994 141.90920312500003 Q 301.52628124999995 142.12093750000003 302.383109375 142.54443750000002 Q 303.2399375 142.9679375 303.668359375 143.1796875 Q 304.09678125 143.39143750000002 304.953625 143.8149375 Q 305.81046875 144.2384375 306.238875 144.45018750000003 Q 306.66728125 144.66193750000002 307.95254687499994 145.085421875 Q 309.23781249999996 145.50890625000002 309.88043749999997 145.50890625000002 Q 310.5230625 145.50890625000002 311.1656875 145.50890625000002 Q 311.8083125 145.50890625000002 312.665140625 145.72065625000002 Q 313.52196875 145.93240625 314.3788125 145.72065625000002 Q 315.23565625 145.50890625000002 317.591953125 145.297171875 Q 319.94825 145.0854375 321.23349999999994 145.0854375 Q 322.51874999999995 145.0854375 324.87504687499995 145.297171875 Q 327.23134374999995 145.50890625000002 328.30239062499993 145.72065625000002 Q 329.37343749999997 145.93240625 331.08710937499995 146.14415625 Q 332.80078125 146.35590625 333.44340624999995 146.14415625 Q 334.08603124999996 145.93240625 334.94285937499995 145.72065625000002 Q 335.79968749999995 145.50890625000002 336.228109375 145.50890625000002 Q 336.65653125 145.50890625000002 336.870734375 145.297171875 Q 337.08493749999997 145.0854375 337.94178124999996 144.66193750000002 Q 338.79862499999996 144.2384375 339.2270468749999 144.0266875 Q 339.65546874999995 143.8149375 340.51229687499995 143.60318750000002 Q 341.369125 143.39143750000002 341.79754687499997 143.39143750000002 Q 342.22596875 143.39143750000002 342.440171875 143.39143750000002 Q 342.65437499999996 143.39143750000002 342.65437499999996 143.1796875 Q 342.65437499999996 142.9679375 341.36912499999994 142.7561875 Q 340.083875 142.54443750000002 339.227046875 142.33268750000002 Q 338.37021875 142.12093750000003 336.01390625 142.12093750000003 Q 333.65759375 142.12093750000003 332.37234374999997 142.12093750000003 Q 331.08709374999995 142.12093750000003 327.87396874999996 142.33268750000002 Q 324.66084374999997 142.54443750000002 323.37559375 142.54443750000002 Q 322.09034375 142.54443750000002 321.019296875 142.54443750000002 Q 319.94825 142.54443750000002 318.234578125 142.54443750000002 Q 316.52090625 142.54443750000002 315.6640625 142.54443750000002 Q 314.80721874999995 142.54443750000002 313.5219687499999 142.33268750000002 Q 312.23671874999997 142.12093750000003 311.59409374999996 141.90920312500003 Q 310.95146874999995 141.69746875 310.09464062499995 141.27396875 Q 309.23781249999996 140.85046875 308.595171875 140.63871875 Q 307.95253125 140.42696875000001 306.23885937499995 140.00346875000002 Q 304.52518749999996 139.57996875 303.2399375 139.36821875 Q 301.9546875 139.15646875000002 300.883640625 138.732984375 Q 299.81259374999996 138.3095 298.098921875 137.67425000000003 Q 296.38525 137.03900000000002 295.742625 137.03900000000002 L 295.09 137.03900000000002" stroke-linecap="round" />
</g>
<g transform="matrix(1 0 0 1 317.13 114.03)" id="R5aEVeOuAHxf3IuuXoMGO"  >
<path style="stroke: rgb(0,0,0); stroke-width: 10; stroke-dasharray: none; stroke-linecap: round; stroke-dashoffset: 0; stroke-linejoin: round; stroke-miterlimit: 10; fill: none; fill-rule: nonzero; opacity: 1;" vector-effect="non-scaling-stroke"  transform=" translate(-317.13, -114.03)" d="M 334.5244375 131.12006250000002 Q 334.5144375 131.11006250000003 334.5144375 130.4748125 Q 334.5144375 129.8395625 334.30023437499995 128.9925703125 Q 334.08603124999996 128.14557812500001 333.657609375 126.45159375 Q 333.22918749999997 124.757609375 331.94393749999995 121.3696484375 Q 330.6586875 117.9816875 329.58764062499995 115.864203125 Q 328.51659374999997 113.74671875 325.73187499999995 109.7235078125 Q 322.94715625 105.70029687499999 322.090328125 104.4298125 Q 321.2335 103.159328125 319.73403125 101.04184375 Q 318.2345625 98.924359375 317.5919375 98.07736718749999 Q 316.94931249999996 97.230375 315.8782656249999 95.959890625 Q 314.80721874999995 94.68940625 314.59301562499996 94.47765625 Q 314.3788125 94.26590625 314.16460937499994 94.26590625 Q 313.95040624999996 94.26590625 313.73618749999997 94.68939843749999 Q 313.52196875 95.11289062499999 313.093546875 97.230375 Q 312.665125 99.347859375 312.87934375 101.04184375 Q 313.09356249999996 102.735828125 313.521984375 105.912046875 Q 313.95040624999996 109.088265625 314.3788125 110.78225 Q 314.80721874999995 112.476234375 316.09246874999997 115.2289609375 Q 317.37771875 117.9816875 318.2345625 119.463921875 Q 319.09140625 120.94615624999999 320.16245312499996 122.64014062499999 Q 321.2335 124.33412499999999 324.01821874999996 126.4516015625 Q 326.8029375 128.569078125 327.659765625 129.2043203125 Q 328.51659374999997 129.8395625 330.0160625 130.2630625 Q 331.51553125 130.6865625 332.15815625 130.89831250000003 Q 332.80078125 131.11006250000003 334.30023437499995 130.89831250000003 Q 335.79968749999995 130.6865625 336.44231249999996 130.4748125 Q 337.08493749999997 130.26306250000002 338.370203125 129.83957031250003 Q 339.65546874999995 129.416078125 340.083875 128.99257812500002 Q 340.51228125 128.569078125 341.15490624999995 127.5103359375 Q 341.79753124999996 126.45159374999999 341.79753124999996 125.18110937499999 Q 341.79753124999996 123.910625 341.79753124999996 122.42839062499999 Q 341.79753124999996 120.94615624999999 340.51228125 117.98167968749999 Q 339.22703125 115.017203125 338.370203125 113.53496874999999 Q 337.513375 112.05273437499999 333.22918749999997 108.24127343749998 Q 328.945 104.4298125 326.802921875 102.947578125 Q 324.66084374999997 101.46534375 322.30454687499997 99.771359375 Q 319.94825 98.077375 319.30562499999996 97.23038281250001 Q 318.66299999999995 96.383390625 317.37773437499993 95.5363984375 Q 316.09246874999997 94.68940625 315.878265625 94.68940625 Q 315.6640625 94.68940625 315.44985937499996 94.68940625 Q 315.23565625 94.68940625 314.807234375 95.5363984375 Q 314.3788125 96.383390625 314.16460937499994 97.23038281250001 Q 313.95040624999996 98.077375 314.3788125 100.4066015625 Q 314.80721874999995 102.735828125 315.02143749999993 104.2180625 Q 315.23565625 105.70029687499999 316.09248437499997 109.08826562499999 Q 316.94931249999996 112.476234375 317.80615624999996 113.95846875 Q 318.66299999999995 115.44070312499998 321.447703125 118.61692187499999 Q 324.23240625 121.79314062499999 325.73187499999995 123.275375 Q 327.23134374999995 124.757609375 328.51659374999997 126.0281015625 Q 329.80184375 127.29859375 331.72971874999996 128.992578125 Q 333.65759375 130.6865625 334.5144375 131.3218046875 Q 335.37128125 131.957046875 336.87075 132.38053906250002 Q 338.37021875 132.80403125 339.227046875 133.01578125000003 Q 340.083875 133.22753125000003 342.22596875 133.01578125000003 Q 344.3680625 132.80403125 345.224890625 132.59228906250002 Q 346.08171875 132.38054687500002 347.5811875 131.957046875 Q 349.08065625 131.533546875 349.50906249999997 131.32180468750002 Q 349.93746874999994 131.11006250000003 350.36589062499996 129.62782031250003 Q 350.7943125 128.14557812500001 350.580109375 126.87509375000002 Q 350.36590625 125.60460937500001 349.937484375 123.91062500000001 Q 349.50906249999997 122.21664062500001 347.36696874999996 118.40517968750001 Q 345.22487499999994 114.59371875000001 344.36804687499995 113.3232265625 Q 343.51121874999995 112.05273437499999 340.51229687499995 108.876515625 Q 337.513375 105.70029687499999 335.37128125 104.00631249999999 Q 333.22918749999997 102.312328125 328.945015625 99.347859375 Q 324.66084374999997 96.383390625 323.16137499999996 95.5363984375 Q 321.66190624999996 94.68940625 319.73403124999993 93.84241406250001 Q 317.80615624999996 92.995421875 317.16353125 92.571921875 Q 316.52090625 92.148421875 315.87828125 92.148421875 Q 315.23565625 92.148421875 314.16460937499994 92.571921875 Q 313.09356249999996 92.995421875 312.4509375 93.4189140625 Q 311.8083125 93.84240625 310.95146875 94.9011484375 Q 310.09462499999995 95.959890625 309.88042187499997 96.80688281249999 Q 309.66621875 97.653875 309.23779687499996 99.9831015625 Q 308.809375 102.312328125 308.809375 103.58281249999999 Q 308.809375 104.853296875 309.23779687499996 108.0295234375 Q 309.66621875 111.20575000000001 310.094640625 113.1114765625 Q 310.5230625 115.017203125 310.73726562499996 116.4994453125 Q 310.95146874999995 117.9816875 311.59409374999996 120.3109140625 Q 312.23671874999997 122.640140625 312.45092187499995 123.698875 Q 312.665125 124.757609375 313.093546875 126.23985156250001 Q 313.52196875 127.72209375000001 313.73618749999997 128.3573359375 Q 313.95040624999996 128.99257812500002 314.3788125 129.62782031250003 Q 314.80721874999995 130.26306250000002 315.02143749999993 130.4748125 Q 315.23565625 130.6865625 315.87828125 130.6865625 Q 316.52090625 130.6865625 317.16353125 130.4748125 Q 317.80615624999996 130.26306250000002 318.44878124999997 129.83957031250003 Q 319.09140625 129.416078125 320.16245312499996 127.51034375 Q 321.2335 125.60460937500001 321.66192187499996 124.122375 Q 322.09034375 122.640140625 321.447703125 119.04042187499999 Q 320.80506249999996 115.44070312499998 320.1624375 113.95846875 Q 319.5198125 112.476234375 318.66298437499995 110.14700781250001 Q 317.80615624999996 107.81778125000001 317.37773437499993 106.9707890625 Q 316.94931249999996 106.123796875 315.8782656249999 105.0650546875 Q 314.80721874999995 104.00631249999999 314.16459375 103.58282031249999 Q 313.52196875 103.159328125 312.23671874999997 103.159328125 Q 310.95146874999995 103.159328125 310.30884374999994 103.159328125 Q 309.66621875 103.159328125 309.02359375 103.58282031249999 Q 308.38096874999997 104.00631249999999 306.45307812499993 105.488546875 Q 304.52518749999996 106.97078125 303.45415625 108.0295234375 Q 302.38312499999995 109.088265625 300.66945312499996 111.6292421875 Q 298.95578125 114.17021874999999 298.31315624999996 115.440703125 Q 297.67053124999995 116.71118750000001 296.599484375 119.6756640625 Q 295.5284375 122.640140625 295.31421875 124.122375 Q 295.09999999999997 125.60460937500001 294.67159374999994 128.14558593750002 Q 294.2431875 130.6865625 294.02896875 131.957046875 Q 293.81474999999995 133.22753125000003 293.60054687499996 134.28627343750003 Q 293.38634375 135.345015625 292.957921875 136.82725781250002 Q 292.5295 138.3095 292.5295 138.944734375 Q 292.5295 139.57996875 292.5295 140.21521875000002 Q 292.5295 140.85046875 292.5295 141.06221875 Q 292.5295 141.27396875000002 292.74371874999997 141.27396875000002 Q 292.95793749999996 141.27396875000002 293.60056249999997 141.27396875000002 Q 294.2431875 141.27396875000002 295.95685937499996 140.63871875 Q 297.67053124999995 140.00346875000002 298.52735937499995 139.36821875000004 Q 299.3841875 138.73296875000003 300.24103125 137.88598437500002 Q 301.097875 137.03900000000002 302.16890624999996 135.13326562500004 Q 303.2399375 133.22753125000003 303.668359375 132.38053906250002 Q 304.09678125 131.533546875 304.953625 129.8395625 Q 305.81046875 128.14557812500001 306.02467187499997 127.5103359375 Q 306.23887499999995 126.87509375 306.45307812499993 125.181109375 Q 306.66728125 123.487125 306.66728125 122.6401328125 Q 306.66728125 121.79314062499999 306.02465624999996 120.52265625 Q 305.38203124999995 119.252171875 304.52520312499996 118.828671875 Q 303.66837499999997 118.405171875 302.81153125 118.1934296875 Q 301.9546875 117.9816875 299.81260937499997 117.9816875 Q 297.67053124999995 117.9816875 296.599484375 118.6169296875 Q 295.5284375 119.252171875 293.81476562499995 120.52265625 Q 292.10109374999996 121.79314062499999 291.45846874999995 122.42838281249999 Q 290.81584375 123.06362499999999 289.744796875 124.5458671875 Q 288.67375 126.028109375 288.031125 126.6633515625 Q 287.38849999999996 127.29859375 286.53165624999997 128.569078125 Q 285.6748125 129.8395625 285.460609375 130.4748125 Q 285.24640624999995 131.11006250000003 284.8179843749999 132.38054687500002 Q 284.38956249999995 133.65103125000002 284.17535937499997 134.07452343750003 Q 283.96115625 134.49801562500002 283.74693749999994 134.70976562500002 Q 283.53271874999996 134.921515625 283.53271874999996 135.133265625 Q 283.53271874999996 135.345015625 283.74693749999994 135.345015625 Q 283.96115625 135.345015625 284.17535937499997 135.55676562500003 Q 284.38956249999995 135.76851562500002 285.24640624999995 135.55676562500003 Q 286.10324999999995 135.345015625 287.1742812499999 135.133265625 Q 288.24531249999995 134.921515625 290.60162499999996 133.8627734375 Q 292.95793749999996 132.80403125 294.02896875 131.957046875 Q 295.09999999999997 131.11006250000003 295.95684374999996 130.26307031250002 Q 296.81368749999996 129.416078125 298.0989375 126.87510156249999 Q 299.3841875 124.33412499999999 299.81260937499997 123.2753828125 Q 300.24103125 122.21664062500001 300.455234375 120.73440625 Q 300.66943749999996 119.252171875 300.66943749999996 118.828671875 Q 300.66943749999996 118.405171875 299.81260937499997 117.5581796875 Q 298.95578125 116.71118750000001 298.52735937499995 116.4994453125 Q 298.0989375 116.287703125 297.02789062499994 116.287703125 Q 295.95684374999996 116.287703125 295.52842187499994 116.287703125 Q 295.09999999999997 116.287703125 294.67159374999994 116.4994453125 Q 294.2431875 116.71118750000001 293.172140625 117.9816796875 Q 292.10109374999996 119.252171875 291.886875 119.8874140625 Q 291.67265625 120.52265625 291.67265625 122.216640625 Q 291.67265625 123.910625 291.886875 124.5458671875 Q 292.10109374999996 125.18110937499999 293.60054687499996 126.87509374999999 Q 295.09999999999997 128.569078125 296.171046875 129.4160703125 Q 297.24209375 130.26306250000002 299.169984375 131.32180468750002 Q 301.097875 132.38054687500002 301.954703125 132.59228906250002 Q 302.81153125 132.80403125 304.311 133.22753125000003 Q 305.81046875 133.65103125000002 306.88149999999996 133.43928125000002 Q 307.95253125 133.22753125000003 308.809375 133.01578125000003 Q 309.66621875 132.80403125 311.379890625 132.16878906250003 Q 313.09356249999996 131.533546875 313.73618749999997 131.1100546875 Q 314.3788125 130.6865625 315.6640625 129.20432812500002 Q 316.94931249999996 127.72209375000001 317.5919375 126.4516015625 Q 318.2345625 125.18110937499999 319.09140625 122.8518828125 Q 319.94825 120.52265625 320.37665625 119.04042187499999 Q 320.80506249999996 117.55818749999999 320.590859375 114.80546093749999 Q 320.37665625 112.05273437499999 320.16245312499996 110.78224999999999 Q 319.94825 109.511765625 319.73403125 108.6647734375 Q 319.5198125 107.81778125000001 319.09140625 106.12379687500001 Q 318.66299999999995 104.4298125 318.44878124999997 103.7945703125 Q 318.2345625 103.159328125 317.377734375 101.8888359375 Q 316.52090625 100.61834375 316.092484375 99.9831015625 Q 315.6640625 99.347859375 314.807234375 97.865625 Q 313.95040624999996 96.383390625 313.521984375 95.74814062499999 Q 313.09356249999996 95.11289062499999 312.23671874999997 94.2658984375 Q 311.37987499999997 93.41890624999999 310.95146875 92.9954140625 Q 310.5230625 92.571921875 310.30884374999994 92.36017187499999 Q 310.09462499999995 92.148421875 309.23779687499996 92.148421875 Q 308.38096874999997 92.148421875 307.95254687499994 92.148421875 Q 307.52412499999997 92.148421875 306.45307812499993 92.7836640625 Q 305.38203124999995 93.41890624999999 304.73940625 94.05415625 Q 304.09678125 94.68940625 303.02573437499996 96.17164062500001 Q 301.9546875 97.653875 301.52628125 98.7126171875 Q 301.097875 99.771359375 300.669453125 102.524078125 Q 300.24103125 105.276796875 300.0268125 106.3355390625 Q 299.81259374999996 107.39428124999999 299.598390625 108.664765625 Q 299.3841875 109.93525000000001 298.955765625 112.4762265625 Q 298.52734375 115.017203125 298.31314062499996 116.0759453125 Q 298.0989375 117.1346875 298.31314062499996 119.2521640625 Q 298.52734375 121.369640625 298.7415625 122.004890625 Q 298.95578125 122.640140625 299.38418749999994 123.4871328125 Q 299.81259374999996 124.33412499999999 300.0268125 124.5458671875 Q 300.24103125 124.757609375 300.669453125 125.181109375 Q 301.097875 125.60460937500001 301.52628125 125.816359375 Q 301.9546875 126.028109375 302.5973125 125.604609375 Q 303.2399375 125.18110937499999 303.668359375 124.969359375 Q 304.09678125 124.757609375 304.52520312499996 124.1223671875 Q 304.953625 123.487125 306.02467187499997 121.3696484375 Q 307.09571874999995 119.252171875 307.52412499999997 117.9816796875 Q 307.95253125 116.71118750000001 308.809375 114.3819609375 Q 309.66621875 112.05273437499999 310.094640625 110.78224999999999 Q 310.5230625 109.511765625 311.1656875 106.97078906249999 Q 311.8083125 104.4298125 312.022515625 103.58282031249999 Q 312.23671874999997 102.735828125 312.45092187499995 100.4066015625 Q 312.665125 98.077375 312.665125 96.80688281249999 Q 312.665125 95.536390625 312.665125 94.26590625 Q 312.665125 92.995421875 312.665125 91.30143749999999 Q 312.665125 89.60745312499999 312.45092187499995 88.9722109375 Q 312.23671874999997 88.33696875 312.23671874999997 87.4899765625 Q 312.23671874999997 86.642984375 311.808296875 87.0664765625 L 311.369875 87.49996875000001" stroke-linecap="round" />
</g>
<g transform="matrix(1 0 0 1 324.1 134.14)" id="tjFsuLOMAr7NbaMrE3G8v"  >
<path style="stroke: rgb(0,0,0); stroke-width: 10; stroke-dasharray: none; stroke-linecap: round; stroke-dashoffset: 0; stroke-linejoin: round; stroke-miterlimit: 10; fill: none; fill-rule: nonzero; opacity: 1;" vector-effect="non-scaling-stroke"  transform=" translate(-324.1, -134.14)" d="M 324.08599999999996 134.144 L 324.10599999999994 134.144" stroke-linecap="round" />
</g>
<g transform="matrix(1 0 0 1 315.9 87.04)" id="DxCXtR8xXamQeCtcJzHpW"  >
<path style="stroke: rgb(0,0,0); stroke-width: 10; stroke-dasharray: none; stroke-linecap: round; stroke-dashoffset: 0; stroke-linejoin: round; stroke-miterlimit: 10; fill: none; fill-rule: nonzero; opacity: 1;" vector-effect="non-scaling-stroke"  transform=" translate(-315.9, -87.04)" d="M 315.894 87.03999999999999 L 315.914 87.03999999999999" stroke-linecap="round" />
</g>
<g transform="matrix(1 0 0 1 334.78 138.75)" id="tKqEEHyKeURRjm45v3e6e"  >
<path style="stroke: rgb(0,0,0); stroke-width: 10; stroke-dasharray: none; stroke-linecap: round; stroke-dashoffset: 0; stroke-linejoin: round; stroke-miterlimit: 10; fill: none; fill-rule: nonzero; opacity: 1;" vector-effect="non-scaling-stroke"  transform=" translate(-334.78, -138.75)" d="M 313.846 135.168 Q 313.856 135.168 314.368 135.168 Q 314.88 135.168 315.392 135.168 Q 315.904 135.168 316.416 135.168 Q 316.928 135.168 317.44 135.68 Q 317.952 136.192 318.464 136.192 Q 318.976 136.192 319.488 136.192 Q 320 136.192 320.512 136.192 Q 321.024 136.192 321.536 136.192 Q 322.048 136.192 322.55999999999995 136.192 Q 323.07199999999995 136.192 323.58399999999995 136.704 Q 324.09599999999995 137.216 325.11999999999995 137.216 Q 326.14399999999995 137.216 326.65599999999995 137.728 Q 327.16799999999995 138.24 327.67999999999995 138.24 Q 328.19199999999995 138.24 328.70399999999995 138.24 Q 329.21599999999995 138.24 329.72799999999995 138.24 Q 330.23999999999995 138.24 330.75199999999995 138.24 Q 331.26399999999995 138.24 332.28799999999995 138.752 Q 333.31199999999995 139.264 333.82399999999996 139.264 Q 334.33599999999996 139.264 334.84799999999996 139.776 Q 335.35999999999996 140.288 335.87199999999996 140.288 Q 336.38399999999996 140.288 336.89599999999996 140.288 Q 337.40799999999996 140.288 337.91999999999996 140.288 Q 338.43199999999996 140.288 338.94399999999996 140.288 Q 339.45599999999996 140.288 339.96799999999996 140.288 Q 340.47999999999996 140.288 340.99199999999996 140.288 Q 341.50399999999996 140.288 342.01599999999996 140.288 Q 342.52799999999996 140.288 343.03999999999996 140.288 Q 343.55199999999996 140.288 344.06399999999996 140.8 Q 344.57599999999996 141.312 345.08799999999997 141.312 Q 345.59999999999997 141.312 346.11199999999997 141.312 Q 346.62399999999997 141.312 347.13599999999997 141.312 Q 347.64799999999997 141.312 347.64799999999997 141.824 Q 347.64799999999997 142.336 348.15999999999997 142.336 Q 348.67199999999997 142.336 349.18399999999997 142.336 Q 349.69599999999997 142.336 350.20799999999997 142.336 Q 350.71999999999997 142.336 351.23199999999997 142.336 Q 351.74399999999997 142.336 352.256 142.336 Q 352.768 142.336 353.28 142.336 Q 353.792 142.336 354.304 142.336 Q 354.816 142.336 355.328 142.336 Q 355.84 142.336 355.328 142.336 Q 354.816 142.336 354.304 142.336 Q 353.792 142.336 353.792 141.824 Q 353.792 141.312 353.28 141.312 Q 352.768 141.312 352.256 141.312 Q 351.74399999999997 141.312 351.23199999999997 141.312 Q 350.71999999999997 141.312 350.20799999999997 141.312 Q 349.69599999999997 141.312 349.18399999999997 141.312 Q 348.67199999999997 141.312 347.64799999999997 141.312 L 346.614 141.312" stroke-linecap="round" />
</g>
<g transform="matrix(1 0 0 1 293.89 114.18)" id="Wk59mXu7-tblXOPfc3HZ4"  >
<path style="stroke: rgb(0,0,0); stroke-width: 10; stroke-dasharray: none; stroke-linecap: round; stroke-dashoffset: 0; stroke-linejoin: round; stroke-miterlimit: 10; fill: none; fill-rule: nonzero; opacity: 1;" vector-effect="non-scaling-stroke"  transform=" translate(-293.89, -114.18)" d="M 291.33799999999997 140.298 Q 291.328 140.288 290.816 140.288 Q 290.304 140.288 289.792 139.776 Q 289.28 139.264 288.768 139.264 Q 288.256 139.264 287.74399999999997 139.264 Q 287.23199999999997 139.264 286.71999999999997 139.264 Q 286.20799999999997 139.264 285.69599999999997 139.264 Q 285.18399999999997 139.264 284.67199999999997 138.752 Q 284.15999999999997 138.24 283.13599999999997 138.24 Q 282.11199999999997 138.24 281.59999999999997 138.24 Q 281.08799999999997 138.24 280.57599999999996 138.24 Q 280.06399999999996 138.24 279.55199999999996 138.24 Q 279.03999999999996 138.24 278.52799999999996 138.24 Q 278.01599999999996 138.24 277.50399999999996 137.728 Q 276.99199999999996 137.216 276.47999999999996 137.216 Q 275.96799999999996 137.216 275.45599999999996 137.216 Q 274.94399999999996 137.216 274.43199999999996 137.216 Q 273.91999999999996 137.216 273.91999999999996 136.704 Q 273.91999999999996 136.192 273.40799999999996 136.192 Q 272.89599999999996 136.192 272.89599999999996 135.68 Q 272.89599999999996 135.168 272.89599999999996 134.656 Q 272.89599999999996 134.144 273.40799999999996 134.144 Q 273.91999999999996 134.144 273.91999999999996 133.632 Q 273.91999999999996 133.12 274.43199999999996 132.608 Q 274.94399999999996 132.096 275.45599999999996 131.584 Q 275.96799999999996 131.072 275.96799999999996 130.56 Q 275.96799999999996 130.048 276.47999999999996 130.048 Q 276.99199999999996 130.048 277.50399999999996 129.536 Q 278.01599999999996 129.024 278.52799999999996 128.512 Q 279.03999999999996 127.99999999999999 279.55199999999996 127.488 Q 280.06399999999996 126.97600000000001 280.57599999999996 126.46400000000001 Q 281.08799999999997 125.95200000000001 281.59999999999997 125.44000000000001 Q 282.11199999999997 124.92800000000001 282.62399999999997 124.41600000000001 Q 283.13599999999997 123.90400000000001 283.64799999999997 123.39200000000001 Q 284.15999999999997 122.88000000000001 284.15999999999997 122.36800000000001 Q 284.15999999999997 121.85600000000001 284.67199999999997 121.85600000000001 Q 285.18399999999997 121.85600000000001 285.18399999999997 121.34400000000001 Q 285.18399999999997 120.83200000000001 285.18399999999997 120.32000000000001 Q 285.18399999999997 119.808 285.69599999999997 119.808 Q 286.20799999999997 119.808 286.20799999999997 119.296 Q 286.20799999999997 118.784 286.20799999999997 118.272 Q 286.20799999999997 117.76 286.71999999999997 117.248 Q 287.23199999999997 116.736 287.23199999999997 116.224 Q 287.23199999999997 115.712 287.23199999999997 115.2 Q 287.23199999999997 114.688 287.23199999999997 114.176 Q 287.23199999999997 113.664 287.74399999999997 113.152 Q 288.256 112.64 288.256 112.128 Q 288.256 111.616 288.768 111.104 Q 289.28 110.592 289.28 110.08 Q 289.28 109.568 289.792 109.568 Q 290.304 109.568 290.304 109.056 Q 290.304 108.544 290.816 108.032 Q 291.328 107.52 291.328 107.008 Q 291.328 106.496 291.84 106.496 Q 292.352 106.496 292.352 105.984 Q 292.352 105.472 292.864 104.96 Q 293.376 104.448 293.888 104.448 Q 294.4 104.448 294.912 103.93599999999999 Q 295.424 103.42399999999999 295.424 102.91199999999999 Q 295.424 102.39999999999999 295.936 102.39999999999999 Q 296.448 102.39999999999999 296.96 102.39999999999999 Q 297.472 102.39999999999999 297.472 101.888 Q 297.472 101.376 297.984 101.376 Q 298.496 101.376 299.008 100.864 Q 299.52 100.352 300.032 99.84 Q 300.544 99.328 301.056 99.328 Q 301.568 99.328 301.568 98.816 Q 301.568 98.304 302.08 97.792 Q 302.592 97.28 303.104 97.28 Q 303.616 97.28 304.128 96.768 Q 304.64 96.256 305.152 95.744 Q 305.664 95.232 305.664 94.72 Q 305.664 94.208 306.176 94.208 Q 306.688 94.208 307.2 93.696 Q 307.712 93.184 307.712 92.672 Q 307.712 92.16 308.224 92.16 Q 308.736 92.16 309.248 91.648 Q 309.76 91.136 309.76 90.624 Q 309.76 90.112 310.272 90.112 Q 310.784 90.112 310.784 89.6 Q 310.784 89.088 311.296 89.088 Q 311.808 89.088 312.32 88.576 Q 312.832 88.064 313.856 88.064 L 314.89 88.064" stroke-linecap="round" />
</g>
<g transform="matrix(1 0 0 1 329.28 86.02)" id="bFyDirvkz5SHfNXqtuEBJ"  >
<path style="stroke: rgb(0,0,0); stroke-width: 10; stroke-dasharray: none; stroke-linecap: round; stroke-dashoffset: 0; stroke-linejoin: round; stroke-miterlimit: 10; fill: none; fill-rule: nonzero; opacity: 1;" vector-effect="non-scaling-stroke"  transform=" translate(-329.28, -86.02)" d="M 338.44199999999995 92.17 Q 338.43199999999996 92.16 337.91999999999996 92.16 Q 337.40799999999996 92.16 336.89599999999996 91.648 Q 336.38399999999996 91.136 335.87199999999996 90.624 Q 335.35999999999996 90.112 334.84799999999996 90.112 Q 334.33599999999996 90.112 334.33599999999996 89.6 Q 334.33599999999996 89.088 333.82399999999996 89.088 Q 333.31199999999995 89.088 332.79999999999995 88.576 Q 332.28799999999995 88.064 331.77599999999995 88.064 Q 331.26399999999995 88.064 330.75199999999995 87.55199999999999 Q 330.23999999999995 87.03999999999999 329.72799999999995 86.52799999999999 Q 329.21599999999995 86.016 328.70399999999995 85.504 Q 328.19199999999995 84.992 327.67999999999995 84.48 Q 327.16799999999995 83.968 326.65599999999995 83.968 Q 326.14399999999995 83.968 326.14399999999995 83.456 Q 326.14399999999995 82.944 325.63199999999995 82.944 Q 325.11999999999995 82.944 324.60799999999995 82.432 Q 324.09599999999995 81.92 323.58399999999995 81.92 Q 323.07199999999995 81.92 323.07199999999995 81.408 Q 323.07199999999995 80.896 322.55999999999995 80.896 Q 322.048 80.896 322.048 80.384 Q 322.048 79.872 321.536 79.872 Q 321.024 79.872 320.512 79.872 Q 320 79.872 320.512 79.872 Q 321.024 79.872 321.536 79.872 Q 322.048 79.872 322.55999999999995 79.872 Q 323.07199999999995 79.872 323.58399999999995 80.384 Q 324.09599999999995 80.896 324.60799999999995 80.896 Q 325.11999999999995 80.896 325.63199999999995 81.408 Q 326.14399999999995 81.92 326.65599999999995 81.92 Q 327.16799999999995 81.92 327.67999999999995 82.432 Q 328.19199999999995 82.944 328.70399999999995 83.456 Q 329.21599999999995 83.968 330.23999999999995 84.992 L 331.27399999999994 86.02600000000001" stroke-linecap="round" />
</g>
<g transform="matrix(1 0 0 1 335.35 97.28)" id="bzwT8pvt9u4uvt667DiJw"  >
<path style="stroke: rgb(0,0,0); stroke-width: 10; stroke-dasharray: none; stroke-linecap: round; stroke-dashoffset: 0; stroke-linejoin: round; stroke-miterlimit: 10; fill: none; fill-rule: nonzero; opacity: 1;" vector-effect="non-scaling-stroke"  transform=" translate(-335.35, -97.28)" d="M 331.25399999999996 86.006 Q 331.26399999999995 86.016 331.26399999999995 86.52799999999999 Q 331.26399999999995 87.03999999999999 331.77599999999995 87.55199999999999 Q 332.28799999999995 88.064 332.28799999999995 88.576 Q 332.28799999999995 89.088 332.28799999999995 89.6 Q 332.28799999999995 90.112 332.28799999999995 90.624 Q 332.28799999999995 91.136 332.28799999999995 91.648 Q 332.28799999999995 92.16 332.79999999999995 92.672 Q 333.31199999999995 93.184 333.31199999999995 93.696 Q 333.31199999999995 94.208 333.82399999999996 95.232 Q 334.33599999999996 96.256 334.84799999999996 97.28 Q 335.35999999999996 98.304 336.38399999999996 99.84 Q 337.40799999999996 101.376 337.91999999999996 102.912 Q 338.43199999999996 104.448 338.94399999999996 105.472 Q 339.45599999999996 106.496 339.45599999999996 107.52 L 339.45599999999996 108.554" stroke-linecap="round" />
</g>
<g transform="matrix(1 0 0 1 309.76 278.02)" id="BywOZPEDDOMoI0bIrSHD9"  >
<path style="stroke: rgb(0,0,0); stroke-width: 10; stroke-dasharray: none; stroke-linecap: round; stroke-dashoffset: 0; stroke-linejoin: round; stroke-miterlimit: 10; fill: none; fill-rule: nonzero; opacity: 1;" vector-effect="non-scaling-stroke"  transform=" translate(-309.76, -278.02)" d="M 446.98599999999993 282.62399999999997 Q 446.97599999999994 282.62399999999997 445.43999999999994 282.62399999999997 Q 443.90399999999994 282.62399999999997 442.36799999999994 282.62399999999997 Q 440.83199999999994 282.62399999999997 437.75999999999993 282.11199999999997 Q 434.68799999999993 281.59999999999997 432.12799999999993 281.59999999999997 Q 429.5679999999999 281.59999999999997 428.5439999999999 281.59999999999997 Q 427.5199999999999 281.59999999999997 425.9839999999999 281.59999999999997 Q 424.4479999999999 281.59999999999997 422.4 281.59999999999997 Q 420.35200000000003 281.59999999999997 418.81600000000003 281.59999999999997 Q 417.28000000000003 281.59999999999997 415.232 282.11199999999997 Q 413.184 282.62399999999997 411.136 282.62399999999997 Q 409.088 282.62399999999997 408.064 282.62399999999997 Q 407.04 282.62399999999997 406.528 282.62399999999997 Q 406.016 282.62399999999997 404.992 282.62399999999997 Q 403.968 282.62399999999997 403.456 282.62399999999997 Q 402.944 282.62399999999997 401.92 282.62399999999997 Q 400.896 282.62399999999997 399.872 282.62399999999997 Q 398.848 282.62399999999997 398.336 282.62399999999997 Q 397.824 282.62399999999997 395.776 282.62399999999997 Q 393.728 282.62399999999997 392.704 283.13599999999997 Q 391.68 283.64799999999997 391.168 283.64799999999997 Q 390.656 283.64799999999997 389.632 283.64799999999997 Q 388.608 283.64799999999997 388.096 283.64799999999997 Q 387.584 283.64799999999997 387.072 283.64799999999997 Q 386.56 283.64799999999997 385.024 283.64799999999997 Q 383.488 283.64799999999997 381.952 283.64799999999997 Q 380.416 283.64799999999997 379.904 283.64799999999997 Q 379.392 283.64799999999997 378.368 283.64799999999997 Q 377.344 283.64799999999997 376.832 283.64799999999997 Q 376.32 283.64799999999997 375.808 283.64799999999997 Q 375.296 283.64799999999997 373.76 283.64799999999997 Q 372.224 283.64799999999997 371.2 283.64799999999997 Q 370.176 283.64799999999997 368.64 283.64799999999997 Q 367.104 283.64799999999997 365.568 283.64799999999997 Q 364.032 283.64799999999997 363.52 283.64799999999997 Q 363.008 283.64799999999997 362.496 283.64799999999997 Q 361.984 283.64799999999997 361.472 283.64799999999997 Q 360.96 283.64799999999997 358.912 283.64799999999997 Q 356.864 283.64799999999997 355.328 283.64799999999997 Q 353.792 283.64799999999997 350.20799999999997 283.13599999999997 Q 346.62399999999997 282.62399999999997 344.06399999999996 282.11199999999997 Q 341.50399999999996 281.59999999999997 337.40799999999996 281.08799999999997 Q 333.31199999999995 280.57599999999996 330.75199999999995 280.06399999999996 Q 328.19199999999995 279.55199999999996 327.67999999999995 279.55199999999996 Q 327.16799999999995 279.55199999999996 325.63199999999995 279.03999999999996 Q 324.09599999999995 278.52799999999996 322.048 278.52799999999996 Q 320 278.52799999999996 318.976 278.52799999999996 Q 317.952 278.52799999999996 314.88 278.52799999999996 Q 311.808 278.52799999999996 309.248 278.52799999999996 Q 306.688 278.52799999999996 306.176 278.52799999999996 Q 305.664 278.52799999999996 304.128 278.52799999999996 Q 302.592 278.52799999999996 301.568 278.52799999999996 Q 300.544 278.52799999999996 300.032 278.52799999999996 Q 299.52 278.52799999999996 298.496 278.52799999999996 Q 297.472 278.52799999999996 296.448 278.52799999999996 Q 295.424 278.52799999999996 294.4 278.52799999999996 Q 293.376 278.52799999999996 292.864 278.52799999999996 Q 292.352 278.52799999999996 290.816 278.52799999999996 Q 289.28 278.52799999999996 287.23199999999997 278.52799999999996 Q 285.18399999999997 278.52799999999996 284.15999999999997 278.52799999999996 Q 283.13599999999997 278.52799999999996 282.62399999999997 278.52799999999996 Q 282.11199999999997 278.52799999999996 281.08799999999997 278.52799999999996 Q 280.06399999999996 278.52799999999996 279.03999999999996 278.52799999999996 Q 278.01599999999996 278.52799999999996 277.50399999999996 278.52799999999996 Q 276.99199999999996 278.52799999999996 275.45599999999996 278.01599999999996 Q 273.91999999999996 277.50399999999996 272.89599999999996 277.50399999999996 Q 271.87199999999996 277.50399999999996 270.84799999999996 277.50399999999996 Q 269.82399999999996 277.50399999999996 268.79999999999995 277.50399999999996 Q 267.77599999999995 277.50399999999996 266.23999999999995 277.50399999999996 Q 264.70399999999995 277.50399999999996 263.67999999999995 276.99199999999996 Q 262.65599999999995 276.47999999999996 260.60799999999995 276.47999999999996 Q 258.55999999999995 276.47999999999996 257.53599999999994 276.47999999999996 Q 256.512 276.47999999999996 254.976 276.47999999999996 Q 253.44 276.47999999999996 251.392 275.96799999999996 Q 249.344 275.45599999999996 247.808 275.45599999999996 Q 246.272 275.45599999999996 243.2 274.94399999999996 Q 240.128 274.432 238.59199999999998 274.432 Q 237.05599999999998 274.432 235.51999999999998 273.92 Q 233.98399999999998 273.408 233.47199999999998 273.408 Q 232.95999999999998 273.408 231.93599999999998 273.408 Q 230.91199999999998 273.408 229.88799999999998 273.408 Q 228.86399999999998 273.408 228.35199999999998 272.896 Q 227.83999999999997 272.384 227.32799999999997 272.384 Q 226.81599999999997 272.384 226.30399999999997 272.384 Q 225.79199999999997 272.384 225.27999999999997 272.384 Q 224.76799999999997 272.384 224.25599999999997 272.384 Q 223.74399999999997 272.384 222.71999999999997 272.384 Q 221.69599999999997 272.384 220.67199999999997 272.384 Q 219.64799999999997 272.384 217.59999999999997 272.384 Q 215.55199999999996 272.384 214.01599999999996 272.384 Q 212.47999999999996 272.384 211.96799999999996 272.384 Q 211.45599999999996 272.384 210.94399999999996 272.384 Q 210.43199999999996 272.384 209.91999999999996 272.384 Q 209.40799999999996 272.384 208.89599999999996 272.384 Q 208.38399999999996 272.384 207.87199999999996 272.384 Q 207.35999999999996 272.384 206.84799999999996 272.384 Q 206.33599999999996 272.384 205.82399999999996 272.384 Q 205.31199999999995 272.384 204.79999999999995 272.384 Q 204.28799999999995 272.384 203.77599999999995 272.384 Q 203.26399999999995 272.384 202.23999999999995 272.896 Q 201.21599999999995 273.408 200.19199999999995 273.408 Q 199.16799999999995 273.408 198.65599999999995 273.92 Q 198.14399999999995 274.432 197.63199999999995 274.432 Q 197.11999999999995 274.432 196.60799999999995 274.432 Q 196.09599999999995 274.432 195.07199999999995 274.432 Q 194.04799999999994 274.432 193.53599999999994 274.432 Q 193.02399999999994 274.432 192.51199999999994 274.432 Q 191.99999999999994 274.432 191.48799999999997 274.432 Q 190.976 274.432 190.464 274.432 Q 189.952 274.432 189.44 274.432 Q 188.928 274.432 188.416 274.432 Q 187.904 274.432 187.392 274.432 Q 186.88 274.432 186.368 274.432 Q 185.856 274.432 185.344 274.432 Q 184.832 274.432 184.32 274.432 Q 183.808 274.432 183.296 274.432 Q 182.784 274.432 182.272 274.432 Q 181.76 274.432 181.248 274.432 Q 180.736 274.432 180.736 273.92 Q 180.736 273.408 180.224 273.408 Q 179.712 273.408 179.2 273.408 Q 178.688 273.408 178.176 273.408 Q 177.664 273.408 177.152 273.408 Q 176.64 273.408 176.128 273.408 Q 175.61599999999999 273.408 175.10399999999998 273.408 Q 174.59199999999998 273.408 173.56799999999998 273.408 L 172.534 273.408" stroke-linecap="round" />
</g>
</svg>