<?xml version="1.0" encoding="UTF-8" standalone="no" ?>
<!DOCTYPE svg PUBLIC "-//W3C//DTD SVG 1.1//EN" "http://www.w3.org/Graphics/SVG/1.1/DTD/svg11.dtd">
<svg xmlns="http://www.w3.org/2000/svg" xmlns:xlink="http://www.w3.org/1999/xlink" version="1.1" width="640" height="640" viewBox="0 0 640 640" xml:space="preserve">
<desc>Created with Fabric.js 4.6.0</desc>
<defs>
</defs>
<g transform="matrix(1 0 0 1 320 304.53)" id="qgRKGE9SkQCiP-kdDDf93"  >
<path style="stroke: rgb(55,45,39); stroke-width: 30; stroke-dasharray: none; stroke-linecap: round; stroke-dashoffset: 0; stroke-linejoin: round; stroke-miterlimit: 10; fill: none; fill-rule: nonzero; opacity: 1;" vector-effect="non-scaling-stroke"  transform=" translate(-292.74, -295.4)" d="M 303.66837499999997 79.44254687499999 Q 303.66837499999997 79.443546875 303.66837499999997 80.92578125 Q 303.66837499999997 82.408015625 303.66837499999997 83.46675781249999 Q 303.66837499999997 84.5255 303.66837499999997 87.2782265625 Q 303.66837499999997 90.030953125 303.66837499999997 91.30143749999999 Q 303.66837499999997 92.571921875 303.45415625 94.6893984375 Q 303.2399375 96.806875 302.81153125 97.6538671875 Q 302.38312499999995 98.500859375 301.9547031249999 99.7713515625 Q 301.52628124999995 101.04184375 300.455234375 104.64155468749999 Q 299.3841875 108.241265625 298.52735937499995 112.052734375 Q 297.67053124999995 115.864203125 297.2421093749999 118.1934296875 Q 296.81368749999996 120.52265625 296.59946874999997 122.42839062499999 Q 296.38525 124.33412499999999 295.95684374999996 129.8395703125 Q 295.5284375 135.345015625 295.10001562499997 137.8859921875 Q 294.67159375 140.42696875000001 293.81476562499995 145.085421875 Q 292.95793749999996 149.743875 292.74371874999997 151.649609375 Q 292.5295 153.55534375000002 291.672671875 158.425546875 Q 290.81584375 163.29575000000003 290.17321875 166.04846875000004 Q 289.53059375 168.80118750000003 289.10217187499995 173.45964062500002 Q 288.67375 178.11809375 288.45953124999994 180.447328125 Q 288.24531249999995 182.7765625 287.81690625 185.74103125 Q 287.38849999999996 188.7055 286.960078125 194.8461875 Q 286.53165624999997 200.98687500000003 286.53165624999997 203.31610937500002 Q 286.53165624999997 205.64534375000002 286.10323437499994 210.93904687500003 Q 285.6748125 216.23275 285.460609375 219.62071875 Q 285.24640624999995 223.0086875 285.03220312499997 228.30239062500002 Q 284.818 233.59609375000002 284.818 236.5605625 Q 284.818 239.52503125 284.60378125 245.66571875000002 Q 284.38956249999995 251.80640625000004 284.38956249999995 254.559125 Q 284.38956249999995 257.31184375 284.38956249999995 259.852828125 Q 284.38956249999995 262.39381249999997 284.38956249999995 269.16974999999996 Q 284.38956249999995 275.94568749999996 284.38956249999995 278.91015625 Q 284.38956249999995 281.874625 284.38956249999995 287.168328125 Q 284.38956249999995 292.46203125 284.38956249999995 295.85 Q 284.38956249999995 299.23796875 284.17535937499997 305.16690625 Q 283.96115625 311.09584375 283.96115625 314.0603125 Q 283.96115625 317.02478125 283.532734375 323.37721875 Q 283.1043125 329.72965625 283.1043125 332.270640625 Q 283.1043125 334.811625 283.1043125 339.893578125 Q 283.1043125 344.97553125 282.89010937499995 348.15175 Q 282.67590624999997 351.32796874999997 282.67590624999997 354.2924375 Q 282.67590624999997 357.25690625 282.67590624999997 362.127109375 Q 282.67590624999997 366.99731249999996 282.89010937499995 369.53828124999995 Q 283.1043125 372.07925 283.318515625 377.79645312499997 Q 283.53271874999996 383.51365625 283.53271874999996 386.054625 Q 283.53271874999996 388.59559375 283.53271874999996 393.2540625 Q 283.53271874999996 397.91253125 283.53271874999996 400.453484375 Q 283.53271874999996 402.9944375 283.318515625 408.71165625000003 Q 283.1043125 414.428875 283.1043125 416.12284375 Q 283.1043125 417.81681249999997 283.1043125 420.14606249999997 Q 283.1043125 422.4753125 283.1043125 427.98074999999994 Q 283.1043125 433.48618749999997 283.1043125 436.02715624999996 Q 283.1043125 438.568125 283.1043125 442.80309375 Q 283.1043125 447.03806249999997 283.1043125 449.57903124999996 Q 283.1043125 452.12 282.89010937499995 456.99021875 Q 282.67590624999997 461.8604375 282.4616875 464.18965625 Q 282.24746875 466.518875 282.24746875 469.27159374999997 Q 282.24746875 472.0243125 282.033265625 473.71828125 Q 281.8190625 475.41225 281.8190625 477.318 Q 281.8190625 479.22375 281.8190625 482.82346874999996 Q 281.8190625 486.4231875 281.8190625 488.11715625 Q 281.8190625 489.811125 281.8190625 492.98734375000004 Q 281.8190625 496.1635625 281.8190625 497.0105625 Q 281.8190625 497.8575625 281.8190625 499.5515625 Q 281.8190625 501.2455625 281.8190625 502.09253125 Q 281.8190625 502.93949999999995 281.8190625 504.63349999999997 Q 281.8190625 506.3275 281.8190625 506.96274999999997 Q 281.8190625 507.59799999999996 281.8190625 508.23321875 Q 281.8190625 508.8684375 281.8190625 509.7154375 Q 281.8190625 510.5624375 281.8190625 510.7741875 Q 281.8190625 510.9859375 281.8190625 511.1976875 Q 281.8190625 511.40943749999997 281.8190625 511.1976875 Q 281.8190625 510.9859375 281.8190625 510.5624375 Q 281.8190625 510.1389375 282.033265625 508.65671875 L 282.24846875 507.1735" stroke-linecap="round" />
</g>
</svg>