<?xml version="1.0" encoding="UTF-8" standalone="no" ?>
<!DOCTYPE svg PUBLIC "-//W3C//DTD SVG 1.1//EN" "http://www.w3.org/Graphics/SVG/1.1/DTD/svg11.dtd">
<svg xmlns="http://www.w3.org/2000/svg" xmlns:xlink="http://www.w3.org/1999/xlink" version="1.1" width="640" height="640" viewBox="0 0 640 640" xml:space="preserve">
<desc>Created with Fabric.js 4.6.0</desc>
<defs>
</defs>
<g transform="matrix(1 0 0 1 160 320)" id="-cOXuxpBK71cY5CSKO9uw"  >
<path style="stroke: rgb(55,45,39); stroke-width: 30; stroke-dasharray: none; stroke-linecap: round; stroke-dashoffset: 0; stroke-linejoin: round; stroke-miterlimit: 10; fill: none; fill-rule: nonzero; opacity: 1;" vector-effect="non-scaling-stroke"  transform=" translate(0, 0)" d="M 10.92466 -215.93051 C 10.92466 -215.92983999999998 10.92466 -215.43543 10.92466 -214.44728 C 10.92466 -213.45912 10.92466 -212.61213 10.92466 -211.90630000000002 C 10.92466 -211.20047000000002 10.92466 -209.92998000000003 10.92466 -208.09483 C 10.92466 -206.25968 10.92466 -204.91861 10.92466 -204.07162 C 10.92466 -203.22463 10.85325 -202.09530999999998 10.71044 -200.68366 C 10.56763 -199.27201 10.35342 -198.28385 10.06781 -197.71919 C 9.78221 -197.15453 9.496599999999999 -196.4487 9.21098 -195.60171 C 8.92537 -194.75472 8.42554 -193.13130999999998 7.711509999999999 -190.73151 C 6.997479999999999 -188.33169999999998 6.354849999999999 -185.86130999999997 5.783629999999999 -183.32032999999998 C 5.212409999999998 -180.77935 4.783989999999998 -178.73244999999997 4.498379999999999 -177.17962999999997 C 4.212769999999999 -175.62680999999998 3.998549999999999 -174.21515999999997 3.855739999999999 -172.94466999999997 C 3.712929999999999 -171.67417999999998 3.498719999999999 -169.20378999999997 3.213109999999999 -165.53348999999997 C 2.927509999999999 -161.86318999999997 2.641899999999999 -159.18104999999997 2.356279999999999 -157.48706999999996 C 2.070669999999999 -155.79308999999995 1.6422499999999989 -153.39327999999995 1.071029999999999 -150.28763999999995 C 0.4998099999999991 -147.18199999999996 0.14279999999999904 -144.99393999999995 -0.000020000000001019203 -143.72344999999996 C -0.142830000000001 -142.45295999999996 -0.499850000000001 -140.19430999999994 -1.071070000000001 -136.94750999999997 C -1.642290000000001 -133.70070999999996 -2.142110000000001 -131.15972999999997 -2.570520000000001 -129.32458999999997 C -2.998940000000001 -127.48943999999997 -3.355950000000001 -125.01904999999998 -3.641570000000001 -121.91341999999997 C -3.9271800000000012 -118.80777999999998 -4.141400000000001 -116.47855999999997 -4.284210000000001 -114.92572999999997 C -4.427020000000001 -113.37290999999998 -4.641230000000001 -111.60833999999997 -4.926830000000001 -109.63202999999997 C -5.21243 -107.65571999999997 -5.4980400000000005 -104.62066999999998 -5.783660000000001 -100.52686999999997 C -6.069270000000001 -96.43307999999998 -6.212080000000001 -93.60976999999997 -6.212080000000001 -92.05694999999997 C -6.212080000000001 -90.50412999999998 -6.354890000000001 -87.96314999999997 -6.640500000000001 -84.43400999999997 C -6.926110000000001 -80.90486999999997 -7.140320000000001 -78.01097999999998 -7.283120000000001 -75.75233999999998 C -7.425920000000001 -73.49368999999997 -7.568720000000001 -70.59979999999997 -7.7115300000000016 -67.07066999999998 C -7.854330000000002 -63.54152999999998 -7.9257300000000015 -60.78880999999998 -7.9257300000000015 -58.81249999999998 C -7.9257300000000015 -56.83618999999998 -7.997140000000002 -53.801139999999975 -8.13995 -49.70733999999998 C -8.282760000000001 -45.61354999999998 -8.35417 -42.649079999999984 -8.35417 -40.813929999999985 C -8.35417 -38.978779999999986 -8.35417 -37.21421999999998 -8.35417 -35.520229999999984 C -8.35417 -33.826239999999984 -8.35417 -30.720599999999983 -8.35417 -26.203309999999984 C -8.35417 -21.686019999999985 -8.35417 -18.439219999999985 -8.35417 -16.462899999999983 C -8.35417 -14.486589999999984 -8.35417 -11.733859999999982 -8.35417 -8.204729999999984 C -8.35417 -4.675589999999984 -8.35417 -1.7816999999999839 -8.35417 0.4769400000000168 C -8.35417 2.7355900000000166 -8.42557 5.841220000000017 -8.56837 9.793850000000017 C -8.71117 13.746470000000016 -8.78257 16.710940000000015 -8.78257 18.687260000000016 C -8.78257 20.663570000000018 -8.92538 23.769210000000015 -9.210989999999999 28.004170000000016 C -9.496599999999999 32.23913000000002 -9.639409999999998 35.203600000000016 -9.639409999999998 36.897590000000015 C -9.639409999999998 38.591580000000015 -9.639409999999998 41.13256000000001 -9.639409999999998 44.520530000000015 C -9.639409999999998 47.90850000000002 -9.710809999999999 50.661220000000014 -9.853609999999998 52.778700000000015 C -9.996409999999997 54.896180000000015 -10.067809999999998 56.943080000000016 -10.067809999999998 58.919390000000014 C -10.067809999999998 60.89570000000001 -10.067809999999998 63.50726000000002 -10.067809999999998 66.75406000000001 C -10.067809999999998 70.00086 -9.996409999999997 72.47125000000001 -9.853609999999998 74.16523000000001 C -9.710809999999999 75.85921 -9.568009999999997 78.61193 -9.425199999999998 82.42340000000002 C -9.282399999999999 86.23487000000002 -9.210999999999999 88.98759000000001 -9.210999999999999 90.68157000000002 C -9.210999999999999 92.37555000000002 -9.210999999999999 94.77536000000002 -9.210999999999999 97.88101000000002 C -9.210999999999999 100.98666000000001 -9.210999999999999 103.38646000000001 -9.210999999999999 105.08043000000002 C -9.210999999999999 106.77440000000001 -9.282399999999999 109.52712000000002 -9.425199999999998 113.33860000000001 C -9.567999999999998 117.15008000000002 -9.639399999999998 119.62047000000001 -9.639399999999998 120.74979000000002 C -9.639399999999998 121.87910000000002 -9.639399999999998 123.22018000000001 -9.639399999999998 124.77301000000001 C -9.639399999999998 126.32584000000001 -9.639399999999998 128.93741 -9.639399999999998 132.60770000000002 C -9.639399999999998 136.27799000000002 -9.639399999999998 138.96013000000002 -9.639399999999998 140.65411000000003 C -9.639399999999998 142.34809000000004 -9.639399999999998 144.60674000000003 -9.639399999999998 147.43005000000002 C -9.639399999999998 150.25336000000001 -9.639399999999998 152.51201000000003 -9.639399999999998 154.20599 C -9.639399999999998 155.89997000000002 -9.710799999999999 158.37037 -9.853599999999998 161.61718000000002 C -9.996399999999998 164.86399000000003 -10.139209999999999 167.26380000000003 -10.28202 168.81662000000003 C -10.42483 170.36943000000002 -10.496239999999998 172.06341000000003 -10.496239999999998 173.89856000000003 C -10.496239999999998 175.73371000000003 -10.567639999999999 177.21594000000005 -10.710439999999998 178.34525000000002 C -10.853239999999998 179.47456000000003 -10.924639999999998 180.67447 -10.924639999999998 181.94497 C -10.924639999999998 183.21547 -10.924639999999998 185.05063 -10.924639999999998 187.45044000000001 C -10.924639999999998 189.85025000000002 -10.924639999999998 191.61482 -10.924639999999998 192.74413 C -10.924639999999998 193.87344000000002 -10.924639999999998 195.49684000000002 -10.924639999999998 197.61432000000002 C -10.924639999999998 199.73180000000002 -10.924639999999998 201.07287000000002 -10.924639999999998 201.63754000000003 C -10.924639999999998 202.20221000000004 -10.924639999999998 203.04921000000002 -10.924639999999998 204.17854000000003 C -10.924639999999998 205.30787000000004 -10.924639999999998 206.15486 -10.924639999999998 206.71951 C -10.924639999999998 207.28416 -10.924639999999998 208.13115000000002 -10.924639999999998 209.26048 C -10.924639999999998 210.38981 -10.924639999999998 211.16623 -10.924639999999998 211.58973 C -10.924639999999998 212.01323 -10.924639999999998 212.43672 -10.924639999999998 212.8602 C -10.924639999999998 213.28368 -10.924639999999998 213.77775 -10.924639999999998 214.34242 C -10.924639999999998 214.90709 -10.924639999999998 215.26 -10.924639999999998 215.40117 C -10.924639999999998 215.54234 -10.924639999999998 215.6835 -10.924639999999998 215.82467 C -10.924639999999998 215.96584 -10.924639999999998 215.96584 -10.924639999999998 215.82467 C -10.924639999999998 215.6835 -10.924639999999998 215.47175 -10.924639999999998 215.18941999999998 C -10.924639999999998 214.90708999999998 -10.853239999999998 214.27184999999997 -10.710439999999998 213.28369999999998 L -10.495239999999999 211.80048" stroke-linecap="round" />
</g>
<g transform="matrix(1 0 0 1 122.26 180)" id="zR9sdU9VJpKuRq1cQKDjG"  >
<path style="stroke: rgb(55,45,39); stroke-width: 30; stroke-dasharray: none; stroke-linecap: round; stroke-dashoffset: 0; stroke-linejoin: round; stroke-miterlimit: 10; fill: none; fill-rule: nonzero; opacity: 1;" vector-effect="non-scaling-stroke"  transform=" translate(0, 0)" d="M 22.7393 37.15821 C 22.73863 37.15754 22.36857 36.23289 21.62911 34.384249999999994 C 20.88965 32.53560999999999 19.96533 30.502099999999995 18.85615 28.283729999999995 C 17.74696 26.065359999999995 16.82264 24.031849999999995 16.08319 22.183209999999995 C 15.343729999999999 20.334569999999996 14.60428 18.855649999999997 13.864819999999998 17.746469999999995 C 13.125359999999999 16.637279999999997 12.755629999999998 15.897829999999995 12.755629999999998 15.528099999999995 C 12.755629999999998 15.158369999999994 12.570769999999998 14.973509999999996 12.201039999999999 14.973509999999996 C 11.831309999999998 14.973509999999996 11.46158 14.973509999999996 11.091849999999999 14.973509999999996 C 10.722119999999999 14.973509999999996 10.53726 14.788649999999995 10.53726 14.418919999999996 C 10.53726 14.049189999999996 10.3524 13.864329999999997 9.98267 13.864329999999997 C 9.61294 13.864329999999997 9.428080000000001 13.679469999999997 9.428080000000001 13.309739999999998 C 9.428080000000001 12.940009999999997 9.24322 12.570279999999999 8.873490000000002 12.200549999999998 C 8.503760000000002 11.830819999999997 7.394580000000002 8.872989999999998 5.545930000000002 3.3270699999999973 C 3.697290000000002 -2.218860000000003 1.2940500000000021 -8.319380000000002 -1.6637799999999983 -14.974490000000001 C -4.621609999999999 -21.6296 -6.655109999999998 -25.696620000000003 -7.764299999999999 -27.175530000000002 C -8.873489999999999 -28.65444 -9.612939999999998 -29.578770000000002 -9.982669999999999 -29.948490000000003 C -10.3524 -30.318220000000004 -10.722129999999998 -30.687950000000004 -11.091859999999999 -31.057680000000005 C -11.46159 -31.427410000000005 -12.016179999999999 -31.982000000000006 -12.75564 -32.72146000000001 C -13.495099999999999 -33.46092000000001 -14.04969 -34.20037000000001 -14.419419999999999 -34.93983000000001 C -14.78915 -35.67929000000001 -15.158879999999998 -36.233880000000006 -15.528609999999999 -36.60361000000001 C -15.89834 -36.97334000000001 -16.268069999999998 -37.15820000000001 -16.6378 -37.15820000000001 C -17.00753 -37.15820000000001 -17.37726 -37.15820000000001 -17.746989999999997 -37.15820000000001 C -18.116719999999997 -37.15820000000001 -18.486449999999998 -37.15820000000001 -18.856179999999995 -37.15820000000001 C -19.225909999999995 -37.15820000000001 -19.595639999999996 -37.15820000000001 -19.965369999999993 -37.15820000000001 C -20.335099999999994 -37.15820000000001 -20.889689999999995 -37.15820000000001 -21.629149999999992 -37.15820000000001 L -22.73933999999999 -37.15820000000001" stroke-linecap="round" />
</g>
</svg>