<?xml version="1.0" encoding="UTF-8" standalone="no" ?>
<!DOCTYPE svg PUBLIC "-//W3C//DTD SVG 1.1//EN" "http://www.w3.org/Graphics/SVG/1.1/DTD/svg11.dtd">
<svg xmlns="http://www.w3.org/2000/svg" xmlns:xlink="http://www.w3.org/1999/xlink" version="1.1" width="640" height="480" viewBox="0 0 640 480" xml:space="preserve">
<desc>Created with Fabric.js 4.6.0</desc>
<defs>
</defs>
<g transform="matrix(1 0 0 1 320 240)" id="IaydVxJtYWC-3h0-R2-Wa"  >
<path style="stroke: rgb(0,0,0); stroke-width: 16; stroke-dasharray: none; stroke-linecap: butt; stroke-dashoffset: 0; stroke-linejoin: miter; stroke-miterlimit: 4; fill: rgb(255,238,179); fill-rule: nonzero; opacity: 1;" vector-effect="non-scaling-stroke"  transform=" translate(0, 0)" d="M -240 -88.96777 C -240 -172.38056 -172.38057 -239.99999 -88.96778 -239.99999 L 88.96778 -239.99999 L 88.96778 -239.99999 C 172.38057 -239.99999 240 -172.38056 240 -88.96777 L 240 88.96778 L 240 88.96778 C 240 172.38057 172.38057 240 88.96778 240 L -88.96778 240 L -88.96778 240 C -172.38057 240 -240 172.38057 -240 88.96778 z" stroke-linecap="round" />
</g>
<g transform="matrix(1 0 0 1 196 116)" id="Sq_lJtHyCYe8G83zvyXnI"  >
<path style="stroke: rgb(0,0,0); stroke-width: 8; stroke-dasharray: none; stroke-linecap: butt; stroke-dashoffset: 0; stroke-linejoin: miter; stroke-miterlimit: 4; fill: rgb(171,255,244); fill-rule: nonzero; opacity: 1;" vector-effect="non-scaling-stroke"  transform=" translate(-50, -50)" d="M 0 0 L 100 0 L 100 100 L 0 100 z" stroke-linecap="round" />
</g>
</svg>