<?xml version="1.0" encoding="UTF-8" standalone="no" ?>
<!DOCTYPE svg PUBLIC "-//W3C//DTD SVG 1.1//EN" "http://www.w3.org/Graphics/SVG/1.1/DTD/svg11.dtd">
<svg xmlns="http://www.w3.org/2000/svg" xmlns:xlink="http://www.w3.org/1999/xlink" version="1.1" width="640" height="640" viewBox="0 0 640 640" xml:space="preserve">
<desc>Created with Fabric.js 4.6.0</desc>
<defs>
</defs>
<g transform="matrix(1 0 0 1 288.89 258.34)" id="jWFco3nHJfKnIFjmms4SJ"  >
<path style="stroke: rgb(252,134,29); stroke-width: 10; stroke-dasharray: none; stroke-linecap: round; stroke-dashoffset: 0; stroke-linejoin: round; stroke-miterlimit: 10; fill: none; fill-rule: nonzero; opacity: 1;" vector-effect="non-scaling-stroke"  transform=" translate(-288.89, -258.34)" d="M 444.61881249999993 244.60796875 Q 444.61781249999996 244.60696875 443.11834374999995 244.39521875 Q 441.61887499999995 244.18346875 440.333625 243.97171875 Q 439.048375 243.75996875 437.33471875 243.124734375 Q 435.62106249999994 242.4895 433.05053124999995 241.85425 Q 430.47999999999996 241.21900000000002 429.19474999999994 241.00725000000003 Q 427.9094999999999 240.79550000000003 424.48215624999995 240.37201562500002 Q 421.05481249999997 239.94853125 419.34115625 239.73678125 Q 417.6275 239.52503125 412.0580625 239.10153125000002 Q 406.488625 238.67803125000003 404.56075 238.67803125000003 Q 402.63287499999996 238.67803125000003 398.13449999999995 238.67803125000003 Q 393.63612499999994 238.67803125000003 390.20878124999996 238.67803125000003 Q 386.7814375 238.67803125000003 383.78249999999997 238.67803125000003 Q 380.78356249999996 238.67803125000003 376.92781249999996 238.67803125000003 Q 373.07206249999996 238.67803125000003 371.1441875 238.67803125000003 Q 369.2163125 238.67803125000003 364.71790625 238.88978125000003 Q 360.2195 239.10153125000002 357.220578125 239.10153125000002 Q 354.22165624999997 239.10153125000002 349.937484375 239.10153125000002 Q 345.6533125 239.10153125000002 343.725421875 239.10153125000002 Q 341.79753124999996 239.10153125000002 337.08493749999997 239.10153125000002 Q 332.37234374999997 239.10153125000002 329.80184375 239.31328125000002 Q 327.23134374999995 239.52503125 325.51767187499996 239.52503125 Q 323.804 239.52503125 320.80507812499997 239.73678125 Q 317.80615624999996 239.94853125 316.30668749999995 240.16026562500002 Q 314.80721874999995 240.37200000000004 312.022515625 240.79550000000003 Q 309.23781249999996 241.21900000000002 307.09571874999995 241.21900000000002 Q 304.953625 241.21900000000002 300.0268125 241.21900000000002 Q 295.09999999999997 241.21900000000002 293.17212499999994 241.21900000000002 Q 291.24424999999997 241.21900000000002 286.745859375 241.43075000000002 Q 282.24746875 241.6425 279.462765625 241.6425 Q 276.67806249999995 241.6425 272.393875 241.43075000000002 Q 268.10968749999995 241.21900000000002 266.39601562499996 241.21900000000002 Q 264.68234375 241.21900000000002 262.968671875 241.43075000000002 Q 261.255 241.6425 258.47028124999997 242.066 Q 255.68556249999995 242.4895 253.75768749999995 242.70125000000002 Q 251.82981249999995 242.91300000000004 246.68879687499995 243.12475000000003 Q 241.54778124999996 243.33650000000003 239.40570312499997 243.33650000000003 Q 237.263625 243.33650000000003 233.19365624999998 243.33650000000003 Q 229.12368749999996 243.33650000000003 226.55317187499998 243.33650000000003 Q 223.98265625 243.33650000000003 219.48428124999998 243.12475000000003 Q 214.98590624999997 242.91300000000004 213.48643749999997 242.91300000000004 Q 211.98696874999996 242.91300000000004 210.70171874999997 242.91300000000004 Q 209.41646874999998 242.91300000000004 206.41754687499997 242.91300000000004 Q 203.41862499999996 242.91300000000004 202.34757812499996 242.91300000000004 Q 201.27653124999995 242.91300000000004 198.49181249999995 242.91300000000004 Q 195.70709374999996 242.91300000000004 193.35079687499996 243.12475000000003 Q 190.99449999999996 243.33650000000003 187.35295312499997 243.33650000000003 Q 183.71140624999998 243.33650000000003 182.21193749999998 243.33650000000003 Q 180.71246874999997 243.33650000000003 177.71354687499996 243.54823437500002 Q 174.71462499999996 243.75996875 173.21515624999995 243.75996875 Q 171.71568749999994 243.75996875 170.21623437499997 243.97171875 Q 168.71678125 244.18346875 165.07521874999998 243.75998437500002 Q 161.43365624999996 243.33650000000003 160.14840624999997 243.33650000000003 Q 158.86315624999997 243.33650000000003 156.93528124999997 243.54823437500002 Q 155.00740624999997 243.75996875 154.15056249999998 243.97171875 Q 153.29371874999998 244.18346875 151.15164062499997 244.18346875 Q 149.00956249999996 244.18346875 148.15271874999996 244.18346875 Q 147.29587499999997 244.18346875 145.79642187499996 244.18346875 Q 144.29696874999996 244.18346875 143.44012499999997 244.18346875 Q 142.58328124999997 244.18346875 140.65540624999997 244.60696875000002 Q 138.72753124999997 245.03046875000004 137.87070312499998 245.03046875000004 Q 137.01387499999998 245.03046875000004 136.15703125 245.03046875000004 Q 135.3001875 245.03046875000004 134.01493749999997 245.03046875000004 Q 132.72968749999995 245.03046875000004 132.08706249999997 245.03046875000004 Q 131.4444375 245.03046875000004 131.016015625 245.03046875000004 Q 130.58759375 245.03046875000004 130.37339062499998 245.03046875000004 Q 130.15918749999997 245.03046875000004 129.73076562499998 245.24221875000003 Q 129.30234374999998 245.45396875000003 128.87392187499998 245.66571875000002 Q 128.44549999999998 245.87746875000002 127.80287499999997 246.30096875 Q 127.16024999999996 246.72446875 126.94604687499998 246.93620312500002 Q 126.73184375 247.14793750000004 126.51762499999998 247.35968750000004 Q 126.30340624999997 247.57143750000003 125.87499999999997 248.20668750000002 Q 125.44659374999998 248.8419375 125.23237499999996 249.26543750000002 Q 125.01815624999995 249.68893750000004 124.58973437499995 251.17117187500003 Q 124.16131249999995 252.65340625000002 124.16131249999995 253.50039062500002 Q 124.16131249999995 254.34737500000003 124.16131249999995 255.61785937500002 Q 124.16131249999995 256.88834375 124.16131249999995 257.52359375 Q 124.16131249999995 258.15884374999996 124.16131249999995 259.21757812499993 Q 124.16131249999995 260.27631249999996 124.37553124999997 260.91156249999995 Q 124.58974999999998 261.5468125 124.58974999999998 261.9703125 Q 124.58974999999998 262.39381249999997 125.01817187499998 263.45254687499994 Q 125.44659374999998 264.51128124999997 125.66079687499996 264.93478125 Q 125.87499999999994 265.35828125 126.51762499999995 266.417015625 Q 127.16024999999996 267.47575 127.58867187499996 267.89925 Q 128.01709374999996 268.32275 129.08814062499997 268.95799999999997 Q 130.15918749999997 269.59325 130.80181249999998 270.016734375 Q 131.4444375 270.44021875 132.72968749999998 271.28721874999997 Q 134.01493749999997 272.13421875 134.65756249999998 272.34596875 Q 135.3001875 272.55771875 135.728609375 272.76946875 Q 136.15703125 272.98121875 137.01385937499998 273.40470312499997 Q 137.87068749999997 273.8281875 138.29910937499997 274.2516875 Q 138.72753124999997 274.6751875 139.37015624999998 275.0986875 Q 140.01278125 275.5221875 140.441203125 275.73393749999997 Q 140.86962499999998 275.94568749999996 141.51224999999997 276.369171875 Q 142.15487499999995 276.79265625 142.79749999999996 276.79265625 Q 143.44012499999997 276.79265625 144.51117187499997 276.79265625 Q 145.58221874999998 276.79265625 146.22484374999996 276.79265625 Q 146.86746874999994 276.79265625 148.15271874999996 276.79265625 Q 149.43796874999998 276.79265625 150.08059374999996 276.79265625 Q 150.72321874999994 276.79265625 151.58006249999997 276.79265625 Q 152.43690625 276.79265625 154.793203125 276.79265625 Q 157.1495 276.79265625 158.43474999999998 276.79265625 Q 159.71999999999997 276.79265625 162.29049999999998 277.21615625 Q 164.861 277.63965625 166.14626562499998 277.63965625 Q 167.43153124999998 277.63965625 170.00203125 277.42790625 Q 172.57253125 277.21615625 173.64357812499998 277.21615625 Q 174.71462499999996 277.21615625 178.14196874999996 277.42790625 Q 181.56931249999997 277.63965625 183.49718749999997 277.42790625 Q 185.42506249999997 277.21615625 186.92453124999997 277.00440625 Q 188.42399999999998 276.79265625 190.78029687499998 276.79265625 Q 193.13659374999997 276.79265625 194.20764062499998 276.580921875 Q 195.2786875 276.3691875 197.84918749999997 275.94568749999996 Q 200.41968749999995 275.5221875 201.70493749999997 275.3104375 Q 202.9901875 275.0986875 206.63173437499998 274.6751875 Q 210.27328124999997 274.2516875 212.41537499999998 274.2516875 Q 214.55746875 274.2516875 217.98481249999998 274.0399375 Q 221.41215624999995 273.8281875 223.12582812499997 273.8281875 Q 224.8395 273.8281875 226.33896875 273.8281875 Q 227.8384375 273.8281875 231.6941875 274.0399375 Q 235.5499375 274.2516875 237.906234375 274.4634375 Q 240.26253125 274.6751875 243.04725 274.6751875 Q 245.83196875 274.6751875 247.3314375 274.8869375 Q 248.83090625 275.0986875 251.82982812499998 275.3104375 Q 254.82874999999996 275.5221875 256.114 275.5221875 Q 257.39925 275.5221875 260.82659375 275.5221875 Q 264.25393749999995 275.5221875 266.61023437499995 275.5221875 Q 268.96653124999995 275.5221875 270.89440625 275.5221875 Q 272.82228124999995 275.5221875 276.2496249999999 275.73393749999997 Q 279.67696874999996 275.94568749999996 281.39064062499995 276.1574375 Q 283.1043125 276.3691875 287.81690625 277.004421875 Q 292.5295 277.63965625 294.45737499999996 277.63965625 Q 296.38525 277.63965625 298.95576562499997 277.85140624999997 Q 301.52628124999995 278.06315624999996 302.81153125 277.85140624999997 Q 304.09678125 277.63965625 306.88149999999996 277.63965625 Q 309.66621875 277.63965625 310.95146875 277.63965625 Q 312.23671874999997 277.63965625 315.02143749999993 277.42790625 Q 317.80615624999996 277.21615625 319.73403124999993 277.00440625 Q 321.66190624999996 276.79265625 323.37557812499995 276.580921875 Q 325.08925 276.3691875 328.08817187499994 276.3691875 Q 331.08709374999995 276.3691875 332.58656249999996 276.3691875 Q 334.08603124999996 276.3691875 337.08495312499997 276.580921875 Q 340.083875 276.79265625 342.01174999999995 276.79265625 Q 343.9396249999999 276.79265625 347.58118749999994 276.79265625 Q 351.22274999999996 276.79265625 352.508 276.580921875 Q 353.79325 276.3691875 354.86428125 276.3691875 Q 355.93531249999995 276.3691875 358.29162499999995 276.1574375 Q 360.64793749999995 275.94568749999996 361.9331875 275.94568749999996 Q 363.2184375 275.94568749999996 365.7889375 275.5221875 Q 368.35943749999996 275.0986875 369.43049999999994 274.8869375 Q 370.5015624999999 274.6751875 374.14309374999993 274.2516875 Q 377.78462499999995 273.8281875 379.28409374999995 273.8281875 Q 380.78356249999996 273.8281875 383.13987499999996 273.61643749999996 Q 385.49618749999996 273.40468749999997 386.7814375 273.192953125 Q 388.0666875 272.98121875 390.42296875 272.76946875 Q 392.77925 272.55771875 393.8503125 272.34596875 Q 394.92137499999995 272.13421875 396.206625 272.13421875 Q 397.491875 272.13421875 400.49078125 272.13421875 Q 403.4896875 272.13421875 404.56075 272.13421875 Q 405.63181249999997 272.13421875 407.34546874999995 271.71071874999996 Q 409.05912499999994 271.28721874999997 409.91596874999993 271.07546874999997 Q 410.77281249999993 270.86371875 412.27228124999993 270.65196875 Q 413.77174999999994 270.44021875 414.62856249999993 270.44021875 Q 415.4853749999999 270.44021875 417.19906249999997 270.016734375 Q 418.91275 269.59325 419.76959375 269.59325 Q 420.6264375 269.59325 421.91168749999997 269.38149999999996 Q 423.19693749999993 269.16974999999996 424.05375 268.95799999999997 Q 424.9105625 268.74625 425.55321875 268.5345 Q 426.19587499999994 268.32275 427.69531249999994 268.111 Q 429.19474999999994 267.89925 430.05159374999994 267.89925 Q 430.90843749999993 267.89925 433.05053124999995 267.47575 Q 435.19262499999996 267.05225 436.04946874999996 266.84051562499997 Q 436.90631249999996 266.62878125 438.61996874999994 266.20528125 Q 440.3336249999999 265.78178125 441.19046875 265.78178125 Q 442.04731250000003 265.78178125 443.3325625 265.35828125 Q 444.61781249999996 264.93478125 445.26043749999997 264.72303124999996 Q 445.9030625 264.51128124999997 446.33146875 264.29953125 Q 446.759875 264.08778125 447.61671875 263.664296875 Q 448.4735625 263.2408125 448.90196875 263.0290625 Q 449.33037499999995 262.8173125 450.18721874999994 262.39381249999997 Q 451.04406249999994 261.9703125 451.25828125 261.7585625 Q 451.4725 261.5468125 451.90090625 261.1233125 Q 452.32931249999996 260.6998125 452.54353124999994 260.27632812499996 Q 452.75774999999993 259.85284375 453.18615624999995 258.79409375 Q 453.6145625 257.73534374999997 453.6145625 257.100109375 Q 453.6145625 256.464875 453.6145625 255.82962500000002 Q 453.6145625 255.194375 453.6145625 253.923890625 Q 453.6145625 252.65340625000002 453.6145625 252.01815625 Q 453.6145625 251.38290625 453.6145625 250.535921875 Q 453.6145625 249.68893750000004 453.6145625 249.26543750000002 Q 453.6145625 248.8419375 453.6145625 247.99493750000002 Q 453.6145625 247.14793750000004 453.6145625 246.72445312500003 Q 453.6145625 246.30096875 453.6145625 245.45396875 Q 453.6145625 244.60696875 453.6145625 244.39521875 Q 453.6145625 244.18346875 453.6145625 243.75998437500002 Q 453.6145625 243.33650000000003 453.6145625 242.913 Q 453.6145625 242.4895 453.400375 242.4895 Q 453.1861875 242.4895 452.75775 242.4895 Q 452.32931249999996 242.4895 451.90090625 242.27775 Q 451.4725 242.066 451.0440625 242.066 Q 450.61562499999997 242.066 449.7588125 242.066 Q 448.902 242.066 448.47356249999996 242.066 Q 448.0451249999999 242.066 446.33146874999994 241.85425 Q 444.61781249999996 241.6425 443.76096874999996 241.6425 Q 442.90412499999996 241.6425 440.76203124999995 241.6425 Q 438.61993749999993 241.6425 437.54890624999996 241.6425 Q 436.477875 241.6425 434.33578124999997 241.43075000000002 Q 432.19368749999995 241.21900000000002 431.33684374999996 241.21900000000002 Q 430.47999999999996 241.21900000000002 429.19474999999994 241.21900000000002 Q 427.9094999999999 241.21900000000002 427.26687499999997 241.21900000000002 Q 426.62425 241.21900000000002 425.981625 241.21900000000002 Q 425.339 241.21900000000002 424.05375 241.43075000000002 Q 422.76849999999996 241.6425 422.34009375 241.6425 L 421.91068750000005 241.6425" stroke-linecap="round" />
</g>
<g transform="matrix(1 0 0 1 295.52 258.56)" id="jLWw0V-0Vx7pSN1LrYZ9e"  >
<path style="stroke: rgb(255,243,18); stroke-width: 10; stroke-dasharray: none; stroke-linecap: round; stroke-dashoffset: 0; stroke-linejoin: round; stroke-miterlimit: 10; fill: none; fill-rule: nonzero; opacity: 1;" vector-effect="non-scaling-stroke"  transform=" translate(-295.52, -258.56)" d="M 432.20368749999994 251.80640625000004 Q 432.19368749999995 251.80640625000004 431.33684374999996 251.59465625 Q 430.47999999999996 251.38290625 429.6231875 251.38290625 Q 428.766375 251.38290625 427.6953125 251.38290625 Q 426.62425 251.38290625 422.55428125 251.38290625 Q 418.48431249999993 251.38290625 414.84278125 251.38290625 Q 411.20125 251.38290625 404.3465625 251.80640625 Q 397.491875 252.22990625000003 393.42190625 252.65340625000002 Q 389.3519375 253.07690625 381.42618749999997 253.923890625 Q 373.5004374999999 254.77087500000002 371.35837499999997 255.194375 Q 369.2163125 255.617875 359.3626875 254.982625 Q 349.50906249999997 254.34737500000003 345.867515625 253.923875 Q 342.22596875 253.500375 332.80078125 252.441640625 Q 323.37559374999995 251.38290625 320.590875 250.747671875 Q 317.80615624999996 250.11243750000003 312.66514062499994 249.26543750000002 Q 307.52412499999997 248.4184375 304.09678124999994 248.4184375 Q 300.66943749999996 248.4184375 298.31314062499996 248.4184375 Q 295.95684374999996 248.4184375 293.81475 248.4184375 Q 291.67265625 248.4184375 291.458453125 248.4184375 Q 291.24424999999997 248.4184375 291.030046875 248.4184375 Q 290.81584375 248.4184375 291.24424999999997 248.4184375 Q 291.67265625 248.4184375 294.45737499999996 249.05368750000002 Q 297.24209375 249.68893750000004 299.169984375 249.68893750000004 Q 301.097875 249.68893750000004 304.311 249.90068750000003 Q 307.52412499999997 250.11243750000003 309.66621875 250.11243750000003 Q 311.8083125 250.11243750000003 315.44985937499996 250.32417187500002 Q 319.09140625 250.53590625 326.160296875 250.74765625 Q 333.22918749999997 250.95940625 337.29915625 250.95940625 Q 341.369125 250.95940625 349.29484375 250.95940625 Q 357.22056249999997 250.95940625 359.36265625 250.95940625 Q 361.50475 250.95940625 369.21628125 251.38290625000002 Q 376.9278125 251.80640625000004 380.99778125 252.22990625000003 Q 385.06775 252.65340625000002 391.06559375 253.71214062500002 Q 397.0634375 254.77087500000002 400.2765625 255.194375 Q 403.4896875 255.617875 406.27440624999997 255.82962499999996 Q 409.05912499999994 256.04137499999996 411.41543749999994 255.82962499999996 Q 413.77174999999994 255.617875 414.62856249999993 255.406125 Q 415.4853749999999 255.194375 415.91381249999995 255.194375 Q 416.34225 255.194375 415.91381249999995 254.77087500000002 Q 415.4853749999999 254.34737500000003 413.34331249999997 253.71214062500002 Q 411.20125 253.07690625 402.20446875 252.22990625 Q 393.20768749999996 251.38290625 386.78140625 251.80640625 Q 380.355125 252.22990625000003 369.43046875 253.923890625 Q 358.5058125 255.617875 352.0795625 256.676609375 Q 345.6533125 257.73534374999997 339.22704687500004 258.79409375 Q 332.80078125 259.85284375 324.66084375 261.12332812499994 Q 316.52090625 262.39381249999997 313.521984375 262.81731249999996 Q 310.5230625 263.2408125 302.16890624999996 263.2408125 Q 293.81474999999995 263.2408125 291.672671875 263.0290625 Q 289.53059375 262.8173125 285.24640624999995 262.39381249999997 Q 280.96221875 261.9703125 279.03434374999995 261.7585625 Q 277.10646875 261.5468125 275.17859375 261.1233125 Q 273.25071875 260.6998125 273.03649999999993 260.6998125 Q 272.82228124999995 260.6998125 274.96437499999996 260.6998125 Q 277.10646875 260.6998125 280.31959374999997 260.6998125 Q 283.53271874999996 260.6998125 292.10107812499996 261.5468125 Q 300.66943749999996 262.39381249999997 303.02573437499996 262.6055625 Q 305.38203124999995 262.8173125 311.808296875 263.0290625 Q 318.2345625 263.2408125 322.732953125 263.0290625 Q 327.23134374999995 262.8173125 334.72865625 262.6055625 Q 342.22596875 262.39381249999997 346.72435937499995 262.1820625 Q 351.22274999999996 261.9703125 357.006375 261.7585625 Q 362.79 261.5468125 365.57471875 261.3350625 Q 368.35943749999996 261.1233125 372.643625 261.1233125 Q 376.9278125 261.1233125 382.49725 261.3350625 Q 388.0666875 261.5468125 389.566125 261.5468125 Q 391.0655625 261.5468125 392.77925 261.5468125 Q 394.4929375 261.5468125 394.92134375 261.5468125 Q 395.34975000000003 261.5468125 392.99346875 261.9703125 Q 390.6371874999999 262.39381249999997 386.56721874999994 263.02904687499995 Q 382.49724999999995 263.66428125 374.78571874999994 265.14653124999995 Q 367.07418749999994 266.62878125 360.86214062499994 267.26401562499996 Q 354.65009374999994 267.89925 342.86859374999995 268.5345 Q 331.08709374999995 269.16974999999996 326.37449999999995 269.16974999999996 Q 321.66190624999996 269.16974999999996 316.735109375 269.16974999999996 Q 311.8083125 269.16974999999996 308.38096874999997 269.38149999999996 Q 304.953625 269.59325 298.7415625 269.804984375 Q 292.5295 270.01671875 290.601625 270.01671875 Q 288.67375 270.01671875 286.74587499999996 270.01671875 Q 284.818 270.01671875 282.03328124999996 270.44021875 Q 279.2485625 270.86371875 278.17751562499996 271.07546874999997 Q 277.10646875 271.28721874999997 276.67804687499995 271.49896875 Q 276.249625 271.71071875 277.10646875 271.71071875 Q 277.9633125 271.71071875 279.24856249999993 271.71071875 Q 280.53381249999995 271.71071875 285.24640624999995 271.49896875 Q 289.95899999999995 271.28721874999997 292.95792187499995 271.07546874999997 Q 295.95684374999996 270.86371875 298.31314062499996 270.65196875 Q 300.66943749999996 270.44021875 305.810453125 270.016734375 Q 310.95146874999995 269.59325 314.80723437499995 269.16975 Q 318.66299999999995 268.74625 325.94609374999993 268.111 Q 333.22918749999997 267.47575 336.65653124999994 267.052265625 Q 340.083875 266.62878125 346.51014062499996 266.20528125 Q 352.93640624999995 265.78178125 354.65007812499994 265.57003125 Q 356.3637499999999 265.35828125 358.93424999999996 264.72303124999996 Q 361.50475 264.08778125 362.5758125 263.87603125 Q 363.64687499999997 263.66428125 364.50368749999996 263.452546875 Q 365.36049999999994 263.2408125 366.21734374999994 262.81731249999996 Q 367.07418749999994 262.39381249999997 367.50259374999996 261.9703125 Q 367.931 261.5468125 367.931 261.1233125 Q 367.931 260.6998125 367.931 260.27632812499996 Q 367.931 259.85284375 367.7168125 259.21759375 Q 367.502625 258.58234375 367.28840625 258.15884374999996 Q 367.07418749999994 257.73534374999997 366.4315625 257.31184375 Q 365.78893750000003 256.88834375 365.57471875 256.676609375 Q 365.36049999999994 256.464875 365.14631249999996 256.25312499999995 Q 364.932125 256.04137499999996 364.71790625 256.04137499999996 Q 364.5036875 256.04137499999996 364.71790625 255.82962499999996 Q 364.932125 255.617875 365.57475 255.194375 Q 366.217375 254.77087500000002 366.86 254.34737500000003 Q 367.502625 253.92387500000004 370.50153124999997 253.07689062500003 Q 373.5004374999999 252.22990625000003 375.21412499999997 252.01815625000003 Q 376.9278125 251.80640625000004 380.1409375 251.59465625 Q 383.3540625 251.38290625 384.63931249999996 251.38290625 Q 385.9245624999999 251.38290625 387.20981249999994 251.17115625 Q 388.49506249999996 250.95940625 390.4229375 250.535921875 Q 392.3508125 250.11243750000003 393.421875 249.90068750000003 Q 394.4929375 249.68893750000004 397.27765625 249.68893750000004 Q 400.06237500000003 249.68893750000004 401.56184375 249.4771875 Q 403.06131249999993 249.2654375 405.63181249999997 248.6301875 Q 408.2023125 247.99493750000002 409.27334375 247.78318750000003 Q 410.34437499999996 247.57143750000003 411.84384374999996 247.35968750000004 Q 413.34331249999997 247.14793750000004 413.9859375 247.14793750000004 Q 414.6285625 247.14793750000004 415.05696874999995 247.14793750000004 Q 415.4853749999999 247.14793750000004 416.77065624999994 247.35968750000004 Q 418.05593749999997 247.57143750000003 418.6985625 247.78318750000003 Q 419.3411875 247.99493750000002 420.198 247.99493750000002 Q 421.05481249999997 247.99493750000002 421.48325 247.99493750000002 Q 421.9116875 247.99493750000002 422.5543125 247.99493750000002 Q 423.19693749999993 247.99493750000002 423.62534374999996 247.99493750000002 Q 424.05375 247.99493750000002 424.48215625 248.20668750000002 Q 424.9105625 248.4184375 425.12478125 248.4184375 Q 425.339 248.4184375 425.339 249.26543750000002 Q 425.339 250.11243750000003 425.339 250.535921875 Q 425.339 250.95940625 424.91059375 252.229890625 Q 424.48218749999995 253.500375 424.26796874999997 253.923875 Q 424.05375 254.34737500000003 423.19690625 255.82960937500002 Q 422.3400625 257.31184375 421.91165624999996 257.94709375 Q 421.48324999999994 258.58234375 418.48431249999993 259.852828125 Q 415.4853749999999 261.1233125 412.27224999999993 261.7585625 Q 409.05912499999994 262.39381249999997 403.70390624999993 263.02904687499995 Q 398.3486874999999 263.66428125 393.20768749999996 264.08778125 Q 388.0666875 264.51128124999997 383.35409375 264.72303124999996 Q 378.6415 264.93478125 370.5015625 265.14653125 Q 362.36162499999995 265.35828125 356.57796874999997 265.14653125 Q 350.7943125 264.93478125 338.798625 264.72303124999996 Q 326.8029375 264.51128124999997 322.30454687499997 264.51128124999997 Q 317.80615624999996 264.51128124999997 306.45307812499993 264.29953125 Q 295.09999999999997 264.08778125 288.673734375 264.08778125 Q 282.24746875 264.08778125 273.679125 264.51128125 Q 265.11078124999995 264.93478125 262.11184374999993 264.93478125 Q 259.11290625 264.93478125 255.89978125 265.14653125 Q 252.68665625 265.35828125 246.046171875 265.57003125 Q 239.4056875 265.78178125 237.4778125 265.78178125 Q 235.5499375 265.78178125 232.551015625 265.57003125 Q 229.55209374999998 265.35828125 228.695265625 265.14653125 Q 227.8384375 264.93478125 226.98159374999997 264.72303124999996 Q 226.12474999999995 264.51128124999997 225.91054687499997 264.51128124999997 Q 225.69634374999998 264.51128124999997 226.12474999999998 264.29953125 Q 226.55315624999997 264.08778125 228.69524999999996 263.664296875 Q 230.83734374999995 263.2408125 233.62206249999997 263.0290625 Q 236.40678125 262.8173125 241.76199999999997 262.8173125 Q 247.11721874999995 262.8173125 249.25931249999996 262.8173125 Q 251.40140624999998 262.8173125 256.32820312499996 262.6055625 Q 261.255 262.39381249999997 265.32496875 261.9703125 Q 269.39493749999997 261.5468125 274.75015625 260.69982812499995 Q 280.105375 259.85284375 282.89009375 259.42934375 Q 285.6748125 259.00584375 289.10215625 258.37059375 Q 292.5295 257.73534374999997 297.670515625 257.100109375 Q 302.81153125 256.464875 304.311 256.041375 Q 305.81046875 255.617875 308.166765625 255.194375 Q 310.5230625 254.77087500000002 311.379890625 254.55912500000002 Q 312.23671874999997 254.34737500000003 312.66514062499994 254.34737500000003 Q 313.09356249999996 254.34737500000003 311.59409374999996 254.34737500000003 Q 310.09462499999995 254.34737500000003 306.66728125 254.34737500000003 Q 303.2399375 254.34737500000003 298.955765625 254.55912500000002 Q 294.67159375 254.77087500000002 284.60378125 255.82960937500002 Q 274.53596875 256.88834375 270.25178125 257.10009375 Q 265.96759375 257.31184375 259.96975 257.73534374999997 Q 253.97190624999996 258.15884374999996 249.68773437499996 258.15884374999996 Q 245.40356249999996 258.15884374999996 239.83412499999997 258.15884374999996 Q 234.26468749999998 258.15884374999996 231.69418749999997 258.37059375 Q 229.12368749999996 258.58234375 223.55424999999997 258.15884374999996 Q 217.98481249999998 257.73534374999997 215.84271874999996 257.73534374999997 Q 213.70062499999995 257.73534374999997 212.41537499999995 257.73534374999997 Q 211.13012499999996 257.73534374999997 209.84487499999997 257.94709374999996 Q 208.55962499999998 258.15884374999996 207.91699999999997 258.15884374999996 Q 207.27437499999996 258.15884374999996 206.84595312499997 258.15884374999996 Q 206.41753124999997 258.15884374999996 206.63174999999998 258.15884374999996 Q 206.84596875 258.15884374999996 209.630671875 257.52359375 Q 212.41537499999998 256.88834375 214.77167187499998 256.676609375 Q 217.12796874999998 256.464875 219.27006249999997 256.25312499999995 Q 221.41215624999995 256.04137499999996 225.26792187499996 255.19437499999998 Q 229.12368749999996 254.34737500000003 232.12260937499997 253.71214062500002 Q 235.12153124999998 253.07690625 240.69095312499996 251.80640625 Q 246.26037499999995 250.53590625 247.97404687499997 250.32417187500002 Q 249.68771875 250.11243750000003 252.90085937499998 249.4771875 Q 256.114 248.8419375 257.82767187499996 248.4184375 Q 259.54134374999995 247.99493750000002 264.25393749999995 247.78318750000003 Q 268.96653124999995 247.57143750000003 270.68020312499993 247.35968750000004 Q 272.393875 247.14793750000004 275.17859375 247.14793750000004 Q 277.9633125 247.14793750000004 279.24856249999993 247.14793750000004 Q 280.53381249999995 247.14793750000004 281.39064062499995 247.14793750000004 Q 282.24746875 247.14793750000004 283.532734375 247.14793750000004 Q 284.818 247.14793750000004 284.17535937499997 247.57143750000003 Q 283.53271874999996 247.99493750000002 282.4616874999999 248.4184375 Q 281.39065624999995 248.8419375 276.67804687499995 249.688921875 Q 271.96543749999995 250.53590625 269.39493749999997 250.95940625 Q 266.8244375 251.38290625 265.110765625 251.80640625 Q 263.39709374999995 252.22990625000003 259.32712499999997 253.71214062500002 Q 255.25715624999998 255.194375 252.25823437499997 255.82962500000002 Q 249.25931249999996 256.464875 243.90409374999996 257.523609375 Q 238.54887499999995 258.58234375 236.83520312499996 258.79409375 Q 235.12153124999998 259.00584375 231.479984375 259.641078125 Q 227.8384375 260.27631249999996 225.69634374999998 260.27631249999996 Q 223.55424999999997 260.27631249999996 218.62743749999996 260.27631249999996 Q 213.70062499999995 260.27631249999996 212.41537499999995 260.48806249999996 Q 211.13012499999996 260.6998125 209.84487499999997 260.9115625 Q 208.55962499999998 261.1233125 206.41753124999997 261.5468125 Q 204.27543749999995 261.9703125 203.41860937499996 262.1820625 Q 202.56178124999997 262.39381249999997 200.63390624999997 262.81731249999996 Q 198.70603124999997 263.2408125 197.42076562499997 263.452546875 Q 196.13549999999998 263.66428125 193.56499999999997 263.66428125 Q 190.99449999999996 263.66428125 189.92345312499995 263.66428125 Q 188.85240624999994 263.66428125 186.92453124999994 263.66428125 Q 184.99665624999994 263.66428125 184.35403124999996 263.66428125 Q 183.71140624999998 263.66428125 183.28298437499998 263.66428125 Q 182.8545625 263.66428125 182.426140625 263.66428125 Q 181.99771875 263.66428125 181.78351562499998 263.66428125 Q 181.56931249999997 263.66428125 182.21193749999998 263.66428125 Q 182.8545625 263.66428125 184.13981249999998 263.66428125 Q 185.42506249999997 263.66428125 188.42398437499997 263.452546875 Q 191.42290624999998 263.2408125 192.493953125 263.0290625 Q 193.565 262.8173125 195.70709374999998 262.6055625 Q 197.84918749999997 262.39381249999997 198.70601562499996 262.39381249999997 Q 199.56284374999996 262.39381249999997 200.41968749999995 262.1820625 Q 201.27653124999995 261.9703125 202.99020312499997 261.7585625 Q 204.70387499999998 261.5468125 206.41754687499997 261.1233125 Q 208.13121874999996 260.6998125 211.13014062499997 260.27632812499996 Q 214.12906249999997 259.85284375 215.41431249999997 259.64109375 Q 216.69956249999996 259.42934375 218.41323437499997 259.00584375 Q 220.12690625 258.58234375 220.98373437499998 258.58234375 Q 221.84056249999998 258.58234375 222.91160937499998 258.37059375 Q 223.98265625 258.15884374999996 224.411078125 257.94709374999996 Q 224.8395 257.73534374999997 225.26792187499998 257.73534374999997 Q 225.69634374999998 257.73534374999997 225.48212499999997 257.52359375 Q 225.26790624999995 257.31184375 223.34003124999995 256.888359375 Q 221.41215624999995 256.464875 220.12690624999996 256.041375 Q 218.84165624999997 255.617875 215.41431249999997 254.982625 Q 211.98696874999996 254.34737500000003 210.91592187499995 254.34737500000003 Q 209.84487499999994 254.34737500000003 208.98804687499995 254.34737500000003 Q 208.13121874999996 254.34737500000003 206.41754687499997 254.55912500000002 Q 204.70387499999998 254.77087500000002 203.63282812499997 254.982625 Q 202.56178124999997 255.194375 199.13443749999996 255.61787499999997 Q 195.70709374999996 256.04137499999996 193.56499999999997 256.04137499999996 Q 191.42290624999998 256.04137499999996 187.56715624999998 256.25312499999995 Q 183.71140624999998 256.464875 182.426140625 256.676609375 Q 181.140875 256.88834375 178.784578125 257.10009375 Q 176.42828125 257.31184375 175.14303124999998 257.31184375 Q 173.85778124999996 257.31184375 171.28728124999998 256.888359375 Q 168.71678125 256.464875 167.43153124999998 256.25312499999995 Q 166.14628124999996 256.04137499999996 164.86101562499996 256.04137499999996 Q 163.57574999999997 256.04137499999996 160.79104687499998 256.46485937499995 Q 158.00634374999998 256.88834375 157.36370312499997 257.10009375 Q 156.72106249999996 257.31184375 155.65003124999996 257.31184375 Q 154.57899999999995 257.31184375 154.15057812499995 257.52359375 Q 153.72215624999995 257.73534374999997 152.65110937499998 257.73534374999997 Q 151.5800625 257.73534374999997 151.15164062499997 257.73534374999997 Q 150.72321874999994 257.73534374999997 150.08059374999996 258.15884374999996 Q 149.43796874999998 258.58234375 149.22376562499997 258.58234375 Q 149.00956249999996 258.58234375 148.79534374999997 258.79409375 Q 148.581125 259.00584375 148.15271875 259.00584375 Q 147.7243125 259.00584375 147.93851562499998 259.00584375 Q 148.15271874999996 259.00584375 148.58114062499996 259.42934375 Q 149.00956249999996 259.85284375 149.65218749999997 259.85284375 Q 150.29481249999998 259.85284375 151.36585937499999 259.85284375 Q 152.43690625 259.85284375 155.65003124999998 259.85284375 Q 158.86315624999997 259.85284375 160.36262499999998 259.64109375 Q 161.86209374999999 259.42934375 164.64681249999998 259.42934375 Q 167.43153124999998 259.42934375 168.71678124999997 259.42934375 Q 170.00203124999996 259.42934375 172.35832812499996 259.21759375 Q 174.71462499999996 259.00584375 176.42829687499997 259.00584375 Q 178.14196875 259.00584375 181.99771875 259.21759375 Q 185.85346875 259.42934375 187.781359375 259.64109375 Q 189.70925 259.85284375 190.9945 259.85284375 Q 192.27974999999998 259.85284375 194.63604687499998 260.06457812499997 Q 196.99234374999997 260.27631249999996 198.27759374999997 260.27631249999996 Q 199.56284374999996 260.27631249999996 201.27651562499997 260.27631249999996 Q 202.9901875 260.27631249999996 204.27543749999998 260.27631249999996 Q 205.56068749999997 260.27631249999996 209.20224999999996 260.48806249999996 Q 212.84381249999996 260.6998125 214.55748437499997 260.9115625 Q 216.27115625 261.1233125 218.627453125 261.3350625 Q 220.98375 261.5468125 221.84057812499998 261.5468125 Q 222.69740624999997 261.5468125 223.55424999999997 261.5468125 Q 224.41109374999996 261.5468125 225.91054687499997 261.5468125 Q 227.40999999999997 261.5468125 227.83842187499997 261.5468125 Q 228.26684374999996 261.5468125 228.90946874999997 261.5468125 Q 229.55209374999998 261.5468125 229.33789062499997 261.5468125 Q 229.12368749999996 261.5468125 228.48106249999998 261.3350625 Q 227.8384375 261.1233125 225.26792187499998 260.6998125 Q 222.69740624999997 260.27631249999996 220.76953124999997 260.06457812499997 Q 218.84165624999997 259.85284375 216.91378124999997 259.85284375 Q 214.98590624999997 259.85284375 212.62959374999997 259.85284375 Q 210.27328124999997 259.85284375 208.98803124999998 259.85284375 Q 207.70278125 259.85284375 205.13228124999998 260.27632812499996 Q 202.56178124999997 260.6998125 200.84810937499998 260.9115625 Q 199.1344375 261.1233125 193.99342187499997 261.1233125 Q 188.85240624999994 261.1233125 186.92453124999994 261.1233125 Q 184.99665624999994 261.1233125 181.99773437499996 261.1233125 Q 178.99881249999999 261.1233125 177.28514062499997 261.1233125 Q 175.57146874999995 261.1233125 173.64357812499995 261.1233125 Q 171.71568749999994 261.1233125 167.21731249999996 261.3350625 Q 162.71893749999998 261.5468125 161.21946874999998 261.7585625 Q 159.71999999999997 261.9703125 157.79212499999997 261.9703125 Q 155.86424999999997 261.9703125 155.22162499999996 261.9703125 Q 154.57899999999995 261.9703125 153.29373437499996 261.9703125 Q 152.00846874999996 261.9703125 151.36584374999995 261.9703125 Q 150.72321874999994 261.9703125 149.65217187499996 261.9703125 Q 148.581125 261.9703125 148.15271875 262.1820625 Q 147.7243125 262.39381249999997 147.29589062499997 262.39381249999997 Q 146.86746874999994 262.39381249999997 146.01062499999995 262.39381249999997 Q 145.15378124999995 262.39381249999997 144.93957812499997 262.39381249999997 Q 144.72537499999999 262.39381249999997 144.296953125 262.39381249999997 Q 143.86853125 262.39381249999997 143.65432812499998 262.39381249999997 Q 143.44012499999997 262.39381249999997 143.01170312499997 262.39381249999997 Q 142.58328124999997 262.39381249999997 142.36907812499996 262.39381249999997 Q 142.15487499999995 262.39381249999997 142.15487499999995 262.1820625 Q 142.15487499999995 261.9703125 142.58329687499995 261.1233125 Q 143.01171874999994 260.27631249999996 143.22592187499995 259.641078125 Q 143.44012499999997 259.00584375 144.08274999999998 258.15884374999996 Q 144.72537499999999 257.31184375 145.15379687499998 256.888359375 Q 145.58221874999998 256.464875 146.43904687499997 255.61787500000003 Q 147.29587499999997 254.77087500000002 147.93849999999998 254.34737500000003 Q 148.581125 253.92387500000004 149.65217187499996 253.07689062500003 Q 150.72321874999994 252.22990625000003 151.79426562499995 251.80640625 Q 152.86531249999996 251.38290625 155.65003124999996 250.747671875 Q 158.43474999999995 250.11243750000003 159.71999999999997 249.90068750000003 Q 161.00525 249.68893750000004 162.50471874999997 249.4771875 Q 164.00418749999994 249.2654375 166.57468749999995 249.2654375 Q 169.14518749999996 249.2654375 170.43043749999995 249.2654375 Q 171.71568749999994 249.2654375 174.92882812499997 249.2654375 Q 178.14196875 249.2654375 180.06984375 249.4771875 Q 181.99771875 249.68893750000004 186.06768749999998 250.32417187500002 Q 190.13765624999996 250.95940625 191.20870312499997 250.95940625 Q 192.27974999999998 250.95940625 194.42184374999997 250.95940625 Q 196.56393749999995 250.95940625 197.63498437499996 250.95940625 Q 198.70603124999997 250.95940625 199.56285937499996 250.95940625 Q 200.41968749999995 250.95940625 202.99018749999996 250.95940625 Q 205.56068749999997 250.95940625 207.70278124999996 251.17115625 Q 209.84487499999994 251.38290625 213.70064062499995 252.01815625 Q 217.55640624999995 252.65340625000002 218.84165624999997 252.86515625 Q 220.12690625 253.07690625 222.05478125 253.07690625 Q 223.98265625 253.07690625 224.8395 253.07690625 Q 225.69634374999998 253.07690625 226.767390625 253.07690625 Q 227.8384375 253.07690625 228.26684375 253.288640625 Q 228.69525 253.500375 228.69525 253.923875 Q 228.69525 254.34737500000003 228.05262499999998 255.40612500000003 Q 227.40999999999997 256.464875 226.76737499999996 256.888359375 Q 226.12474999999995 257.31184375 223.98265624999996 258.37059375 Q 221.84056249999998 259.42934375 220.126890625 259.64109375 Q 218.41321875 259.85284375 215.20009374999998 260.69982812499995 Q 211.98696874999996 261.5468125 211.13012499999996 261.7585625 Q 210.27328124999997 261.9703125 208.55962499999998 262.6055625 Q 206.84596875 263.2408125 205.98912499999997 263.664296875 Q 205.13228124999995 264.08778125 204.06123437499997 264.51128125 Q 202.9901875 264.93478125 201.27651562499997 265.35828125 Q 199.56284374999996 265.78178125 198.27759374999997 266.20528125 Q 196.99234374999997 266.62878125 193.56499999999997 267.26401562499996 Q 190.13765624999996 267.89925 188.85240624999997 267.89925 Q 187.56715624999998 267.89925 185.42506249999997 267.89925 Q 183.28296874999995 267.89925 182.42614062499996 267.89925 Q 181.56931249999997 267.89925 179.85564062499998 267.89925 Q 178.14196875 267.89925 177.285125 268.111 Q 176.42828125 268.32275 175.78565625 268.32275 Q 175.14303124999998 268.32275 173.42935937499996 268.32275 Q 171.71568749999994 268.32275 170.85885937499995 268.32275 Q 170.00203124999996 268.32275 168.71678124999997 268.32275 Q 167.43153124999998 268.32275 166.78890624999997 268.111 Q 166.14628124999996 267.89925 164.86101562499996 267.6875 Q 163.57574999999997 267.47575 162.93312499999996 267.47575 Q 162.29049999999995 267.47575 161.86207812499995 267.47575 Q 161.43365624999996 267.47575 161.21945312499997 267.47575 Q 161.00525 267.47575 161.21945312499997 267.264 Q 161.43365624999996 267.05225 161.86207812499995 266.84051562499997 Q 162.29049999999995 266.62878125 164.00417187499997 265.78178125 Q 165.71784375 264.93478125 166.57468749999998 264.51128125 Q 167.43153124999998 264.08778125 169.14520312499997 263.240796875 Q 170.85887499999995 262.39381249999997 171.50149999999996 262.1820625 Q 172.14412499999997 261.9703125 173.42937499999996 261.5468125 Q 174.71462499999996 261.1233125 175.57145312499998 260.9115625 Q 176.42828125 260.6998125 177.49932812499998 260.27632812499996 Q 178.57037499999996 259.85284375 180.92667187499995 259.42934375 Q 183.28296874999995 259.00584375 184.78243749999996 258.79409375 Q 186.28190624999996 258.58234375 188.63820312499996 258.15884374999996 Q 190.99449999999996 257.73534374999997 191.85132812499995 257.52359375 Q 192.70815624999994 257.31184375 194.42182812499996 256.888359375 Q 196.13549999999998 256.464875 196.99234374999997 256.25312499999995 Q 197.84918749999997 256.04137499999996 199.56285937499996 255.61787499999997 Q 201.27653124999995 255.194375 202.77598437499995 254.982625 Q 204.27543749999995 254.77087500000002 208.77382812499997 254.77087500000002 Q 213.27221874999998 254.77087500000002 215.41431249999997 254.982625 Q 217.55640624999995 255.194375 219.05585937499995 255.406125 Q 220.55531249999996 255.617875 223.12582812499997 255.617875 Q 225.69634374999998 255.617875 227.41001562499997 255.406125 Q 229.12368749999996 255.194375 233.19365624999998 255.194375 Q 237.263625 255.194375 239.619921875 255.406125 Q 241.97621875 255.617875 244.97514062499997 255.82962499999996 Q 247.97406249999995 256.04137499999996 249.04510937499995 256.04137499999996 Q 250.11615624999996 256.04137499999996 252.68665624999997 255.61787499999997 Q 255.25715624999998 255.194375 256.32820312499996 254.982625 Q 257.39925 254.77087500000002 259.112921875 254.34737500000003 Q 260.82659375 253.92387500000004 265.75339062499995 253.28864062500003 Q 270.6801875 252.65340625000002 272.608078125 252.44165625000002 Q 274.53596875 252.22990625000003 277.320671875 251.59465625 Q 280.105375 250.95940625 282.033265625 250.535921875 Q 283.96115625 250.11243750000003 288.88795312499997 249.4771875 Q 293.81474999999995 248.8419375 295.95684374999996 248.4184375 Q 298.0989375 247.99493750000002 300.88365624999994 247.78318750000003 Q 303.66837499999997 247.57143750000003 304.73942187499995 247.57143750000003 Q 305.81046875 247.57143750000003 307.09571874999995 247.35968750000004 Q 308.38096874999997 247.14793750000004 310.73726562499996 246.72445312500003 Q 313.09356249999996 246.30096875 314.807234375 246.30096875 Q 316.52090625 246.30096875 320.590875 246.51271875 Q 324.66084374999997 246.72446875 326.160296875 246.93620312500002 Q 327.65975 247.14793750000004 330.230265625 246.72445312500003 Q 332.80078125 246.30096875 334.08603125 246.08921875000001 Q 335.37128125 245.87746875000002 337.513375 245.45396875000003 Q 339.65546874999995 245.03046875000004 341.15492187499996 244.81871875000002 Q 342.65437499999996 244.60696875 344.15384374999996 244.60696875 Q 345.6533125 244.60696875 348.652234375 245.03046875 Q 351.65115624999993 245.45396875000003 352.72220312499996 245.45396875000003 Q 353.79325 245.45396875000003 355.29271875 245.45396875000003 Q 356.7921875 245.45396875000003 357.4348125 245.66571875000002 Q 358.07743750000003 245.87746875000002 359.3626875 246.30096875 Q 360.64793749999995 246.72446875 361.50478124999995 246.93620312500002 Q 362.36162499999995 247.14793750000004 363.64687499999997 247.35968750000004 Q 364.932125 247.57143750000003 365.57475 247.57143750000003 Q 366.217375 247.57143750000003 367.50262499999997 247.57143750000003 Q 368.78787499999993 247.57143750000003 369.85890624999996 247.78318750000003 Q 370.9299375 247.99493750000002 372.21518749999996 248.20668750000002 Q 373.5004374999999 248.4184375 376.07096874999996 249.05368750000002 Q 378.6415 249.68893750000004 379.92674999999997 250.11242187500002 Q 381.21199999999993 250.53590625 382.92565625 250.95940625 Q 384.6393125 251.38290625 385.49615625 251.38290625 Q 386.353 251.38290625 387.85246875 251.38290625 Q 389.3519375 251.38290625 389.9945625 251.17115625 Q 390.6371874999999 250.95940625 392.13665624999993 250.74765625 Q 393.63612499999994 250.53590625 394.27874999999995 250.32417187500002 Q 394.92137499999995 250.11243750000003 395.77818749999994 250.11243750000003 Q 396.63499999999993 250.11243750000003 398.56287499999996 250.11243750000003 Q 400.49075 250.11243750000003 401.34759375 250.11243750000003 Q 402.2044375 250.11243750000003 404.13231249999995 250.11243750000003 Q 406.0601874999999 250.11243750000003 407.13124999999997 250.11243750000003 Q 408.2023125 250.11243750000003 409.70178125 250.11243750000003 Q 411.20125 250.11243750000003 411.62965625 250.11243750000003 Q 412.05806249999995 250.11243750000003 412.91490624999994 249.90068750000003 Q 413.77174999999994 249.68893750000004 414.20015624999996 249.68893750000004 Q 414.6285625 249.68893750000004 414.84278125 249.4771875 Q 415.05699999999996 249.2654375 415.69962499999997 249.2654375 Q 416.34225 249.2654375 416.77065625 249.2654375 Q 417.1990625 249.2654375 417.6275 249.2654375 Q 418.05593749999997 249.2654375 418.27012499999995 249.2654375 Q 418.48431249999993 249.2654375 418.69853125 249.2654375 Q 418.91275 249.2654375 418.69853125 249.2654375 Q 418.48431249999993 249.2654375 417.62746874999993 249.6889375 Q 416.77062499999994 250.11243750000003 413.9859375 250.747671875 Q 411.20125 251.38290625 408.8449375 251.80640625 Q 406.488625 252.22990625000003 402.8470625 253.07689062500003 Q 399.2055 253.92387500000004 397.06343749999996 254.55912500000002 Q 394.92137499999995 255.194375 388.70931249999995 255.82962500000002 Q 382.49724999999995 256.464875 379.92674999999997 256.676609375 Q 377.35625 256.88834375 373.92890624999995 257.10009375 Q 370.5015624999999 257.31184375 368.57365624999994 257.52359375 Q 366.64574999999996 257.73534374999997 364.07525 257.52359375 Q 361.50475 257.31184375 355.078484375 256.888359375 Q 348.65221875000003 256.464875 346.295921875 256.464875 Q 343.9396249999999 256.464875 338.5844062499999 256.041375 Q 333.22918749999997 255.617875 330.0160625 255.406125 Q 326.8029375 255.194375 322.947171875 255.194375 Q 319.09140625 255.194375 317.80615624999996 255.194375 Q 316.52090625 255.194375 314.3788125 255.406125 Q 312.23671874999997 255.617875 311.379890625 255.617875 Q 310.5230625 255.617875 309.45201562499994 255.82962499999996 Q 308.38096874999997 256.04137499999996 305.16782812499997 256.04137499999996 Q 301.9546875 256.04137499999996 300.66943749999996 256.04137499999996 Q 299.3841875 256.04137499999996 296.385265625 255.82962499999996 Q 293.38634375 255.617875 292.31529687499994 255.617875 Q 291.24424999999997 255.617875 289.530578125 255.82962499999996 Q 287.81690625 256.04137499999996 286.960078125 256.25312499999995 Q 286.10324999999995 256.464875 283.74695312499995 257.100109375 Q 281.39065624999995 257.73534374999997 280.1053906249999 257.94709374999996 Q 278.82012499999996 258.15884374999996 275.60699999999997 258.58234374999995 Q 272.393875 259.00584375 270.89440625 259.00584375 Q 269.39493749999997 259.00584375 268.323890625 259.21759375 Q 267.25284374999995 259.42934375 265.75339062499995 259.64109375 Q 264.25393749999995 259.85284375 263.61131249999994 259.85284375 Q 262.9686875 259.85284375 261.46921875 259.85284375 Q 259.96975 259.85284375 259.32712499999997 260.06457812499997 Q 258.68449999999996 260.27631249999996 257.18503124999995 260.6998125 Q 255.68556249999995 261.1233125 254.82873437499995 261.3350625 Q 253.97190624999996 261.5468125 252.90085937499995 261.7585625 Q 251.82981249999995 261.9703125 248.40246874999997 262.1820625 Q 244.975125 262.39381249999997 243.26145312499997 262.1820625 Q 241.54778124999996 261.9703125 238.97728124999998 261.9703125 Q 236.40678125 261.9703125 235.54993749999997 261.9703125 Q 234.69309374999995 261.9703125 232.33679687499995 261.9703125 Q 229.98049999999995 261.9703125 228.69524999999996 261.9703125 Q 227.40999999999997 261.9703125 223.76845312499998 261.9703125 Q 220.12690625 261.9703125 218.19903125 261.9703125 Q 216.27115625 261.9703125 213.914859375 261.9703125 Q 211.5585625 261.9703125 210.70171874999997 261.9703125 Q 209.84487499999994 261.9703125 208.98804687499995 261.9703125 Q 208.13121874999996 261.9703125 206.41754687499997 261.9703125 Q 204.70387499999998 261.9703125 203.84703125 261.9703125 Q 202.9901875 261.9703125 201.27651562499997 262.1820625 Q 199.56284374999996 262.39381249999997 198.70601562499996 262.6055625 Q 197.84918749999997 262.8173125 195.06446874999997 262.6055625 Q 192.27974999999998 262.39381249999997 190.35187499999998 262.39381249999997 Q 188.42399999999998 262.39381249999997 186.06770312499998 262.39381249999997 Q 183.71140624999998 262.39381249999997 182.64035937499997 262.39381249999997 Q 181.56931249999997 262.39381249999997 180.71246874999997 262.39381249999997 Q 179.85562499999997 262.39381249999997 178.141953125 262.39381249999997 Q 176.42828125 262.39381249999997 175.57145312499998 262.39381249999997 Q 174.71462499999996 262.39381249999997 172.57253124999997 262.39381249999997 Q 170.43043749999998 262.39381249999997 169.14518749999996 262.39381249999997 Q 167.85993749999994 262.39381249999997 165.28943749999996 262.6055625 Q 162.71893749999998 262.8173125 161.433671875 263.0290625 Q 160.14840625 263.2408125 158.86315624999997 263.2408125 Q 157.57790624999996 263.2408125 156.93528124999997 263.2408125 Q 156.29265625 263.2408125 155.864234375 263.2408125 Q 155.4358125 263.2408125 154.57898437499998 263.2408125 Q 153.72215624999995 263.2408125 153.29373437499996 263.2408125 Q 152.86531249999996 263.2408125 152.00848437499997 263.2408125 Q 151.15165624999997 263.2408125 150.72323437499998 263.2408125 Q 150.29481249999998 263.2408125 149.43796874999998 263.2408125 Q 148.581125 263.2408125 148.36692187499997 263.2408125 Q 148.15271874999996 263.2408125 147.51009374999995 263.2408125 Q 146.86746874999994 263.2408125 146.65326562499996 263.2408125 Q 146.43906249999998 263.2408125 146.01064062499998 263.2408125 Q 145.58221874999998 263.2408125 145.36799999999997 263.2408125 Q 145.15378124999995 263.2408125 144.93957812499997 263.452546875 Q 144.72537499999999 263.66428125 144.296953125 263.66428125 Q 143.86853125 263.66428125 143.65432812499998 263.66428125 Q 143.44012499999997 263.66428125 143.22592187499995 263.87603125 Q 143.01171874999994 264.08778125 143.22592187499995 264.08778125 Q 143.44012499999997 264.08778125 143.65432812499998 264.08778125 Q 143.86853125 264.08778125 144.72537499999999 264.08778125 Q 145.58221874999998 264.08778125 146.22484374999996 263.87603125 Q 146.86746874999994 263.66428125 147.72429687499996 263.240796875 Q 148.581125 262.8173125 149.22376562499997 262.6055625 Q 149.86640624999995 262.39381249999997 151.58006249999997 262.39381249999997 Q 153.29371874999998 262.39381249999997 154.57898437499998 262.39381249999997 Q 155.86424999999997 262.39381249999997 157.14949999999996 262.39381249999997 Q 158.43474999999995 262.39381249999997 161.00524999999996 262.39381249999997 Q 163.57574999999997 262.39381249999997 164.86101562499996 262.1820625 Q 166.14628124999996 261.9703125 168.07415624999996 261.7585625 Q 170.00203124999996 261.5468125 170.85885937499995 261.5468125 Q 171.71568749999994 261.5468125 174.50040624999997 261.7585625 Q 177.285125 261.9703125 179.42721874999998 261.9703125 Q 181.56931249999997 261.9703125 185.63928124999998 262.39381249999997 Q 189.70925 262.8173125 191.20870312499997 262.8173125 Q 192.70815624999994 262.8173125 193.99342187499997 262.8173125 Q 195.2786875 262.8173125 197.42076562499997 262.8173125 Q 199.56284374999996 262.8173125 200.41968749999995 262.6055625 Q 201.27653124999995 262.39381249999997 204.48965624999997 262.1820625 Q 207.70278125 261.9703125 210.27329687499997 261.7585625 Q 212.84381249999996 261.5468125 217.12798437499995 261.3350625 Q 221.41215624999995 261.1233125 222.69740624999997 260.9115625 Q 223.98265625 260.6998125 226.55317187499998 260.27632812499996 Q 229.12368749999996 259.85284375 230.83735937499998 259.42934375 Q 232.55103125 259.00584375 234.69310937499998 258.79409375 Q 236.83518749999996 258.58234375 240.90515624999998 258.37059375 Q 244.975125 258.15884374999996 246.47459374999997 257.94709374999996 Q 247.97406249999995 257.73534374999997 250.11615624999996 257.31184375 Q 252.25824999999998 256.88834375 253.54349999999997 256.46485937499995 Q 254.82874999999996 256.04137499999996 257.18504687499995 254.98262499999998 Q 259.54134374999995 253.92387500000004 261.89764062499995 253.71212500000001 Q 264.25393749999995 253.500375 268.538109375 253.500375 Q 272.82228124999995 253.500375 274.535953125 253.288640625 Q 276.249625 253.07690625 279.462765625 252.65340625000002 Q 282.67590624999997 252.22990625000003 284.60378125 252.01815625000003 Q 286.53165624999997 251.80640625000004 288.88795312499997 251.59465625 Q 291.24424999999997 251.38290625 295.742640625 251.17115625 Q 300.24103125 250.95940625 301.52628125 250.74765625 Q 302.81153125 250.53590625 304.953625 250.11242187500002 Q 307.09571874999995 249.68893750000004 308.38096874999997 249.68893750000004 Q 309.66621875 249.68893750000004 312.4509375 249.4771875 Q 315.23565625 249.2654375 317.591953125 249.2654375 Q 319.94825 249.2654375 323.804 249.4771875 Q 327.65975 249.68893750000004 329.15921875 249.4771875 Q 330.6586875 249.2654375 331.94393749999995 249.0536875 Q 333.22918749999997 248.8419375 336.870734375 248.8419375 Q 340.51228125 248.8419375 342.44017187500003 248.8419375 Q 344.3680625 248.8419375 348.8664375 249.0536875 Q 353.3648125 249.2654375 354.6500625 249.0536875 Q 355.93531249999995 248.8419375 357.8631875 248.8419375 Q 359.7910625 248.8419375 360.862125 248.6301875 Q 361.9331875 248.4184375 363.64684374999996 247.99493750000002 Q 365.36049999999994 247.57143750000003 366.85996874999995 247.35968750000004 Q 368.35943749999996 247.14793750000004 370.2873125 247.14793750000004 Q 372.2151875 247.14793750000004 375.85675 247.57143750000003 Q 379.49831249999994 247.99493750000002 380.99778124999995 247.99493750000002 Q 382.49724999999995 247.99493750000002 385.06775 247.99493750000002 Q 387.63825 247.99493750000002 388.70928125 247.99493750000002 Q 389.7803125 247.99493750000002 392.136625 248.20668750000002 Q 394.4929375 248.4184375 395.56396874999996 248.4184375 Q 396.63499999999993 248.4184375 399.41971874999996 248.4184375 Q 402.2044375 248.4184375 403.70390625 248.6301875 Q 405.203375 248.8419375 407.5596875 248.8419375 Q 409.916 248.8419375 410.7728125 248.8419375 Q 411.629625 248.8419375 412.27225 248.8419375 Q 412.914875 248.8419375 414.20012499999996 248.8419375 Q 415.4853749999999 248.8419375 416.12799999999993 248.8419375 Q 416.77062499999994 248.8419375 417.62746874999993 248.8419375 Q 418.48431249999993 248.8419375 418.91274999999996 248.8419375 Q 419.3411875 248.8419375 420.198 248.8419375 Q 421.05481249999997 248.8419375 421.48325 248.8419375 Q 421.9116875 248.8419375 422.98271875 248.8419375 Q 424.05375 248.8419375 424.696375 248.8419375 Q 425.339 248.8419375 425.981625 248.8419375 Q 426.62425 248.8419375 427.9095 248.8419375 Q 429.19474999999994 248.8419375 429.83737499999995 248.8419375 Q 430.47999999999996 248.8419375 431.76525 249.0536875 Q 433.0505 249.2654375 433.69315625 249.4771875 Q 434.33581250000003 249.68893750000004 435.40684375 249.90068750000003 Q 436.477875 250.11243750000003 436.90628125 250.11243750000003 Q 437.33468750000003 250.11243750000003 438.40575 250.11243750000003 Q 439.4768125 250.11243750000003 439.90521874999996 250.11243750000003 Q 440.3336249999999 250.11243750000003 440.76203124999995 250.11243750000003 Q 441.1904375 250.11243750000003 442.04728124999997 250.11243750000003 Q 442.90412499999996 250.11243750000003 443.11834374999995 250.11243750000003 Q 443.33256249999994 250.11243750000003 443.97518749999995 250.11243750000003 Q 444.61781249999996 250.11243750000003 444.83203124999994 250.11243750000003 Q 445.04624999999993 250.11243750000003 445.68887499999994 250.32417187500002 Q 446.33149999999995 250.53590625 446.75990625 250.74765625 Q 447.1883125 250.95940625 447.61671874999996 251.17115625 Q 448.0451249999999 251.38290625 448.25934374999997 251.59465625 Q 448.4735625 251.80640625000004 448.90196875 252.01815625000003 Q 449.33037499999995 252.22990625000003 450.18721874999994 252.44165625000002 Q 451.04406249999994 252.65340625000002 451.25828125 252.65340625000002 Q 451.4725 252.65340625000002 451.68671875 252.86515625 Q 451.9009375 253.07690625 451.9009375 253.288640625 Q 451.9009375 253.500375 451.9009375 253.923875 Q 451.9009375 254.34737500000003 451.68671875 254.55912500000002 Q 451.4725 254.77087500000002 450.18725 255.194375 Q 448.902 255.617875 447.8309375 255.82962499999996 Q 446.759875 256.04137499999996 445.2604375 256.25312499999995 Q 443.761 256.464875 439.26259375 257.100109375 Q 434.7641875 257.73534374999997 433.05053125 258.15884374999996 Q 431.336875 258.58234375 428.55215625 259.429328125 Q 425.76743749999997 260.27631249999996 424.26796874999997 260.6998125 Q 422.76849999999996 261.1233125 417.19906249999997 262.393796875 Q 411.629625 263.66428125 408.20228125 264.08778125 Q 404.7749375 264.51128124999997 398.3486875 265.35828125 Q 391.92243749999994 266.20528125 387.85246874999996 266.84051562499997 Q 383.78249999999997 267.47575 380.78356249999996 267.89925 Q 377.78462499999995 268.32275 372.85781249999997 268.95799999999997 Q 367.931 269.59325 365.3605 270.228484375 Q 362.79 270.86371875 355.078484375 271.49896875 Q 347.36696875 272.13421875 344.15384374999996 272.34596875 Q 340.94071875 272.55771875 332.80078125 272.34596875 Q 324.66084374999997 272.13421875 321.66192187499996 271.92246875 Q 318.66299999999995 271.71071875 312.45093749999995 271.49896875 Q 306.23887499999995 271.28721874999997 302.16890624999996 271.28721874999997 Q 298.0989375 271.28721874999997 294.885796875 270.86371875 Q 291.67265625 270.44021875 285.88901562499996 270.44021875 Q 280.105375 270.44021875 277.106453125 270.65196875 Q 274.10753124999997 270.86371875 270.25178124999996 270.65196875 Q 266.39603124999996 270.44021875 265.110765625 270.22846875 Q 263.8255 270.01671875 260.82657812499997 270.01671875 Q 257.82765624999996 270.01671875 256.54240625 270.01671875 Q 255.25715624999998 270.01671875 251.61560937499996 270.22846875 Q 247.97406249999995 270.44021875 245.83196874999996 270.44021875 Q 243.68987499999997 270.44021875 241.76199999999997 270.44021875 Q 239.83412499999997 270.44021875 237.04940624999998 270.44021875 Q 234.26468749999998 270.44021875 232.76521874999997 270.44021875 Q 231.26574999999997 270.44021875 227.62420312499998 270.65196875 Q 223.98265625 270.86371875 222.05478125 270.86371875 Q 220.12690625 270.86371875 216.91376562499997 270.86371875 Q 213.70062499999995 270.86371875 212.84379687499995 270.86371875 Q 211.98696874999996 270.86371875 210.05909374999996 270.86371875 Q 208.13121874999996 270.86371875 207.06017187499995 271.07546874999997 Q 205.98912499999994 271.28721874999997 204.06123437499997 271.28721874999997 Q 202.13334375 271.28721874999997 201.27651562499997 271.28721874999997 Q 200.41968749999995 271.28721874999997 199.56285937499996 271.28721874999997 Q 198.70603124999997 271.28721874999997 196.13551562499998 271.71071874999996 Q 193.565 272.13421875 192.27974999999998 272.34596875 Q 190.99449999999996 272.55771875 188.20978124999996 272.34596875 Q 185.42506249999997 272.13421875 184.35401562499996 271.92246875 Q 183.28296874999995 271.71071875 181.56929687499996 271.71071875 Q 179.85562499999997 271.71071875 178.99879687499998 271.71071875 Q 178.14196875 271.71071875 176.42829687499997 271.71071875 Q 174.71462499999996 271.71071875 173.85778124999996 271.71071875 Q 173.00093749999996 271.71071875 171.92990624999996 271.71071875 Q 170.85887499999995 271.71071875 168.93098437499995 271.49896875 Q 167.00309374999995 271.28721874999997 165.93204687499997 271.07546874999997 Q 164.861 270.86371875 163.14732812499997 270.44021875 Q 161.43365624999996 270.01671875 160.36262499999995 269.804984375 Q 159.29159374999995 269.59325 158.22054687499997 269.59325 Q 157.1495 269.59325 156.721078125 269.59325 Q 156.29265625 269.59325 155.43582812499997 269.59325 Q 154.57899999999995 269.59325 154.15057812499995 269.59325 Q 153.72215624999995 269.59325 153.29373437499996 269.38149999999996 Q 152.86531249999996 269.16974999999996 152.00848437499997 268.95799999999997 Q 151.15165624999997 268.74625 150.72323437499998 268.74625 Q 150.29481249999998 268.74625 149.65218749999997 268.74625 Q 149.00956249999996 268.74625 148.58114062499996 268.74625 Q 148.15271874999996 268.74625 147.51009374999995 268.5345 Q 146.86746874999994 268.32275 146.65326562499996 268.32275 Q 146.43906249999998 268.32275 146.01064062499998 268.32275 Q 145.58221874999998 268.32275 145.15379687499998 268.111 Q 144.72537499999999 267.89925 144.51117187499997 267.89925 Q 144.29696874999996 267.89925 143.86854687499996 267.89925 Q 143.44012499999997 267.89925 143.22592187499995 267.89925 Q 143.01171874999994 267.89925 142.58329687499995 267.89925 Q 142.15487499999995 267.89925 141.94067187499996 267.89925 Q 141.72646874999998 267.89925 141.51224999999997 267.89925 Q 141.29803124999995 267.89925 141.29803124999995 267.6875 Q 141.29803124999995 267.47575 140.22698437499997 265.14653125 L 139.1459375 262.8073125" stroke-linecap="round" />
</g>
<g transform="matrix(1 0 0 1 182.22 256.46)" id="DrHCZvtFqNTYDF6xxzrYx"  >
<path style="stroke: rgb(252,134,29); stroke-width: 10; stroke-dasharray: none; stroke-linecap: round; stroke-dashoffset: 0; stroke-linejoin: round; stroke-miterlimit: 10; fill: none; fill-rule: nonzero; opacity: 1;" vector-effect="non-scaling-stroke"  transform=" translate(-182.22, -256.46)" d="M 234.27468749999997 254.35737500000002 Q 234.26468749999998 254.34737500000003 234.26468749999998 254.13562500000003 Q 234.26468749999998 253.92387500000004 233.62206249999997 253.07689062500003 Q 232.97943749999996 252.22990625000003 232.55101562499996 251.59465625 Q 232.12259374999996 250.95940625 229.98051562499998 249.477171875 Q 227.8384375 247.99493750000002 226.33896875 247.57143750000003 Q 224.8395 247.14793750000004 220.555328125 246.30095312500004 Q 216.27115625 245.45396875000003 214.77168749999998 245.45396875000003 Q 213.27221874999998 245.45396875000003 211.13012499999996 245.45396875000003 Q 208.98803124999995 245.45396875000003 207.70278124999996 245.87746875000002 Q 206.41753124999997 246.30096875 205.34648437499996 246.51271875 Q 204.27543749999995 246.72446875 202.34756249999995 247.571453125 Q 200.41968749999995 248.4184375 199.13443749999996 249.26543750000002 Q 197.84918749999997 250.11243750000003 193.56499999999997 251.38292187500002 Q 189.28081249999997 252.65340625000002 187.56714062499998 253.076890625 Q 185.85346875 253.500375 183.28296874999998 254.559125 Q 180.71246874999997 255.617875 179.42721874999998 255.82962499999996 Q 178.14196875 256.04137499999996 177.07092187499998 256.25312499999995 Q 175.99987499999997 256.464875 173.21515624999998 256.676609375 Q 170.43043749999998 256.88834375 168.71676562499997 257.10009375 Q 167.00309374999995 257.31184375 163.57574999999997 257.94709375 Q 160.14840625 258.58234375 159.077375 258.79409375 Q 158.00634374999998 259.00584375 156.50687499999998 259.42934375 Q 155.00740624999997 259.85284375 154.36478124999996 259.85284375 Q 153.72215624999995 259.85284375 152.43690624999996 260.27632812499996 Q 151.15165624999997 260.6998125 150.50903124999996 260.9115625 Q 149.86640624999995 261.1233125 148.58114062499996 261.5468125 Q 147.29587499999997 261.9703125 146.65324999999996 262.1820625 Q 146.01062499999995 262.39381249999997 145.15379687499995 262.81731249999996 Q 144.29696874999996 263.2408125 143.86854687499996 263.452546875 Q 143.44012499999997 263.66428125 143.01170312499997 263.87603125 Q 142.58328124999997 264.08778125 141.72645312499998 264.51128125 Q 140.86962499999998 264.93478125 140.441203125 264.93478125 Q 140.01278125 264.93478125 138.94173437499998 265.35828125 Q 137.87068749999997 265.78178125 137.22806249999996 265.99353125 Q 136.58543749999995 266.20528125 135.72860937499996 266.41703125 Q 134.87178124999997 266.62878125 134.44335937499997 266.84051562499997 Q 134.01493749999997 267.05225 133.58651562499998 267.264 Q 133.15809374999998 267.47575 132.94389062499997 267.47575 Q 132.72968749999995 267.47575 132.51546874999997 267.47575 Q 132.30124999999998 267.47575 131.87284375 267.47575 Q 131.4444375 267.47575 131.23021874999998 267.264 Q 131.01599999999996 267.05225 130.80179687499998 266.84051562499997 Q 130.58759375 266.62878125 130.37339062499998 265.99353125 Q 130.15918749999997 265.35828125 130.15918749999997 264.93478125 Q 130.15918749999997 264.51128124999997 130.37339062499998 263.45254687499994 Q 130.58759375 262.39381249999997 130.80179687499998 261.9703125 Q 131.01599999999996 261.5468125 131.44442187499996 260.69982812499995 Q 131.87284374999996 259.85284375 132.08704687499997 259.42934375 Q 132.30124999999998 259.00584375 132.51546874999997 258.58234374999995 Q 132.72968749999995 258.15884374999996 132.94389062499997 257.52359375 Q 133.15809374999998 256.88834375 133.37231249999996 256.676609375 Q 133.58653124999995 256.464875 134.01493749999997 256.464875 Q 134.44334375 256.464875 134.871765625 256.464875 Q 135.3001875 256.464875 135.94281249999997 256.676609375 Q 136.58543749999995 256.88834375 137.44228124999995 257.31184375 Q 138.29912499999995 257.73534374999997 138.72753124999997 257.94709374999996 Q 139.1559375 258.15884374999996 139.37015624999998 258.37059375 Q 139.58437499999997 258.58234375 139.58437499999997 258.79409375 Q 139.58437499999997 259.00584375 140.01278124999996 259.21759375 Q 140.44118749999996 259.42934375 140.65540624999997 259.64109375 Q 140.86962499999998 259.85284375 141.29804687499998 260.27632812499996 Q 141.72646874999998 260.6998125 141.94067187499996 260.9115625 Q 142.15487499999995 261.1233125 142.36907812499996 261.3350625 Q 142.58328124999997 261.5468125 142.79749999999996 261.7585625 Q 143.01171874999994 261.9703125 143.01171874999994 262.1820625 Q 143.01171874999994 262.39381249999997 143.44012499999997 262.6055625 Q 143.86853125 262.8173125 144.296953125 263.0290625 Q 144.72537499999999 263.2408125 145.36799999999997 263.664296875 Q 146.01062499999995 264.08778125 146.43904687499995 264.29953125 Q 146.86746874999994 264.51128124999997 147.29589062499997 264.51128124999997 Q 147.7243125 264.51128124999997 147.93851562499998 264.51128124999997 Q 148.15271874999996 264.51128124999997 148.36692187499997 264.51128124999997 Q 148.581125 264.51128124999997 149.22376562499997 264.51128124999997 L 149.87640624999995 264.51128124999997" stroke-linecap="round" />
</g>
<g transform="matrix(1 0 0 1 138.75 251.9)" id="wmWh_VBzzrEWP3z5aQScI"  >
<path style="stroke: rgb(252,134,29); stroke-width: 10; stroke-dasharray: none; stroke-linecap: round; stroke-dashoffset: 0; stroke-linejoin: round; stroke-miterlimit: 10; fill: none; fill-rule: nonzero; opacity: 1;" vector-effect="non-scaling-stroke"  transform=" translate(-138.75, -251.9)" d="M 147.97799999999995 250.88000000000002 Q 147.96799999999996 250.88000000000002 146.94399999999996 251.39200000000002 Q 145.91999999999996 251.90400000000002 144.89599999999996 251.90400000000002 Q 143.87199999999996 251.90400000000002 143.35999999999996 251.90400000000002 Q 142.84799999999996 251.90400000000002 142.33599999999996 251.90400000000002 Q 141.82399999999996 251.90400000000002 140.79999999999995 251.90400000000002 Q 139.77599999999995 251.90400000000002 139.26399999999995 251.90400000000002 Q 138.75199999999995 251.90400000000002 138.23999999999995 251.90400000000002 Q 137.72799999999995 251.90400000000002 137.21599999999995 251.90400000000002 Q 136.70399999999995 251.90400000000002 136.19199999999995 252.41600000000003 Q 135.67999999999995 252.92800000000003 135.16799999999995 252.92800000000003 Q 134.65599999999995 252.92800000000003 134.14399999999995 252.92800000000003 Q 133.63199999999995 252.92800000000003 133.11999999999995 252.92800000000003 Q 132.60799999999995 252.92800000000003 132.09599999999995 252.92800000000003 Q 131.58399999999995 252.92800000000003 130.55999999999995 252.92800000000003 L 129.52599999999995 252.92800000000003" stroke-linecap="round" />
</g>
</svg>