<?xml version="1.0" encoding="UTF-8" standalone="no" ?>
<!DOCTYPE svg PUBLIC "-//W3C//DTD SVG 1.1//EN" "http://www.w3.org/Graphics/SVG/1.1/DTD/svg11.dtd">
<svg xmlns="http://www.w3.org/2000/svg" xmlns:xlink="http://www.w3.org/1999/xlink" version="1.1" width="640" height="640" viewBox="0 0 640 640" xml:space="preserve">
<desc>Created with Fabric.js 4.6.0</desc>
<defs>
</defs>
<g transform="matrix(1 0 0 1 279.25 239.73)" id="X0aXPKJHpNZBmYGa_eLgl"  >
<path style="stroke: rgb(252,134,29); stroke-width: 10; stroke-dasharray: none; stroke-linecap: round; stroke-dashoffset: 0; stroke-linejoin: round; stroke-miterlimit: 10; fill: none; fill-rule: nonzero; opacity: 1;" vector-effect="non-scaling-stroke"  transform=" translate(-279.25, -239.73)" d="M 421.06481249999996 217.49321875 Q 421.05481249999997 217.50321875 420.62640624999995 217.50321875 Q 420.1979999999999 217.50321875 418.05590624999996 218.77371875 Q 415.9138125 220.04421875000003 413.34331249999997 220.679453125 Q 410.77281249999993 221.31468750000002 405.41759375 221.94993750000003 Q 400.06237500000003 222.58518750000002 397.70606250000003 222.58518750000002 Q 395.34975000000003 222.58518750000002 389.566125 222.37343750000002 Q 383.78249999999997 222.16168750000003 380.99778124999995 222.16168750000003 Q 378.2130624999999 222.16168750000003 374.99993749999993 222.16168750000003 Q 371.78681249999994 222.16168750000003 370.5015625 222.16168750000003 Q 369.2163125 222.16168750000003 367.71684375 222.16168750000003 Q 366.217375 222.16168750000003 361.29056249999996 222.37343750000002 Q 356.3637499999999 222.58518750000002 353.57903124999996 222.37343750000002 Q 350.7943125 222.16168750000003 346.72434375 222.16168750000003 Q 342.65437499999996 222.16168750000003 340.51229687499995 222.37343750000002 Q 338.37021875 222.58518750000002 333.657609375 222.58518750000002 Q 328.945 222.58518750000002 326.588703125 222.58518750000002 Q 324.23240625 222.58518750000002 321.233484375 223.2204375 Q 318.2345625 223.85568750000002 316.9493125 224.06742187500004 Q 315.6640625 224.27915625000003 313.52196875 224.91440625 Q 311.37987499999997 225.54965625000003 310.09462499999995 225.76140625000002 Q 308.809375 225.97315625000002 306.88149999999996 226.18490625 Q 304.953625 226.39665625 301.097859375 226.82014062500002 Q 297.24209375 227.243625 295.52842187499994 227.243625 Q 293.81474999999995 227.243625 291.24424999999997 227.243625 Q 288.67375 227.243625 287.38849999999996 227.243625 Q 286.10324999999995 227.243625 283.74695312499995 227.455375 Q 281.39065624999995 227.66712500000003 280.1053906249999 227.455375 Q 278.82012499999996 227.243625 277.74909374999993 227.03189062500002 Q 276.67806249999995 226.82015625000003 274.10754687499997 226.39665625000004 Q 271.53703125 225.97315625000002 270.25178124999996 225.97315625000002 Q 268.96653124999995 225.97315625000002 266.82443749999993 225.97315625000002 Q 264.68234375 225.97315625000002 263.825515625 226.18490625 Q 262.9686875 226.39665625 261.25501562499994 226.39665625 Q 259.54134374999995 226.39665625 258.68449999999996 226.60840625000003 Q 257.82765624999996 226.82015625000003 255.68557812499998 227.243640625 Q 253.5435 227.66712500000003 252.04403125 227.455375 Q 250.54456249999998 227.243625 247.11721874999998 227.243625 Q 243.68987499999997 227.243625 242.19042187499997 227.243625 Q 240.69096874999997 227.243625 239.19149999999996 227.243625 Q 237.69203124999996 227.243625 235.97835937499997 227.243625 Q 234.26468749999998 227.243625 233.407859375 227.243625 Q 232.55103125 227.243625 230.194734375 227.455375 Q 227.8384375 227.66712500000003 226.55317187499998 227.455375 Q 225.26790624999995 227.243625 222.69740624999997 226.82014062500002 Q 220.12690625 226.39665625 218.62743749999998 226.39665625 Q 217.12796874999998 226.39665625 214.77167187499998 226.60840625000003 Q 212.41537499999998 226.82015625000003 211.558546875 226.82015625000003 Q 210.70171875 226.82015625000003 209.41646874999998 227.03189062500002 Q 208.13121874999996 227.243625 207.48859374999998 227.243625 Q 206.84596875 227.243625 205.98912499999997 227.455375 Q 205.13228124999995 227.66712500000003 203.84703124999996 228.09062500000002 Q 202.56178124999997 228.514125 201.91915624999996 228.72587500000003 Q 201.27653124999995 228.93762500000003 199.34864062499997 229.36112500000002 Q 197.42075 229.784625 196.13549999999998 229.996375 Q 194.85024999999996 230.20812500000002 192.27974999999998 230.20812500000002 Q 189.70925 230.20812500000002 188.638203125 230.20812500000002 Q 187.56715624999998 230.20812500000002 185.21085937499998 230.41985937500002 Q 182.8545625 230.63159375 181.99771875 230.63159375 Q 181.140875 230.63159375 180.28404687499997 230.84334375000003 Q 179.42721874999995 231.05509375000003 177.71354687499996 230.84334375000003 Q 175.99987499999997 230.63159375 175.14304687499998 230.63159375 Q 174.28621875 230.63159375 172.57254687499997 230.41985937500002 Q 170.85887499999995 230.20812500000002 169.57360937499996 229.996375 Q 168.28834374999997 229.784625 165.93204687499997 229.784625 Q 163.57574999999997 229.784625 162.29049999999998 229.996375 Q 161.00525 230.20812500000002 159.077375 230.63160937500004 Q 157.1495 231.05509375000003 156.50687499999998 231.26684375000002 Q 155.86424999999997 231.47859375000002 155.00740624999997 231.47859375000002 Q 154.15056249999998 231.47859375000002 153.50793749999997 231.47859375000002 Q 152.86531249999996 231.47859375000002 152.43689062499996 231.47859375000002 Q 152.00846874999996 231.47859375000002 150.93743749999996 231.47859375000002 Q 149.86640624999995 231.47859375000002 149.43798437499996 231.47859375000002 Q 149.00956249999996 231.47859375000002 148.15271874999996 231.47859375000002 Q 147.29587499999997 231.47859375000002 147.08167187499996 231.47859375000002 Q 146.86746874999994 231.47859375000002 146.01062499999995 231.47859375000002 Q 145.15378124999995 231.47859375000002 144.72537499999996 231.47859375000002 Q 144.29696874999996 231.47859375000002 143.01171874999997 231.47859375000002 Q 141.72646874999998 231.47859375000002 141.08382812499997 231.47859375000002 Q 140.44118749999996 231.47859375000002 139.79856249999997 231.47859375000002 Q 139.1559375 231.47859375000002 137.87068749999997 231.47859375000002 Q 136.58543749999995 231.47859375000002 135.94281249999997 231.26684375000002 Q 135.3001875 231.05509375000003 134.01493749999997 230.63160937500004 Q 132.72968749999995 230.20812500000002 132.08706249999997 230.20812500000002 Q 131.4444375 230.20812500000002 130.58759374999997 230.20812500000002 Q 129.73074999999994 230.20812500000002 129.30234374999995 230.20812500000002 Q 128.87393749999995 230.20812500000002 128.01709374999996 230.20812500000002 Q 127.16024999999996 230.20812500000002 126.73182812499996 230.20812500000002 Q 126.30340624999997 230.20812500000002 126.08920312499995 230.41985937500002 Q 125.87499999999994 230.63159375 125.44657812499995 230.63159375 Q 125.01815624999995 230.63159375 124.80395312499996 230.63159375 Q 124.58974999999998 230.63159375 124.16132812499998 230.63159375 Q 123.73290624999998 230.63159375 123.51870312499997 230.63159375 Q 123.30449999999996 230.63159375 122.87607812499996 230.63159375 Q 122.44765624999997 230.63159375 122.23345312499995 230.63159375 Q 122.01924999999994 230.63159375 121.37662499999996 230.84334375000003 Q 120.73399999999998 231.05509375000003 120.51978124999997 231.05509375000003 Q 120.30556249999995 231.05509375000003 120.09135937499997 231.05509375000003 Q 119.87715624999998 231.05509375000003 119.23453124999997 231.26684375000002 Q 118.59190624999997 231.47859375000002 118.37768749999998 231.47859375000002 Q 118.16346874999999 231.47859375000002 117.73506249999997 231.47859375000002 Q 117.30665624999995 231.47859375000002 117.09243749999996 231.47859375000002 Q 116.87821874999997 231.47859375000002 116.66401562499996 231.69034375 Q 116.44981249999995 231.90209375 116.23559374999996 232.11384375 Q 116.02137499999998 232.32559375000002 116.02137499999998 232.53734375000002 Q 116.02137499999998 232.74909375000001 116.02137499999998 233.38432812500002 Q 116.02137499999998 234.0195625 116.02137499999998 234.4430625 Q 116.02137499999998 234.86656250000001 116.02137499999998 235.2900625 Q 116.02137499999998 235.7135625 116.02137499999998 236.560546875 Q 116.02137499999998 237.40753125 116.02137499999998 237.83103125000002 Q 116.02137499999998 238.25453125000004 116.02137499999998 239.52501562500004 Q 116.02137499999998 240.79550000000003 116.02137499999998 241.21900000000002 Q 116.02137499999998 241.6425 116.02137499999998 242.701234375 Q 116.02137499999998 243.75996875 116.02137499999998 244.18346875 Q 116.02137499999998 244.60696875 115.80717187499997 246.089203125 Q 115.59296874999995 247.57143750000003 115.59296874999995 248.20668750000002 Q 115.59296874999995 248.8419375 115.59296874999995 249.4771875 Q 115.59296874999995 250.11243750000003 116.02139062499995 251.17117187500003 Q 116.44981249999995 252.22990625000003 116.44981249999995 252.65340625000002 Q 116.44981249999995 253.07690625 116.87823437499995 253.71214062500002 Q 117.30665624999995 254.34737500000003 117.52085937499996 254.77087500000002 Q 117.73506249999997 255.194375 117.94926562499998 255.406125 Q 118.16346874999999 255.617875 118.37768749999998 255.82962499999996 Q 118.59190624999997 256.04137499999996 119.02031249999996 256.46485937499995 Q 119.44871874999995 256.88834375 119.66293749999997 257.10009375 Q 119.87715624999998 257.31184375 121.37660937499999 257.31184375 Q 122.87606249999999 257.31184375 123.73290624999998 257.31184375 Q 124.58974999999998 257.31184375 125.66079687499999 257.31184375 Q 126.73184375 257.31184375 129.30234374999998 257.52359375 Q 131.87284374999996 257.73534374999997 133.15809374999998 257.94709374999996 Q 134.44334375 258.15884374999996 136.37123437499997 258.37059375 Q 138.29912499999995 258.58234375 139.15595312499997 258.58234375 Q 140.01278125 258.58234375 141.72645312499998 259.00584375 Q 143.44012499999997 259.42934375 144.29695312499996 259.64109375 Q 145.15378124999995 259.85284375 146.86745312499997 260.27632812499996 Q 148.581125 260.6998125 149.22376562499997 260.9115625 Q 149.86640624999995 261.1233125 152.00848437499997 261.5468125 Q 154.15056249999998 261.9703125 155.86423437499997 261.9703125 Q 157.57790624999996 261.9703125 159.29157812499997 261.9703125 Q 161.00525 261.9703125 164.21839062499998 261.7585625 Q 167.43153124999998 261.5468125 168.71678124999997 261.3350625 Q 170.00203124999996 261.1233125 172.78674999999996 260.9115625 Q 175.57146874999995 260.6998125 177.28514062499997 260.6998125 Q 178.99881249999999 260.6998125 182.8545625 260.6998125 Q 186.7103125 260.6998125 188.20978125 260.6998125 Q 189.70925 260.6998125 192.27974999999998 260.6998125 Q 194.85024999999996 260.6998125 195.92129687499997 260.6998125 Q 196.99234374999997 260.6998125 198.06339062499998 260.6998125 Q 199.1344375 260.6998125 201.0623125 260.9115625 Q 202.9901875 261.1233125 204.06123437499997 261.3350625 Q 205.13228124999995 261.5468125 208.98804687499995 261.7585625 Q 212.84381249999996 261.9703125 214.77168749999996 261.9703125 Q 216.69956249999996 261.9703125 219.48428124999995 261.9703125 Q 222.26899999999995 261.9703125 223.55424999999997 261.9703125 Q 224.8395 261.9703125 227.40999999999997 261.9703125 Q 229.98049999999995 261.9703125 231.47996874999995 261.9703125 Q 232.97943749999996 261.9703125 234.90731249999996 261.9703125 Q 236.83518749999996 261.9703125 240.47674999999995 261.9703125 Q 244.11831249999994 261.9703125 245.61776562499995 261.7585625 Q 247.11721874999995 261.5468125 249.47351562499995 261.3350625 Q 251.82981249999995 261.1233125 253.11506249999996 261.1233125 Q 254.40031249999998 261.1233125 256.113984375 260.9115625 Q 257.82765624999996 260.6998125 258.898703125 260.48806249999996 Q 259.96975 260.27631249999996 263.18289062499997 260.27631249999996 Q 266.39603124999996 260.27631249999996 268.32390624999994 260.27631249999996 Q 270.25178124999996 260.27631249999996 273.250703125 260.06457812499997 Q 276.249625 259.85284375 277.53487499999994 259.64109375 Q 278.82012499999996 259.42934375 280.1053906249999 259.21759375 Q 281.39065624999995 259.00584375 283.74695312499995 258.58234374999995 Q 286.10324999999995 258.15884374999996 287.60270312499995 257.94709374999996 Q 289.10215624999995 257.73534374999997 292.74370312499997 257.73534374999997 Q 296.38525 257.73534374999997 297.88471875 257.73534374999997 Q 299.3841875 257.73534374999997 301.52628125 257.52359375 Q 303.66837499999997 257.31184375 304.73942187499995 257.10009375 Q 305.81046875 256.88834375 307.73834375 256.46485937499995 Q 309.66621875 256.04137499999996 310.523046875 255.82962499999996 Q 311.37987499999997 255.617875 312.23671874999997 255.406125 Q 313.09356249999996 255.194375 315.87828125 254.77087500000002 Q 318.66299999999995 254.34737500000003 320.590875 254.34737500000003 Q 322.51874999999995 254.34737500000003 325.73187499999995 254.34737500000003 Q 328.945 254.34737500000003 330.230265625 254.13562500000003 Q 331.51553125 253.92387500000004 334.08603125 253.28864062500003 Q 336.65653125 252.65340625000002 337.727578125 252.65340625000002 Q 338.79862499999996 252.65340625000002 341.79754687499997 252.86515625 Q 344.79646875 253.07690625 346.51014062499996 253.07690625 Q 348.22381249999995 253.07690625 349.93748437499994 253.07690625 Q 351.65115624999993 253.07690625 354.0074531249999 253.07690625 Q 356.3637499999999 253.07690625 357.22059375 253.07690625 Q 358.07743750000003 253.07690625 360.0053125 253.07690625 Q 361.9331875 253.07690625 362.79003124999997 253.07690625 Q 363.64687499999997 253.07690625 365.36053124999995 252.86515625 Q 367.07418749999994 252.65340625000002 368.35943749999996 252.65340625000002 Q 369.6446875 252.65340625000002 372.643625 252.44165625000002 Q 375.6425625 252.22990625000003 377.14203125 252.22990625000003 Q 378.6415 252.22990625000003 380.35515625 252.44165625000002 Q 382.0688125 252.65340625000002 383.99668749999995 253.076890625 Q 385.9245624999999 253.500375 386.99562499999996 253.500375 Q 388.0666875 253.500375 389.9945625 253.288640625 Q 391.92243749999994 253.07690625 392.77928124999994 253.07690625 Q 393.63612499999994 253.07690625 395.56399999999996 253.07690625 Q 397.491875 253.07690625 398.56290624999997 253.288640625 Q 399.63393749999994 253.500375 401.5618125 253.71212500000001 Q 403.4896875 253.92387500000004 404.56075 254.13562500000003 Q 405.63181249999997 254.34737500000003 406.70284375 254.55912500000002 Q 407.77387500000003 254.77087500000002 409.4875625 254.982625 Q 411.20125 255.194375 411.84387499999997 255.194375 Q 412.4864999999999 255.194375 413.34331249999997 255.194375 Q 414.200125 255.194375 414.84274999999997 255.194375 Q 415.4853749999999 255.194375 416.55643749999996 255.194375 Q 417.6275 255.194375 418.270125 255.194375 Q 418.91275 255.194375 419.76959375 254.982625 Q 420.6264375 254.77087500000002 421.05484375 254.55912500000002 Q 421.48324999999994 254.34737500000003 422.34009374999994 253.923875 Q 423.19693749999993 253.500375 423.62534374999996 253.288640625 Q 424.05375 253.07690625 424.696375 252.86515625 Q 425.339 252.65340625000002 426.62424999999996 252.22990625000003 Q 427.9094999999999 251.80640625000004 428.55212499999993 251.59465625 Q 429.19474999999994 251.38290625 430.69421874999995 250.95940625 Q 432.19368749999995 250.53590625 432.83631249999996 250.32417187500002 Q 433.4789375 250.11243750000003 434.33578124999997 249.6889375 Q 435.19262499999996 249.2654375 435.62103125 249.0536875 Q 436.0494375 248.8419375 436.90628125 248.4184375 Q 437.763125 247.99493750000002 437.97734375 247.78318750000003 Q 438.1915625 247.57143750000003 438.40574999999995 247.35968750000004 Q 438.61993749999993 247.14793750000004 439.04837499999996 246.72445312500003 Q 439.4768125 246.30096875 439.691 245.87746875000002 Q 439.90518749999995 245.45396875000003 440.333625 244.81871875000002 Q 440.7620625 244.18346875 440.7620625 243.75998437500002 Q 440.7620625 243.33650000000003 440.97625 242.27775000000003 Q 441.1904375 241.21900000000002 441.1904375 240.79550000000003 Q 441.1904375 240.37200000000004 441.40465624999996 239.31326562500004 Q 441.61887499999995 238.25453125000004 441.83309375 237.61929687500003 Q 442.04731250000003 236.98406250000002 442.47571875 236.1370625 Q 442.90412499999996 235.2900625 442.90412499999996 234.86656250000001 Q 442.90412499999996 234.44306250000002 442.90412499999996 234.019578125 Q 442.90412499999996 233.59609375000002 442.90412499999996 232.74909375000001 Q 442.90412499999996 231.90209375 442.90412499999996 231.47859375000002 Q 442.90412499999996 231.05509375000003 442.90412499999996 230.20810937500002 Q 442.90412499999996 229.36112500000002 442.90412499999996 228.93762500000003 Q 442.90412499999996 228.514125 442.6899375 227.878875 Q 442.47575 227.243625 442.47575 227.03189062500002 Q 442.47575 226.82015625000003 442.26153125 226.39665625000004 Q 442.04731250000003 225.97315625000002 442.04731250000003 225.76140625000002 Q 442.04731250000003 225.54965625000003 441.83309375 225.33790625 Q 441.61887499999995 225.12615625 440.97624999999994 224.70265625000002 Q 440.3336249999999 224.27915625000003 439.90521874999996 224.27915625000003 Q 439.4768125 224.27915625000003 438.61996875 224.27915625000003 Q 437.763125 224.27915625000003 437.1205 224.06742187500004 Q 436.477875 223.85568750000002 434.97840625 223.85568750000002 Q 433.4789375 223.85568750000002 432.83631249999996 223.85568750000002 Q 432.19368749999995 223.85568750000002 430.9084375 223.85568750000002 Q 429.62318750000003 223.85568750000002 428.9805625 223.85568750000002 Q 428.3379375 223.85568750000002 427.90953125 223.85568750000002 Q 427.48112499999996 223.85568750000002 426.62428124999997 223.85568750000002 Q 425.76743749999997 223.85568750000002 425.12481249999996 224.06742187500004 Q 424.48218749999995 224.27915625000003 423.41112499999997 224.70265625000002 Q 422.3400625 225.12615625 421.91165624999996 225.33790625 Q 421.48324999999994 225.54965625000003 420.62640624999995 225.97315625000002 Q 419.76956249999995 226.39665625 419.12693749999994 226.60840625000003 Q 418.48431249999993 226.82015625000003 417.19906249999997 227.243640625 Q 415.9138125 227.66712500000003 415.05696875 227.66712500000003 Q 414.200125 227.66712500000003 413.34331249999997 227.87887500000002 Q 412.4864999999999 228.09062500000002 411.20124999999996 228.09062500000002 Q 409.916 228.09062500000002 409.27334375 228.09062500000002 Q 408.63068749999996 228.09062500000002 407.55965625 228.09062500000002 Q 406.488625 228.09062500000002 405.846 228.09062500000002 Q 405.203375 228.09062500000002 404.56075 228.09062500000002 Q 403.918125 228.09062500000002 403.48971874999995 228.09062500000002 L 403.05131249999994 228.09062500000002" stroke-linecap="round" />
</g>
<g transform="matrix(1 0 0 1 -75.26 281.6)" id="EE9k_d7hgK4V5EVI39aCh"  >
<path style="stroke: rgb(252,134,29); stroke-width: 10; stroke-dasharray: none; stroke-linecap: round; stroke-dashoffset: 0; stroke-linejoin: round; stroke-miterlimit: 10; fill: none; fill-rule: nonzero; opacity: 1;" vector-effect="non-scaling-stroke"  transform=" translate(75.26, -281.6)" d="M -75.27400000000004 281.59999999999997 L -75.25400000000003 281.59999999999997" stroke-linecap="round" />
</g>
<g transform="matrix(1 0 0 1 185.4 249.27)" id="YPosAk3rrlyXZjhg-ldsi"  >
<path style="stroke: rgb(255,243,18); stroke-width: 10; stroke-dasharray: none; stroke-linecap: round; stroke-dashoffset: 0; stroke-linejoin: round; stroke-miterlimit: 10; fill: none; fill-rule: nonzero; opacity: 1;" vector-effect="non-scaling-stroke"  transform=" translate(-185.4, -249.27)" d="M 196.57393749999994 243.32650000000004 Q 196.56393749999995 243.33650000000003 195.27867187499996 243.54823437500002 Q 193.99340624999996 243.75996875 191.85132812499998 243.97171875 Q 189.70925 244.18346875 184.7824375 243.97171875 Q 179.85562499999997 243.75996875 177.07092187499998 243.33648437500003 Q 174.28621875 242.91300000000004 168.07415625 242.06600000000003 Q 161.86209374999999 241.21900000000002 160.14842187499997 240.79550000000003 Q 158.43474999999995 240.37200000000004 156.29265624999996 239.94851562500003 Q 154.15056249999998 239.52503125 153.07951562499997 239.52503125 Q 152.00846874999996 239.52503125 150.93743749999996 239.52503125 Q 149.86640624999995 239.52503125 148.36693749999995 239.52503125 Q 146.86746874999994 239.52503125 146.22484374999996 239.52503125 Q 145.58221874999998 239.52503125 145.15379687499998 239.52503125 Q 144.72537499999999 239.52503125 144.51117187499997 239.52503125 Q 144.29696874999996 239.52503125 144.29696874999996 239.73678125 Q 144.29696874999996 239.94853125 144.29696874999996 240.37201562500002 Q 144.29696874999996 240.79550000000003 144.93959374999997 241.6425 Q 145.58221874999998 242.4895 146.22484374999996 243.124734375 Q 146.86746874999994 243.75996875 148.58114062499996 244.60696875000002 Q 150.29481249999998 245.45396875000003 152.22268749999998 246.30095312500004 Q 154.15056249999998 247.14793750000004 156.50685937499998 247.78318750000003 Q 158.86315624999997 248.4184375 163.14734374999998 249.26543750000002 Q 167.43153124999998 250.11243750000003 169.14520312499997 250.535921875 Q 170.85887499999995 250.95940625 175.14304687499995 252.01815625 Q 179.42721874999995 253.07690625 182.21193749999995 253.288640625 Q 184.99665624999994 253.500375 188.63820312499996 253.500375 Q 192.27974999999998 253.500375 193.13657812499997 253.288640625 Q 193.99340624999996 253.07690625 194.63604687499998 252.86515625 Q 195.2786875 252.65340625000002 196.13551562499998 252.01815625 Q 196.99234374999997 251.38290625 197.42076562499997 251.17115625 Q 197.84918749999997 250.95940625 197.84918749999997 250.74765625 Q 197.84918749999997 250.53590625 197.42076562499997 250.11242187500002 Q 196.99234374999997 249.68893750000004 195.49287499999997 249.26543750000002 Q 193.99340624999996 248.8419375 189.28081249999997 248.6301875 Q 184.56821874999997 248.4184375 182.64034374999997 248.4184375 Q 180.71246874999997 248.4184375 177.28512499999997 248.4184375 Q 173.85778124999996 248.4184375 171.71568749999997 248.4184375 Q 169.57359375 248.4184375 167.43151562499997 248.4184375 Q 165.28943749999996 248.4184375 161.43367187499996 248.20668750000002 Q 157.57790624999996 247.99493750000002 156.50685937499998 247.99493750000002 Q 155.4358125 247.99493750000002 153.936359375 247.99493750000002 Q 152.43690625 247.99493750000002 151.79428124999998 247.99493750000002 Q 151.15165624999997 247.99493750000002 150.08060937499997 248.20668750000002 Q 149.00956249999996 248.4184375 148.79534374999997 248.6301875 Q 148.581125 248.8419375 147.93849999999998 249.0536875 Q 147.29587499999997 249.2654375 147.08167187499996 249.4771875 Q 146.86746874999994 249.68893750000004 146.86746874999994 250.11242187500002 Q 146.86746874999994 250.53590625 146.65326562499996 250.95940625 Q 146.43906249999998 251.38290625 146.43906249999998 251.80640625 Q 146.43906249999998 252.22990625000003 146.65326562499996 252.44165625000002 Q 146.86746874999994 252.65340625000002 147.72429687499996 253.50039062500002 Q 148.581125 254.34737500000003 149.43796874999998 254.77087500000002 Q 150.29481249999998 255.194375 153.93635937499997 255.61787499999997 Q 157.57790624999996 256.04137499999996 159.71999999999997 256.04137499999996 Q 161.86209374999999 256.04137499999996 165.07521874999998 256.46485937499995 Q 168.28834374999997 256.88834375 169.35939062499997 257.10009375 Q 170.43043749999998 257.31184375 171.28728124999998 257.31184375 Q 172.14412499999997 257.31184375 174.71462499999998 256.888359375 Q 177.285125 256.464875 178.14196875 256.464875 Q 178.99881249999999 256.464875 180.71248437499997 256.041375 Q 182.42615624999996 255.617875 183.06878124999997 255.406125 Q 183.71140624999998 255.194375 184.56823437499997 254.77087500000002 Q 185.42506249999997 254.34737500000003 185.85348437499997 253.923875 Q 186.28190624999996 253.500375 186.49610937499997 253.076890625 Q 186.7103125 252.65340625000002 186.7103125 252.22990625000003 Q 186.7103125 251.80640625000004 186.7103125 251.38290625000002 Q 186.7103125 250.95940625 185.85348437499997 249.688921875 Q 184.99665624999994 248.4184375 184.13981249999995 247.78318750000003 Q 183.28296874999995 247.14793750000004 180.92667187499995 246.08920312500004 Q 178.57037499999996 245.03046875000004 177.28512499999997 244.60696875000002 Q 175.99987499999997 244.18346875 171.92990624999996 243.75998437500002 Q 167.85993749999994 243.33650000000003 165.28943749999996 243.12475000000003 Q 162.71893749999998 242.91300000000004 159.93421874999999 242.70125000000002 Q 157.1495 242.4895 156.07845312499998 242.4895 Q 155.00740624999997 242.4895 152.86531249999996 242.4895 Q 150.72321874999994 242.4895 149.86639062499995 242.4895 Q 149.00956249999996 242.4895 148.36693749999998 242.4895 Q 147.7243125 242.4895 146.43904687499997 242.4895 Q 145.15378124999995 242.4895 144.72537499999996 242.4895 Q 144.29696874999996 242.4895 143.01171874999997 242.4895 Q 141.72646874999998 242.4895 141.08382812499997 242.70125000000002 Q 140.44118749999996 242.91300000000004 139.58435937499996 243.12475000000003 Q 138.72753124999997 243.33650000000003 138.51332812499996 243.33650000000003 Q 138.29912499999995 243.33650000000003 138.94174999999996 243.54823437500002 Q 139.58437499999997 243.75996875 140.01278124999996 243.97171875 Q 140.44118749999996 244.18346875 141.51223437499996 244.60696875000002 Q 142.58328124999997 245.03046875000004 143.22590624999998 245.24221875000003 Q 143.86853125 245.45396875000003 146.01062499999998 245.66571875000002 Q 148.15271874999996 245.87746875000002 149.86639062499998 246.08921875000001 Q 151.5800625 246.30096875 156.29265625 246.93620312500002 Q 161.00525 247.57143750000003 162.933125 247.57143750000003 Q 164.861 247.57143750000003 166.14626562499998 247.57143750000003 Q 167.43153124999998 247.57143750000003 170.21623437499997 247.57143750000003 Q 173.00093749999996 247.57143750000003 174.50040624999997 247.57143750000003 Q 175.99987499999997 247.57143750000003 179.42721874999998 247.57143750000003 Q 182.8545625 247.57143750000003 184.56823437499997 247.35968750000004 Q 186.28190624999996 247.14793750000004 188.63820312499996 246.72445312500003 Q 190.99449999999996 246.30096875 191.85132812499995 246.30096875 Q 192.70815624999994 246.30096875 194.20762499999995 246.30096875 Q 195.70709374999996 246.30096875 196.34971874999997 246.30096875 Q 196.99234374999997 246.30096875 197.63496874999998 246.30096875 Q 198.27759375 246.30096875 199.56284374999998 246.08921875000001 Q 200.84809374999998 245.87746875000002 201.49071874999998 245.66571875000002 Q 202.13334375 245.45396875000003 203.418609375 245.45396875000003 Q 204.70387499999998 245.45396875000003 205.56070312499997 245.45396875000003 Q 206.41753124999997 245.45396875000003 208.77382812499997 245.45396875000003 Q 211.13012499999996 245.45396875000003 212.20117187499997 245.45396875000003 Q 213.27221874999998 245.45396875000003 214.98589062499997 245.45396875000003 Q 216.69956249999996 245.45396875000003 217.55639062499998 245.45396875000003 Q 218.41321875 245.45396875000003 219.2700625 245.45396875000003 Q 220.12690625 245.45396875000003 220.98373437499998 245.45396875000003 Q 221.84056249999998 245.45396875000003 222.05478124999996 245.45396875000003 Q 222.26899999999995 245.45396875000003 220.76953124999997 245.45396875000003 Q 219.2700625 245.45396875000003 217.98481249999998 245.24221875000003 Q 216.69956249999996 245.03046875000004 215.20009374999995 244.81871875000002 Q 213.70062499999995 244.60696875 211.77274999999995 244.60696875 Q 209.84487499999994 244.60696875 208.98804687499995 244.60696875 Q 208.13121874999996 244.60696875 206.41754687499997 244.39521875 Q 204.70387499999998 244.18346875 203.63282812499997 244.18346875 Q 202.56178124999997 244.18346875 200.41968749999998 243.97171875 Q 198.27759375 243.75996875 196.34971875 243.75996875 Q 194.42184375 243.75996875 190.35187499999998 243.75996875 Q 186.28190624999996 243.75996875 184.78243749999996 243.75996875 Q 183.28296874999995 243.75996875 181.14089062499997 243.75996875 Q 178.99881249999999 243.75996875 178.14196875 243.75996875 Q 177.285125 243.75996875 176.64249999999998 243.75996875 Q 175.99987499999997 243.75996875 174.92882812499997 243.75996875 Q 173.85778124999996 243.75996875 173.42935937499996 243.75996875 Q 173.00093749999996 243.75996875 172.35831249999995 243.75996875 Q 171.71568749999994 243.75996875 171.92990624999996 243.75996875 Q 172.14412499999997 243.75996875 172.78674999999998 243.97171875 Q 173.429375 244.18346875 175.14304687499998 244.60696875000002 Q 176.85671874999997 245.03046875000004 178.35617187499997 245.03046875000004 Q 179.85562499999997 245.03046875000004 183.28296874999998 245.03046875000004 Q 186.7103125 245.03046875000004 187.99556249999998 245.03046875000004 Q 189.28081249999997 245.03046875000004 190.99448437499996 244.81871875000002 Q 192.70815624999994 244.60696875 193.35078124999995 244.60696875 Q 193.99340624999996 244.60696875 195.27867187499996 244.60696875 Q 196.56393749999995 244.60696875 196.99234374999997 244.39521875 Q 197.42075 244.18346875 198.06339062499998 243.97171875 Q 198.70603124999997 243.75996875 199.77706249999997 243.54823437500002 Q 200.84809374999998 243.33650000000003 201.49071874999998 243.12475000000003 Q 202.13334375 242.91300000000004 202.9901875 242.70125000000002 Q 203.84703125 242.4895 204.27545312499998 242.27775 Q 204.70387499999998 242.066 205.98912499999997 242.066 Q 207.27437499999996 242.066 207.91699999999997 242.066 Q 208.55962499999998 242.066 209.20224999999996 242.066 Q 209.84487499999994 242.066 211.13012499999996 242.066 Q 212.41537499999998 242.066 213.05799999999996 242.066 Q 213.70062499999995 242.066 215.20009374999995 242.48950000000002 Q 216.69956249999996 242.91300000000004 217.34218749999997 242.91300000000004 Q 217.98481249999998 242.91300000000004 218.84165624999997 243.33648437500003 Q 219.69849999999997 243.75996875 220.12690624999996 243.97171875 Q 220.55531249999996 244.18346875 220.98373437499995 244.60696875000002 Q 221.41215624999995 245.03046875000004 221.41215624999995 245.24221875000003 Q 221.41215624999995 245.45396875000003 221.62635937499996 245.87746875000002 Q 221.84056249999998 246.30096875 221.84056249999998 246.93620312500002 Q 221.84056249999998 247.57143750000003 221.84056249999998 248.63018750000003 Q 221.84056249999998 249.68893750000004 221.62635937499996 250.11242187500002 Q 221.41215624999995 250.53590625 220.76953124999997 251.17115625000002 Q 220.12690625 251.80640625000004 219.698484375 252.22990625000003 Q 219.2700625 252.65340625000002 218.199015625 253.71214062500002 Q 217.12796874999998 254.77087500000002 216.48534374999997 255.194375 Q 215.84271874999996 255.617875 214.55746874999997 256.676609375 Q 213.27221874999998 257.73534374999997 212.62959374999997 258.15884374999996 Q 211.98696874999996 258.58234375 211.34434374999998 258.79409375 Q 210.70171875 259.00584375 210.05909375 259.42934375 Q 209.41646874999998 259.85284375 209.20224999999996 260.06457812499997 Q 208.98803124999995 260.27631249999996 208.55962499999995 260.27631249999996 Q 208.13121874999996 260.27631249999996 207.91699999999997 260.27631249999996 Q 207.70278125 260.27631249999996 207.06015624999998 260.48806249999996 Q 206.41753124999997 260.6998125 206.20332812499996 260.6998125 Q 205.98912499999994 260.6998125 205.56070312499995 260.6998125 Q 205.13228124999995 260.6998125 204.70385937499995 260.6998125 Q 204.27543749999995 260.6998125 204.06123437499997 260.6998125 Q 203.84703125 260.6998125 203.418609375 260.6998125 Q 202.9901875 260.6998125 202.77598437499998 260.6998125 Q 202.56178124999997 260.6998125 202.13335937499997 260.6998125 Q 201.70493749999997 260.6998125 201.49073437499996 260.6998125 Q 201.27653124999995 260.6998125 201.49073437499996 260.6998125 Q 201.70493749999997 260.6998125 202.56178124999997 261.1233125 Q 203.41862499999996 261.5468125 203.84703124999996 261.7585625 Q 204.27543749999995 261.9703125 205.56070312499997 262.1820625 Q 206.84596875 262.39381249999997 207.702796875 262.1820625 Q 208.55962499999998 261.9703125 210.48749999999998 261.5468125 Q 212.41537499999998 261.1233125 213.27221874999998 260.488078125 Q 214.12906249999997 259.85284375 215.62851562499998 258.79409375 Q 217.12796874999998 257.73534374999997 217.77059375 257.31184375 Q 218.41321875 256.88834375 219.2700625 255.82960937500002 Q 220.12690625 254.77087500000002 220.555328125 254.34737500000003 Q 220.98375 253.92387500000004 221.19795312499997 253.28864062500003 Q 221.41215624999995 252.65340625000002 221.84057812499995 251.38292187500002 Q 222.26899999999995 250.11243750000003 222.26899999999995 249.6889375 Q 222.26899999999995 249.2654375 221.84057812499995 248.6301875 Q 221.41215624999995 247.99493750000002 220.98373437499995 247.57143750000003 Q 220.55531249999996 247.14793750000004 219.05585937499995 246.51270312500003 Q 217.55640624999995 245.87746875000002 216.69956249999996 245.45396875000003 Q 215.84271874999996 245.03046875000004 213.91484374999996 244.39521875000003 Q 211.98696874999996 243.75996875 211.13012499999996 243.75996875 Q 210.27328124999997 243.75996875 209.41645312499998 243.75996875 Q 208.55962499999998 243.75996875 206.84595312499997 243.75996875 Q 205.13228124999995 243.75996875 204.27545312499996 243.75996875 Q 203.41862499999996 243.75996875 201.70495312499997 243.75996875 Q 199.99128125 243.75996875 198.706015625 243.75996875 Q 197.42075 243.75996875 193.565 243.97171875 Q 189.70925 244.18346875 187.99557812499998 244.39521875 Q 186.28190624999996 244.60696875 183.71139062499998 244.60696875 Q 181.140875 244.60696875 179.85562499999997 244.81871875000002 Q 178.57037499999996 245.03046875000004 177.49932812499998 245.03046875000004 Q 176.42828125 245.03046875000004 174.50040625 245.03046875000004 Q 172.57253125 245.03046875000004 171.28728124999998 245.03046875000004 Q 170.00203124999996 245.03046875000004 167.21731249999996 245.24221875000003 Q 164.43259374999997 245.45396875000003 162.93312499999996 245.24221875000003 Q 161.43365624999996 245.03046875000004 159.50578124999996 244.81871875000002 Q 157.57790624999996 244.60696875 156.93528124999997 244.60696875 Q 156.29265625 244.60696875 155.22160937499999 244.60696875 Q 154.15056249999998 244.60696875 153.72214062499998 244.60696875 Q 153.29371874999998 244.60696875 153.07951562499997 244.60696875 Q 152.86531249999996 244.60696875 152.43689062499996 244.60696875 Q 152.00846874999996 244.60696875 151.79426562499998 244.60696875 Q 151.5800625 244.60696875 151.36585937499999 244.60696875 Q 151.15165624999997 244.60696875 151.58006249999997 244.18346875 Q 152.00846874999996 243.75996875 152.43689062499996 243.33648437500003 Q 152.86531249999996 242.91300000000004 154.36478124999996 242.27775000000003 Q 155.86424999999997 241.6425 157.14949999999996 241.21900000000002 Q 158.43474999999995 240.79550000000003 159.71999999999997 240.37201562500002 Q 161.00525 239.94853125 163.57576562499997 239.10153125000002 Q 166.14628124999996 238.25453125000004 167.21731249999996 238.04278125000002 Q 168.28834374999997 237.83103125 170.64464062499997 237.407546875 Q 173.00093749999996 236.98406250000002 174.07198437499997 236.77231250000003 Q 175.14303124999998 236.56056250000003 177.92774999999997 236.34881250000004 Q 180.71246874999997 236.13706250000004 182.64034374999997 236.34881250000004 Q 184.56821874999997 236.56056250000003 187.35293749999997 236.98404687500002 Q 190.13765624999996 237.40753125 190.99449999999996 237.40753125 Q 191.85134374999996 237.40753125 193.77921874999996 237.40753125 Q 195.70709374999996 237.40753125 196.56392187499998 237.195796875 Q 197.42075 236.98406250000002 198.49179687499998 236.98406250000002 Q 199.56284374999996 236.98406250000002 201.27651562499997 236.98406250000002 Q 202.9901875 236.98406250000002 203.63281249999997 236.98406250000002 Q 204.27543749999995 236.98406250000002 205.77490624999996 236.77231250000003 Q 207.27437499999996 236.56056250000003 208.55962499999995 236.56056250000003 Q 209.84487499999994 236.56056250000003 212.41539062499996 236.56056250000003 Q 214.98590624999997 236.56056250000003 216.27115624999996 236.56056250000003 Q 217.55640624999995 236.56056250000003 218.62745312499996 236.56056250000003 Q 219.69849999999997 236.56056250000003 221.41217187499996 236.56056250000003 Q 223.12584374999994 236.56056250000003 223.76846874999995 236.56056250000003 Q 224.41109374999996 236.56056250000003 225.69634374999995 236.77231250000003 Q 226.98159374999994 236.98406250000002 227.62421874999995 236.98406250000002 Q 228.26684374999996 236.98406250000002 229.12367187499996 236.98406250000002 Q 229.98049999999995 236.98406250000002 230.40892187499995 236.98406250000002 Q 230.83734374999995 236.98406250000002 231.05154687499996 236.98406250000002 Q 231.26574999999997 236.98406250000002 231.05154687499996 236.98406250000002 Q 230.83734374999995 236.98406250000002 229.98051562499995 237.61929687500003 Q 229.12368749999996 238.25453125000004 228.26684374999996 238.46628125000004 Q 227.40999999999997 238.67803125000003 224.83949999999996 239.10153125000002 Q 222.26899999999995 239.52503125 220.55532812499996 239.73678125 Q 218.84165624999997 239.94853125 216.27114062499996 240.16026562500002 Q 213.70062499999995 240.37200000000004 212.84379687499995 240.58375000000004 Q 211.98696874999996 240.79550000000003 210.27329687499997 241.21900000000002 Q 208.55962499999998 241.6425 207.702796875 241.85425 Q 206.84596875 242.066 205.98912499999997 242.27775 Q 205.13228124999995 242.4895 203.41860937499996 242.70125000000002 Q 201.70493749999997 242.91300000000004 200.84810937499998 243.12475000000003 Q 199.99128125 243.33650000000003 197.634984375 243.54823437500002 Q 195.2786875 243.75996875 193.56501562499997 243.97171875 Q 191.85134374999996 244.18346875 189.06662499999996 244.39521875 Q 186.28190624999996 244.60696875 185.21085937499996 244.60696875 Q 184.13981249999995 244.60696875 182.42614062499996 244.60696875 Q 180.71246874999997 244.60696875 179.85564062499998 244.60696875 Q 178.99881249999999 244.60696875 177.92776562499998 244.60696875 Q 176.85671874999997 244.60696875 175.14304687499998 244.39521875 Q 173.429375 244.18346875 172.57253124999997 244.18346875 Q 171.71568749999994 244.18346875 169.78781249999994 244.18346875 Q 167.85993749999994 244.18346875 166.78889062499996 244.39521875 Q 165.71784375 244.60696875 163.78996874999999 244.18346875 Q 161.86209374999999 243.75996875 160.79104687499998 243.75996875 Q 159.71999999999997 243.75996875 158.43474999999998 243.75996875 Q 157.1495 243.75996875 156.721078125 243.75996875 Q 156.29265625 243.75996875 155.65003124999998 243.75996875 Q 155.00740624999997 243.75996875 154.79320312499996 243.75996875 Q 154.57899999999995 243.75996875 154.15057812499995 243.75996875 Q 153.72215624999995 243.75996875 153.29373437499996 243.75996875 Q 152.86531249999996 243.75996875 152.65110937499998 243.75996875 Q 152.43690625 243.75996875 152.22268749999998 243.75996875 Q 152.00846874999996 243.75996875 152.43689062499996 243.97171875 Q 152.86531249999996 244.18346875 153.72215624999995 244.60696875000002 Q 154.57899999999995 245.03046875000004 157.14949999999996 245.87746875000002 Q 159.71999999999997 246.72446875 161.21946874999998 246.93620312500002 Q 162.71893749999998 247.14793750000004 165.28943749999996 247.14793750000004 Q 167.85993749999994 247.14793750000004 169.14518749999996 247.35968750000004 Q 170.43043749999998 247.57143750000003 172.57253124999997 247.78318750000003 Q 174.71462499999996 247.99493750000002 176.21407812499996 247.99493750000002 Q 177.71353124999996 247.99493750000002 181.56929687499996 247.78318750000003 Q 185.42506249999997 247.57143750000003 186.92453124999997 247.57143750000003 Q 188.42399999999998 247.57143750000003 189.28082812499997 247.35968750000004 Q 190.13765624999996 247.14793750000004 191.63712499999997 247.14793750000004 Q 193.13659374999997 247.14793750000004 193.99342187499997 247.14793750000004 Q 194.85024999999996 247.14793750000004 196.34971874999997 247.14793750000004 Q 197.84918749999997 247.14793750000004 198.49181249999998 247.14793750000004 Q 199.1344375 247.14793750000004 200.633890625 247.14793750000004 Q 202.13334375 247.14793750000004 202.77598437499998 247.14793750000004 Q 203.41862499999996 247.14793750000004 204.48965624999997 247.14793750000004 Q 205.56068749999997 247.14793750000004 206.20332812499998 247.14793750000004 Q 206.84596875 247.14793750000004 208.98804687499998 247.35968750000004 Q 211.13012499999996 247.57143750000003 211.98696874999996 247.78318750000003 Q 212.84381249999996 247.99493750000002 213.70064062499998 248.20668750000002 Q 214.55746875 248.4184375 216.05693749999998 249.05368750000002 Q 217.55640624999995 249.68893750000004 218.19903124999996 250.11242187500002 Q 218.84165624999997 250.53590625 219.48428124999998 250.95940625 Q 220.12690625 251.38290625 220.12690625 251.59465625 Q 220.12690625 251.80640625000004 220.12690625 252.01815625000003 Q 220.12690625 252.22990625000003 220.12690625 252.44165625000002 Q 220.12690625 252.65340625000002 219.48428124999998 253.076890625 Q 218.84165624999997 253.500375 217.98481249999998 253.923875 Q 217.12796874999998 254.34737500000003 215.84271875 254.55912500000002 Q 214.55746875 254.77087500000002 212.62959375 255.194375 Q 210.70171875 255.617875 209.84487499999997 255.82962499999996 Q 208.98803124999995 256.04137499999996 207.48857812499995 256.46485937499995 Q 205.98912499999994 256.88834375 205.13228124999995 257.10009375 Q 204.27543749999995 257.31184375 202.56176562499996 257.52359375 Q 200.84809374999998 257.73534374999997 199.77706249999997 257.52359375 Q 198.70603124999997 257.31184375 195.49289062499997 257.10009375 Q 192.27974999999998 256.88834375 190.78028124999997 256.676609375 Q 189.28081249999997 256.464875 187.78135937499997 256.464875 Q 186.28190624999996 256.464875 184.35403124999996 256.464875 Q 182.42615624999996 256.464875 181.56931249999997 256.464875 Q 180.71246874999997 256.464875 178.99879687499998 256.25312499999995 Q 177.285125 256.04137499999996 176.42829687499997 256.04137499999996 Q 175.57146874999995 256.04137499999996 173.64357812499995 255.61787499999997 Q 171.71568749999994 255.194375 170.64464062499997 254.982625 Q 169.57359375 254.77087500000002 167.00309374999998 254.34737500000003 Q 164.43259374999997 253.92387500000004 162.93312499999996 253.71212500000001 Q 161.43365624999996 253.500375 160.14840624999997 253.288640625 Q 158.86315624999997 253.07690625 157.57790624999998 253.07690625 Q 156.29265625 253.07690625 155.65003124999998 253.07690625 Q 155.00740624999997 253.07690625 153.93635937499997 253.07690625 Q 152.86531249999996 253.07690625 152.43689062499996 252.86515625 Q 152.00846874999996 252.65340625000002 150.93743749999996 252.01815625 Q 149.86640624999995 251.38290625 149.43798437499996 251.38290625 Q 149.00956249999996 251.38290625 147.72431249999997 251.17115625 Q 146.43906249999998 250.95940625 146.01064062499998 250.95940625 Q 145.58221874999998 250.95940625 144.51117187499997 250.95940625 Q 143.44012499999997 250.95940625 142.58329687499997 250.95940625 Q 141.72646874999998 250.95940625 141.08382812499997 250.95940625 Q 140.44118749999996 250.95940625 139.15593749999996 250.95940625 Q 137.87068749999997 250.95940625 137.22806249999996 250.95940625 Q 136.58543749999995 250.95940625 135.30018749999996 251.17115625 Q 134.01493749999997 251.38290625 133.37231249999996 251.38290625 Q 132.72968749999995 251.38290625 131.65864062499998 251.59465625 Q 130.58759375 251.80640625000004 130.15917187499997 251.80640625000004 Q 129.73074999999994 251.80640625000004 128.87392187499995 252.22990625000003 Q 128.01709374999996 252.65340625000002 127.58867187499996 252.65340625000002 Q 127.16024999999996 252.65340625000002 126.94604687499998 252.86515625 Q 126.73184375 253.07690625 126.51762499999998 253.288640625 Q 126.30340624999997 253.500375 126.08920312499995 253.71212500000001 Q 125.87499999999994 253.92387500000004 125.44657812499995 254.34737500000003 Q 125.01815624999995 254.77087500000002 124.80395312499996 255.194375 Q 124.58974999999998 255.617875 124.37553124999997 255.82962499999996 Q 124.16131249999995 256.04137499999996 124.16131249999995 256.46485937499995 Q 124.16131249999995 256.88834375 124.37553124999997 257.31184375 Q 124.58974999999998 257.73534374999997 124.80395312499996 257.94709374999996 Q 125.01815624999995 258.15884374999996 125.66078124999996 258.79409375 Q 126.30340624999997 259.42934375 126.94603124999998 259.64109375 Q 127.58865624999999 259.85284375 129.088125 260.27632812499996 Q 130.58759375 260.6998125 131.444421875 260.9115625 Q 132.30124999999998 261.1233125 134.01492187499997 261.3350625 Q 135.72859374999996 261.5468125 136.58543749999995 261.5468125 Q 137.44228124999995 261.5468125 138.51332812499996 261.1233125 Q 139.58437499999997 260.6998125 140.01278124999996 260.48806249999996 Q 140.44118749999996 260.27631249999996 140.86960937499995 260.06457812499997 Q 141.29803124999995 259.85284375 141.72645312499995 259.42934375 Q 142.15487499999995 259.00584375 142.58329687499995 258.79409375 Q 143.01171874999994 258.58234375 143.44012499999997 257.73534374999997 Q 143.86853125 256.88834375 144.08274999999998 256.46485937499995 Q 144.29696874999996 256.04137499999996 144.72537499999996 254.98262499999998 Q 145.15378124999995 253.92387500000004 145.36799999999997 253.28864062500003 Q 145.58221874999998 252.65340625000002 145.58221874999998 251.80640625 Q 145.58221874999998 250.95940625 145.58221874999998 250.32417187500002 Q 145.58221874999998 249.68893750000004 145.58221874999998 249.26543750000002 Q 145.58221874999998 248.8419375 144.93959374999997 247.571453125 Q 144.29696874999996 246.30096875 144.08274999999998 245.87746875000002 Q 143.86853125 245.45396875000003 143.01170312499997 244.60696875000002 Q 142.15487499999995 243.75996875 141.29803124999995 243.33648437500003 Q 140.44118749999996 242.91300000000004 138.51331249999996 242.06600000000003 Q 136.58543749999995 241.21900000000002 135.51439062499998 240.79550000000003 Q 134.44334375 240.37200000000004 132.51546875 239.73676562500003 Q 130.58759375 239.10153125000002 129.94496875 238.88978125000003 Q 129.30234374999998 238.67803125000003 128.01709375 238.25453125 Q 126.73184375 237.83103125 126.30342187499997 237.83103125 Q 125.87499999999994 237.83103125 125.44657812499995 237.83103125 Q 125.01815624999995 237.83103125 124.58973437499995 237.83103125 Q 124.16131249999995 237.83103125 123.94710937499997 237.83103125 Q 123.73290624999998 237.83103125 123.73290624999998 238.04278125000002 Q 123.73290624999998 238.25453125000004 123.94710937499997 238.46628125000004 Q 124.16131249999995 238.67803125000003 124.37553124999997 238.88978125000003 Q 124.58974999999998 239.10153125000002 125.23237499999996 239.31328125000002 Q 125.87499999999994 239.52503125 127.16024999999996 239.94851562500003 Q 128.44549999999998 240.37200000000004 129.08812499999996 240.58375000000004 Q 129.73074999999994 240.79550000000003 131.44442187499996 241.21900000000002 Q 133.15809374999998 241.6425 134.01493749999997 241.85425 Q 134.87178124999997 242.066 136.15703124999996 242.48950000000002 Q 137.44228124999995 242.91300000000004 137.87070312499995 242.91300000000004 Q 138.29912499999995 242.91300000000004 138.72753124999997 243.12475000000003 Q 139.1559375 243.33650000000003 140.01278125 243.75998437500002 Q 140.86962499999998 244.18346875 141.29804687499998 244.39521875 Q 141.72646874999998 244.60696875 142.58329687499997 245.03046875 Q 143.44012499999997 245.45396875000003 143.86854687499996 245.66571875000002 Q 144.29696874999996 245.87746875000002 145.15379687499995 246.08921875000001 Q 146.01062499999995 246.30096875 146.43904687499995 246.30096875 Q 146.86746874999994 246.30096875 147.72429687499996 246.51271875 Q 148.581125 246.72446875 149.00954687499998 246.93620312500002 Q 149.43796874999998 247.14793750000004 149.65218749999997 247.14793750000004 Q 149.86640624999995 247.14793750000004 150.93743749999996 246.93620312500002 Q 152.00846874999996 246.72446875 153.29373437499996 246.72446875 Q 154.57899999999995 246.72446875 156.93529687499995 246.72446875 Q 159.29159374999995 246.72446875 160.14842187499997 246.72446875 Q 161.00525 246.72446875 162.933125 246.51271875 Q 164.861 246.30096875 165.71784375 246.30096875 Q 166.57468749999998 246.30096875 168.28835937499997 246.30096875 Q 170.00203124999996 246.30096875 170.85885937499995 246.08921875000001 Q 171.71568749999994 245.87746875000002 173.42935937499996 245.66571875000002 Q 175.14303124999998 245.45396875000003 175.99987499999997 245.24221875000003 Q 176.85671874999997 245.03046875000004 177.71354687499996 245.03046875000004 Q 178.57037499999996 245.03046875000004 181.14089062499997 245.03046875000004 Q 183.71140624999998 245.03046875000004 184.99665624999997 245.03046875000004 Q 186.28190624999996 245.03046875000004 188.20978124999996 244.81871875000002 Q 190.13765624999996 244.60696875 190.78028124999997 244.60696875 Q 191.42290624999998 244.60696875 192.70815624999997 244.60696875 Q 193.99340624999996 244.60696875 194.42182812499996 244.60696875 Q 194.85024999999996 244.60696875 196.13549999999998 244.60696875 Q 197.42075 244.60696875 198.06339062499998 244.60696875 Q 198.70603124999997 244.60696875 199.56285937499996 244.60696875 Q 200.41968749999995 244.60696875 201.70493749999997 244.60696875 Q 202.9901875 244.60696875 203.418609375 244.60696875 Q 203.84703125 244.60696875 204.91807812499997 244.39521875 Q 205.98912499999994 244.18346875 206.84595312499997 244.18346875 Q 207.70278125 244.18346875 210.27329687499997 244.39521875 Q 212.84381249999996 244.60696875 214.12906249999997 244.81871875000002 Q 215.4143125 245.03046875000004 217.3421875 245.24221875000003 Q 219.2700625 245.45396875000003 220.12690625 245.45396875000003 Q 220.98375 245.45396875000003 221.62637499999997 245.24221875000003 Q 222.26899999999995 245.03046875000004 223.76845312499995 245.03046875000004 Q 225.26790624999995 245.03046875000004 225.91053124999996 245.03046875000004 Q 226.55315624999997 245.03046875000004 228.05262499999998 244.81871875000002 Q 229.55209374999998 244.60696875 230.40892187499998 244.60696875 Q 231.26574999999997 244.60696875 232.97942187499996 244.39521875 Q 234.69309374999995 244.18346875 235.76414062499995 244.18346875 Q 236.83518749999996 244.18346875 238.76307812499996 243.97171875 Q 240.69096874999997 243.75996875 241.76199999999997 243.54823437500002 Q 242.83303124999998 243.33650000000003 244.11829687499997 243.12475000000003 Q 245.40356249999996 242.91300000000004 245.83196874999996 242.91300000000004 Q 246.26037499999995 242.91300000000004 246.68879687499995 242.91300000000004 Q 247.11721874999995 242.91300000000004 247.97406249999997 242.91300000000004 Q 248.83090625 242.91300000000004 249.04510937499998 242.91300000000004 Q 249.25931249999996 242.91300000000004 249.90193749999997 242.91300000000004 Q 250.54456249999998 242.91300000000004 250.75876562499997 242.91300000000004 Q 250.97296874999995 242.91300000000004 251.18718749999996 242.91300000000004 Q 251.40140624999998 242.91300000000004 251.18718749999996 243.12475000000003 Q 250.97296874999995 243.33650000000003 250.54456249999996 243.75998437500002 Q 250.11615624999996 244.18346875 247.75985937499996 244.81871875000002 Q 245.40356249999996 245.45396875000003 244.33251562499996 245.66571875000002 Q 243.26146874999995 245.87746875000002 241.11937499999996 246.30096875 Q 238.97728124999998 246.72446875 237.90623437499997 246.72446875 Q 236.83518749999996 246.72446875 235.76414062499995 246.72446875 Q 234.69309374999995 246.72446875 232.97942187499996 246.72446875 Q 231.26574999999997 246.72446875 229.12367187499996 246.93620312500002 Q 226.98159374999994 247.14793750000004 225.69634374999995 247.57143750000003 Q 224.41109374999996 247.99493750000002 222.91162499999996 248.20668750000002 Q 221.41215624999995 248.4184375 218.19903124999996 248.8419375 Q 214.98590624999997 249.2654375 213.70064062499998 249.4771875 Q 212.41537499999998 249.68893750000004 210.48749999999998 250.535921875 Q 208.55962499999998 251.38290625 207.702796875 251.59465625 Q 206.84596875 251.80640625000004 205.13229687499998 252.44165625000002 Q 203.41862499999996 253.07690625 202.56178124999997 253.50039062500002 Q 201.70493749999997 253.92387500000004 201.06231249999996 254.13562500000003 Q 200.41968749999995 254.34737500000003 198.92021874999998 254.55912500000002 Q 197.42075 254.77087500000002 196.34971875 254.982625 Q 195.2786875 255.194375 192.06554687499997 255.406125 Q 188.85240624999994 255.617875 187.56715624999995 255.617875 Q 186.28190624999996 255.617875 184.13981249999998 255.82962499999996 Q 181.99771875 256.04137499999996 181.35509374999998 256.25312499999995 Q 180.71246874999997 256.464875 178.99879687499998 256.888359375 Q 177.285125 257.31184375 176.64249999999998 257.31184375 Q 175.99987499999997 257.31184375 175.14304687499998 257.31184375 Q 174.28621875 257.31184375 172.57254687499997 257.31184375 Q 170.85887499999995 257.31184375 170.00203124999996 257.10009375 Q 169.14518749999996 256.88834375 166.57468749999995 256.88834375 Q 164.00418749999994 256.88834375 162.71892187499995 256.88834375 Q 161.43365624999996 256.88834375 159.50578124999996 257.31184375 Q 157.57790624999996 257.73534374999997 156.93528124999997 257.73534374999997 Q 156.29265625 257.73534374999997 155.00740624999997 257.94709374999996 Q 153.72215624999995 258.15884374999996 153.07953124999997 258.15884374999996 Q 152.43690625 258.15884374999996 151.36585937499999 258.15884374999996 Q 150.29481249999998 258.15884374999996 149.65218749999997 258.15884374999996 Q 149.00956249999996 258.15884374999996 148.36693749999998 258.15884374999996 Q 147.7243125 258.15884374999996 146.86746874999997 258.15884374999996 Q 146.01062499999995 258.15884374999996 145.58220312499995 258.15884374999996 Q 145.15378124999995 258.15884374999996 144.29695312499996 258.15884374999996 Q 143.44012499999997 258.15884374999996 143.01170312499997 258.15884374999996 Q 142.58328124999997 258.15884374999996 141.29803124999998 258.15884374999996 Q 140.01278125 258.15884374999996 139.15595312499997 258.15884374999996 Q 138.29912499999995 258.15884374999996 137.44228124999995 257.94709374999996 Q 136.58543749999995 257.73534374999997 135.30018749999996 257.31184375 Q 134.01493749999997 256.88834375 133.37231249999996 256.676609375 Q 132.72968749999995 256.464875 131.23021874999995 256.25312499999995 Q 129.73074999999994 256.04137499999996 129.08812499999996 256.04137499999996 Q 128.44549999999998 256.04137499999996 127.80287499999997 256.04137499999996 Q 127.16024999999996 256.04137499999996 126.73182812499996 255.82962499999996 Q 126.30340624999997 255.617875 125.87499999999997 255.617875 Q 125.44659374999998 255.617875 125.23237499999996 255.617875 Q 125.01815624999995 255.617875 124.80395312499996 255.617875 Q 124.58974999999998 255.617875 124.16132812499998 255.617875 Q 123.73290624999998 255.617875 123.51870312499997 255.617875 Q 123.30449999999996 255.617875 122.87607812499996 255.406125 Q 122.44765624999997 255.194375 122.23345312499995 255.194375 Q 122.01924999999994 255.194375 121.59082812499994 254.982625 Q 121.16240624999995 254.77087500000002 121.16240624999995 254.55912500000002 Q 121.16240624999995 254.34737500000003 120.94820312499996 254.13562500000003 Q 120.73399999999998 253.92387500000004 120.51978124999997 253.50039062500002 Q 120.30556249999995 253.07690625 119.87714062499995 252.22990625 Q 119.44871874999995 251.38290625 119.44871874999995 250.95940625 L 119.44871874999995 250.52590625000002" stroke-linecap="round" />
</g>
<g transform="matrix(1 0 0 1 146.94 242.68)" id="2xCoaGi8LygBqwEfJGzva"  >
<path style="stroke: rgb(255,243,18); stroke-width: 10; stroke-dasharray: none; stroke-linecap: round; stroke-dashoffset: 0; stroke-linejoin: round; stroke-miterlimit: 10; fill: none; fill-rule: nonzero; opacity: 1;" vector-effect="non-scaling-stroke"  transform=" translate(-146.94, -242.68)" d="M 123.38199999999999 243.71200000000002 Q 123.392 243.71200000000002 123.904 243.71200000000002 Q 124.416 243.71200000000002 124.928 243.71200000000002 Q 125.44 243.71200000000002 125.952 243.71200000000002 Q 126.464 243.71200000000002 127.99999999999997 244.22400000000002 Q 129.53599999999994 244.73600000000002 130.55999999999995 244.73600000000002 Q 131.58399999999995 244.73600000000002 132.09599999999995 244.73600000000002 Q 132.60799999999995 244.73600000000002 133.11999999999995 244.73600000000002 Q 133.63199999999995 244.73600000000002 134.14399999999995 244.73600000000002 Q 134.65599999999995 244.73600000000002 135.67999999999995 244.73600000000002 Q 136.70399999999995 244.73600000000002 137.72799999999995 244.73600000000002 Q 138.75199999999995 244.73600000000002 139.77599999999995 244.73600000000002 Q 140.79999999999995 244.73600000000002 141.82399999999996 244.73600000000002 Q 142.84799999999996 244.73600000000002 143.87199999999996 244.73600000000002 Q 144.89599999999996 244.73600000000002 145.40799999999996 244.73600000000002 Q 145.91999999999996 244.73600000000002 146.94399999999996 244.73600000000002 Q 147.96799999999996 244.73600000000002 148.47999999999996 244.73600000000002 Q 148.99199999999996 244.73600000000002 150.01599999999996 244.73600000000002 Q 151.03999999999996 244.73600000000002 151.55199999999996 244.73600000000002 Q 152.06399999999996 244.73600000000002 153.08799999999997 244.73600000000002 Q 154.11199999999997 244.73600000000002 155.13599999999997 244.22400000000002 Q 156.15999999999997 243.71200000000002 156.67199999999997 243.71200000000002 Q 157.18399999999997 243.71200000000002 157.69599999999997 243.71200000000002 Q 158.20799999999997 243.71200000000002 159.74399999999997 243.71200000000002 Q 161.27999999999997 243.71200000000002 161.79199999999997 243.71200000000002 Q 162.30399999999997 243.71200000000002 163.32799999999997 243.20000000000002 Q 164.35199999999998 242.68800000000002 164.86399999999998 242.68800000000002 Q 165.37599999999998 242.68800000000002 165.88799999999998 242.17600000000002 Q 166.39999999999998 241.66400000000002 167.42399999999998 241.66400000000002 Q 168.44799999999998 241.66400000000002 169.47199999999998 241.15200000000002 L 170.50599999999997 240.63000000000002" stroke-linecap="round" />
</g>
<g transform="matrix(1 0 0 1 210.94 244.23)" id="InbYE-agCCqMx0Ck6_GGd"  >
<path style="stroke: rgb(255,243,18); stroke-width: 10; stroke-dasharray: none; stroke-linecap: round; stroke-dashoffset: 0; stroke-linejoin: round; stroke-miterlimit: 10; fill: none; fill-rule: nonzero; opacity: 1;" vector-effect="non-scaling-stroke"  transform=" translate(-210.94, -244.23)" d="M 170.486 240.64000000000001 Q 170.49599999999998 240.64000000000001 171.00799999999998 240.64000000000001 Q 171.51999999999998 240.64000000000001 174.59199999999998 240.64000000000001 Q 177.664 240.64000000000001 178.688 240.64000000000001 Q 179.712 240.64000000000001 180.224 240.64000000000001 Q 180.736 240.64000000000001 181.248 240.64000000000001 Q 181.76 240.64000000000001 182.272 240.64000000000001 Q 182.784 240.64000000000001 183.296 240.64000000000001 Q 183.808 240.64000000000001 184.832 240.64000000000001 Q 185.856 240.64000000000001 186.368 240.64000000000001 Q 186.88 240.64000000000001 187.904 240.64000000000001 Q 188.928 240.64000000000001 189.952 240.64000000000001 Q 190.976 240.64000000000001 191.48799999999997 240.64000000000001 Q 191.99999999999994 240.64000000000001 192.51199999999994 240.64000000000001 Q 193.02399999999994 240.64000000000001 194.04799999999994 240.64000000000001 Q 195.07199999999995 240.64000000000001 197.63199999999995 240.12800000000001 Q 200.19199999999995 239.616 200.70399999999995 239.616 Q 201.21599999999995 239.616 202.23999999999995 239.616 Q 203.26399999999995 239.616 203.77599999999995 239.616 Q 204.28799999999995 239.616 204.79999999999995 239.616 Q 205.31199999999995 239.616 205.82399999999996 239.616 Q 206.33599999999996 239.616 206.84799999999996 239.104 Q 207.35999999999996 238.592 208.38399999999996 238.592 Q 209.40799999999996 238.592 209.91999999999996 238.08 Q 210.43199999999996 237.568 211.45599999999996 237.568 Q 212.47999999999996 237.568 212.99199999999996 237.568 Q 213.50399999999996 237.568 214.01599999999996 237.568 Q 214.52799999999996 237.568 214.52799999999996 237.056 Q 214.52799999999996 236.544 215.03999999999996 236.544 Q 215.55199999999996 236.544 216.57599999999996 236.544 Q 217.59999999999997 236.544 218.62399999999997 236.544 Q 219.64799999999997 236.544 220.67199999999997 236.544 Q 221.69599999999997 236.544 222.20799999999997 236.544 Q 222.71999999999997 236.544 223.23199999999997 236.544 Q 223.74399999999997 236.544 225.79199999999997 236.032 Q 227.83999999999997 235.52 228.35199999999998 235.52 Q 228.86399999999998 235.52 229.37599999999998 235.52 Q 229.88799999999998 235.52 230.39999999999998 235.52 Q 230.91199999999998 235.52 231.42399999999998 235.52 Q 231.93599999999998 235.52 232.44799999999998 235.52 Q 232.95999999999998 235.52 232.95999999999998 235.008 Q 232.95999999999998 234.496 233.47199999999998 234.496 Q 233.98399999999998 234.496 233.98399999999998 233.984 Q 233.98399999999998 233.472 234.49599999999998 233.472 Q 235.00799999999998 233.472 235.51999999999998 233.472 Q 236.03199999999998 233.472 236.54399999999998 233.472 Q 237.05599999999998 233.472 237.56799999999998 233.472 Q 238.07999999999998 233.472 238.59199999999998 233.472 Q 239.10399999999998 233.472 239.61599999999999 233.472 Q 240.128 233.472 240.64 233.472 Q 241.152 233.472 241.664 233.472 Q 242.176 233.472 242.688 233.472 Q 243.2 233.472 243.712 233.472 Q 244.224 233.472 244.736 233.472 Q 245.248 233.472 245.76 233.472 Q 246.272 233.472 246.784 233.984 Q 247.296 234.496 247.296 235.008 Q 247.296 235.52 247.808 235.52 Q 248.32 235.52 248.32 236.032 Q 248.32 236.544 248.832 236.544 Q 249.344 236.544 249.344 237.056 Q 249.344 237.568 249.856 237.568 Q 250.368 237.568 250.88 238.08 Q 251.392 238.592 251.392 239.104 Q 251.392 239.616 251.392 240.12800000000001 Q 251.392 240.64000000000001 251.392 241.15200000000002 Q 251.392 241.66400000000002 251.392 242.17600000000002 Q 251.392 242.68800000000002 250.88 242.68800000000002 Q 250.368 242.68800000000002 250.368 243.20000000000002 Q 250.368 243.71200000000002 249.856 243.71200000000002 Q 249.344 243.71200000000002 249.344 244.22400000000002 Q 249.344 244.73600000000002 249.344 245.24800000000002 Q 249.344 245.76000000000002 248.832 245.76000000000002 Q 248.32 245.76000000000002 248.32 246.27200000000002 Q 248.32 246.78400000000002 248.32 247.29600000000002 Q 248.32 247.80800000000002 247.808 247.80800000000002 Q 247.296 247.80800000000002 247.296 248.32000000000002 Q 247.296 248.83200000000002 247.296 249.34400000000002 Q 247.296 249.85600000000002 247.296 250.36800000000002 Q 247.296 250.88000000000002 246.784 250.88000000000002 Q 246.272 250.88000000000002 245.76 250.88000000000002 Q 245.248 250.88000000000002 244.736 250.88000000000002 Q 244.224 250.88000000000002 243.712 250.88000000000002 Q 243.2 250.88000000000002 242.688 250.88000000000002 Q 242.176 250.88000000000002 241.664 250.88000000000002 Q 241.152 250.88000000000002 241.152 251.39200000000002 Q 241.152 251.90400000000002 240.64 251.90400000000002 Q 240.128 251.90400000000002 239.61599999999999 252.41600000000003 Q 239.10399999999998 252.92800000000003 238.59199999999998 253.44000000000003 Q 238.07999999999998 253.95200000000003 237.56799999999998 253.95200000000003 Q 237.05599999999998 253.95200000000003 236.54399999999998 253.95200000000003 Q 236.03199999999998 253.95200000000003 235.51999999999998 253.95200000000003 Q 235.00799999999998 253.95200000000003 234.49599999999998 253.95200000000003 Q 233.98399999999998 253.95200000000003 233.47199999999998 253.95200000000003 Q 232.95999999999998 253.95200000000003 232.44799999999998 253.95200000000003 Q 231.93599999999998 253.95200000000003 231.42399999999998 254.46400000000003 L 230.902 254.98600000000002" stroke-linecap="round" />
</g>
</svg>