<?xml version="1.0" encoding="UTF-8" standalone="no" ?>
<!DOCTYPE svg PUBLIC "-//W3C//DTD SVG 1.1//EN" "http://www.w3.org/Graphics/SVG/1.1/DTD/svg11.dtd">
<svg xmlns="http://www.w3.org/2000/svg" xmlns:xlink="http://www.w3.org/1999/xlink" version="1.1" width="640" height="640" viewBox="0 0 640 640" xml:space="preserve">
<desc>Created with Fabric.js 4.6.0</desc>
<defs>
</defs>
<g transform="matrix(1 0 0 1 279.25 239.73)" id="X0aXPKJHpNZBmYGa_eLgl"  >
<path style="stroke: rgb(252,134,29); stroke-width: 10; stroke-dasharray: none; stroke-linecap: round; stroke-dashoffset: 0; stroke-linejoin: round; stroke-miterlimit: 10; fill: none; fill-rule: nonzero; opacity: 1;" vector-effect="non-scaling-stroke"  transform=" translate(-279.25, -239.73)" d="M 421.06481249999996 217.49321875 Q 421.05481249999997 217.50321875 420.62640624999995 217.50321875 Q 420.1979999999999 217.50321875 418.05590624999996 218.77371875 Q 415.9138125 220.04421875000003 413.34331249999997 220.679453125 Q 410.77281249999993 221.31468750000002 405.41759375 221.94993750000003 Q 400.06237500000003 222.58518750000002 397.70606250000003 222.58518750000002 Q 395.34975000000003 222.58518750000002 389.566125 222.37343750000002 Q 383.78249999999997 222.16168750000003 380.99778124999995 222.16168750000003 Q 378.2130624999999 222.16168750000003 374.99993749999993 222.16168750000003 Q 371.78681249999994 222.16168750000003 370.5015625 222.16168750000003 Q 369.2163125 222.16168750000003 367.71684375 222.16168750000003 Q 366.217375 222.16168750000003 361.29056249999996 222.37343750000002 Q 356.3637499999999 222.58518750000002 353.57903124999996 222.37343750000002 Q 350.7943125 222.16168750000003 346.72434375 222.16168750000003 Q 342.65437499999996 222.16168750000003 340.51229687499995 222.37343750000002 Q 338.37021875 222.58518750000002 333.657609375 222.58518750000002 Q 328.945 222.58518750000002 326.588703125 222.58518750000002 Q 324.23240625 222.58518750000002 321.233484375 223.2204375 Q 318.2345625 223.85568750000002 316.9493125 224.06742187500004 Q 315.6640625 224.27915625000003 313.52196875 224.91440625 Q 311.37987499999997 225.54965625000003 310.09462499999995 225.76140625000002 Q 308.809375 225.97315625000002 306.88149999999996 226.18490625 Q 304.953625 226.39665625 301.097859375 226.82014062500002 Q 297.24209375 227.243625 295.52842187499994 227.243625 Q 293.81474999999995 227.243625 291.24424999999997 227.243625 Q 288.67375 227.243625 287.38849999999996 227.243625 Q 286.10324999999995 227.243625 283.74695312499995 227.455375 Q 281.39065624999995 227.66712500000003 280.1053906249999 227.455375 Q 278.82012499999996 227.243625 277.74909374999993 227.03189062500002 Q 276.67806249999995 226.82015625000003 274.10754687499997 226.39665625000004 Q 271.53703125 225.97315625000002 270.25178124999996 225.97315625000002 Q 268.96653124999995 225.97315625000002 266.82443749999993 225.97315625000002 Q 264.68234375 225.97315625000002 263.825515625 226.18490625 Q 262.9686875 226.39665625 261.25501562499994 226.39665625 Q 259.54134374999995 226.39665625 258.68449999999996 226.60840625000003 Q 257.82765624999996 226.82015625000003 255.68557812499998 227.243640625 Q 253.5435 227.66712500000003 252.04403125 227.455375 Q 250.54456249999998 227.243625 247.11721874999998 227.243625 Q 243.68987499999997 227.243625 242.19042187499997 227.243625 Q 240.69096874999997 227.243625 239.19149999999996 227.243625 Q 237.69203124999996 227.243625 235.97835937499997 227.243625 Q 234.26468749999998 227.243625 233.407859375 227.243625 Q 232.55103125 227.243625 230.194734375 227.455375 Q 227.8384375 227.66712500000003 226.55317187499998 227.455375 Q 225.26790624999995 227.243625 222.69740624999997 226.82014062500002 Q 220.12690625 226.39665625 218.62743749999998 226.39665625 Q 217.12796874999998 226.39665625 214.77167187499998 226.60840625000003 Q 212.41537499999998 226.82015625000003 211.558546875 226.82015625000003 Q 210.70171875 226.82015625000003 209.41646874999998 227.03189062500002 Q 208.13121874999996 227.243625 207.48859374999998 227.243625 Q 206.84596875 227.243625 205.98912499999997 227.455375 Q 205.13228124999995 227.66712500000003 203.84703124999996 228.09062500000002 Q 202.56178124999997 228.514125 201.91915624999996 228.72587500000003 Q 201.27653124999995 228.93762500000003 199.34864062499997 229.36112500000002 Q 197.42075 229.784625 196.13549999999998 229.996375 Q 194.85024999999996 230.20812500000002 192.27974999999998 230.20812500000002 Q 189.70925 230.20812500000002 188.638203125 230.20812500000002 Q 187.56715624999998 230.20812500000002 185.21085937499998 230.41985937500002 Q 182.8545625 230.63159375 181.99771875 230.63159375 Q 181.140875 230.63159375 180.28404687499997 230.84334375000003 Q 179.42721874999995 231.05509375000003 177.71354687499996 230.84334375000003 Q 175.99987499999997 230.63159375 175.14304687499998 230.63159375 Q 174.28621875 230.63159375 172.57254687499997 230.41985937500002 Q 170.85887499999995 230.20812500000002 169.57360937499996 229.996375 Q 168.28834374999997 229.784625 165.93204687499997 229.784625 Q 163.57574999999997 229.784625 162.29049999999998 229.996375 Q 161.00525 230.20812500000002 159.077375 230.63160937500004 Q 157.1495 231.05509375000003 156.50687499999998 231.26684375000002 Q 155.86424999999997 231.47859375000002 155.00740624999997 231.47859375000002 Q 154.15056249999998 231.47859375000002 153.50793749999997 231.47859375000002 Q 152.86531249999996 231.47859375000002 152.43689062499996 231.47859375000002 Q 152.00846874999996 231.47859375000002 150.93743749999996 231.47859375000002 Q 149.86640624999995 231.47859375000002 149.43798437499996 231.47859375000002 Q 149.00956249999996 231.47859375000002 148.15271874999996 231.47859375000002 Q 147.29587499999997 231.47859375000002 147.08167187499996 231.47859375000002 Q 146.86746874999994 231.47859375000002 146.01062499999995 231.47859375000002 Q 145.15378124999995 231.47859375000002 144.72537499999996 231.47859375000002 Q 144.29696874999996 231.47859375000002 143.01171874999997 231.47859375000002 Q 141.72646874999998 231.47859375000002 141.08382812499997 231.47859375000002 Q 140.44118749999996 231.47859375000002 139.79856249999997 231.47859375000002 Q 139.1559375 231.47859375000002 137.87068749999997 231.47859375000002 Q 136.58543749999995 231.47859375000002 135.94281249999997 231.26684375000002 Q 135.3001875 231.05509375000003 134.01493749999997 230.63160937500004 Q 132.72968749999995 230.20812500000002 132.08706249999997 230.20812500000002 Q 131.4444375 230.20812500000002 130.58759374999997 230.20812500000002 Q 129.73074999999994 230.20812500000002 129.30234374999995 230.20812500000002 Q 128.87393749999995 230.20812500000002 128.01709374999996 230.20812500000002 Q 127.16024999999996 230.20812500000002 126.73182812499996 230.20812500000002 Q 126.30340624999997 230.20812500000002 126.08920312499995 230.41985937500002 Q 125.87499999999994 230.63159375 125.44657812499995 230.63159375 Q 125.01815624999995 230.63159375 124.80395312499996 230.63159375 Q 124.58974999999998 230.63159375 124.16132812499998 230.63159375 Q 123.73290624999998 230.63159375 123.51870312499997 230.63159375 Q 123.30449999999996 230.63159375 122.87607812499996 230.63159375 Q 122.44765624999997 230.63159375 122.23345312499995 230.63159375 Q 122.01924999999994 230.63159375 121.37662499999996 230.84334375000003 Q 120.73399999999998 231.05509375000003 120.51978124999997 231.05509375000003 Q 120.30556249999995 231.05509375000003 120.09135937499997 231.05509375000003 Q 119.87715624999998 231.05509375000003 119.23453124999997 231.26684375000002 Q 118.59190624999997 231.47859375000002 118.37768749999998 231.47859375000002 Q 118.16346874999999 231.47859375000002 117.73506249999997 231.47859375000002 Q 117.30665624999995 231.47859375000002 117.09243749999996 231.47859375000002 Q 116.87821874999997 231.47859375000002 116.66401562499996 231.69034375 Q 116.44981249999995 231.90209375 116.23559374999996 232.11384375 Q 116.02137499999998 232.32559375000002 116.02137499999998 232.53734375000002 Q 116.02137499999998 232.74909375000001 116.02137499999998 233.38432812500002 Q 116.02137499999998 234.0195625 116.02137499999998 234.4430625 Q 116.02137499999998 234.86656250000001 116.02137499999998 235.2900625 Q 116.02137499999998 235.7135625 116.02137499999998 236.560546875 Q 116.02137499999998 237.40753125 116.02137499999998 237.83103125000002 Q 116.02137499999998 238.25453125000004 116.02137499999998 239.52501562500004 Q 116.02137499999998 240.79550000000003 116.02137499999998 241.21900000000002 Q 116.02137499999998 241.6425 116.02137499999998 242.701234375 Q 116.02137499999998 243.75996875 116.02137499999998 244.18346875 Q 116.02137499999998 244.60696875 115.80717187499997 246.089203125 Q 115.59296874999995 247.57143750000003 115.59296874999995 248.20668750000002 Q 115.59296874999995 248.8419375 115.59296874999995 249.4771875 Q 115.59296874999995 250.11243750000003 116.02139062499995 251.17117187500003 Q 116.44981249999995 252.22990625000003 116.44981249999995 252.65340625000002 Q 116.44981249999995 253.07690625 116.87823437499995 253.71214062500002 Q 117.30665624999995 254.34737500000003 117.52085937499996 254.77087500000002 Q 117.73506249999997 255.194375 117.94926562499998 255.406125 Q 118.16346874999999 255.617875 118.37768749999998 255.82962499999996 Q 118.59190624999997 256.04137499999996 119.02031249999996 256.46485937499995 Q 119.44871874999995 256.88834375 119.66293749999997 257.10009375 Q 119.87715624999998 257.31184375 121.37660937499999 257.31184375 Q 122.87606249999999 257.31184375 123.73290624999998 257.31184375 Q 124.58974999999998 257.31184375 125.66079687499999 257.31184375 Q 126.73184375 257.31184375 129.30234374999998 257.52359375 Q 131.87284374999996 257.73534374999997 133.15809374999998 257.94709374999996 Q 134.44334375 258.15884374999996 136.37123437499997 258.37059375 Q 138.29912499999995 258.58234375 139.15595312499997 258.58234375 Q 140.01278125 258.58234375 141.72645312499998 259.00584375 Q 143.44012499999997 259.42934375 144.29695312499996 259.64109375 Q 145.15378124999995 259.85284375 146.86745312499997 260.27632812499996 Q 148.581125 260.6998125 149.22376562499997 260.9115625 Q 149.86640624999995 261.1233125 152.00848437499997 261.5468125 Q 154.15056249999998 261.9703125 155.86423437499997 261.9703125 Q 157.57790624999996 261.9703125 159.29157812499997 261.9703125 Q 161.00525 261.9703125 164.21839062499998 261.7585625 Q 167.43153124999998 261.5468125 168.71678124999997 261.3350625 Q 170.00203124999996 261.1233125 172.78674999999996 260.9115625 Q 175.57146874999995 260.6998125 177.28514062499997 260.6998125 Q 178.99881249999999 260.6998125 182.8545625 260.6998125 Q 186.7103125 260.6998125 188.20978125 260.6998125 Q 189.70925 260.6998125 192.27974999999998 260.6998125 Q 194.85024999999996 260.6998125 195.92129687499997 260.6998125 Q 196.99234374999997 260.6998125 198.06339062499998 260.6998125 Q 199.1344375 260.6998125 201.0623125 260.9115625 Q 202.9901875 261.1233125 204.06123437499997 261.3350625 Q 205.13228124999995 261.5468125 208.98804687499995 261.7585625 Q 212.84381249999996 261.9703125 214.77168749999996 261.9703125 Q 216.69956249999996 261.9703125 219.48428124999995 261.9703125 Q 222.26899999999995 261.9703125 223.55424999999997 261.9703125 Q 224.8395 261.9703125 227.40999999999997 261.9703125 Q 229.98049999999995 261.9703125 231.47996874999995 261.9703125 Q 232.97943749999996 261.9703125 234.90731249999996 261.9703125 Q 236.83518749999996 261.9703125 240.47674999999995 261.9703125 Q 244.11831249999994 261.9703125 245.61776562499995 261.7585625 Q 247.11721874999995 261.5468125 249.47351562499995 261.3350625 Q 251.82981249999995 261.1233125 253.11506249999996 261.1233125 Q 254.40031249999998 261.1233125 256.113984375 260.9115625 Q 257.82765624999996 260.6998125 258.898703125 260.48806249999996 Q 259.96975 260.27631249999996 263.18289062499997 260.27631249999996 Q 266.39603124999996 260.27631249999996 268.32390624999994 260.27631249999996 Q 270.25178124999996 260.27631249999996 273.250703125 260.06457812499997 Q 276.249625 259.85284375 277.53487499999994 259.64109375 Q 278.82012499999996 259.42934375 280.1053906249999 259.21759375 Q 281.39065624999995 259.00584375 283.74695312499995 258.58234374999995 Q 286.10324999999995 258.15884374999996 287.60270312499995 257.94709374999996 Q 289.10215624999995 257.73534374999997 292.74370312499997 257.73534374999997 Q 296.38525 257.73534374999997 297.88471875 257.73534374999997 Q 299.3841875 257.73534374999997 301.52628125 257.52359375 Q 303.66837499999997 257.31184375 304.73942187499995 257.10009375 Q 305.81046875 256.88834375 307.73834375 256.46485937499995 Q 309.66621875 256.04137499999996 310.523046875 255.82962499999996 Q 311.37987499999997 255.617875 312.23671874999997 255.406125 Q 313.09356249999996 255.194375 315.87828125 254.77087500000002 Q 318.66299999999995 254.34737500000003 320.590875 254.34737500000003 Q 322.51874999999995 254.34737500000003 325.73187499999995 254.34737500000003 Q 328.945 254.34737500000003 330.230265625 254.13562500000003 Q 331.51553125 253.92387500000004 334.08603125 253.28864062500003 Q 336.65653125 252.65340625000002 337.727578125 252.65340625000002 Q 338.79862499999996 252.65340625000002 341.79754687499997 252.86515625 Q 344.79646875 253.07690625 346.51014062499996 253.07690625 Q 348.22381249999995 253.07690625 349.93748437499994 253.07690625 Q 351.65115624999993 253.07690625 354.0074531249999 253.07690625 Q 356.3637499999999 253.07690625 357.22059375 253.07690625 Q 358.07743750000003 253.07690625 360.0053125 253.07690625 Q 361.9331875 253.07690625 362.79003124999997 253.07690625 Q 363.64687499999997 253.07690625 365.36053124999995 252.86515625 Q 367.07418749999994 252.65340625000002 368.35943749999996 252.65340625000002 Q 369.6446875 252.65340625000002 372.643625 252.44165625000002 Q 375.6425625 252.22990625000003 377.14203125 252.22990625000003 Q 378.6415 252.22990625000003 380.35515625 252.44165625000002 Q 382.0688125 252.65340625000002 383.99668749999995 253.076890625 Q 385.9245624999999 253.500375 386.99562499999996 253.500375 Q 388.0666875 253.500375 389.9945625 253.288640625 Q 391.92243749999994 253.07690625 392.77928124999994 253.07690625 Q 393.63612499999994 253.07690625 395.56399999999996 253.07690625 Q 397.491875 253.07690625 398.56290624999997 253.288640625 Q 399.63393749999994 253.500375 401.5618125 253.71212500000001 Q 403.4896875 253.92387500000004 404.56075 254.13562500000003 Q 405.63181249999997 254.34737500000003 406.70284375 254.55912500000002 Q 407.77387500000003 254.77087500000002 409.4875625 254.982625 Q 411.20125 255.194375 411.84387499999997 255.194375 Q 412.4864999999999 255.194375 413.34331249999997 255.194375 Q 414.200125 255.194375 414.84274999999997 255.194375 Q 415.4853749999999 255.194375 416.55643749999996 255.194375 Q 417.6275 255.194375 418.270125 255.194375 Q 418.91275 255.194375 419.76959375 254.982625 Q 420.6264375 254.77087500000002 421.05484375 254.55912500000002 Q 421.48324999999994 254.34737500000003 422.34009374999994 253.923875 Q 423.19693749999993 253.500375 423.62534374999996 253.288640625 Q 424.05375 253.07690625 424.696375 252.86515625 Q 425.339 252.65340625000002 426.62424999999996 252.22990625000003 Q 427.9094999999999 251.80640625000004 428.55212499999993 251.59465625 Q 429.19474999999994 251.38290625 430.69421874999995 250.95940625 Q 432.19368749999995 250.53590625 432.83631249999996 250.32417187500002 Q 433.4789375 250.11243750000003 434.33578124999997 249.6889375 Q 435.19262499999996 249.2654375 435.62103125 249.0536875 Q 436.0494375 248.8419375 436.90628125 248.4184375 Q 437.763125 247.99493750000002 437.97734375 247.78318750000003 Q 438.1915625 247.57143750000003 438.40574999999995 247.35968750000004 Q 438.61993749999993 247.14793750000004 439.04837499999996 246.72445312500003 Q 439.4768125 246.30096875 439.691 245.87746875000002 Q 439.90518749999995 245.45396875000003 440.333625 244.81871875000002 Q 440.7620625 244.18346875 440.7620625 243.75998437500002 Q 440.7620625 243.33650000000003 440.97625 242.27775000000003 Q 441.1904375 241.21900000000002 441.1904375 240.79550000000003 Q 441.1904375 240.37200000000004 441.40465624999996 239.31326562500004 Q 441.61887499999995 238.25453125000004 441.83309375 237.61929687500003 Q 442.04731250000003 236.98406250000002 442.47571875 236.1370625 Q 442.90412499999996 235.2900625 442.90412499999996 234.86656250000001 Q 442.90412499999996 234.44306250000002 442.90412499999996 234.019578125 Q 442.90412499999996 233.59609375000002 442.90412499999996 232.74909375000001 Q 442.90412499999996 231.90209375 442.90412499999996 231.47859375000002 Q 442.90412499999996 231.05509375000003 442.90412499999996 230.20810937500002 Q 442.90412499999996 229.36112500000002 442.90412499999996 228.93762500000003 Q 442.90412499999996 228.514125 442.6899375 227.878875 Q 442.47575 227.243625 442.47575 227.03189062500002 Q 442.47575 226.82015625000003 442.26153125 226.39665625000004 Q 442.04731250000003 225.97315625000002 442.04731250000003 225.76140625000002 Q 442.04731250000003 225.54965625000003 441.83309375 225.33790625 Q 441.61887499999995 225.12615625 440.97624999999994 224.70265625000002 Q 440.3336249999999 224.27915625000003 439.90521874999996 224.27915625000003 Q 439.4768125 224.27915625000003 438.61996875 224.27915625000003 Q 437.763125 224.27915625000003 437.1205 224.06742187500004 Q 436.477875 223.85568750000002 434.97840625 223.85568750000002 Q 433.4789375 223.85568750000002 432.83631249999996 223.85568750000002 Q 432.19368749999995 223.85568750000002 430.9084375 223.85568750000002 Q 429.62318750000003 223.85568750000002 428.9805625 223.85568750000002 Q 428.3379375 223.85568750000002 427.90953125 223.85568750000002 Q 427.48112499999996 223.85568750000002 426.62428124999997 223.85568750000002 Q 425.76743749999997 223.85568750000002 425.12481249999996 224.06742187500004 Q 424.48218749999995 224.27915625000003 423.41112499999997 224.70265625000002 Q 422.3400625 225.12615625 421.91165624999996 225.33790625 Q 421.48324999999994 225.54965625000003 420.62640624999995 225.97315625000002 Q 419.76956249999995 226.39665625 419.12693749999994 226.60840625000003 Q 418.48431249999993 226.82015625000003 417.19906249999997 227.243640625 Q 415.9138125 227.66712500000003 415.05696875 227.66712500000003 Q 414.200125 227.66712500000003 413.34331249999997 227.87887500000002 Q 412.4864999999999 228.09062500000002 411.20124999999996 228.09062500000002 Q 409.916 228.09062500000002 409.27334375 228.09062500000002 Q 408.63068749999996 228.09062500000002 407.55965625 228.09062500000002 Q 406.488625 228.09062500000002 405.846 228.09062500000002 Q 405.203375 228.09062500000002 404.56075 228.09062500000002 Q 403.918125 228.09062500000002 403.48971874999995 228.09062500000002 L 403.05131249999994 228.09062500000002" stroke-linecap="round" />
</g>
<g transform="matrix(1 0 0 1 -75.26 281.6)" id="EE9k_d7hgK4V5EVI39aCh"  >
<path style="stroke: rgb(252,134,29); stroke-width: 10; stroke-dasharray: none; stroke-linecap: round; stroke-dashoffset: 0; stroke-linejoin: round; stroke-miterlimit: 10; fill: none; fill-rule: nonzero; opacity: 1;" vector-effect="non-scaling-stroke"  transform=" translate(75.26, -281.6)" d="M -75.27400000000004 281.59999999999997 L -75.25400000000003 281.59999999999997" stroke-linecap="round" />
</g>
<g transform="matrix(1 0 0 1 220.1 247.57)" id="ORk-mS5P-0DFYAYSS_pxV"  >
<path style="stroke: rgb(255,243,18); stroke-width: 10; stroke-dasharray: none; stroke-linecap: round; stroke-dashoffset: 0; stroke-linejoin: round; stroke-miterlimit: 10; fill: none; fill-rule: nonzero; opacity: 1;" vector-effect="non-scaling-stroke"  transform=" translate(-220.1, -247.57)" d="M 310.10462499999994 239.94853125 Q 310.09462499999995 239.94853125 309.66621875 239.94853125 Q 309.23781249999996 239.94853125 308.809390625 239.94853125 Q 308.38096874999997 239.94853125 304.953625 239.94853125 Q 301.52628124999995 239.94853125 299.16998437499996 239.73678125 Q 296.81368749999996 239.52503125 292.74371874999997 239.52503125 Q 288.67375 239.52503125 286.53165624999997 239.52503125 Q 284.38956249999995 239.52503125 280.1053906249999 239.52503125 Q 275.82121874999996 239.52503125 273.679125 239.52503125 Q 271.53703125 239.52503125 268.96653125 239.52503125 Q 266.39603124999996 239.52503125 265.324984375 239.52503125 Q 264.25393749999995 239.52503125 263.39709374999995 239.52503125 Q 262.54024999999996 239.52503125 260.61237499999993 239.73678125 Q 258.68449999999996 239.94853125 258.041875 240.16026562500002 Q 257.39925 240.37200000000004 256.54240625 240.58375000000004 Q 255.68556249999995 240.79550000000003 255.47135937499996 240.79550000000003 Q 255.25715624999998 240.79550000000003 255.89978125 241.00725000000003 Q 256.54240625 241.21900000000002 257.18503124999995 241.43075000000002 Q 257.82765624999996 241.6425 259.112921875 241.6425 Q 260.39818749999995 241.6425 265.324984375 241.21900000000002 Q 270.25178124999996 240.79550000000003 272.82228124999995 240.16026562500002 Q 275.39278125 239.52503125 280.31959374999997 238.67803125 Q 285.24640624999995 237.83103125 288.031125 237.407546875 Q 290.81584375 236.98406250000002 295.956859375 236.98406250000002 Q 301.097875 236.98406250000002 302.38312499999995 236.98406250000002 Q 303.66837499999997 236.98406250000002 306.238875 237.195796875 Q 308.809375 237.40753125 309.88042187499997 237.61928125 Q 310.95146874999995 237.83103125 312.45093749999995 238.25453125 Q 313.95040624999996 238.67803125000003 314.59303124999997 238.88978125000003 Q 315.23565625 239.10153125000002 315.6640625 239.31328125000002 Q 316.09246874999997 239.52503125 316.520890625 239.73678125 Q 316.94931249999996 239.94853125 316.520890625 239.94853125 Q 316.09246874999997 239.94853125 315.235640625 240.16026562500002 Q 314.3788125 240.37200000000004 311.379890625 241.43075000000002 Q 308.38096874999997 242.4895 305.16782812499997 243.336484375 Q 301.9546875 244.18346875 298.7415625 245.03046875 Q 295.5284375 245.87746875000002 290.387421875 247.359703125 Q 285.24640624999995 248.8419375 282.4616874999999 249.4771875 Q 279.67696874999996 250.11243750000003 273.8933281249999 251.38292187500002 Q 268.10968749999995 252.65340625000002 266.1818125 253.076890625 Q 264.25393749999995 253.500375 260.82659375 254.559125 Q 257.39925 255.617875 255.042953125 255.82962499999996 Q 252.68665625 256.04137499999996 247.97406249999997 256.46485937499995 Q 243.26146874999995 256.88834375 241.54779687499996 257.10009375 Q 239.83412499999997 257.31184375 238.54887499999998 257.52359375 Q 237.263625 257.73534374999997 235.335734375 258.15884374999996 Q 233.40784374999998 258.58234375 232.551015625 258.79409375 Q 231.6941875 259.00584375 230.19471875 259.42934375 Q 228.69525 259.85284375 228.48104687499998 259.85284375 Q 228.26684374999996 259.85284375 229.55209374999995 259.42934375 Q 230.83734374999995 259.00584375 232.97943749999996 258.37059375 Q 235.12153124999998 257.73534374999997 241.11937499999996 256.88835937499994 Q 247.11721874999995 256.04137499999996 249.04509374999995 255.61787499999997 Q 250.97296874999995 255.194375 253.32926562499995 254.55912500000002 Q 255.68556249999995 253.92387500000004 262.75446875 253.07689062500003 Q 269.823375 252.22990625000003 273.0365 252.01815625000003 Q 276.249625 251.80640625000004 282.24746874999994 251.38290625000002 Q 288.24531249999995 250.95940625 291.67265624999993 250.535921875 Q 295.09999999999997 250.11243750000003 298.95576562499997 249.26543750000002 Q 302.81153125 248.4184375 303.882578125 248.20668750000002 Q 304.953625 247.99493750000002 306.453078125 247.57143750000003 Q 307.95253125 247.14793750000004 308.380953125 246.72445312500003 Q 308.809375 246.30096875 309.23779687499996 246.08921875000001 Q 309.66621875 245.87746875000002 309.66621875 245.66571875000002 Q 309.66621875 245.45396875000003 309.23779687499996 245.03046875 Q 308.809375 244.60696875 307.095703125 244.39521875 Q 305.38203124999995 244.18346875 299.38418749999994 243.54823437500002 Q 293.38634375 242.91300000000004 290.173203125 242.91300000000004 Q 286.9600625 242.91300000000004 278.1775 243.12475000000003 Q 269.39493749999997 243.33650000000003 266.82443749999993 243.33650000000003 Q 264.25393749999995 243.33650000000003 261.68342187499996 243.33650000000003 Q 259.11290625 243.33650000000003 251.82981249999997 243.54823437500002 Q 244.54671874999997 243.75996875 241.33357812499997 243.97171875 Q 238.12043749999998 244.18346875 232.9794375 244.81871875000002 Q 227.8384375 245.45396875000003 225.05371874999997 246.08921875000001 Q 222.26899999999995 246.72446875 217.98481249999995 247.994953125 Q 213.70062499999995 249.2654375 212.41537499999995 249.900671875 Q 211.13012499999996 250.53590625 209.63067187499996 251.80640625 Q 208.13121874999996 253.07690625 207.91699999999997 253.71214062500002 Q 207.70278125 254.34737500000003 207.48857812499998 254.77087500000002 Q 207.27437499999996 255.194375 207.48857812499998 255.61787499999997 Q 207.70278125 256.04137499999996 208.55962499999998 256.25312499999995 Q 209.41646874999998 256.464875 213.05801562499997 256.25312499999995 Q 216.69956249999996 256.04137499999996 218.84165624999997 255.40612499999997 Q 220.98375 254.77087500000002 225.05371874999997 253.50039062500002 Q 229.12368749999996 252.22990625000003 231.90839062499995 251.80640625 Q 234.69309374999995 251.38290625 240.26253124999997 249.900671875 Q 245.83196875 248.4184375 247.54564062499998 247.99493750000002 Q 249.25931249999996 247.57143750000003 252.68665624999997 246.93620312500002 Q 256.114 246.30096875 258.25609375 246.08921875000001 Q 260.39818749999995 245.87746875000002 263.39710937499996 245.87746875000002 Q 266.39603124999996 245.87746875000002 271.10862499999996 245.87746875000002 Q 275.82121874999996 245.87746875000002 277.534890625 245.87746875000002 Q 279.2485625 245.87746875000002 282.03328124999996 245.87746875000002 Q 284.818 245.87746875000002 286.10325 246.08921875000001 Q 287.38849999999996 246.30096875 289.316375 246.30096875 Q 291.24424999999997 246.30096875 291.458453125 246.30096875 Q 291.67265625 246.30096875 291.458453125 246.08921875000001 Q 291.24424999999997 245.87746875000002 290.387421875 245.66571875000002 Q 289.53059375 245.45396875000003 285.88903125 245.03046875 Q 282.24746875 244.60696875 277.96329687499997 244.39521875 Q 273.679125 244.18346875 267.68128125 244.60696875000002 Q 261.68343749999997 245.03046875000004 258.25609375 245.66571875000002 Q 254.82874999999996 246.30096875 246.90301562499997 247.359703125 Q 238.97728124999998 248.4184375 236.19256249999998 248.8419375 Q 233.40784374999998 249.2654375 227.19579687499998 250.324171875 Q 220.98375 251.38290625 218.19903125 251.59465625 Q 215.4143125 251.80640625000004 213.4864375 252.01815625000003 Q 211.5585625 252.22990625000003 209.630671875 252.65340625000002 Q 207.70278125 253.07690625 207.06015624999998 253.288640625 Q 206.41753124999997 253.500375 205.98910937499997 253.923875 Q 205.56068749999997 254.34737500000003 205.77490624999996 254.34737500000003 Q 205.98912499999994 254.34737500000003 208.55962499999995 253.923875 Q 211.13012499999996 253.500375 213.27221874999998 252.865140625 Q 215.4143125 252.22990625000003 217.770609375 251.59465625 Q 220.12690625 250.95940625 224.8395 249.688921875 Q 229.55209374999998 248.4184375 233.407859375 248.20668750000002 Q 237.263625 247.99493750000002 243.047265625 247.14795312500002 Q 248.83090625 246.30096875 251.187203125 246.08921875000001 Q 253.5435 245.87746875000002 259.755546875 245.24221875 Q 265.96759375 244.60696875 269.180734375 244.60696875 Q 272.393875 244.60696875 277.320671875 244.60696875 Q 282.24746875 244.60696875 285.246390625 244.39521875 Q 288.24531249999995 244.18346875 293.386328125 243.97171875 Q 298.52734375 243.75996875 299.81260937499997 243.75996875 Q 301.097875 243.75996875 302.16890624999996 243.75996875 Q 303.2399375 243.75996875 305.16782812499997 243.75996875 Q 307.09571874999995 243.75996875 307.95254687499994 243.75996875 Q 308.809375 243.75996875 309.66621875 243.75996875 Q 310.5230625 243.75996875 310.094640625 243.33648437500003 Q 309.66621875 242.91300000000004 308.16675 242.27775000000003 Q 306.66728125 241.6425 303.882578125 241.21900000000002 Q 301.097875 240.79550000000003 295.10001562499997 240.16026562500002 Q 289.10215624999995 239.52503125 285.6748125 239.52503125 Q 282.24746875 239.52503125 275.392796875 239.52503125 Q 268.538125 239.52503125 266.1818125 239.52503125 Q 263.8255 239.52503125 258.256078125 239.73678125 Q 252.68665625 239.94853125 248.830890625 240.16026562500002 Q 244.975125 240.37200000000004 238.97728124999998 240.58375000000004 Q 232.97943749999996 240.79550000000003 229.12367187499996 241.00725000000003 Q 225.26790624999995 241.21900000000002 221.62635937499996 241.43075000000002 Q 217.98481249999998 241.6425 214.12904687499997 242.066 Q 210.27328124999997 242.4895 208.77382812499997 242.70125000000002 Q 207.27437499999996 242.91300000000004 204.70385937499998 243.54823437500002 Q 202.13334375 244.18346875 201.49071874999998 244.39521875 Q 200.84809374999998 244.60696875 199.34864062499997 245.03046875 Q 197.84918749999997 245.45396875000003 197.20656249999996 245.66571875000002 Q 196.56393749999995 245.87746875000002 196.13551562499995 246.08921875000001 Q 195.70709374999996 246.30096875 195.92129687499997 246.08921875000001 Q 196.13549999999998 245.87746875000002 196.56392187499998 245.66571875000002 Q 196.99234374999997 245.45396875000003 198.92021874999998 245.03046875 Q 200.84809374999998 244.60696875 202.56176562499996 244.39521875 Q 204.27543749999995 244.18346875 209.20224999999996 243.75998437500002 Q 214.12906249999997 243.33650000000003 217.12798437499998 242.913 Q 220.12690625 242.4895 225.05370312499997 242.066 Q 229.98049999999995 241.6425 233.19364062499997 241.43075000000002 Q 236.40678125 241.21900000000002 241.33357812499997 240.583765625 Q 246.26037499999995 239.94853125 247.97404687499997 239.52503125 Q 249.68771875 239.10153125000002 251.40139062499998 238.88978125000003 Q 253.11506249999996 238.67803125000003 255.47135937499996 238.25453125 Q 257.82765624999996 237.83103125 258.68449999999996 237.61928125 Q 259.54134374999995 237.40753125 261.04079687499996 237.195796875 Q 262.54024999999996 236.98406250000002 263.18287499999997 236.77231250000003 Q 263.8255 236.56056250000003 264.03971874999996 236.56056250000003 Q 264.25393749999995 236.56056250000003 263.825515625 236.1370625 Q 263.39709374999995 235.7135625 262.54026562499996 235.2900625 Q 261.68343749999997 234.86656250000001 258.68449999999996 234.86656250000001 Q 255.68556249999995 234.86656250000001 251.82981249999995 234.86656250000001 Q 247.97406249999995 234.86656250000001 244.33251562499996 235.0783125 Q 240.69096874999997 235.2900625 235.12153124999998 236.560546875 Q 229.55209374999998 237.83103125 225.91054687499997 238.67803125 Q 222.26899999999995 239.52503125 217.12798437499995 240.583765625 Q 211.98696874999996 241.6425 210.05909374999996 242.066 Q 208.13121874999996 242.4895 204.48965624999997 243.336484375 Q 200.84809374999998 244.18346875 198.49179687499998 244.60696875000002 Q 196.13549999999998 245.03046875000004 191.20870312499997 245.66571875000002 Q 186.28190624999996 246.30096875 184.56823437499997 246.51271875 Q 182.8545625 246.72446875 181.56931249999997 246.93620312500002 Q 180.28406249999995 247.14793750000004 176.85671874999997 247.35968750000004 Q 173.429375 247.57143750000003 171.92990625 247.99493750000002 Q 170.43043749999998 248.4184375 167.21731249999996 249.477171875 Q 164.00418749999994 250.53590625 162.71892187499995 250.95940625 Q 161.43365624999996 251.38290625 159.07735937499996 252.01815625 Q 156.72106249999996 252.65340625000002 156.07843749999998 252.86515625 Q 155.4358125 253.07690625 154.7931875 253.07690625 Q 154.15056249999998 253.07690625 153.93635937499997 253.07690625 Q 153.72215624999995 253.07690625 153.50793749999997 253.07690625 Q 153.29371874999998 253.07690625 153.07951562499997 252.86515625 Q 152.86531249999996 252.65340625000002 152.86531249999996 252.44165625000002 Q 152.86531249999996 252.22990625000003 154.15056249999998 251.17117187500003 Q 155.4358125 250.11243750000003 156.93528124999997 249.4771875 Q 158.43474999999995 248.8419375 162.07629687499997 248.20668750000002 Q 165.71784375 247.57143750000003 167.43151562499997 247.57143750000003 Q 169.14518749999996 247.57143750000003 173.00095312499997 247.57143750000003 Q 176.85671874999997 247.57143750000003 179.64143749999997 247.57143750000003 Q 182.42615624999996 247.57143750000003 184.99665624999997 247.35968750000004 Q 187.56715624999998 247.14793750000004 190.9945 246.51270312500003 Q 194.42184375 245.87746875000002 195.921296875 245.66571875000002 Q 197.42075 245.45396875000003 199.99126562499998 245.03046875 Q 202.56178124999997 244.60696875 204.27545312499996 244.60696875 Q 205.98912499999994 244.60696875 210.05909374999996 244.60696875 Q 214.12906249999997 244.60696875 215.62851562499998 244.60696875 Q 217.12796874999998 244.60696875 219.05585937499998 244.60696875 Q 220.98375 244.60696875 221.62637499999997 244.60696875 Q 222.26899999999995 244.60696875 223.12582812499997 244.60696875 Q 223.98265625 244.60696875 224.19687499999998 244.60696875 Q 224.41109374999996 244.60696875 224.41109374999996 245.24221875 Q 224.41109374999996 245.87746875000002 224.19687499999998 246.51270312500003 Q 223.98265625 247.14793750000004 223.12582812499997 248.41843750000004 Q 222.26899999999995 249.68893750000004 221.19795312499997 250.32417187500002 Q 220.12690625 250.95940625 216.69956249999998 252.01815625 Q 213.27221874999998 253.07690625 211.98696875 253.71214062500002 Q 210.70171875 254.34737500000003 208.34542187499997 255.19437499999998 Q 205.98912499999994 256.04137499999996 204.91807812499997 256.676609375 Q 203.84703125 257.31184375 202.56178124999997 257.94709375 Q 201.27653124999995 258.58234375 196.99234374999995 259.64107812500004 Q 192.70815624999994 260.6998125 190.56607812499996 260.9115625 Q 188.42399999999998 261.1233125 185.42507812499997 261.5468125 Q 182.42615624999996 261.9703125 181.56931249999997 261.9703125 Q 180.71246874999997 261.9703125 178.35617187499997 262.1820625 Q 175.99987499999997 262.39381249999997 174.92882812499997 262.39381249999997 Q 173.85778124999996 262.39381249999997 171.28728124999998 262.39381249999997 Q 168.71678125 262.39381249999997 167.43153124999998 262.39381249999997 Q 166.14628124999996 262.39381249999997 164.86101562499996 262.1820625 Q 163.57574999999997 261.9703125 161.43367187499996 261.9703125 Q 159.29159374999995 261.9703125 158.43474999999995 261.9703125 Q 157.57790624999996 261.9703125 156.50685937499998 261.9703125 Q 155.4358125 261.9703125 155.00740624999997 261.7585625 Q 154.57899999999995 261.5468125 153.72215624999995 261.1233125 Q 152.86531249999996 260.6998125 152.43689062499996 260.48806249999996 Q 152.00846874999996 260.27631249999996 151.15164062499997 259.852828125 Q 150.29481249999998 259.42934375 150.08060937499997 259.00584375 Q 149.86640624999995 258.58234375 149.43798437499996 258.37059375 Q 149.00956249999996 258.15884374999996 148.58114062499996 257.311859375 Q 148.15271874999996 256.464875 147.72429687499996 256.041375 Q 147.29587499999997 255.617875 146.65324999999996 254.559125 Q 146.01062499999995 253.500375 145.79642187499996 253.076890625 Q 145.58221874999998 252.65340625000002 145.15379687499998 251.80640625 Q 144.72537499999999 250.95940625 144.72537499999999 250.74765625 Q 144.72537499999999 250.53590625 144.51117187499997 249.900671875 Q 144.29696874999996 249.2654375 144.29696874999996 249.0536875 Q 144.29696874999996 248.8419375 144.29696874999996 248.20668750000002 Q 144.29696874999996 247.57143750000003 144.29696874999996 247.35968750000004 Q 144.29696874999996 247.14793750000004 144.29696874999996 246.93620312500002 Q 144.29696874999996 246.72446875 144.72537499999996 246.30096875 Q 145.15378124999995 245.87746875000002 145.36799999999997 245.66571875000002 Q 145.58221874999998 245.45396875000003 146.86746874999997 244.60696875000002 Q 148.15271874999996 243.75996875 148.79534374999997 243.33648437500003 Q 149.43796874999998 242.91300000000004 150.72321874999997 242.27775000000003 Q 152.00846874999996 241.6425 153.29373437499996 241.43075000000002 Q 154.57899999999995 241.21900000000002 158.22054687499997 241.21900000000002 Q 161.86209374999999 241.21900000000002 163.361546875 241.21900000000002 Q 164.861 241.21900000000002 166.36046874999997 241.00725000000003 Q 167.85993749999994 240.79550000000003 170.85885937499995 240.79550000000003 Q 173.85778124999996 240.79550000000003 175.57145312499998 240.79550000000003 Q 177.285125 240.79550000000003 181.569296875 240.79550000000003 Q 185.85346875 240.79550000000003 187.56714062499998 240.79550000000003 Q 189.28081249999997 240.79550000000003 191.63710937499997 240.58375000000004 Q 193.99340624999996 240.37200000000004 195.06445312499997 240.16026562500002 Q 196.13549999999998 239.94853125 197.206546875 239.94853125 Q 198.27759375 239.94853125 200.20546875 239.73678125 Q 202.13334375 239.52503125 203.20439062499997 239.52503125 Q 204.27543749999995 239.52503125 207.70278124999996 239.73678125 Q 211.13012499999996 239.94853125 213.27221874999998 239.94853125 Q 215.4143125 239.94853125 218.41323437499997 240.16026562500002 Q 221.41215624999995 240.37200000000004 222.69740624999997 240.37200000000004 Q 223.98265625 240.37200000000004 226.338953125 240.37200000000004 Q 228.69525 240.37200000000004 229.98049999999998 240.37200000000004 Q 231.26574999999997 240.37200000000004 232.55101562499996 240.37200000000004 Q 233.83628124999996 240.37200000000004 236.19257812499995 240.37200000000004 Q 238.54887499999995 240.37200000000004 239.83412499999997 240.37200000000004 Q 241.119375 240.37200000000004 240.47674999999998 240.37200000000004 Q 239.83412499999997 240.37200000000004 238.97728124999998 240.58375000000004 Q 238.12043749999998 240.79550000000003 236.19256249999998 240.79550000000003 Q 234.26468749999998 240.79550000000003 232.9794375 240.79550000000003 Q 231.6941875 240.79550000000003 226.98159374999997 241.43075000000002 Q 222.26899999999995 242.066 219.69848437499996 242.48950000000002 Q 217.12796874999998 242.91300000000004 213.70062499999997 243.75998437500002 Q 210.27328124999997 244.60696875 208.77382812499997 245.24221875 Q 207.27437499999996 245.87746875000002 205.77490624999996 246.30096875 Q 204.27543749999995 246.72446875 201.49073437499996 247.359703125 Q 198.70603124999997 247.99493750000002 196.99235937499998 248.20668750000002 Q 195.2786875 248.4184375 190.9945 248.8419375 Q 186.7103125 249.2654375 184.99664062499997 249.2654375 Q 183.28296874999995 249.2654375 180.06984374999996 249.0536875 Q 176.85671874999997 248.8419375 175.14304687499998 248.8419375 Q 173.429375 248.8419375 169.35940624999998 249.0536875 Q 165.28943749999996 249.2654375 163.36154687499996 249.4771875 Q 161.43365624999996 249.68893750000004 159.71999999999997 249.68893750000004 Q 158.00634374999998 249.68893750000004 155.43582812499997 250.11242187500002 Q 152.86531249999996 250.53590625 151.58006249999997 250.74765625 Q 150.29481249999998 250.95940625 148.36693749999998 251.38290625000002 Q 146.43906249999998 251.80640625000004 145.36801562499997 252.01815625000003 Q 144.29696874999996 252.22990625000003 141.72645312499998 252.65340625000002 Q 139.1559375 253.07690625 137.87068749999997 253.288640625 Q 136.58543749999995 253.500375 134.22914062499996 253.500375 Q 131.87284374999996 253.500375 131.01601562499997 253.500375 Q 130.15918749999997 253.500375 129.08814062499997 253.500375 Q 128.01709374999996 253.500375 126.73184374999997 253.500375 Q 125.44659374999998 253.500375 125.23237499999996 253.500375 Q 125.01815624999995 253.500375 124.58973437499995 253.500375 Q 124.16131249999995 253.500375 123.94710937499997 253.500375 Q 123.73290624999998 253.500375 123.51870312499997 253.076890625 Q 123.30449999999996 252.65340625000002 123.51870312499997 252.44165625000002 Q 123.73290624999998 252.22990625000003 124.37553124999997 251.80640625 Q 125.01815624999995 251.38290625 126.51762499999995 250.747671875 Q 128.01709374999996 250.11243750000003 128.87392187499995 249.90068750000003 Q 129.73074999999994 249.68893750000004 131.01599999999996 249.4771875 Q 132.30124999999998 249.2654375 132.94389062499997 249.2654375 Q 133.58653124999995 249.2654375 134.87178124999997 248.8419375 Q 136.15703125 248.4184375 137.01385937499998 248.4184375 Q 137.87068749999997 248.4184375 138.72753124999997 248.4184375 Q 139.58437499999997 248.4184375 139.79857812499998 248.20668750000002 Q 140.01278125 247.99493750000002 140.441203125 247.57143750000003 Q 140.86962499999998 247.14793750000004 141.08382812499997 246.93620312500002 Q 141.29803124999995 246.72446875 141.29803124999995 246.51271875 Q 141.29803124999995 246.30096875 141.29803124999995 246.08921875000001 Q 141.29803124999995 245.87746875000002 141.29803124999995 245.45396875000003 Q 141.29803124999995 245.03046875000004 140.86960937499995 244.81871875000002 Q 140.44118749999996 244.60696875 139.15593749999996 243.971734375 Q 137.87068749999997 243.33650000000003 137.01385937499998 242.913 Q 136.15703125 242.4895 135.3001875 242.27775 Q 134.44334375 242.066 132.30126562499998 241.43075000000002 Q 130.15918749999997 240.79550000000003 129.51656249999996 240.79550000000003 Q 128.87393749999995 240.79550000000003 127.80289062499997 240.79550000000003 Q 126.73184375 240.79550000000003 126.51762499999998 240.79550000000003 Q 126.30340624999997 240.79550000000003 125.87499999999997 240.79550000000003 Q 125.44659374999998 240.79550000000003 125.44659374999998 241.00725000000003 Q 125.44659374999998 241.21900000000002 125.44659374999998 241.43075000000002 Q 125.44659374999998 241.6425 125.87499999999997 242.27775000000003 Q 126.30340624999997 242.91300000000004 126.51762499999998 243.33648437500003 Q 126.73184375 243.75996875 128.01709375 244.39521875000003 Q 129.30234374999998 245.03046875000004 129.94496875 245.24221875000003 Q 130.58759375 245.45396875000003 131.87284375 245.87746875000002 Q 133.15809374999998 246.30096875 134.01493749999997 246.51271875 Q 134.87178124999997 246.72446875 136.58545312499996 246.93620312500002 Q 138.29912499999995 247.14793750000004 138.94174999999996 247.14793750000004 Q 139.58437499999997 247.14793750000004 140.22699999999998 246.93620312500002 Q 140.86962499999998 246.72446875 142.15487499999998 246.51271875 Q 143.44012499999997 246.30096875 144.08274999999998 246.30096875 Q 144.72537499999999 246.30096875 146.01062499999998 246.08921875000001 Q 147.29587499999997 245.87746875000002 147.93849999999998 245.66571875000002 Q 148.581125 245.45396875000003 149.86639062499998 245.03046875 Q 151.15165624999997 244.60696875 152.22268749999998 244.39521875 Q 153.29371874999998 244.18346875 156.07843749999998 244.18346875 Q 158.86315624999997 244.18346875 160.14840624999997 244.18346875 Q 161.43365624999996 244.18346875 162.71892187499995 244.18346875 Q 164.00418749999994 244.18346875 166.14626562499996 244.39521875 Q 168.28834374999997 244.60696875 169.14518749999996 244.81871875000002 Q 170.00203124999996 245.03046875000004 171.92990624999996 245.03046875000004 Q 173.85778124999996 245.03046875000004 175.14303124999998 245.24221875000003 Q 176.42828125 245.45396875000003 179.42721874999998 245.66571875000002 Q 182.42615624999996 245.87746875000002 184.13981249999998 246.08921875000001 Q 185.85346875 246.30096875 188.42398437499997 246.30096875 Q 190.99449999999996 246.30096875 191.85132812499995 246.30096875 Q 192.70815624999994 246.30096875 193.56499999999997 246.51271875 Q 194.42184375 246.72446875 196.34971875 246.72446875 Q 198.27759375 246.72446875 199.1344375 246.72446875 Q 199.99128125 246.72446875 202.13335937499997 246.30096875 Q 204.27543749999995 245.87746875000002 205.98910937499997 245.66571875000002 Q 207.70278125 245.45396875000003 211.34434374999998 245.03046875 Q 214.98590624999997 244.60696875 216.48535937499997 244.18346875 Q 217.98481249999998 243.75996875 220.55532812499996 243.33648437500003 Q 223.12584374999994 242.91300000000004 224.41109374999996 242.70125000000002 Q 225.69634374999998 242.4895 228.90946874999997 242.4895 Q 232.12259374999996 242.4895 234.05048437499997 242.27775 Q 235.97837499999997 242.066 237.90624999999997 242.066 Q 239.83412499999997 242.066 242.83304687499998 241.85425 Q 245.83196875 241.6425 246.68879687499998 241.43075000000002 Q 247.54562499999997 241.21900000000002 249.47351562499998 240.79550000000003 Q 251.40140624999998 240.37200000000004 252.25823437499997 240.16026562500002 Q 253.11506249999996 239.94853125 254.82873437499998 239.52503125 Q 256.54240625 239.10153125000002 257.39925 239.10153125000002 Q 258.25609375 239.10153125000002 261.04079687499996 239.10153125000002 Q 263.8255 239.10153125000002 265.53917187499997 239.10153125000002 Q 267.25284374999995 239.10153125000002 268.75231249999996 239.10153125000002 Q 270.25178124999996 239.10153125000002 272.82228124999995 239.10153125000002 Q 275.39278125 239.10153125000002 276.249625 239.10153125000002 Q 277.10646875 239.10153125000002 279.03434374999995 239.10153125000002 Q 280.96221875 239.10153125000002 282.033265625 239.10153125000002 Q 283.1043125 239.10153125000002 285.460609375 239.10153125000002 Q 287.81690625 239.10153125000002 289.316375 239.10153125000002 Q 290.81584375 239.10153125000002 292.31529687499994 239.10153125000002 Q 293.81474999999995 239.10153125000002 296.171046875 239.10153125000002 Q 298.52734375 239.10153125000002 299.3841875 239.10153125000002 Q 300.24103125 239.10153125000002 301.740484375 239.10153125000002 Q 303.2399375 239.10153125000002 303.88256249999995 239.10153125000002 Q 304.52518749999996 239.10153125000002 305.596234375 239.10153125000002 Q 306.66728125 239.10153125000002 307.30990625 239.10153125000002 Q 307.95253125 239.10153125000002 309.023578125 239.10153125000002 Q 310.09462499999995 239.10153125000002 310.523046875 239.10153125000002 Q 310.95146874999995 239.10153125000002 311.808296875 239.10153125000002 Q 312.665125 239.10153125000002 313.093546875 239.10153125000002 Q 313.52196875 239.10153125000002 313.95039062499995 239.10153125000002 Q 314.3788125 239.10153125000002 314.59301562499996 239.10153125000002 Q 314.80721874999995 239.10153125000002 315.02143749999993 239.10153125000002 Q 315.23565625 239.10153125000002 314.807234375 239.10153125000002 Q 314.3788125 239.10153125000002 313.52196875 239.10153125000002 Q 312.665125 239.10153125000002 311.808296875 238.88978125000003 Q 310.95146874999995 238.67803125000003 307.095703125 238.25453125 Q 303.2399375 237.83103125 300.0268125 237.83103125 Q 296.81368749999996 237.83103125 290.60162499999996 238.25453125 Q 284.38956249999995 238.67803125000003 279.89117187499994 239.10153125000002 Q 275.39278125 239.52503125 268.323890625 240.37201562500002 Q 261.255 241.21900000000002 257.18503124999995 242.27775000000003 Q 253.11506249999996 243.33650000000003 243.04724999999996 244.81873437500002 Q 232.97943749999996 246.30096875 226.98159374999997 246.72445312500003 Q 220.98375 247.14793750000004 212.62959374999997 248.20668750000002 Q 204.27543749999995 249.2654375 198.27759374999997 249.6889375 Q 192.27974999999998 250.11243750000003 186.92453124999997 250.535921875 Q 181.56931249999997 250.95940625 172.57253124999997 251.38290625000002 Q 163.57574999999997 251.80640625000004 160.79104687499998 252.22990625000003 Q 158.00634374999998 252.65340625000002 154.57899999999998 253.28864062500003 Q 151.15165624999997 253.92387500000004 150.08060937499997 254.13562500000003 Q 149.00956249999996 254.34737500000003 148.15271874999996 254.77087500000002 Q 147.29587499999997 255.194375 147.08167187499996 255.406125 Q 146.86746874999994 255.617875 147.72429687499996 255.82962499999996 Q 148.581125 256.04137499999996 149.65217187499996 256.25312499999995 Q 150.72321874999994 256.464875 154.36478124999996 256.25312499999995 Q 158.00634374999998 256.04137499999996 159.93421874999999 256.04137499999996 Q 161.86209374999999 256.04137499999996 164.86101562499996 256.25312499999995 Q 167.85993749999994 256.464875 169.14518749999996 256.464875 Q 170.43043749999998 256.464875 171.71568749999997 256.464875 Q 173.00093749999996 256.464875 176.64249999999996 256.464875 Q 180.28406249999995 256.464875 182.21193749999995 256.676609375 Q 184.13981249999995 256.88834375 187.56715624999995 257.10009375 Q 190.99449999999996 257.31184375 192.27974999999998 257.10009375 Q 193.565 256.88834375 195.70709374999998 256.041359375 Q 197.84918749999997 255.194375 198.70601562499996 254.55912500000002 Q 199.56284374999996 253.92387500000004 201.49073437499996 252.86514062500004 Q 203.41862499999996 251.80640625000004 204.70387499999995 251.17115625000002 Q 205.98912499999994 250.53590625 208.98804687499995 249.688921875 Q 211.98696874999996 248.8419375 213.48643749999997 248.6301875 Q 214.98590624999997 248.4184375 216.05693749999998 248.20668750000002 Q 217.12796874999998 247.99493750000002 218.84164062499997 247.359703125 Q 220.55531249999996 246.72446875 220.98373437499995 246.30096875 Q 221.41215624999995 245.87746875000002 222.26899999999995 245.03046875 Q 223.12584374999994 244.18346875 223.34004687499996 243.97171875 Q 223.55424999999997 243.75996875 224.19687499999998 243.33648437500003 Q 224.8395 242.91300000000004 225.26792187499998 242.70125000000002 Q 225.69634374999998 242.4895 226.55317187499998 242.066 Q 227.40999999999997 241.6425 227.83842187499997 241.43075000000002 Q 228.26684374999996 241.21900000000002 228.69526562499996 241.00725000000003 Q 229.12368749999996 240.79550000000003 230.40893749999998 240.37201562500002 Q 231.6941875 239.94853125 232.551015625 239.73678125 Q 233.40784374999998 239.52503125 235.76414062499998 239.52503125 Q 238.12043749999998 239.52503125 239.40570312499997 239.52503125 Q 240.69096874999997 239.52503125 243.04726562499997 239.52503125 Q 245.40356249999996 239.52503125 246.26039062499996 239.52503125 Q 247.11721874999995 239.52503125 248.40246874999997 239.31328125000002 Q 249.68771875 239.10153125000002 250.33034374999997 238.88978125000003 Q 250.97296874999995 238.67803125000003 252.25823437499997 238.46628125000004 Q 253.5435 238.25453125000004 254.18612499999998 238.25453125000004 Q 254.82874999999996 238.25453125000004 255.47137499999997 238.04278125000002 Q 256.114 237.83103125 257.185046875 237.407546875 Q 258.25609375 236.98406250000002 258.68449999999996 236.98406250000002 Q 259.11290625 236.98406250000002 260.398171875 236.98406250000002 Q 261.68343749999997 236.98406250000002 262.75446875 236.98406250000002 Q 263.8255 236.98406250000002 266.1818125 237.195796875 Q 268.538125 237.40753125 269.60915624999996 237.40753125 Q 270.6801875 237.40753125 271.75123437499997 237.61928125 Q 272.82228124999995 237.83103125 274.535953125 237.83103125 Q 276.249625 237.83103125 276.89225 237.83103125 Q 277.534875 237.83103125 278.82012499999996 237.83103125 Q 280.105375 237.83103125 280.748015625 237.83103125 Q 281.39065624999995 237.83103125 282.247484375 237.83103125 Q 283.1043125 237.83103125 283.532734375 238.04278125000002 Q 283.96115625 238.25453125000004 285.24640624999995 238.46628125000004 Q 286.53165624999997 238.67803125000003 287.17428125 238.88978125000003 Q 287.81690625 239.10153125000002 289.10215625 239.31328125000002 Q 290.38740624999997 239.52503125 291.03003125 239.52503125 Q 291.67265625 239.52503125 292.31529687499994 239.52503125 Q 292.95793749999996 239.52503125 293.81476562499995 239.73678125 Q 294.67159375 239.94853125 295.10001562499997 239.94853125 Q 295.5284375 239.94853125 294.2431875 239.94853125 Q 292.95793749999996 239.94853125 292.10109374999996 239.73678125 Q 291.24424999999997 239.52503125 290.387421875 239.52503125 Q 289.53059375 239.52503125 288.245328125 239.52503125 Q 286.9600625 239.52503125 286.10323437499994 239.31328125000002 Q 285.24640624999995 239.10153125000002 282.89010937499995 238.88978125000003 Q 280.53381249999995 238.67803125000003 279.24856249999993 238.67803125000003 Q 277.9633125 238.67803125000003 274.750171875 238.67803125000003 Q 271.53703125 238.67803125000003 270.25178124999996 238.67803125000003 Q 268.96653124999995 238.67803125000003 267.4670625 238.67803125000003 Q 265.96759375 238.67803125000003 265.32496875 238.67803125000003 Q 264.68234375 238.67803125000003 264.03971874999996 238.67803125000003 Q 263.39709374999995 238.67803125000003 261.89764062499995 238.67803125000003 Q 260.39818749999995 238.67803125000003 259.54134374999995 238.67803125000003 Q 258.68449999999996 238.67803125000003 257.39924999999994 238.88978125000003 Q 256.114 239.10153125000002 255.47137499999997 239.10153125000002 Q 254.82874999999996 239.10153125000002 253.32928124999995 239.10153125000002 Q 251.82981249999995 239.10153125000002 250.54456249999996 239.31328125000002 Q 249.25931249999996 239.52503125 246.47459374999997 239.52503125 Q 243.68987499999997 239.52503125 242.40462499999998 239.52503125 Q 241.119375 239.52503125 239.1915 239.52503125 Q 237.263625 239.52503125 236.40678125 239.52503125 Q 235.5499375 239.52503125 234.69310937499998 239.73678125 Q 233.83628124999996 239.94853125 232.12260937499997 240.16026562500002 Q 230.40893749999998 240.37200000000004 229.55209374999998 240.58375000000004 Q 228.69525 240.79550000000003 226.338953125 241.00725000000003 Q 223.98265625 241.21900000000002 222.26898437499997 241.21900000000002 Q 220.55531249999996 241.21900000000002 217.98481249999998 241.43075000000002 Q 215.4143125 241.6425 214.55746874999997 241.6425 Q 213.70062499999995 241.6425 212.84379687499995 241.6425 Q 211.98696874999996 241.6425 210.27329687499997 241.85425 Q 208.55962499999998 242.066 207.702796875 242.066 Q 206.84596875 242.066 205.13229687499998 242.066 Q 203.41862499999996 242.066 202.77598437499998 242.066 Q 202.13334375 242.066 200.633890625 242.066 Q 199.1344375 242.066 198.49181249999998 242.27775 Q 197.84918749999997 242.4895 195.92129687499997 242.913 Q 193.99340624999996 243.33650000000003 192.70815624999997 243.54823437500002 Q 191.42290624999998 243.75996875 188.85240624999997 244.18346875 Q 186.28190624999996 244.60696875 185.21085937499996 244.60696875 Q 184.13981249999995 244.60696875 183.28298437499996 244.60696875 Q 182.42615624999996 244.60696875 180.28406249999998 244.60696875 Q 178.14196875 244.60696875 177.07092187499998 244.60696875 Q 175.99987499999997 244.60696875 173.85778124999996 244.60696875 Q 171.71568749999994 244.60696875 170.21623437499997 244.60696875 Q 168.71678125 244.60696875 165.93206249999997 244.81871875000002 Q 163.14734374999995 245.03046875000004 162.07629687499997 245.03046875000004 Q 161.00525 245.03046875000004 159.505796875 245.03046875000004 Q 158.00634374999998 245.03046875000004 157.36370312499997 245.03046875000004 Q 156.72106249999996 245.03046875000004 155.43581249999997 245.03046875000004 Q 154.15056249999998 245.03046875000004 153.50793749999997 245.03046875000004 Q 152.86531249999996 245.03046875000004 152.22268749999998 245.03046875000004 Q 151.5800625 245.03046875000004 150.29481249999998 245.03046875000004 Q 149.00956249999996 245.03046875000004 148.36693749999998 245.03046875000004 Q 147.7243125 245.03046875000004 146.43904687499997 245.03046875000004 Q 145.15378124999995 245.03046875000004 144.51115624999997 245.03046875000004 Q 143.86853125 245.03046875000004 142.369078125 245.03046875000004 Q 140.86962499999998 245.03046875000004 140.22699999999998 245.03046875000004 Q 139.58437499999997 245.03046875000004 137.87070312499998 245.45396875000003 Q 136.15703125 245.87746875000002 135.51440624999998 246.08921875000001 Q 134.87178124999997 246.30096875 134.22915624999996 246.51271875 Q 133.58653124999995 246.72446875 132.51548437499997 246.72446875 Q 131.4444375 246.72446875 131.016015625 246.72446875 Q 130.58759375 246.72446875 130.15917187499997 246.72446875 Q 129.73074999999994 246.72446875 129.51654687499996 246.72446875 Q 129.30234374999998 246.72446875 129.51654687499996 246.51271875 Q 129.73074999999994 246.30096875 130.37337499999995 246.08921875000001 Q 131.01599999999996 245.87746875000002 132.51546874999997 245.66571875000002 Q 134.01493749999997 245.45396875000003 135.08598437499998 245.24221875000003 Q 136.15703125 245.03046875000004 137.87070312499998 244.81871875000002 Q 139.58437499999997 244.60696875 140.22699999999998 244.39521875 Q 140.86962499999998 244.18346875 142.15487499999998 243.75998437500002 Q 143.44012499999997 243.33650000000003 143.86854687499996 243.12475000000003 Q 144.29696874999996 242.91300000000004 145.58221874999995 242.48950000000002 Q 146.86746874999994 242.066 147.29589062499997 241.85425 Q 147.7243125 241.6425 148.79535937499998 241.21900000000002 Q 149.86640624999995 240.79550000000003 150.29481249999995 240.58375000000004 Q 150.72321874999994 240.37200000000004 151.36584374999995 240.16026562500002 Q 152.00846874999996 239.94853125 153.93635937499997 239.52503125 Q 155.86424999999997 239.10153125000002 156.93529687499998 238.88978125000003 Q 158.00634374999998 238.67803125000003 160.36264062499998 238.46628125000004 Q 162.71893749999998 238.25453125000004 163.78996874999999 238.04278125000002 Q 164.861 237.83103125 166.57467187499998 237.61928125 Q 168.28834374999997 237.40753125 169.14518749999996 237.195796875 Q 170.00203124999996 236.98406250000002 171.50148437499996 236.77231250000003 Q 173.00093749999996 236.56056250000003 173.85778124999996 236.56056250000003 Q 174.71462499999996 236.56056250000003 175.78567187499996 236.56056250000003 Q 176.85671874999997 236.56056250000003 180.06984374999996 236.56056250000003 Q 183.28296874999995 236.56056250000003 184.56821874999997 236.56056250000003 Q 185.85346875 236.56056250000003 188.42398437499997 236.56056250000003 Q 190.99449999999996 236.56056250000003 191.85132812499995 236.34881250000004 Q 192.70815624999994 236.13706250000004 194.42182812499996 235.92531250000002 Q 196.13549999999998 235.7135625 196.778125 235.5018125 Q 197.42075 235.2900625 199.134421875 234.86656250000001 Q 200.84809374999998 234.44306250000002 201.49071874999998 234.2313125 Q 202.13334375 234.0195625 202.77598437499998 233.80782812500001 Q 203.41862499999996 233.59609375000002 204.70387499999995 233.17259375000003 Q 205.98912499999994 232.74909375000001 207.06017187499995 232.74909375000001 Q 208.13121874999996 232.74909375000001 210.91592187499995 232.74909375000001 Q 213.70062499999995 232.74909375000001 214.98589062499997 232.74909375000001 Q 216.27115625 232.74909375000001 218.627453125 232.96084375 Q 220.98375 233.17259375 221.84057812499998 233.17259375 Q 222.69740624999997 233.17259375 224.41107812499996 233.38434375000003 Q 226.12474999999995 233.59609375000002 226.98159374999997 233.59609375000002 Q 227.8384375 233.59609375000002 228.695265625 233.59609375000002 Q 229.55209374999998 233.59609375000002 231.26576562499997 233.59609375000002 Q 232.97943749999996 233.59609375000002 234.26468749999998 233.59609375000002 Q 235.5499375 233.59609375000002 238.12045312499998 234.019578125 Q 240.69096874999997 234.44306250000002 241.76199999999997 234.65481250000002 Q 242.83303124999998 234.86656250000001 244.54670312499996 235.0783125 Q 246.26037499999995 235.2900625 246.90299999999996 235.5018125 Q 247.54562499999997 235.7135625 248.83089062499997 235.7135625 Q 250.11615624999996 235.7135625 250.75878124999997 235.7135625 Q 251.40140624999998 235.7135625 252.68665624999997 235.7135625 Q 253.97190624999996 235.7135625 254.61453124999997 235.7135625 Q 255.25715624999998 235.7135625 255.68557812499998 235.7135625 Q 256.114 235.7135625 256.97082812499997 235.7135625 Q 257.82765624999996 235.7135625 258.25607812499993 235.7135625 Q 258.68449999999996 235.7135625 259.54134374999995 235.7135625 Q 260.39818749999995 235.7135625 260.612390625 235.7135625 Q 260.82659375 235.7135625 261.897640625 236.1370625 Q 262.9686875 236.56056250000003 263.61131249999994 236.77231250000003 Q 264.25393749999995 236.98406250000002 265.53918749999997 236.98406250000002 Q 266.8244375 236.98406250000002 267.4670625 236.98406250000002 Q 268.10968749999995 236.98406250000002 268.75231249999996 236.98406250000002 Q 269.39493749999997 236.98406250000002 270.46598437499995 236.98406250000002 Q 271.53703125 236.98406250000002 271.96545312499995 236.98406250000002 Q 272.393875 236.98406250000002 273.250703125 236.98406250000002 Q 274.10753124999997 236.98406250000002 274.535953125 236.98406250000002 Q 274.96437499999996 236.98406250000002 275.60699999999997 236.98406250000002 Q 276.249625 236.98406250000002 276.46384374999997 236.98406250000002 Q 276.67806249999995 236.98406250000002 276.46384374999997 236.77231250000003 Q 276.249625 236.56056250000003 275.60699999999997 236.34881250000004 Q 274.96437499999996 236.13706250000004 272.82228124999995 235.71356250000002 Q 270.6801875 235.2900625 269.39493749999997 235.0783125 Q 268.10968749999995 234.86656250000001 265.96759375 234.86656250000001 Q 263.8255 234.86656250000001 262.54025 234.86656250000001 Q 261.255 234.86656250000001 258.256078125 234.86656250000001 Q 255.25715624999998 234.86656250000001 253.32928124999998 235.0783125 Q 251.40140624999998 235.2900625 246.04618749999997 235.92531250000002 Q 240.69096874999997 236.56056250000003 238.12045312499998 236.77231250000003 Q 235.5499375 236.98406250000002 232.9794375 237.195796875 Q 230.40893749999998 237.40753125 224.411078125 238.25453125 Q 218.41321875 239.10153125000002 216.48534375 239.10153125000002 Q 214.55746875 239.10153125000002 210.91592187499998 239.31328125000002 Q 207.27437499999996 239.52503125 205.34649999999996 239.52503125 Q 203.41862499999996 239.52503125 199.13443749999996 239.52503125 Q 194.85024999999996 239.52503125 192.27974999999998 239.73678125 Q 189.70925 239.94853125 185.4250625 239.94853125 Q 181.140875 239.94853125 178.99879687499998 240.16026562500002 Q 176.85671874999997 240.37200000000004 174.71462499999998 240.58375000000004 Q 172.57253125 240.79550000000003 167.645734375 241.21900000000002 Q 162.71893749999998 241.6425 161.433671875 241.6425 Q 160.14840625 241.6425 157.57790624999998 242.066 Q 155.00740624999997 242.4895 153.93635937499997 242.70125000000002 Q 152.86531249999996 242.91300000000004 150.93743749999996 243.12475000000003 Q 149.00956249999996 243.33650000000003 148.15271874999996 243.33650000000003 Q 147.29587499999997 243.33650000000003 146.01062499999998 243.33650000000003 Q 144.72537499999999 243.33650000000003 144.08274999999998 243.33650000000003 Q 143.44012499999997 243.33650000000003 143.01170312499997 243.33650000000003 Q 142.58328124999997 243.33650000000003 141.29803124999998 243.33650000000003 Q 140.01278125 243.33650000000003 139.37015624999998 243.54823437500002 Q 138.72753124999997 243.75996875 137.87070312499998 243.75996875 Q 137.01387499999998 243.75996875 136.585453125 243.75996875 Q 136.15703125 243.75996875 135.08598437499998 243.75996875 Q 134.01493749999997 243.75996875 133.37231249999996 243.75996875 Q 132.72968749999995 243.75996875 132.08706249999997 243.75996875 Q 131.4444375 243.75996875 131.23021874999998 243.75996875 Q 131.01599999999996 243.75996875 130.80179687499998 243.75996875 Q 130.58759375 243.75996875 130.37339062499998 243.54823437500002 L 130.14918749999998 243.32650000000004" stroke-linecap="round" />
</g>
</svg>