<?xml version="1.0" encoding="UTF-8" standalone="no" ?>
<!DOCTYPE svg PUBLIC "-//W3C//DTD SVG 1.1//EN" "http://www.w3.org/Graphics/SVG/1.1/DTD/svg11.dtd">
<svg xmlns="http://www.w3.org/2000/svg" xmlns:xlink="http://www.w3.org/1999/xlink" version="1.1" width="640" height="480" viewBox="0 0 640 480" xml:space="preserve">
<desc>Created with Fabric.js 4.6.0</desc>
<defs>
</defs>
<g transform="matrix(1 0 0 1 372.01 240)" id="4RwHOMz8S8dsE7LRoSRA9"  >
<g style="" vector-effect="non-scaling-stroke"   >
		<g transform="matrix(1 0 0 1 -211.05 -136.33)" id="rghg7_EtJdsC-eQKbeK7_"  >
<path style="stroke: rgb(0,0,0); stroke-width: 10; stroke-dasharray: none; stroke-linecap: round; stroke-dashoffset: 0; stroke-linejoin: round; stroke-miterlimit: 10; fill: none; fill-rule: nonzero; opacity: 1;" vector-effect="non-scaling-stroke"  transform=" translate(-108.95, -183.67)" d="M 145.15378124999995 138.74296875000002 Q 145.15378124999995 138.73296875000003 145.15378124999995 138.521234375 Q 145.15378124999995 138.3095 145.15378124999995 138.09775000000002 Q 145.15378124999995 137.88600000000002 144.72537499999996 136.82725781250002 Q 144.29696874999996 135.76851562500002 143.86854687499996 135.13326562500004 Q 143.44012499999997 134.49801562500002 140.65540624999997 133.22753125000003 Q 137.87068749999997 131.957046875 135.30018749999996 131.1100546875 Q 132.72968749999995 130.26306250000002 128.44549999999995 129.20432031250002 Q 124.16131249999995 128.14557812500001 121.80501562499995 127.93383593750002 Q 119.44871874999995 127.72209375000001 114.30771874999996 128.3573359375 Q 109.16671874999997 128.99257812500002 107.23882812499997 129.4160703125 Q 105.31093749999997 129.8395625 103.81148437499996 130.6865546875 Q 102.31203124999996 131.533546875 99.31310937499995 133.65103125000002 Q 96.31418749999995 135.76851562500002 94.81471874999997 137.4624921875 Q 93.31524999999999 139.15646875000002 91.38736718749999 142.9679375 Q 89.45948437499999 146.77940625000002 88.17423437499998 149.10864062500002 Q 86.88898437499998 151.43787500000002 84.10426562499997 157.36681250000004 Q 81.31954687499996 163.29575000000003 79.82008593749997 165.62498437500003 Q 78.32062499999998 167.95421875000002 75.96432812499998 172.40092187500002 Q 73.60803124999998 176.84762500000002 73.17961718749997 179.60034375000004 Q 72.75120312499996 182.35306250000002 72.75120312499996 187.435015625 Q 72.75120312499996 192.51696875000002 72.96540624999996 194.422703125 Q 73.17960937499996 196.3284375 73.60803124999997 198.02242187500002 Q 74.03645312499998 199.71640625 75.75012499999997 203.527875 Q 77.46379687499996 207.33934375 78.53483593749996 209.6685625 Q 79.60587499999997 211.99778125 81.53375781249997 215.38575000000003 Q 83.46164062499997 218.77371875000003 84.31847656249997 220.04420312500002 Q 85.17531249999996 221.31468750000002 86.88898437499998 223.43217187500002 Q 88.60265625 225.54965625000003 89.24528124999998 226.39664062500003 Q 89.88790624999996 227.243625 91.81578124999996 229.14935937500002 Q 93.74365624999996 231.05509375000003 94.81470312499997 232.11384375 Q 95.88574999999997 233.17259375 99.52729687499996 235.5018125 Q 103.16884374999995 237.83103125 105.31093749999997 238.46628125 Q 107.45303124999998 239.10153125000002 109.16670312499997 239.31328125000002 Q 110.88037499999996 239.52503125 114.09351562499995 239.52503125 Q 117.30665624999995 239.52503125 118.59190624999997 238.88978125000003 Q 119.87715624999998 238.25453125000004 122.87607812499996 236.34879687500003 Q 125.87499999999994 234.44306250000002 127.37446874999995 233.38432812500002 Q 128.87393749999995 232.32559375000002 131.87285937499996 230.20810937500002 Q 134.87178124999997 228.09062500000002 136.15703124999996 227.03189062500002 Q 137.44228124999995 225.97315625000002 138.72753124999997 223.43217187500002 Q 140.01278125 220.89118750000003 140.441203125 219.40895312500004 Q 140.86962499999998 217.92671875000002 141.29804687499998 216.232734375 Q 141.72646874999998 214.53875000000002 142.15487499999998 211.57428125 Q 142.58328124999997 208.6098125 142.58328124999997 207.551078125 Q 142.58328124999997 206.49234375 142.58328124999997 205.010109375 Q 142.58328124999997 203.52787500000002 142.58328124999997 202.25737500000002 L 142.58328124999997 200.97687500000004" stroke-linecap="round" />
</g>
		<g transform="matrix(1 0 0 1 -182.77 -128.16)" id="okYaS6ohB7YtGdDT1BUZu"  >
<path style="stroke: rgb(0,0,0); stroke-width: 10; stroke-dasharray: none; stroke-linecap: round; stroke-dashoffset: 0; stroke-linejoin: round; stroke-miterlimit: 10; fill: none; fill-rule: nonzero; opacity: 1;" vector-effect="non-scaling-stroke"  transform=" translate(-137.23, -191.84)" d="M 168.72678125 191.25646875 Q 168.71678125 191.24646875000002 167.00310937499998 191.03473437500003 Q 165.28943749999996 190.823 163.57576562499997 190.61125 Q 161.86209374999999 190.39950000000002 160.14842187499997 190.39950000000002 Q 158.43474999999995 190.39950000000002 156.07845312499995 190.39950000000002 Q 153.72215624999995 190.39950000000002 152.43690624999996 190.61125 Q 151.15165624999997 190.823 148.36693749999998 191.45823437500002 Q 145.58221874999998 192.09346875000003 143.01170312499997 192.51696875000002 Q 140.44118749999996 192.94046875 135.30018749999996 193.36396875000003 Q 130.15918749999997 193.78746875000002 128.44551562499998 193.57571875000002 Q 126.73184375 193.36396875000003 123.94712499999997 192.94046875000004 Q 121.16240624999995 192.51696875000002 120.09135937499997 192.30521875000002 Q 119.02031249999999 192.09346875000003 117.30664062499997 191.88171875 Q 115.59296874999995 191.66996875 114.52192187499998 191.66996875 Q 113.450875 191.66996875 109.595125 190.82298437500003 L 105.72937499999999 189.96600000000004" stroke-linecap="round" />
</g>
		<g transform="matrix(1 0 0 1 -91.49 -148.65)" id="PPwZvu-Hcs9-C7ckoOn5n"  >
<path style="stroke: rgb(0,0,0); stroke-width: 10; stroke-dasharray: none; stroke-linecap: round; stroke-dashoffset: 0; stroke-linejoin: round; stroke-miterlimit: 10; fill: none; fill-rule: nonzero; opacity: 1;" vector-effect="non-scaling-stroke"  transform=" translate(-228.51, -171.35)" d="M 201.27653124999995 227.67712500000002 Q 201.27653124999995 227.66712500000003 201.27653124999995 227.455375 Q 201.27653124999995 227.243625 201.27653124999995 227.03189062500002 Q 201.27653124999995 226.82015625000003 201.06231249999996 226.39665625000004 Q 200.84809374999998 225.97315625000002 201.06231249999996 224.49092187500003 Q 201.27653124999995 223.0086875 201.49073437499996 221.52645312500002 Q 201.70493749999997 220.04421875000003 202.13335937499997 215.59750000000003 Q 202.56178124999997 211.15078125000002 202.77598437499998 208.82156250000003 Q 202.9901875 206.49234375 203.418609375 200.775140625 Q 203.84703125 195.0579375 203.84703125 191.66996875 Q 203.84703125 188.282 203.84703125 185.74103125 Q 203.84703125 183.2000625 204.06123437499997 178.11810937500002 Q 204.27543749999995 173.03615625 204.70385937499995 170.2834375 Q 205.13228124999995 167.53071875 205.77490624999996 161.601765625 Q 206.41753124999997 155.67281250000002 206.41753124999997 153.13184375000003 Q 206.41753124999997 150.590875 207.06015624999998 145.085421875 Q 207.70278125 139.57996875 208.13120312499998 137.0389921875 Q 208.55962499999998 134.49801562500002 209.20224999999996 130.26306250000002 Q 209.84487499999994 126.028109375 210.48749999999995 124.334125 Q 211.13012499999996 122.640140625 212.84379687499998 120.52265625 Q 214.55746875 118.405171875 214.985890625 117.5581796875 Q 215.4143125 116.71118750000001 216.05693749999998 116.2876953125 Q 216.69956249999996 115.864203125 217.55639062499998 115.440703125 Q 218.41321875 115.017203125 218.841640625 115.017203125 Q 219.2700625 115.017203125 220.55531249999999 115.440703125 Q 221.84056249999998 115.864203125 222.48320312499996 116.2876953125 Q 223.12584374999994 116.71118750000001 224.19687499999995 118.193421875 Q 225.26790624999995 119.67565624999999 225.91053124999996 121.1578984375 Q 226.55315624999997 122.640140625 228.48104687499998 126.4516015625 Q 230.40893749999998 130.26306250000002 231.479984375 132.38053906250002 Q 232.55103125 134.49801562500002 233.62206249999997 136.40375781250003 Q 234.69309374999995 138.3095 236.62098437499995 142.12095312500003 Q 238.54887499999995 145.93240625 240.04832812499995 148.473390625 Q 241.54778124999996 151.014375 244.33249999999995 157.1550625 Q 247.11721874999995 163.29575000000003 248.40246874999997 166.47196875000003 Q 249.68771875 169.6481875 250.54456249999998 174.306640625 Q 251.40140624999998 178.96509375000002 251.82982812499998 181.082578125 Q 252.25824999999998 183.2000625 252.90087499999998 186.58803125000003 Q 253.5435 189.97600000000003 253.75770312499998 192.093484375 Q 253.97190624999996 194.21096875 254.61453124999997 197.3871875 Q 255.25715624999998 200.56340625 255.47135937499996 201.62214062500001 Q 255.68556249999995 202.68087500000001 255.89978124999996 203.52785937500002 Q 256.114 204.37484375000003 256.114 205.64534375000002 Q 256.114 206.91584375000002 256.114 207.339328125 L 256.114 207.77281250000001" stroke-linecap="round" />
</g>
		<g transform="matrix(1 0 0 1 -94.37 -156.28)" id="oeJ58KDprAHYWAAX9oFSe"  >
<path style="stroke: rgb(0,0,0); stroke-width: 10; stroke-dasharray: none; stroke-linecap: round; stroke-dashoffset: 0; stroke-linejoin: round; stroke-miterlimit: 10; fill: none; fill-rule: nonzero; opacity: 1;" vector-effect="non-scaling-stroke"  transform=" translate(-225.63, -163.72)" d="M 242.82303124999999 165.41321875000003 Q 242.83303124999998 165.41321875000003 243.04724999999996 165.41321875000003 Q 243.26146874999995 165.41321875000003 243.47567187499996 165.41321875000003 Q 243.68987499999997 165.41321875000003 241.97620312499998 165.41321875000003 Q 240.26253125 165.41321875000003 238.12045312499998 165.20146875 Q 235.97837499999997 164.98971875 231.47998437499996 164.35448437500003 Q 226.98159374999994 163.71925000000002 224.41107812499996 163.50750000000002 Q 221.84056249999998 163.29575000000003 217.98481249999998 162.6605 Q 214.12906249999997 162.02525000000003 213.05801562499997 162.02525000000003 Q 211.98696874999996 162.02525000000003 210.48749999999995 162.02525000000003 Q 208.98803124999995 162.02525000000003 208.34540624999997 162.23700000000002 L 207.69278125 162.45875" stroke-linecap="round" />
</g>
		<g transform="matrix(1 0 0 1 -0.65 -145.48)" id="Tm1f7CphlwPXyuy7JCePt"  >
<path style="stroke: rgb(0,0,0); stroke-width: 10; stroke-dasharray: none; stroke-linecap: round; stroke-dashoffset: 0; stroke-linejoin: round; stroke-miterlimit: 10; fill: none; fill-rule: nonzero; opacity: 1;" vector-effect="non-scaling-stroke"  transform=" translate(-319.35, -174.52)" d="M 274.96437499999996 203.961375 Q 274.96437499999996 203.951375 274.96437499999996 203.316125 Q 274.96437499999996 202.68087500000001 274.96437499999996 202.04562500000003 Q 274.96437499999996 201.41037500000002 274.96437499999996 198.23415625 Q 274.96437499999996 195.0579375 274.750171875 191.66996875 Q 274.53596875 188.282 273.89334375 180.659078125 Q 273.25071875 173.03615625 272.60807812499996 168.589453125 Q 271.96543749999995 164.14275 271.32281249999994 158.00204687500002 Q 270.6801875 151.86134375 270.89440625 150.167359375 Q 271.10862499999996 148.473375 271.5370312499999 146.991140625 Q 271.96543749999995 145.50890625000002 273.46490624999996 142.7561875 Q 274.96437499999996 140.00346875000002 276.89225 137.03900000000002 Q 278.82012499999996 134.07453125 279.67696874999996 132.59229687500002 Q 280.53381249999995 131.11006250000003 281.39064062499995 129.83957031250003 Q 282.24746875 128.569078125 283.1043125 126.66334375 Q 283.96115625 124.757609375 284.38957812499996 124.1223671875 Q 284.818 123.487125 286.10325 122.6401328125 Q 287.38849999999996 121.79314062499999 288.24532812499996 121.79314062499999 Q 289.10215624999995 121.79314062499999 293.17212499999994 123.275375 Q 297.24209375 124.757609375 299.169984375 126.23985156250001 Q 301.097875 127.72209375000001 302.38312499999995 129.8395703125 Q 303.66837499999997 131.957046875 305.59624999999994 138.5212421875 Q 307.52412499999997 145.0854375 307.95254687499994 147.62640625 Q 308.38096874999997 150.16737500000002 309.23779687499996 155.88456250000002 Q 310.09462499999995 161.60175 310.30884374999994 164.14273437500003 Q 310.5230625 166.68371875000003 311.1656875 169.6481875 Q 311.8083125 172.61265625000001 312.022515625 173.67139062500002 Q 312.23671874999997 174.73012500000002 312.45092187499995 175.78887500000002 Q 312.665125 176.84762500000002 312.665125 177.05937500000002 Q 312.665125 177.271125 312.665125 176.847625 Q 312.665125 176.424125 312.23671875 174.730140625 Q 311.8083125 173.03615625 310.73726562499996 166.04846875 Q 309.66621875 159.06078125000002 309.45201562499994 156.3080625 Q 309.23781249999996 153.55534375000002 309.45201562499994 148.47339062500004 Q 309.66621875 143.39143750000002 309.88042187499997 141.48570312500001 Q 310.09462499999995 139.57996875 310.523046875 136.6155 Q 310.95146874999995 133.65103125000002 311.379890625 132.38054687500002 Q 311.8083125 131.11006250000003 312.022515625 130.26307031250002 Q 312.23671874999997 129.416078125 312.66514062499994 127.93383593749999 Q 313.09356249999996 126.45159374999999 313.521984375 125.81635156249999 Q 313.95040624999996 125.18110937499999 315.02143749999993 124.5458671875 Q 316.09246874999997 123.910625 318.020359375 124.12237499999999 Q 319.94825 124.33412499999999 325.30346875 126.87510156249999 Q 330.6586875 129.416078125 332.5865625 131.1100546875 Q 334.5144375 132.80403125 337.513359375 137.03900000000002 Q 340.51228125 141.27396875000002 342.01175 143.8149375 Q 343.51121874999995 146.35590625 345.01068749999996 148.473390625 Q 346.51015624999997 150.590875 349.294859375 154.614078125 Q 352.0795625 158.63728125 353.364828125 160.966515625 Q 354.65009374999994 163.29575000000003 356.79217187499995 168.58945312500003 Q 358.93424999999996 173.88315625 359.36265625 175.57714062500003 Q 359.7910625 177.271125 360.43371874999997 180.65909375 Q 361.0763749999999 184.0470625 361.50478124999995 185.95278125000002 Q 361.9331875 187.85850000000002 362.79003124999997 191.88171875 Q 363.64687499999997 195.90493750000002 364.07528125 197.59892187500003 Q 364.5036875 199.29290625000002 364.93209375 201.83387500000003 Q 365.36049999999994 204.37484375000003 365.57471875 205.64534375000002 Q 365.78893750000003 206.91584375000002 365.78893750000003 208.18632812500002 Q 365.78893750000003 209.4568125 365.78893750000003 211.57429687500002 Q 365.78893750000003 213.69178125000002 366.00315625 214.538765625 Q 366.217375 215.38575 366.217375 217.07973437500002 Q 366.217375 218.77371875000003 366.4315625 219.62071875000004 Q 366.64574999999996 220.46771875000002 366.85996874999995 221.738203125 Q 367.07418749999994 223.0086875 367.28840625 223.64392187500002 Q 367.502625 224.27915625000003 367.7168125 225.76139062500002 L 367.941 227.253625" stroke-linecap="round" />
</g>
		<g transform="matrix(1 0 0 1 -37.97 -155.86)" id="B4hzxn6ouD5c4BVIBTlys"  >
<path style="stroke: rgb(0,0,0); stroke-width: 10; stroke-dasharray: none; stroke-linecap: round; stroke-dashoffset: 0; stroke-linejoin: round; stroke-miterlimit: 10; fill: none; fill-rule: nonzero; opacity: 1;" vector-effect="non-scaling-stroke"  transform=" translate(-282.03, -164.14)" d="M 286.9600625 116.7011875 Q 286.9600625 116.71118750000001 286.9600625 117.34643750000001 Q 286.9600625 117.9816875 286.9600625 118.40517968750001 Q 286.9600625 118.82867187500001 286.53165624999997 119.6756640625 Q 286.10324999999995 120.52265625 285.88903124999996 120.9461484375 Q 285.6748125 121.369640625 285.460609375 122.004890625 Q 285.24640624999995 122.640140625 285.03220312499997 123.2753828125 Q 284.818 123.910625 284.38957812499996 125.392859375 Q 283.96115625 126.87509375 283.74693749999994 127.7220859375 Q 283.53271874999996 128.569078125 283.1043125 129.83957031250003 Q 282.67590624999997 131.11006250000003 282.4616875 131.74530468750004 Q 282.24746875 132.38054687500002 281.8190625 133.86278125 Q 281.39065624999995 135.345015625 281.39065624999995 136.1920078125 Q 281.39065624999995 137.03900000000002 281.17643749999996 139.79171875000003 Q 280.96221875 142.54443750000002 280.96221875 144.02667187500003 Q 280.96221875 145.50890625000002 280.533796875 148.47339062500004 Q 280.105375 151.43787500000002 279.89117187499994 152.920109375 Q 279.67696874999996 154.40234375 279.67696874999996 155.88457812500002 Q 279.67696874999996 157.3668125 279.248546875 159.90778125000003 Q 278.82012499999996 162.44875000000002 278.605921875 163.719234375 Q 278.39171875 164.98971875 277.96329687499997 167.742453125 Q 277.534875 170.49518750000001 277.320671875 171.55392187500001 Q 277.10646875 172.61265625000001 277.10646875 174.73014062500002 Q 277.10646875 176.84762500000002 277.10646875 178.11810937500002 Q 277.10646875 179.38859375 277.320671875 181.50607812500002 Q 277.534875 183.62356250000002 277.534875 184.68229687500002 Q 277.534875 185.74103125000002 277.534875 188.07026562500002 Q 277.534875 190.39950000000002 277.534875 191.03473437500003 Q 277.534875 191.66996875 277.534875 192.51696875000002 Q 277.534875 193.36396875000003 277.534875 194.84620312500002 Q 277.534875 196.3284375 277.74909375 197.175421875 Q 277.9633125 198.02240625000002 278.17751562499996 199.71639062500003 Q 278.39171875 201.41037500000002 278.39171875 202.25737500000002 Q 278.39171875 203.104375 278.39171875 204.79835937500002 Q 278.39171875 206.49234375 278.39171875 207.127578125 Q 278.39171875 207.76281250000002 278.820140625 209.03331250000002 Q 279.2485625 210.30381250000002 279.2485625 210.51556250000002 Q 279.2485625 210.7273125 279.2485625 211.15079687500003 L 279.2485625 211.58428125" stroke-linecap="round" />
</g>
		<g transform="matrix(1 0 0 1 112.62 -170.04)" id="ZCJwRE_I6FI0_6FgrqR3X"  >
<path style="stroke: rgb(0,0,0); stroke-width: 10; stroke-dasharray: none; stroke-linecap: round; stroke-dashoffset: 0; stroke-linejoin: round; stroke-miterlimit: 10; fill: none; fill-rule: nonzero; opacity: 1;" vector-effect="non-scaling-stroke"  transform=" translate(-432.62, -149.96)" d="M 452.7677499999999 148.463375 Q 452.75774999999993 148.473375 452.54353124999994 148.473375 Q 452.32931249999996 148.473375 450.4014375 148.89687500000002 Q 448.4735625 149.320375 446.11728125 149.320375 Q 443.761 149.320375 438.1915625 149.10862500000002 Q 432.6221249999999 148.89687500000002 431.12265625 148.89687500000002 Q 429.62318750000003 148.89687500000002 427.0526875 148.89687500000002 Q 424.48218749999995 148.89687500000002 423.41112499999997 148.89687500000002 Q 422.3400625 148.89687500000002 420.62640625 148.89687500000002 Q 418.91275 148.89687500000002 418.05590625 149.10862500000002 Q 417.1990625 149.320375 416.5564375 149.532125 Q 415.9138125 149.743875 414.84278125 150.167375 Q 413.77174999999994 150.590875 413.12912499999993 151.01437500000003 L 412.47649999999993 151.447875" stroke-linecap="round" />
</g>
		<g transform="matrix(1 0 0 1 105.81 -149.27)" id="-mY827w8MJ37gXWvcXNZi"  >
<path style="stroke: rgb(0,0,0); stroke-width: 10; stroke-dasharray: none; stroke-linecap: round; stroke-dashoffset: 0; stroke-linejoin: round; stroke-miterlimit: 10; fill: none; fill-rule: nonzero; opacity: 1;" vector-effect="non-scaling-stroke"  transform=" translate(-425.81, -170.73)" d="M 442.03731250000004 156.5198125 Q 442.04731250000003 156.5198125 442.26153125 156.5198125 Q 442.47575 156.5198125 442.90415624999997 156.5198125 Q 443.33256249999994 156.5198125 443.76096874999996 156.5198125 Q 444.189375 156.5198125 445.04621875 156.0963125 Q 445.9030625 155.67281250000002 446.33146875 155.46106250000003 Q 446.759875 155.2493125 447.61671875 152.92009375 Q 448.4735625 150.590875 448.90196875 148.68514062500003 Q 449.33037499999995 146.77940625000002 449.33037499999995 144.02668750000004 Q 449.33037499999995 141.27396875000002 449.11618749999997 140.42696875000001 Q 448.902 139.57996875 448.259375 137.6742421875 Q 447.61674999999997 135.76851562500002 447.1883125 134.9215234375 Q 446.759875 134.07453125 446.11725 133.0157890625 Q 445.474625 131.957046875 442.68990625 129.8395703125 Q 439.90518749999995 127.72209375000001 437.9773125 126.8751015625 Q 436.0494375 126.028109375 433.05053125 125.392859375 Q 430.051625 124.757609375 427.6953125 124.5458671875 Q 425.339 124.33412499999999 422.125875 124.5458671875 Q 418.91275 124.757609375 413.55753125 125.181109375 Q 408.2023125 125.60460937500001 405.846 126.0281015625 Q 403.4896875 126.45159374999999 401.77603125 126.87509374999999 Q 400.06237500000003 127.29859375 397.0634375 129.20432812500002 Q 394.0645 131.11006250000003 392.56503125 132.59229687500002 Q 391.0655625 134.07453125 388.49506249999996 137.4625 Q 385.9245624999999 140.85046875 384.63931249999996 142.54445312500002 Q 383.3540625 144.2384375 380.78356249999996 147.41465625 Q 378.2130624999999 150.590875 377.57043749999997 152.073109375 Q 376.9278125 153.55534375000002 376.499375 156.5198125 Q 376.07093749999996 159.48428125 376.28515624999994 161.39001562500002 Q 376.49937499999993 163.29575000000003 376.49937499999993 165.201484375 Q 376.49937499999993 167.10721875000002 376.71359375 170.28343750000002 Q 376.9278125 173.45965625000002 377.35621875 174.941890625 Q 377.78462499999995 176.424125 378.8556875 178.753359375 Q 379.92675 181.08259375 380.7835625 182.35307812500002 Q 381.640375 183.62356250000002 383.56828125 185.529296875 Q 385.49618749999996 187.43503125 386.56721875 188.493765625 Q 387.63825 189.5525 389.35190625 191.45823437500002 Q 391.0655625 193.36396875000003 391.7081875 194.210953125 Q 392.3508125 195.0579375 394.0645 196.751921875 Q 395.7781875 198.44590625 396.63503125 199.08115625 Q 397.491875 199.71640625 398.1345 200.35164062500002 Q 398.777125 200.98687500000003 401.13340625 202.46912500000002 Q 403.4896875 203.951375 404.34653125 204.58660937500002 Q 405.203375 205.22184375 407.13124999999997 206.49232812500003 Q 409.05912499999994 207.76281250000002 409.91596874999993 208.1863125 Q 410.77281249999993 208.6098125 411.84384374999996 209.03331250000002 Q 412.914875 209.4568125 413.34331249999997 209.6685625 Q 413.77174999999994 209.8803125 414.84278125 210.3038125 Q 415.9138125 210.7273125 416.5564375 210.93904687500003 Q 417.1990625 211.15078125000002 417.8416875 211.57428125 Q 418.48431249999993 211.99778125 419.55537499999997 212.42128125 Q 420.6264375 212.84478125 421.05484375 213.05653125 Q 421.48324999999994 213.26828125 422.34009374999994 213.69176562500002 Q 423.19693749999993 214.11525 423.83956249999994 214.327 Q 424.48218749999995 214.53875000000002 425.98165624999996 214.96225 Q 427.48112499999996 215.38575 428.55215625 215.80925000000002 Q 429.62318750000003 216.23275 432.40790625 216.65625 Q 435.19262499999996 217.07975000000002 436.477875 217.07975000000002 Q 437.763125 217.07975000000002 439.90521875 216.86800000000002 Q 442.04731250000003 216.65625000000003 443.11834375 216.65625000000003 Q 444.189375 216.65625000000003 445.26043749999997 216.4445 Q 446.33149999999995 216.23275 449.11621875 216.23275 Q 451.9009375 216.23275 453.61459375 216.02100000000002 Q 455.32824999999997 215.80925000000002 458.75559374999995 215.17400000000004 Q 462.1829374999999 214.53875000000002 463.46818749999994 214.327 Q 464.75343749999996 214.11525 466.46712499999995 213.26826562500003 Q 468.18081249999994 212.42128125000002 469.03762499999993 211.78603125 Q 469.8944374999999 211.15078125000002 470.75128125 210.515546875 Q 471.60812500000003 209.8803125 473.536 208.609828125 L 475.47387499999996 207.32934375000002" stroke-linecap="round" />
</g>
		<g transform="matrix(1 0 0 1 92.06 -167.08)" id="gKFA5gTMUyUpSSqV_A7Qe"  >
<path style="stroke: rgb(0,0,0); stroke-width: 10; stroke-dasharray: none; stroke-linecap: round; stroke-dashoffset: 0; stroke-linejoin: round; stroke-miterlimit: 10; fill: none; fill-rule: nonzero; opacity: 1;" vector-effect="non-scaling-stroke"  transform=" translate(-412.06, -152.92)" d="M 449.34037499999994 142.53443750000002 Q 449.33037499999995 142.54443750000002 449.11618749999997 143.3914375 Q 448.902 144.2384375 448.47356249999996 144.66193750000002 Q 448.0451249999999 145.0854375 446.75987499999997 146.77940625000002 Q 445.474625 148.473375 444.6178125 149.10862500000002 Q 443.761 149.743875 441.19046875 151.22610937500002 Q 438.61993749999993 152.70834375 437.3346875 153.34359375000003 Q 436.0494375 153.97884375 434.33578124999997 154.614078125 Q 432.6221249999999 155.2493125 431.9795 155.46106250000003 Q 431.336875 155.67281250000002 430.48003125 155.88456250000002 Q 429.62318750000003 156.0963125 428.12371875 156.5198125 Q 426.62425 156.94331250000002 425.76740625 157.1550625 Q 424.9105625 157.3668125 423.6253125 157.79031250000003 Q 422.3400625 158.21381250000002 421.6974375 158.425546875 Q 421.05481249999997 158.63728125 419.76956249999995 159.06078125 Q 418.48431249999993 159.48428125 417.62746874999993 159.69603125000003 Q 416.77062499999994 159.90778125000003 415.485375 160.11953125000002 Q 414.200125 160.33128125000002 411.20121875 160.54303125 Q 408.2023125 160.75478125 406.70284375 160.75478125 Q 405.203375 160.75478125 402.8470625 160.75478125 Q 400.49075 160.75478125 399.6339375 160.96653125 Q 398.777125 161.17828125000003 397.0634375 161.60176562500004 Q 395.34975000000003 162.02525000000003 394.4929375 162.23700000000002 Q 393.63612499999994 162.44875000000002 391.49403125 162.6605 Q 389.3519375 162.87225 388.280875 163.084 Q 387.20981249999994 163.29575000000003 385.49615624999996 163.29575000000003 Q 383.78249999999997 163.29575000000003 383.13987499999996 163.084 Q 382.49724999999995 162.87225 381.85462499999994 162.6605 Q 381.21199999999993 162.44875000000002 380.14093749999995 162.23700000000002 Q 379.06987499999997 162.02525000000003 378.64146874999994 161.81350000000003 Q 378.2130624999999 161.60175 377.78465624999995 161.60175 Q 377.35625 161.60175 377.14203125 161.60175 Q 376.9278125 161.60175 376.499375 161.60175 Q 376.07093749999996 161.60175 375.85675 161.60175 Q 375.6425625 161.60175 375.21412499999997 161.178265625 L 374.77568749999995 160.74478125000002" stroke-linecap="round" />
</g>
		<g transform="matrix(1 0 0 1 -89.59 28.36)" id="KvqBi9FxzIyNSnS2LSz9-"  >
<path style="stroke: rgb(110,110,110); stroke-width: 10; stroke-dasharray: none; stroke-linecap: round; stroke-dashoffset: 0; stroke-linejoin: round; stroke-miterlimit: 10; fill: none; fill-rule: nonzero; opacity: 1;" vector-effect="non-scaling-stroke"  transform=" translate(-230.41, -348.36)" d="M 182.42615624999996 282.71162499999997 Q 182.42615624999996 282.72162499999996 182.42615624999996 283.14510937499995 Q 182.42615624999996 283.56859375 182.42615624999996 286.109578125 Q 182.42615624999996 288.6505625 182.42615624999996 290.344546875 Q 182.42615624999996 292.03853125 182.85456249999996 294.79125 Q 183.28296874999995 297.54396875 183.28296874999995 299.026203125 Q 183.28296874999995 300.5084375 183.28296874999995 303.68465625 Q 183.28296874999995 306.86087499999996 183.28296874999995 308.554859375 Q 183.28296874999995 310.24884375 183.49718749999997 312.578078125 Q 183.71140624999998 314.9073125 183.71140624999998 318.718765625 Q 183.71140624999998 322.53021875 183.71140624999998 324.43595312499997 Q 183.71140624999998 326.3416875 183.49718749999997 329.51790625 Q 183.28296874999995 332.694125 183.49718749999997 333.96462499999996 Q 183.71140624999998 335.235125 184.35403124999996 338.62309374999995 Q 184.99665624999994 342.0110625 185.21085937499996 343.91678125 Q 185.42506249999997 345.8225 185.42506249999997 348.99871874999997 Q 185.42506249999997 352.1749375 185.21085937499996 353.65718749999996 Q 184.99665624999994 355.1394375 184.78243749999996 356.833421875 Q 184.56821874999997 358.52740625 184.13981249999998 361.068375 Q 183.71140624999998 363.60934375 183.71140624999998 365.09157812499996 Q 183.71140624999998 366.5738125 184.13981249999998 369.75003125 Q 184.56821874999997 372.92625 184.78243749999996 374.40848437499994 Q 184.99665624999994 375.89071874999996 185.42506249999997 378.21995312499996 Q 185.85346875 380.5491875 186.06768749999998 381.81967187500004 Q 186.28190624999996 383.09015625 186.49610937499997 385.419390625 Q 186.7103125 387.748625 186.92453124999997 388.80735937500003 Q 187.13874999999996 389.86609375 188.20978124999996 391.983578125 Q 189.28081249999997 394.1010625 189.92345312499998 395.159796875 Q 190.56609375 396.21853125 190.9945 397.06553125 Q 191.42290624999998 397.91253125 192.27974999999998 399.18301562499994 Q 193.13659374999997 400.45349999999996 193.56499999999997 401.08875 Q 193.99340624999996 401.724 194.63604687499998 402.78271874999996 Q 195.2786875 403.8414375 195.49289062499997 404.2649375 Q 195.70709374999996 404.68843749999996 196.77814062499996 405.53543749999994 Q 197.84918749999997 406.3824375 198.49181249999998 406.8059375 Q 199.1344375 407.2294375 200.41968749999998 408.0764375 Q 201.70493749999997 408.9234375 202.34756249999998 409.34690624999996 Q 202.9901875 409.770375 203.63281249999997 410.193875 Q 204.27543749999995 410.617375 207.48857812499998 411.25262499999997 Q 210.70171875 411.887875 212.62959375 412.099625 Q 214.55746875 412.311375 217.55639062499998 412.946625 Q 220.55531249999996 413.58187499999997 221.84057812499995 413.793625 Q 223.12584374999994 414.005375 225.05371874999994 414.005375 Q 226.98159374999994 414.005375 228.05264062499995 414.005375 Q 229.12368749999996 414.005375 232.55103124999997 413.58187499999997 Q 235.97837499999997 413.158375 237.90624999999997 412.946625 Q 239.83412499999997 412.734875 241.54779687499996 412.523125 Q 243.26146874999995 412.311375 245.40354687499996 411.887875 Q 247.54562499999997 411.464375 248.61667187499998 411.25262499999997 Q 249.68771875 411.04087499999997 251.82981249999997 410.19390624999994 Q 253.97190624999996 409.34693749999997 254.82873437499995 408.9234375 Q 255.68556249999995 408.4999375 257.399234375 407.2294375 Q 259.11290625 405.9589375 259.75554687499994 405.3236875 Q 260.39818749999995 404.68843749999996 261.46921875 403.41796875 Q 262.54024999999996 402.1475 263.18287499999997 401.51225 Q 263.8255 400.877 264.25392187499995 400.03 Q 264.68234375 399.183 265.96759375 397.91251562499997 Q 267.25284374999995 396.64203125 267.89548437499997 396.00678125 Q 268.538125 395.37153125 269.60915624999996 393.67754687499996 Q 270.6801875 391.9835625 271.32281249999994 391.34832812499997 Q 271.96543749999995 390.71309375 272.82228124999995 389.01910937499997 Q 273.679125 387.325125 273.893328125 386.68987500000003 Q 274.10753124999997 386.054625 274.75015625 384.148890625 Q 275.39278125 382.24315624999997 275.60699999999997 381.396171875 Q 275.82121874999996 380.5491875 276.035421875 378.431703125 Q 276.249625 376.31421875 276.249625 375.25548437500004 Q 276.249625 374.19675 276.46384374999997 373.34975 Q 276.67806249999995 372.50275 277.10646875 370.597015625 Q 277.534875 368.69128125 277.74909375 367.42079687499995 Q 277.9633125 366.1503125 278.17751562499996 364.03284375 Q 278.39171875 361.915375 278.39171875 360.64487499999996 Q 278.39171875 359.374375 278.17751562499996 356.83340625 Q 277.9633125 354.2924375 277.74909375 352.810203125 Q 277.534875 351.32796874999997 277.10646875 348.786984375 Q 276.67806249999995 346.246 276.46384374999997 345.187265625 Q 276.249625 344.12853125 276.249625 342.858046875 Q 276.249625 341.5875625 276.46384374999997 339.470078125 Q 276.67806249999995 337.35259375 276.67806249999995 336.50559375 Q 276.67806249999995 335.65859374999997 276.67806249999995 333.96462499999996 Q 276.67806249999995 332.27065625 276.46384374999997 330.78840625 Q 276.249625 329.30615625 275.821203125 326.7651875 Q 275.39278125 324.22421875 275.17857812499994 322.95373437499995 Q 274.96437499999996 321.68325 274.535953125 319.98926562500003 Q 274.10753124999997 318.29528125 274.10753124999997 317.66003125 Q 274.10753124999997 317.02478125 274.10753124999997 316.60128125 Q 274.10753124999997 316.17778125 274.535953125 315.33079687500003 Q 274.96437499999996 314.4838125 274.96437499999996 314.0603125 Q 274.96437499999996 313.63681249999996 275.39279687499993 312.57807812499993 Q 275.82121874999996 311.51934374999996 275.82121874999996 310.88409375 L 275.82121874999996 310.23884375" stroke-linecap="round" />
</g>
		<g transform="matrix(1 0 0 1 -94.95 -26.69)" id="kMH1QuLJVv7Yj2Y3mL2Xa"  >
<path style="stroke: rgb(101,99,99); stroke-width: 10; stroke-dasharray: none; stroke-linecap: round; stroke-dashoffset: 0; stroke-linejoin: round; stroke-miterlimit: 10; fill: none; fill-rule: nonzero; opacity: 1;" vector-effect="non-scaling-stroke"  transform=" translate(-225.05, -293.31)" d="M 180.70246874999998 338.18959375 Q 180.71246874999997 338.19959374999996 180.92667187499998 338.19959374999996 Q 181.140875 338.19959374999996 181.35509374999998 339.25832812499993 Q 181.56931249999997 340.31706249999996 181.56931249999997 340.95231249999995 Q 181.56931249999997 341.5875625 181.56931249999997 342.011046875 Q 181.56931249999997 342.43453124999996 181.56931249999997 343.28153124999994 Q 181.56931249999997 344.12853125 181.56931249999997 344.34028125 Q 181.56931249999997 344.55203124999997 181.35509374999998 344.76378124999997 Q 181.140875 344.97553125 177.49932812499998 344.97553125 Q 173.85778124999996 344.97553125 173.42935937499996 344.76378124999997 Q 173.00093749999996 344.55203124999997 171.92990624999996 344.12853125 Q 170.85887499999995 343.70503125 167.21731249999996 342.222796875 Q 163.57574999999997 340.7405625 162.29049999999998 340.3170625 Q 161.00525 339.8935625 158.86315624999997 338.83482812499994 Q 156.72106249999996 337.77609375 155.86423437499997 337.14084375 Q 155.00740624999997 336.50559375 154.36478124999996 335.65860937499997 Q 153.72215624999995 334.811625 151.79428124999995 332.694140625 Q 149.86640624999995 330.57665625 148.58114062499996 328.670921875 Q 147.29587499999997 326.76518749999997 145.58220312499998 323.16546874999995 Q 143.86853125 319.56575 143.44012499999997 318.29526562499996 Q 143.01171874999994 317.02478125 142.36909374999996 314.0603125 Q 141.72646874999998 311.09584375 141.51224999999997 310.24884375 Q 141.29803124999995 309.40184375 141.08382812499997 306.86087499999996 Q 140.86962499999998 304.31990625 140.86962499999998 302.625921875 Q 140.86962499999998 300.9319375 140.86962499999998 299.237953125 Q 140.86962499999998 297.54396875 141.29804687499998 294.79125 Q 141.72646874999998 292.03853125 141.94067187499996 290.97978125 Q 142.15487499999995 289.92103125 142.79749999999996 288.0153125 Q 143.44012499999997 286.10959375 143.86854687499996 285.26259374999995 Q 144.29696874999996 284.41559374999997 145.58221874999995 282.29810937499997 Q 146.86746874999994 280.18062499999996 147.51009374999995 278.91014062499994 Q 148.15271874999996 277.63965625 149.43796874999995 274.6751875 Q 150.72321874999994 271.71071875 151.36584374999995 270.440234375 Q 152.00846874999996 269.16974999999996 152.43689062499996 267.899265625 Q 152.86531249999996 266.62878125 154.79318749999996 264.087796875 Q 156.72106249999996 261.5468125 158.22053124999996 260.27632812499996 Q 159.71999999999997 259.00584375 163.14734374999998 257.311859375 Q 166.57468749999998 255.617875 167.85993749999997 255.406125 Q 169.14518749999996 255.194375 171.71570312499998 254.77087500000002 Q 174.28621875 254.34737500000003 175.785671875 254.13562500000003 Q 177.285125 253.92387500000004 181.569296875 252.86514062500004 Q 185.85346875 251.80640625000004 187.781359375 251.38290625000002 Q 189.70925 250.95940625 190.78029687499998 250.74765625 Q 191.85134374999996 250.53590625 194.20764062499995 249.900671875 Q 196.56393749999995 249.2654375 197.84918749999997 249.0536875 Q 199.1344375 248.8419375 201.27653124999998 248.4184375 Q 203.41862499999996 247.99493750000002 204.70387499999995 247.57143750000003 Q 205.98912499999994 247.14793750000004 209.84487499999994 246.30095312500004 Q 213.70062499999995 245.45396875000003 215.41429687499996 245.03046875 Q 217.12796874999998 244.60696875 220.34110937499997 244.18346875 Q 223.55424999999997 243.75996875 225.05370312499997 243.54823437500002 Q 226.55315624999997 243.33650000000003 230.40892187499998 243.12475000000003 Q 234.26468749999998 242.91300000000004 236.40678124999997 242.70125000000002 Q 238.54887499999995 242.4895 240.69095312499996 242.4895 Q 242.83303124999998 242.4895 245.40354687499996 242.066 Q 247.97406249999995 241.6425 249.04510937499995 241.6425 Q 250.11615624999996 241.6425 252.47245312499996 241.6425 Q 254.82874999999996 241.6425 255.89979687499996 241.6425 Q 256.97084375 241.6425 259.54134375 241.85425 Q 262.11184375 242.066 264.03971875 242.48950000000002 Q 265.96759375 242.91300000000004 269.39493749999997 243.33648437500003 Q 272.82228124999995 243.75996875 274.10753124999997 243.97171875 Q 275.39278125 244.18346875 276.67804687499995 244.60696875000002 Q 277.9633125 245.03046875000004 280.31960937499997 245.87746875000002 Q 282.67590624999997 246.72446875 283.96115624999993 247.359703125 Q 285.24640624999995 247.99493750000002 288.24532812499996 249.90067187500003 Q 291.24424999999997 251.80640625000004 292.74371874999997 252.65339062500001 Q 294.2431875 253.500375 296.8136875 255.61785937499997 Q 299.3841875 257.73534374999997 300.24103125 258.37059375 Q 301.097875 259.00584375 301.954703125 260.488078125 Q 302.81153125 261.9703125 303.23995312499994 262.817296875 Q 303.66837499999997 263.66428125 304.52520312499996 265.358265625 Q 305.38203124999995 267.05225 305.810453125 268.32275000000004 Q 306.23887499999995 269.59325 306.6672968749999 271.075484375 Q 307.09571874999995 272.55771875 307.95254687499994 275.94568749999996 Q 308.809375 279.33365625 309.02359375 280.604140625 Q 309.23781249999996 281.874625 309.23781249999996 283.780359375 Q 309.23781249999996 285.68609375 309.23781249999996 286.744828125 Q 309.23781249999996 287.8035625 309.02359375 289.921046875 Q 308.809375 292.03853125 308.809375 293.097265625 Q 308.809375 294.156 308.595171875 296.485234375 Q 308.38096874999997 298.81446875 308.16675 300.50845312499996 Q 307.95253125 302.2024375 307.95253125 303.896421875 Q 307.95253125 305.59040625 307.52412499999997 307.919625 Q 307.09571874999995 310.24884375 306.88149999999996 311.30759375 Q 306.66728125 312.36634375 306.02465624999996 314.4838125 Q 305.38203124999995 316.60128125 305.16782812499997 317.66003125 Q 304.953625 318.71878125 304.09678125 320.83625 Q 303.2399375 322.95371875 302.81153125 324.01246875000004 Q 302.38312499999995 325.07121875 301.52628124999995 326.976953125 Q 300.66943749999996 328.8826875 300.24101562499993 329.51792187499996 Q 299.81259374999996 330.15315625 299.598390625 330.78840625 Q 299.3841875 331.42365624999996 298.52735937499995 332.694140625 L 297.66053124999996 333.974625" stroke-linecap="round" />
</g>
		<g transform="matrix(1 0 0 1 -89.16 -42.14)" id="FieWmwNlHYfisd624SIks"  >
<path style="stroke: rgb(94,91,91); stroke-width: 10; stroke-dasharray: none; stroke-linecap: round; stroke-dashoffset: 0; stroke-linejoin: round; stroke-miterlimit: 10; fill: none; fill-rule: nonzero; opacity: 1;" vector-effect="non-scaling-stroke"  transform=" translate(-230.84, -277.86)" d="M 309.22781249999997 328.0456875 Q 309.23781249999996 328.0356875 309.45201562499994 327.6121875 Q 309.66621875 327.1886875 309.88042187499997 326.341703125 Q 310.09462499999995 325.49471875 310.30884374999994 322.3185 Q 310.5230625 319.14228125 310.5230625 317.236546875 Q 310.5230625 315.3308125 309.88043749999997 310.037109375 Q 309.23781249999996 304.74340624999996 308.595171875 302.20242187499997 Q 307.95253125 299.6614375 307.30990625 297.33221875 Q 306.66728125 295.003 306.02465624999996 290.97978125 Q 305.38203124999995 286.95656249999996 304.9536093749999 285.05082812499995 Q 304.52518749999996 283.14509375 303.2399375 279.968875 Q 301.9546875 276.79265625 301.097859375 275.098671875 Q 300.24103125 273.40468749999997 296.8136875 268.111 Q 293.38634375 262.8173125 291.45846874999995 260.27632812499996 Q 289.53059375 257.73534374999997 288.88795312499997 256.464859375 Q 288.24531249999995 255.194375 287.6026875 253.923890625 Q 286.9600625 252.65340625000002 285.88903125 250.747671875 Q 284.818 248.8419375 284.17535937499997 247.99493750000002 Q 283.53271874999996 247.14793750000004 281.81904687499997 245.03046875000004 Q 280.105375 242.91300000000004 278.82012499999996 241.64250000000004 Q 277.534875 240.37200000000004 274.75015625 238.04278125000002 Q 271.96543749999995 235.7135625 270.6801875 235.0783125 Q 269.39493749999997 234.44306250000002 267.4670625 233.59607812500002 Q 265.53918749999997 232.74909375000001 264.89656249999996 232.32559375 Q 264.25393749999995 231.90209375 263.39709374999995 231.47859375000002 Q 262.54024999999996 231.05509375000003 261.04079687499996 230.63160937500004 Q 259.54134374999995 230.20812500000002 258.89871874999994 229.996375 Q 258.25609375 229.784625 256.756625 229.36112500000002 Q 255.25715624999998 228.93762500000003 253.97190625 228.51412500000004 Q 252.68665625 228.09062500000002 249.2593125 227.87887500000002 Q 245.83196875 227.66712500000003 244.33249999999998 227.66712500000003 Q 242.83303124999998 227.66712500000003 240.04832812499998 227.66712500000003 Q 237.263625 227.66712500000003 236.19257812499998 227.66712500000003 Q 235.12153124999998 227.66712500000003 233.19364062499997 227.87887500000002 Q 231.26574999999997 228.09062500000002 229.98049999999998 228.09062500000002 Q 228.69525 228.09062500000002 227.19579687499998 228.09062500000002 Q 225.69634374999998 228.09062500000002 222.26899999999998 228.09062500000002 Q 218.84165624999997 228.09062500000002 216.91378124999997 228.51412500000004 Q 214.98590624999997 228.93762500000003 212.62959374999997 229.784609375 Q 210.27328124999997 230.63159375 209.41645312499998 231.05509375000003 Q 208.55962499999998 231.47859375000002 206.41753124999997 232.53734375000002 Q 204.27543749999995 233.59609375000002 202.99018749999996 234.231328125 Q 201.70493749999997 234.86656250000001 198.70601562499996 236.348796875 Q 195.70709374999996 237.83103125 193.56499999999997 238.67803125 Q 191.42290624999998 239.52503125 189.28082812499997 240.16026562500002 Q 187.13874999999996 240.79550000000003 184.13981249999998 242.06600000000003 Q 181.140875 243.33650000000003 179.85562499999997 243.971734375 Q 178.57037499999996 244.60696875 176.21407812499996 245.66571875 Q 173.85778124999996 246.72446875 172.35832812499996 247.359703125 Q 170.85887499999995 247.99493750000002 167.64573437499996 249.477171875 Q 164.43259374999997 250.95940625 162.71892187499998 251.80640625 Q 161.00525 252.65340625000002 158.86315624999997 254.347390625 Q 156.72106249999996 256.04137499999996 156.07843749999998 256.88835937499994 Q 155.4358125 257.73534374999997 155.00740624999997 258.58234374999995 Q 154.57899999999995 259.42934375 154.15057812499995 261.9703125 Q 153.72215624999995 264.51128124999997 153.29373437499996 265.993515625 Q 152.86531249999996 267.47575 152.43689062499996 270.228484375 Q 152.00846874999996 272.98121875 151.79426562499998 274.463453125 Q 151.5800625 275.94568749999996 151.36585937499999 278.48665625 Q 151.15165624999997 281.027625 151.15165624999997 281.874625 Q 151.15165624999997 282.72162499999996 151.58006249999997 284.62734374999997 Q 152.00846874999996 286.53306249999997 152.22268749999998 287.59181249999995 Q 152.43690625 288.6505625 152.43690625 290.556296875 Q 152.43690625 292.46203125 152.43690625 293.097265625 Q 152.43690625 293.7325 152.65110937499998 294.36775 Q 152.86531249999996 295.003 153.29373437499996 295.638234375 L 153.73215624999995 296.28346875" stroke-linecap="round" />
</g>
		<g transform="matrix(1 0 0 1 -37.97 -0.25)" id="hz48Nb1_3OYIH7kcaxtfX"  >
<path style="stroke: rgb(0,0,0); stroke-width: 10; stroke-dasharray: none; stroke-linecap: round; stroke-dashoffset: 0; stroke-linejoin: round; stroke-miterlimit: 10; fill: none; fill-rule: nonzero; opacity: 1;" vector-effect="non-scaling-stroke"  transform=" translate(-282.03, -319.75)" d="M 302.82153124999996 305.58040625 Q 302.81153125 305.59040625 302.16890624999996 306.225640625 Q 301.52628124999995 306.86087499999996 300.88365624999994 307.496125 Q 300.24103125 308.131375 298.95578125 309.613609375 Q 297.67053124999995 311.09584375 297.02789062499994 311.942828125 Q 296.38525 312.7898125 295.09999999999997 315.119046875 Q 293.81474999999995 317.44828125 293.17212499999994 318.71876562499995 Q 292.5295 319.98924999999997 291.886875 321.259734375 Q 291.24424999999997 322.53021875 289.95899999999995 324.22420312500003 Q 288.67375 325.9181875 288.245328125 326.5534375 Q 287.81690625 327.1886875 286.53165624999997 328.45917187500004 Q 285.24640624999995 329.72965625 284.8179843749999 330.15315625 Q 284.38956249999995 330.57665625 283.1043125 331.00015625 Q 281.8190625 331.42365624999996 280.748015625 331.63540624999996 Q 279.67696874999996 331.84715625 277.10646875 332.270640625 Q 274.53596875 332.694125 273.0365 332.905875 Q 271.53703125 333.117625 270.25178124999996 333.32937499999997 Q 268.96653124999995 333.54112499999997 267.4670625 333.752875 Q 265.96759375 333.964625 265.32496875 333.752875 Q 264.68234375 333.54112499999997 262.968671875 333.117625 L 261.245 332.684125" stroke-linecap="round" />
</g>
		<g transform="matrix(1 0 0 1 -58.53 -47.44)" id="U30KDpgq_opMSNiM4SJdp"  >
<path style="stroke: rgb(0,0,0); stroke-width: 10; stroke-dasharray: none; stroke-linecap: round; stroke-dashoffset: 0; stroke-linejoin: round; stroke-miterlimit: 10; fill: none; fill-rule: nonzero; opacity: 1;" vector-effect="non-scaling-stroke"  transform=" translate(-261.47, -272.56)" d="M 271.52703125 281.874625 Q 271.53703125 281.874625 271.75123437499997 281.874625 Q 271.96543749999995 281.874625 272.17965625 281.874625 Q 272.393875 281.874625 273.679125 281.662875 Q 274.96437499999996 281.451125 275.39279687499993 281.239375 Q 275.82121874999996 281.027625 276.249640625 279.333640625 Q 276.67806249999995 277.63965625 276.46384374999997 275.3104375 Q 276.249625 272.98121875 275.392796875 270.651984375 Q 274.53596875 268.32275 272.393875 265.78178125 Q 270.25178124999996 263.2408125 269.18073437499993 262.81731249999996 Q 268.10968749999995 262.39381249999997 265.75339062499995 261.5468125 Q 263.39709374999995 260.6998125 262.11184374999993 260.27632812499996 Q 260.82659375 259.85284375 258.470296875 259.42934375 Q 256.114 259.00584375 255.04295312499997 259.00584375 Q 253.97190624999996 259.00584375 251.61560937499996 259.42934375 Q 249.25931249999996 259.85284375 248.61668749999995 260.27632812499996 Q 247.97406249999995 260.6998125 247.11721874999995 261.3350625 Q 246.26037499999995 261.9703125 245.18934374999995 264.087796875 Q 244.11831249999994 266.20528125 244.11831249999994 267.26401562499996 Q 244.11831249999994 268.32275 244.97514062499997 270.651984375 Q 245.83196875 272.98121875 246.90301562499997 274.463453125 Q 247.97406249999995 275.94568749999996 249.90193749999995 278.48665625 Q 251.82981249999995 281.027625 252.90085937499995 281.874625 Q 253.97190624999996 282.72162499999996 255.68557812499998 283.992109375 Q 257.39925 285.26259375 258.256078125 285.47434375 Q 259.11290625 285.68609375 260.612375 285.89784375 Q 262.11184375 286.10959375 265.967609375 286.10959375 Q 269.823375 286.10959375 271.322828125 285.89784375 Q 272.82228124999995 285.68609375 274.750171875 285.05084375 Q 276.67806249999995 284.41559374999997 277.10646875 283.78034375 Q 277.534875 283.14509375 278.1775 281.662859375 Q 278.82012499999996 280.18062499999996 278.82012499999996 279.545390625 Q 278.82012499999996 278.91015625 276.89225 276.369171875 Q 274.96437499999996 273.8281875 273.250703125 272.345953125 Q 271.53703125 270.86371875 268.96653125 268.957984375 Q 266.39603124999996 267.05225 265.53918749999997 266.628765625 Q 264.68234375 266.20528125 263.825515625 265.78178125 Q 262.9686875 265.35828125 261.04079687499996 264.72303124999996 Q 259.11290625 264.08778125 258.256078125 264.08778125 Q 257.39925 264.08778125 255.89978125 264.29953125 Q 254.40031249999998 264.51128124999997 253.11506249999996 265.35828125 Q 251.82981249999995 266.20528125 251.40139062499995 266.628765625 Q 250.97296874999995 267.05225 250.33034374999997 267.6875 Q 249.68771875 268.32275 249.04509374999998 269.381484375 Q 248.40246874999997 270.44021875 248.18826562499996 271.07546875 Q 247.97406249999995 271.71071875 247.97406249999995 272.13421875 Q 247.97406249999995 272.55771875 248.83089062499997 273.82820312499996 Q 249.68771875 275.0986875 250.33034374999997 276.15742187499995 Q 250.97296874999995 277.21615625 252.04401562499996 278.698390625 Q 253.11506249999996 280.18062499999996 253.75768749999997 280.815875 Q 254.40031249999998 281.451125 255.471359375 281.874625 Q 256.54240625 282.29812499999997 257.18503124999995 282.29812499999997 Q 257.82765624999996 282.29812499999997 258.898703125 282.086375 Q 259.96975 281.874625 260.82659375 281.662875 Q 261.68343749999997 281.451125 262.3260625 281.239375 Q 262.9686875 281.027625 263.825515625 280.60412499999995 Q 264.68234375 280.18062499999996 264.68234375 279.968890625 Q 264.68234375 279.75715625 264.25392187499995 278.48665625 Q 263.8255 277.21615625 263.39709374999995 276.58092187499994 Q 262.9686875 275.94568749999996 261.25501562499994 274.25170312499995 Q 259.54134374999995 272.55771875 258.89871874999994 271.92246875 Q 258.25609375 271.28721874999997 256.97082812499997 270.440234375 Q 255.68556249999995 269.59325 255.25715624999995 269.38149999999996 Q 254.82874999999996 269.16974999999996 254.40032812499996 269.16974999999996 Q 253.97190624999996 269.16974999999996 253.54348437499996 269.16974999999996 L 253.10506249999997 269.16974999999996" stroke-linecap="round" />
</g>
		<g transform="matrix(1 0 0 1 -122.4 -44.72)" id="AVB0SqnuNDvJX2Kc7U5C1"  >
<path style="stroke: rgb(0,0,0); stroke-width: 10; stroke-dasharray: none; stroke-linecap: round; stroke-dashoffset: 0; stroke-linejoin: round; stroke-miterlimit: 10; fill: none; fill-rule: nonzero; opacity: 1;" vector-effect="non-scaling-stroke"  transform=" translate(-197.6, -275.28)" d="M 208.56962499999997 283.55859375 Q 208.55962499999998 283.56859375 208.34542187499997 283.56859375 Q 208.13121874999996 283.56859375 206.20332812499996 284.20384375 Q 204.27543749999995 284.83909374999996 203.20439062499997 285.05084375 Q 202.13334375 285.26259375 200.84809374999998 285.47434375 Q 199.56284374999996 285.68609375 197.63496874999996 285.47434375 Q 195.70709374999996 285.26259375 193.77921874999996 285.26259375 Q 191.85134374999996 285.26259375 189.06662499999996 284.83909374999996 Q 186.28190624999996 284.41559374999997 185.21085937499996 284.41559374999997 Q 184.13981249999995 284.41559374999997 183.28298437499996 284.20384375 Q 182.42615624999996 283.99209375 182.21193749999998 283.78034375 Q 181.99771875 283.56859375 181.569296875 283.14510937499995 Q 181.140875 282.72162499999996 180.92667187499998 282.29812499999997 Q 180.71246874999997 281.874625 180.71246874999997 281.239375 Q 180.71246874999997 280.604125 182.42614062499996 278.48665625 Q 184.13981249999995 276.3691875 185.42506249999997 275.0986875 Q 186.7103125 273.8281875 189.06660937499998 271.922453125 Q 191.42290624999998 270.01671875 192.493953125 269.16973437499996 Q 193.565 268.32275 195.921296875 267.052265625 Q 198.27759375 265.78178125 199.56284374999998 265.35828125 Q 200.84809374999998 264.93478125 202.99018749999996 264.93478125 Q 205.13228124999995 264.93478125 206.20332812499996 265.35828125 Q 207.27437499999996 265.78178125 209.20224999999996 266.628765625 Q 211.13012499999996 267.47575 211.98696874999996 268.111 Q 212.84381249999996 268.74625 213.27221874999995 269.16975 Q 213.70062499999995 269.59325 214.12904687499997 270.440234375 Q 214.55746875 271.28721874999997 214.343265625 271.71071874999996 Q 214.12906249999997 272.13421875 212.62959374999997 273.616453125 Q 211.13012499999996 275.0986875 210.27329687499997 275.7339375 Q 209.41646874999998 276.3691875 207.70279687499996 277.851421875 Q 205.98912499999994 279.33365625 205.13228124999995 279.968890625 Q 204.27543749999995 280.604125 202.77598437499995 281.451125 Q 201.27653124999995 282.29812499999997 200.41968749999995 282.50987499999997 Q 199.56284374999996 282.72162499999996 197.84917187499997 282.50987499999997 Q 196.13549999999998 282.29812499999997 195.49287499999997 282.086375 Q 194.85024999999996 281.874625 194.20762499999998 281.662875 Q 193.565 281.451125 193.350796875 281.239375 Q 193.13659374999997 281.027625 192.92237499999996 280.815875 Q 192.70815624999994 280.604125 192.70815624999994 279.75714062500003 Q 192.70815624999994 278.91015625 192.92237499999996 278.27490624999996 Q 193.13659374999997 277.63965625 193.77921874999998 276.58092187499994 Q 194.42184375 275.5221875 194.850265625 275.0986875 Q 195.2786875 274.6751875 196.56393749999998 273.82820312499996 Q 197.84918749999997 272.98121875 198.49181249999998 272.76946875 Q 199.1344375 272.55771875 199.562859375 272.34596875 Q 199.99128125 272.13421875 200.84810937499998 272.13421875 Q 201.70493749999997 272.13421875 201.49073437499996 272.13421875 Q 201.27653124999995 272.13421875 200.20548437499997 272.981203125 Q 199.1344375 273.8281875 198.27759375 274.0399375 Q 197.42075 274.2516875 196.56392187499998 274.4634375 Q 195.70709374999996 274.6751875 193.99342187499997 275.3104375 L 192.26975 275.95568749999995" stroke-linecap="round" />
</g>
		<g transform="matrix(1 0 0 1 -76.09 -0.86)" id="Aw-suE5-ToM0v5VIlZzAS"  >
<path style="stroke: rgb(120,117,117); stroke-width: 10; stroke-dasharray: none; stroke-linecap: round; stroke-dashoffset: 0; stroke-linejoin: round; stroke-miterlimit: 10; fill: none; fill-rule: nonzero; opacity: 1;" vector-effect="non-scaling-stroke"  transform=" translate(-243.91, -319.14)" d="M 254.83874999999995 299.6514375 Q 254.82874999999996 299.6614375 253.97190624999996 300.5084375 Q 253.11506249999996 301.3554375 252.04401562499996 301.9906875 Q 250.97296874999995 302.62593749999996 249.68771874999996 303.472921875 Q 248.40246874999997 304.31990625 246.26039062499996 306.225640625 Q 244.11831249999994 308.131375 243.04726562499997 308.97835937499997 Q 241.97621875 309.82534375 241.119375 311.09584375 Q 240.26253125 312.36634375 238.97728124999998 314.6955625 Q 237.69203124999996 317.02478125 237.04940624999998 318.08353124999996 Q 236.40678125 319.14228125 235.54993749999997 321.25975 Q 234.69309374999995 323.37721875 234.26468749999995 324.43596875000003 Q 233.83628124999996 325.49471875 233.40785937499996 327.8239375 Q 232.97943749999996 330.15315625 232.97943749999996 331.21190624999997 Q 232.97943749999996 332.27065625 232.97943749999996 332.905890625 Q 232.97943749999996 333.54112499999997 232.97943749999996 334.811609375 Q 232.97943749999996 336.08209375 233.19364062499997 336.71734375 Q 233.40784374999998 337.35259375 233.62206249999997 337.77609375 Q 233.83628124999996 338.19959374999996 234.05048437499997 338.41134375 L 234.27468749999997 338.63309375" stroke-linecap="round" />
</g>
		<g transform="matrix(1 0 0 1 -117.87 -1.91)" id="GbT5-XRT9GUp-uzh6xMsq"  >
<path style="stroke: rgb(142,139,139); stroke-width: 10; stroke-dasharray: none; stroke-linecap: round; stroke-dashoffset: 0; stroke-linejoin: round; stroke-miterlimit: 10; fill: none; fill-rule: nonzero; opacity: 1;" vector-effect="non-scaling-stroke"  transform=" translate(-202.13, -318.09)" d="M 206.83596875 333.12762499999997 Q 206.84596875 333.117625 207.06017187499998 332.482390625 Q 207.27437499999996 331.84715625 207.48857812499998 331.00015625000003 Q 207.70278125 330.15315625 207.91699999999997 328.882671875 Q 208.13121874999996 327.6121875 208.13121874999996 326.129953125 Q 208.13121874999996 324.64771874999997 207.91699999999997 321.895 Q 207.70278125 319.14228125 207.48857812499998 317.87178125 Q 207.27437499999996 316.60128125 206.84595312499997 314.907296875 Q 206.41753124999997 313.2133125 206.41753124999997 312.366328125 Q 206.41753124999997 311.51934374999996 205.98910937499997 310.24885937499994 Q 205.56068749999997 308.97837499999997 205.13228124999998 308.343125 Q 204.70387499999998 307.707875 204.06124999999997 306.860890625 Q 203.41862499999996 306.01390625 202.99020312499997 305.59040625 Q 202.56178124999997 305.16690625 202.13335937499997 304.74340625 Q 201.70493749999997 304.31990625 201.27651562499997 303.89640625 Q 200.84809374999998 303.47290625 200.63389062499996 303.26115625 Q 200.41968749999995 303.04940625 199.99126562499995 303.04940625 Q 199.56284374999996 303.04940625 199.34864062499997 303.04940625 Q 199.1344375 303.04940625 198.706015625 303.04940625 Q 198.27759375 303.04940625 198.06339062499998 303.04940625 Q 197.84918749999997 303.04940625 197.42076562499997 303.04940625 Q 196.99234374999997 303.04940625 196.56392187499998 303.04940625 L 196.1255 303.04940625" stroke-linecap="round" />
</g>
		<g transform="matrix(1 0 0 1 -95.8 67.75)" id="SZz1KTLl4vWcq-hlkiIlP"  >
<path style="stroke: rgb(0,0,0); stroke-width: 10; stroke-dasharray: none; stroke-linecap: round; stroke-dashoffset: 0; stroke-linejoin: round; stroke-miterlimit: 10; fill: none; fill-rule: nonzero; opacity: 1;" vector-effect="non-scaling-stroke"  transform=" translate(-224.2, -387.75)" d="M 253.5435 399.193 Q 253.5435 399.183 253.5435 398.97125 Q 253.5435 398.7595 253.5435 397.70076562500003 Q 253.5435 396.64203125 253.5435 395.583296875 Q 253.5435 394.5245625 253.32928124999998 392.618828125 Q 253.11506249999996 390.71309375 252.47243749999996 387.32512499999996 Q 251.82981249999995 383.93715625 251.40139062499995 382.45492187499997 Q 250.97296874999995 380.9726875 250.54456249999996 379.066953125 Q 250.11615624999996 377.16121875 249.90193749999997 376.31421875 Q 249.68771875 375.46721875 249.04509374999998 374.196734375 Q 248.40246874999997 372.92625 247.97404687499997 372.50275 Q 247.54562499999997 372.07925 246.47459374999997 371.02051562500003 Q 245.40356249999996 369.96178125 244.76093749999995 369.53828124999995 Q 244.11831249999994 369.11478124999996 242.83304687499995 368.479546875 Q 241.54778124999996 367.8443125 241.33357812499997 367.8443125 Q 241.119375 367.8443125 240.90517187499998 367.8443125 Q 240.69096874999997 367.8443125 240.26254687499997 367.8443125 Q 239.83412499999997 367.8443125 239.61990624999999 368.0560625 Q 239.4056875 368.2678125 238.97728124999998 368.2678125 Q 238.54887499999995 368.2678125 238.12045312499995 368.479546875 Q 237.69203124999996 368.69128125 236.83520312499996 369.11478124999996 Q 235.97837499999997 369.53828125 235.33573437499996 369.53828125 Q 234.69309374999995 369.53828125 232.97942187499996 369.75003125 Q 231.26574999999997 369.96178125 230.40892187499998 369.96178125 Q 229.55209374999998 369.96178125 228.48104687499998 370.17353125 Q 227.40999999999997 370.38528125 225.48212499999997 370.80878125 Q 223.55424999999997 371.23228124999997 222.26899999999998 371.44403124999997 Q 220.98375 371.65578125 218.84165624999997 372.079265625 Q 216.69956249999996 372.50275 216.05693749999998 372.7145 Q 215.4143125 372.92625 214.343265625 373.34975 Q 213.27221874999998 373.77324999999996 212.84379687499998 373.985 Q 212.41537499999998 374.19675 211.98696875 374.62025 Q 211.5585625 375.04375 211.34434374999998 375.467234375 Q 211.13012499999996 375.89071874999996 210.91592187499998 376.10246874999996 Q 210.70171875 376.31421875 210.70171875 376.73771875 Q 210.70171875 377.16121875 210.70171875 377.58471875 Q 210.70171875 378.00821874999997 210.70171875 378.431703125 Q 210.70171875 378.8551875 210.70171875 379.0669375 Q 210.70171875 379.2786875 210.70171875 379.7021875 Q 210.70171875 380.12568749999997 210.70171875 380.33743749999996 Q 210.70171875 380.5491875 210.70171875 380.9726875 Q 210.70171875 381.3961875 210.70171875 381.1844375 Q 210.70171875 380.9726875 210.48749999999998 380.7609375 Q 210.27328124999997 380.5491875 209.84487499999997 379.70218750000004 Q 209.41646874999998 378.8551875 209.20224999999996 378.431703125 Q 208.98803124999995 378.00821874999997 208.13120312499996 376.73771875 Q 207.27437499999996 375.46721875 207.06017187499998 375.043734375 Q 206.84596875 374.62025 206.41754687499997 373.985 Q 205.98912499999994 373.34975 205.56070312499995 372.502765625 Q 205.13228124999995 371.65578125 204.91807812499997 371.23228125 Q 204.70387499999998 370.80878125 204.06124999999997 370.17353125 Q 203.41862499999996 369.53828125 203.20440624999998 369.32653125 Q 202.9901875 369.11478124999996 202.77598437499998 368.90303124999997 Q 202.56178124999997 368.69128125 202.34756249999998 368.69128125 Q 202.13334375 368.69128125 201.70493749999997 368.69128125 Q 201.27653124999995 368.69128125 201.06231249999996 368.69128125 Q 200.84809374999998 368.69128125 200.41968749999998 368.69128125 Q 199.99128125 368.69128125 199.77706249999997 368.69128125 Q 199.56284374999996 368.69128125 199.13443749999996 369.11478124999996 Q 198.70603124999997 369.53828125 198.49181249999998 369.75003125 Q 198.27759375 369.96178125 197.849171875 370.38528125 Q 197.42075 370.80878125 197.206546875 371.02053125 Q 196.99234374999997 371.23228124999997 196.77814062499996 371.44403124999997 Q 196.56393749999995 371.65578125 196.13551562499995 372.502765625 Q 195.70709374999996 373.34975 195.49289062499997 373.77324999999996 Q 195.2786875 374.19675 195.06446874999997 375.043734375 Q 194.85024999999996 375.89071874999996 194.85024999999996 376.31421875 Q 194.85024999999996 376.73771875 194.85024999999996 377.79645312499997 Q 194.85024999999996 378.8551875 194.85024999999996 379.4904375 Q 194.85024999999996 380.12568749999997 195.27867187499996 380.97267187499995 Q 195.70709374999996 381.81965625 195.92129687499997 382.24315624999997 Q 196.13549999999998 382.66665625 196.34971874999997 383.51365625 Q 196.56393749999995 384.36065625 196.56393749999995 386.054640625 Q 196.56393749999995 387.748625 196.77814062499996 388.383859375 Q 196.99234374999997 389.01909374999997 196.99234374999997 389.86609375 Q 196.99234374999997 390.71309375 196.99234374999997 391.136578125 Q 196.99234374999997 391.5600625 197.42076562499997 392.4070625 Q 197.84918749999997 393.2540625 197.84918749999997 393.6775625 Q 197.84918749999997 394.1010625 198.06339062499998 395.159796875 Q 198.27759375 396.21853125 198.49181249999998 396.64203125 Q 198.70603124999997 397.06553125 198.92023437499998 397.91251562499997 Q 199.1344375 398.7595 199.34864062499997 399.183 Q 199.56284374999996 399.6065 199.56284374999996 399.81825 Q 199.56284374999996 400.03 199.99126562499995 400.87699999999995 Q 200.41968749999995 401.724 200.41968749999995 401.93575 Q 200.41968749999995 402.1475 200.63389062499996 402.57096875 Q 200.84809374999998 402.9944375 201.06231249999996 403.2061875 Q 201.27653124999995 403.4179375 201.27653124999995 403.8414375 Q 201.27653124999995 404.2649375 201.49073437499996 404.47668749999997 Q 201.70493749999997 404.68843749999996 201.91914062499998 405.11193749999995 Q 202.13334375 405.5354375 202.34756249999998 405.7471875 Q 202.56178124999997 405.9589375 203.20440624999998 406.8059375 L 203.85703124999998 407.6629375" stroke-linecap="round" />
</g>
		<g transform="matrix(1 0 0 1 -95.38 69.44)" id="JUApR0Fbu-AOpfqThBDEj"  >
<path style="stroke: rgb(0,0,0); stroke-width: 10; stroke-dasharray: none; stroke-linecap: round; stroke-dashoffset: 0; stroke-linejoin: round; stroke-miterlimit: 10; fill: none; fill-rule: nonzero; opacity: 1;" vector-effect="non-scaling-stroke"  transform=" translate(-224.62, -389.44)" d="M 221.83056249999998 372.06925 Q 221.84056249999998 372.07925 221.84056249999998 372.50275 Q 221.84056249999998 372.92625 222.05478124999996 374.40848437499994 Q 222.26899999999995 375.89071874999996 222.48320312499996 376.94946874999994 Q 222.69740624999997 378.00821874999997 223.12582812499997 379.702203125 Q 223.55424999999997 381.3961875 223.76845312499998 382.031421875 Q 223.98265625 382.66665625 224.411078125 383.937140625 Q 224.8395 385.207625 225.05370312499997 385.842875 Q 225.26790624999995 386.478125 225.48212499999997 387.748609375 Q 225.69634374999998 389.01909374999997 225.69634374999998 389.65434374999995 Q 225.69634374999998 390.28959375 225.69634374999998 390.924828125 Q 225.69634374999998 391.5600625 225.91054687499997 392.6188125 Q 226.12474999999995 393.67756249999996 226.33895312499996 394.312796875 Q 226.55315624999997 394.94803125 226.76737499999996 396.00678125 Q 226.98159374999994 397.06553125 226.98159374999994 397.70076562500003 Q 226.98159374999994 398.336 226.98159374999994 399.39475 Q 226.98159374999994 400.45349999999996 226.98159374999994 401.08875 Q 226.98159374999994 401.724 226.98159374999994 402.57096875 Q 226.98159374999994 403.4179375 226.98159374999994 403.8414375 Q 226.98159374999994 404.2649375 227.19579687499996 404.9001875 Q 227.40999999999997 405.5354375 227.40999999999997 405.7471875 Q 227.40999999999997 405.9589375 227.40999999999997 406.3824375 L 227.40999999999997 406.81593749999996" stroke-linecap="round" />
</g>
		<g transform="matrix(1 0 0 1 -72.25 59.92)" id="GwnTEnANaZYt8d5xjlRcc"  >
<path style="stroke: rgb(0,0,0); stroke-width: 10; stroke-dasharray: none; stroke-linecap: round; stroke-dashoffset: 0; stroke-linejoin: round; stroke-miterlimit: 10; fill: none; fill-rule: nonzero; opacity: 1;" vector-effect="non-scaling-stroke"  transform=" translate(-247.75, -379.92)" d="M 235.96837499999998 371.64578125 Q 235.97837499999997 371.65578125 236.83520312499996 371.65578125 Q 237.69203124999996 371.65578125 238.33465624999997 371.867515625 Q 238.97728124999998 372.07925 240.69095312499996 372.50275 Q 242.40462499999995 372.92625 243.04724999999996 372.92625 Q 243.68987499999997 372.92625 244.54671874999997 372.7145 Q 245.40356249999996 372.50275 245.61776562499998 372.291 Q 245.83196875 372.07925 246.68879687499998 371.65576562499996 Q 247.54562499999997 371.23228124999997 247.97404687499997 371.02053125 Q 248.40246874999997 370.80878125 249.04509374999998 370.80878125 Q 249.68771875 370.80878125 250.75876562499997 370.59703125 Q 251.82981249999995 370.38528125 252.25823437499997 370.38528125 Q 252.68665625 370.38528125 253.543484375 370.38528125 Q 254.40031249999998 370.38528125 254.82873437499998 370.38528125 Q 255.25715624999998 370.38528125 256.114 370.38528125 Q 256.97084375 370.38528125 257.185046875 370.38528125 Q 257.39925 370.38528125 257.82767187499996 370.38528125 Q 258.25609375 370.38528125 258.470296875 370.59703125 Q 258.68449999999996 370.80878125 258.898703125 370.80878125 Q 259.11290625 370.80878125 259.11290625 371.02053125 Q 259.11290625 371.23228124999997 259.32712499999997 372.07926562499995 Q 259.54134374999995 372.92625 259.54134374999995 373.34975 Q 259.54134374999995 373.77324999999996 259.54134374999995 375.043734375 Q 259.54134374999995 376.31421875 259.54134374999995 376.94946875 Q 259.54134374999995 377.58471875 259.32712499999997 379.066953125 Q 259.11290625 380.5491875 258.898703125 381.184421875 Q 258.68449999999996 381.81965625 258.470296875 383.513640625 Q 258.25609375 385.207625 258.25609375 386.054625 Q 258.25609375 386.90162499999997 258.25609375 387.536875 Q 258.25609375 388.172125 257.82767187499996 388.80735937500003 L 257.38925 389.45259375" stroke-linecap="round" />
</g>
		<g transform="matrix(1 0 0 1 -57.89 48.69)" id="QtPkmYF546-c-XrnV2Qr2"  >
<path style="stroke: rgb(0,0,0); stroke-width: 10; stroke-dasharray: none; stroke-linecap: round; stroke-dashoffset: 0; stroke-linejoin: round; stroke-miterlimit: 10; fill: none; fill-rule: nonzero; opacity: 1;" vector-effect="non-scaling-stroke"  transform=" translate(-262.11, -368.69)" d="M 251.81981249999995 369.53828125 Q 251.82981249999995 369.53828125 252.25823437499997 369.53828125 Q 252.68665625 369.53828125 252.90085937499998 369.53828125 Q 253.11506249999996 369.53828125 253.75768749999997 369.53828125 Q 254.40031249999998 369.53828125 254.82873437499998 369.53828125 Q 255.25715624999998 369.53828125 255.89978125 369.53828125 Q 256.54240625 369.53828125 256.970828125 369.53828125 Q 257.39925 369.53828125 257.82767187499996 369.53828125 Q 258.25609375 369.53828125 258.68449999999996 369.53828125 Q 259.11290625 369.53828125 259.32712499999997 369.53828125 Q 259.54134374999995 369.53828125 259.9697656249999 369.53828125 Q 260.39818749999995 369.53828125 260.612390625 369.53828125 Q 260.82659375 369.53828125 261.25501562499994 369.32653125 Q 261.68343749999997 369.11478124999996 262.11184374999993 368.90303124999997 Q 262.54024999999996 368.69128125 263.39709374999995 368.69128125 Q 264.25393749999995 368.69128125 264.6823593749999 368.479546875 Q 265.11078124999995 368.2678125 265.53918749999997 368.2678125 Q 265.96759375 368.2678125 267.03864062499997 368.2678125 Q 268.10968749999995 368.2678125 268.538109375 368.2678125 Q 268.96653124999995 368.2678125 269.823359375 368.2678125 Q 270.6801875 368.2678125 271.108609375 368.2678125 Q 271.53703125 368.2678125 271.96545312499995 368.0560625 L 272.40387499999997 367.8343125" stroke-linecap="round" />
</g>
		<g transform="matrix(1 0 0 1 -223.04 171.9)" id="CGavjn_RrC1_g8TycgVWQ"  >
<path style="stroke: rgb(0,0,0); stroke-width: 10; stroke-dasharray: none; stroke-linecap: round; stroke-dashoffset: 0; stroke-linejoin: round; stroke-miterlimit: 10; fill: none; fill-rule: nonzero; opacity: 1;" vector-effect="non-scaling-stroke"  transform=" translate(-96.96, -491.9)" d="M 139.1459375 505.4905 Q 139.1559375 505.4805 139.37015624999998 505.057 Q 139.58437499999997 504.6335 140.01278124999996 502.30428125000003 Q 140.44118749999996 499.97506250000004 140.22698437499997 497.64581250000003 Q 140.01278125 495.31656250000003 139.15595312499997 488.54065625 Q 138.29912499999995 481.76475 137.65649999999997 479.012 Q 137.01387499999998 476.25925 134.87178124999997 471.8125625 Q 132.72968749999995 467.365875 130.58759374999997 464.18965625 Q 128.44549999999998 461.0134375 126.73182812499996 458.8959375 Q 125.01815624999995 456.7784375 121.37660937499996 453.39046874999997 Q 117.73506249999997 450.0025 115.16456249999996 448.94378125000003 Q 112.59406249999995 447.8850625 107.45304687499996 446.8263125 Q 102.31203124999996 445.7675625 100.59835937499997 445.7675625 Q 98.88468749999998 445.7675625 95.45734374999998 446.1910625 Q 92.02999999999997 446.6145625 89.45949218749998 447.24981249999996 Q 86.88898437499998 447.8850625 81.96217968749997 449.79078125 Q 77.03537499999996 451.6965 75.32170312499997 452.967 Q 73.60803124999998 454.2375 72.10857031249998 455.93146875 Q 70.60910937499997 457.6254375 68.03860156249998 461.01340625 Q 65.46809374999998 464.401375 63.968632812499976 466.73059374999997 Q 62.46917187499997 469.05981249999996 59.684453124999976 474.56528125 Q 56.89973437499998 480.07075 56.25710937499997 482.82346874999996 Q 55.61448437499996 485.5761875 54.75764843749997 490.446375 Q 53.90081249999997 495.31656250000003 53.68660156249997 497.2223125 Q 53.472390624999974 499.12806249999994 54.11502343749997 503.15128124999995 Q 54.75765624999997 507.17449999999997 55.61449218749996 509.08021875 Q 56.47132812499996 510.9859375 57.54236718749996 513.10340625 Q 58.61340624999997 515.220875 61.183914062499966 518.82059375 Q 63.75442187499996 522.4203125 64.82546874999997 523.4790625 Q 65.89651562499998 524.5378125 68.68122656249997 527.07878125 Q 71.46593749999997 529.61975 73.60803124999997 531.102 Q 75.75012499999997 532.58425 78.74904687499996 534.06646875 Q 81.74796874999996 535.5486875 82.81901562499996 536.1839375 Q 83.89006249999997 536.8191875 86.67477343749998 537.2426875 Q 89.45948437499999 537.6661875 90.74474218749998 537.8779374999999 Q 92.02999999999997 538.0896875 94.81471874999997 537.8779374999999 Q 97.59943749999996 537.6661875 99.52731249999997 537.4544375 Q 101.45518749999997 537.2426875 103.38306249999997 537.0309374999999 Q 105.31093749999997 536.8191875 108.52407812499996 535.54871875 Q 111.73721874999995 534.27825 113.02246874999997 533.643 Q 114.30771874999999 533.00775 116.44981249999998 531.73725 Q 118.59190624999997 530.46675 119.44873437499996 529.8315 Q 120.30556249999995 529.19625 122.87607812499996 526.23178125 Q 125.44659374999998 523.2673125 126.51762499999998 521.57334375 Q 127.58865624999999 519.879375 129.516546875 515.64440625 Q 131.4444375 511.40943749999997 132.08706249999997 509.29196874999997 Q 132.72968749999995 507.17449999999997 133.80073437499996 505.05699999999996 Q 134.87178124999997 502.93949999999995 136.37123437499997 498.49281249999996 Q 137.87068749999997 494.04612499999996 138.51331249999998 490.23465624999994 Q 139.1559375 486.4231875 139.584359375 479.859 L 140.02278124999998 473.2848125" stroke-linecap="round" />
</g>
		<g transform="matrix(1 0 0 1 -137.15 159.64)" id="v8vR_44tEqNitQ1VbQQGJ"  >
<path style="stroke: rgb(0,0,0); stroke-width: 10; stroke-dasharray: none; stroke-linecap: round; stroke-dashoffset: 0; stroke-linejoin: round; stroke-miterlimit: 10; fill: none; fill-rule: nonzero; opacity: 1;" vector-effect="non-scaling-stroke"  transform=" translate(-182.85, -479.64)" d="M 138.28912499999996 432.6291875 Q 138.29912499999995 432.6391875 139.37015624999995 433.4861875 Q 140.44118749999996 434.3331875 141.08382812499997 435.18015625 Q 141.72646874999998 436.027125 142.36909374999996 437.29762500000004 Q 143.01171874999994 438.568125 144.08274999999995 440.89734375 Q 145.15378124999995 443.2265625 145.58220312499995 444.28531250000003 Q 146.01062499999995 445.3440625 147.08167187499996 447.67328125 Q 148.15271874999996 450.0025 148.79534374999997 451.48474999999996 Q 149.43796874999998 452.967 150.29481249999998 456.56671874999995 Q 151.15165624999997 460.1664375 152.43690624999996 464.18965625 Q 153.72215624999995 468.212875 155.22160937499996 471.60084374999997 Q 156.72106249999996 474.9888125 157.79210937499997 476.89453125 Q 158.86315624999997 478.80025 161.21945312499997 482.39996874999997 Q 163.57574999999997 485.9996875 164.64679687499998 487.48190624999995 Q 165.71784375 488.96412499999997 167.64571875 491.92862499999995 Q 169.57359375 494.89312499999994 170.43043749999998 495.95184374999997 Q 171.28728124999998 497.0105625 172.35832812499999 499.1280625 Q 173.429375 501.2455625 174.07199999999997 502.30428125 Q 174.71462499999996 503.36299999999994 175.78567187499996 505.48049999999995 Q 176.85671874999997 507.59799999999996 177.49934374999998 508.65671875 Q 178.14196875 509.7154375 178.99879687499998 510.7741875 Q 179.85562499999997 511.83293749999996 180.92667187499998 513.5269062499999 Q 181.99771875 515.220875 182.64034374999997 516.067875 Q 183.28296874999995 516.9148749999999 184.35401562499996 518.6088749999999 Q 185.42506249999997 520.302875 186.06768749999998 521.14984375 Q 186.7103125 521.9968125 188.20978125 523.4790625 Q 189.70925 524.9613125 190.35187499999998 525.3848125 Q 190.99449999999996 525.8083124999999 191.85132812499995 526.2318124999999 Q 192.70815624999994 526.6553125 192.92237499999996 526.6553125 Q 193.13659374999997 526.6553125 193.56499999999997 526.4435625000001 Q 193.99340624999996 526.2318125 194.42182812499996 526.0200625 Q 194.85024999999996 525.8083124999999 195.06446874999997 525.1730625 Q 195.2786875 524.5378125 196.13551562499998 522.8438437499999 Q 196.99234374999997 521.149875 197.42076562499997 520.302875 Q 197.84918749999997 519.455875 198.27760937499997 517.7618749999999 Q 198.70603124999997 516.067875 199.13443749999996 514.79740625 Q 199.56284374999996 513.5269375 200.20546874999997 511.4094375 Q 200.84809374999998 509.2919375 201.06231249999996 508.23321875 Q 201.27653124999995 507.17449999999997 202.13335937499997 505.26874999999995 Q 202.9901875 503.36299999999994 203.418609375 501.88078125 Q 203.84703125 500.3985625 204.06123437499997 498.9163125 Q 204.27543749999995 497.4340625 205.34648437499996 494.46959374999994 Q 206.41753124999997 491.50512499999996 206.84595312499997 489.81115624999995 Q 207.27437499999996 488.1171875 207.91699999999997 485.15268749999996 Q 208.55962499999998 482.18818749999997 208.98804687499998 480.70596875 Q 209.41646874999998 479.22375 211.34434374999998 476.04753125 Q 213.27221874999998 472.8713125 214.343265625 471.60081249999996 Q 215.4143125 470.3303125 217.12798437499998 468.42459375 Q 218.84165624999997 466.518875 219.48428124999998 465.671875 Q 220.12690625 464.824875 220.555328125 463.766125 Q 220.98375 462.707375 221.84057812499998 461.01340625 Q 222.69740624999997 459.3194375 223.12582812499997 458.47243749999996 Q 223.55424999999997 457.6254375 224.19687499999998 456.14321874999996 Q 224.8395 454.661 225.26792187499998 454.23749999999995 Q 225.69634374999998 453.81399999999996 226.12474999999998 452.967 Q 226.55315624999997 452.12 226.98157812499997 451.6965 L 227.41999999999996 451.263" stroke-linecap="round" />
</g>
		<g transform="matrix(1 0 0 1 -17.83 143.34)" id="akfZ9fJvxxUNZDfchinZL"  >
<path style="stroke: rgb(0,0,0); stroke-width: 10; stroke-dasharray: none; stroke-linecap: round; stroke-dashoffset: 0; stroke-linejoin: round; stroke-miterlimit: 10; fill: none; fill-rule: nonzero; opacity: 1;" vector-effect="non-scaling-stroke"  transform=" translate(-302.17, -463.34)" d="M 338.80862499999995 464.391375 Q 338.79862499999996 464.401375 338.584421875 464.401375 Q 338.37021875 464.401375 335.79970312499995 464.824875 Q 333.22918749999997 465.248375 329.80184375 465.248375 Q 326.37449999999995 465.248375 321.87610937499994 464.824875 Q 317.37771875 464.401375 315.44984375 464.189625 Q 313.52196875 463.977875 309.452 463.342625 Q 305.38203124999995 462.707375 302.16890624999996 462.28390625 Q 298.95578125 461.8604375 296.8136875 461.6486875 Q 294.67159375 461.4369375 291.672671875 461.4369375 Q 288.67375 461.4369375 287.60270312499995 461.4369375 Q 286.53165624999997 461.4369375 284.3895625 461.86040625 Q 282.24746875 462.28387499999997 281.17642187499996 462.495625 Q 280.105375 462.707375 276.89225 462.919125 Q 273.679125 463.130875 272.17965625 462.919125 Q 270.6801875 462.707375 268.7523125 462.707375 Q 266.8244375 462.707375 266.1818125 462.707375 L 265.5291875 462.707375" stroke-linecap="round" />
</g>
		<g transform="matrix(1 0 0 1 -26.83 163.04)" id="7EBrHM49Pwn2rsI-qcNhq"  >
<path style="stroke: rgb(0,0,0); stroke-width: 10; stroke-dasharray: none; stroke-linecap: round; stroke-dashoffset: 0; stroke-linejoin: round; stroke-miterlimit: 10; fill: none; fill-rule: nonzero; opacity: 1;" vector-effect="non-scaling-stroke"  transform=" translate(-293.17, -483.04)" d="M 322.50874999999996 465.671875 Q 322.51874999999995 465.671875 322.732953125 465.671875 Q 322.94715625 465.671875 324.018203125 465.671875 Q 325.08925 465.671875 325.94609375 465.671875 Q 326.8029375 465.671875 327.44556249999994 465.671875 Q 328.08818749999995 465.671875 329.159234375 465.460125 Q 330.23028124999996 465.248375 330.6586874999999 465.036625 Q 331.08709374999995 464.824875 331.94393749999995 463.766125 Q 332.80078125 462.707375 333.22918749999997 462.07215625000003 Q 333.65759375 461.4369375 334.30023437499995 459.9546875 Q 334.94287499999996 458.4724375 334.94287499999996 457.6254375 Q 334.94287499999996 456.7784375 334.51445312499993 455.71971874999997 Q 334.08603124999996 454.661 329.80184375 449.36728125 Q 325.51765624999996 444.0735625 322.30453124999997 442.16784375 Q 319.09140625 440.26212499999997 317.80615624999996 439.415125 Q 316.52090625 438.568125 313.73618749999997 437.509375 Q 310.95146874999995 436.450625 308.38096874999997 435.81540625 Q 305.81046875 435.1801875 299.81260937499997 434.7566875 Q 293.81474999999995 434.3331875 291.672671875 434.3331875 Q 289.53059375 434.3331875 285.03220312499997 436.23890625 Q 280.53381249999995 438.144625 277.74909374999993 439.62687500000004 Q 274.96437499999996 441.109125 272.17965625 443.22659375 Q 269.39493749999997 445.3440625 265.75339062499995 450.00253125 Q 262.11184375 454.661 260.612375 457.62546875 Q 259.11290625 460.5899375 256.97082812499997 466.73062500000003 Q 254.82874999999996 472.8713125 254.18612499999998 475.41228125 Q 253.5435 477.95324999999997 252.68665624999997 483.03521875 Q 251.82981249999995 488.1171875 251.61560937499996 490.86990625 Q 251.40140624999998 493.62262499999997 251.40140624999998 496.79884375 Q 251.40140624999998 499.97506250000004 251.40140624999998 501.03378125 Q 251.40140624999998 502.0925 251.40140624999998 503.15125 Q 251.40140624999998 504.21000000000004 251.61560937499996 505.904 Q 251.82981249999995 507.59799999999996 252.04403124999996 508.44496875 Q 252.25824999999998 509.2919375 253.32928124999998 511.6211875 Q 254.40031249999998 513.9504375 255.04293749999997 515.0091562499999 Q 255.68556249999995 516.067875 256.7566093749999 517.550125 Q 257.82765624999996 519.032375 258.47028124999997 519.667625 Q 259.11290625 520.302875 260.398171875 521.78509375 Q 261.68343749999997 523.2673125 262.75446875 523.9025624999999 Q 263.8255 524.5378125 267.03864062499997 525.8083125 Q 270.25178124999996 527.0788125 271.75124999999997 527.7140312500001 Q 273.25071875 528.34925 274.53596874999994 528.77275 Q 275.82121874999996 529.19625 278.39171875 529.61975 Q 280.96221875 530.04325 281.8190625 530.04325 Q 282.67590624999997 530.04325 284.817984375 530.04325 Q 286.9600625 530.04325 288.03110937499997 530.04325 Q 289.10215624999995 530.04325 292.5295 530.6785 Q 295.95684374999996 531.31375 297.45631249999997 531.5255 Q 298.95578125 531.73725 301.097859375 531.73725 Q 303.2399375 531.73725 304.310984375 531.73725 Q 305.38203124999995 531.73725 306.45307812499993 531.73725 Q 307.52412499999997 531.73725 309.23779687499996 531.73725 Q 310.95146874999995 531.73725 311.808296875 531.73725 Q 312.665125 531.73725 314.16459375 531.31375 Q 315.6640625 530.89025 316.9493125 530.46675 Q 318.2345625 530.04325 321.01928124999995 528.77278125 Q 323.804 527.5023125 325.08925 526.8670625 L 326.38449999999995 526.2218125" stroke-linecap="round" />
</g>
		<g transform="matrix(1 0 0 1 88.21 123.87)" id="XejXzvIXGpdv83uuxqEQG"  >
<path style="stroke: rgb(0,0,0); stroke-width: 10; stroke-dasharray: none; stroke-linecap: round; stroke-dashoffset: 0; stroke-linejoin: round; stroke-miterlimit: 10; fill: none; fill-rule: nonzero; opacity: 1;" vector-effect="non-scaling-stroke"  transform=" translate(-408.21, -443.87)" d="M 382.925625 519.042375 Q 382.925625 519.032375 382.925625 518.608875 Q 382.925625 518.185375 382.925625 517.550125 Q 382.925625 516.9148749999999 382.0688125 513.31515625 Q 381.21199999999993 509.7154375 380.569375 507.38621875 Q 379.92675 505.057 378.8556875 500.39853125 Q 377.78462499999995 495.7400625 377.14199999999994 492.56384375000005 Q 376.49937499999993 489.387625 375.64253124999993 485.99965625000004 Q 374.78568749999994 482.6116875 373.28624999999994 477.10625000000005 Q 371.78681249999994 471.6008125 371.35837499999997 468.42459375 Q 370.9299375 465.248375 369.43046875 458.2606875 Q 367.931 451.27299999999997 367.288375 448.09678125 Q 366.64574999999996 444.9205625 365.14631249999996 438.356375 Q 363.64687499999997 431.7921875 363.43265625 429.03946874999997 Q 363.2184375 426.28675 362.79003124999997 421.2048125 Q 362.36162499999995 416.12287499999996 362.14740624999996 414.217125 Q 361.9331875 412.311375 361.9331875 410.40565625 Q 361.9331875 408.4999375 362.36159375 405.11196874999996 Q 362.79 401.724 363.00421875 400.45349999999996 Q 363.2184375 399.183 363.64684374999996 397.277265625 Q 364.0752499999999 395.37153125 364.50368749999996 394.10104687499995 Q 364.932125 392.8305625 366.00315624999996 390.28959375 Q 367.07418749999994 387.748625 367.71681249999995 386.68987500000003 Q 368.35943749999996 385.631125 369.6446875 383.51365625 Q 370.9299375 381.3961875 371.5725625 380.5491875 Q 372.2151875 379.7021875 373.28625 378.855203125 Q 374.3573125 378.00821874999997 377.14203125 376.31423437499996 Q 379.92675 374.62025 381.4261875 373.77324999999996 Q 382.925625 372.92625 385.71034375 371.867515625 Q 388.49506249999996 370.80878125 389.56612499999994 370.38528125 Q 390.6371874999999 369.96178125 393.20768749999996 369.32653125 Q 395.7781875 368.69128125 397.27765625 368.69128125 Q 398.777125 368.69128125 402.632875 369.96178124999994 Q 406.488625 371.23228124999997 408.2023125 372.07926562499995 Q 409.916 372.92625 413.34331249999997 375.67896874999997 Q 416.77062499999994 378.4316875 418.48431249999993 380.337421875 Q 420.1979999999999 382.24315624999997 421.48324999999994 384.360640625 Q 422.76849999999996 386.478125 424.26796874999997 389.65434374999995 Q 425.76743749999997 392.8305625 426.62428124999997 394.524546875 Q 427.48112499999996 396.21853125 429.19478124999995 398.759515625 Q 430.90843749999993 401.3005 431.33684374999996 402.57096875 Q 431.76525 403.8414375 432.62209375 407.01765624999996 Q 433.4789375 410.193875 433.4789375 411.67612499999996 Q 433.4789375 413.158375 432.62209375 416.33459374999995 Q 431.76525 419.5108125 431.33684374999996 420.56956249999996 Q 430.90843749999993 421.6283125 430.48003124999997 422.68703125 Q 430.051625 423.74575 429.19478125 425.22799999999995 Q 428.3379375 426.71025 427.90953125 427.3455 Q 427.48112499999996 427.98075 426.19584375 429.67471875 Q 424.9105625 431.36868749999996 424.05375 432.0039375 Q 423.19693749999993 432.6391875 421.6974687499999 433.69793749999997 Q 420.1979999999999 434.7566875 419.12696874999995 435.60365625 Q 418.05593749999997 436.450625 414.84278125 437.93287499999997 Q 411.629625 439.415125 409.70175 440.05037500000003 Q 407.77387500000003 440.685625 405.846 440.897375 Q 403.918125 441.109125 401.13340624999995 441.320875 Q 398.3486874999999 441.532625 397.27765624999995 441.532625 Q 396.206625 441.532625 393.63609375 441.956125 Q 391.0655625 442.379625 389.99453124999997 442.379625 Q 388.92349999999993 442.379625 386.78140625 442.59134374999996 Q 384.6393125 442.8030625 383.56828125 442.8030625 Q 382.49724999999995 442.8030625 380.78356249999996 442.8030625 Q 379.06987499999997 442.8030625 378.2130625 442.8030625 Q 377.35625 442.8030625 376.49940625 443.2265625 Q 375.6425625 443.6500625 375.42834375 443.6500625 Q 375.214125 443.6500625 374.99990625 443.8618125 Q 374.78568749999994 444.0735625 374.57149999999996 444.0735625 Q 374.3573125 444.0735625 374.14309375 444.2853125 Q 373.928875 444.49706249999997 373.928875 444.92056249999996 Q 373.928875 445.3440625 373.928875 445.5558125 Q 373.928875 445.7675625 374.35728124999997 446.8263125 Q 374.78568749999994 447.8850625 375.42831249999995 448.52028125000004 Q 376.07093749999996 449.1555 377.78462499999995 450.42600000000004 Q 379.49831249999994 451.6965 380.56934375 452.5435 Q 381.640375 453.3905 382.49721875 454.02575 Q 383.3540625 454.661 385.28193749999997 455.93146875 Q 387.20981249999994 457.2019375 388.280875 457.8371875 Q 389.3519375 458.4724375 391.70821875 460.16643750000003 Q 394.0645 461.8604375 395.56396875 462.91915625 Q 397.0634375 463.977875 400.2765625 465.883625 Q 403.4896875 467.789375 404.98915625 468.63634375000004 Q 406.488625 469.4833125 409.059125 471.60081249999996 Q 411.629625 473.71831249999997 412.48646875 474.35356249999995 Q 413.34331249999997 474.9888125 414.20015624999996 475.62403125000003 Q 415.05699999999996 476.25925 416.55646874999996 477.52975000000004 Q 418.05593749999997 478.80025 418.91274999999996 479.4355 Q 419.76956249999995 480.07075 421.26903124999995 481.34121875 Q 422.76849999999996 482.6116875 423.19690625 483.0351875 Q 423.6253125 483.4586875 425.339 484.9409375 Q 427.0526875 486.4231875 428.3379375 487.69365625 Q 429.62318750000003 488.96412499999997 431.97950000000003 491.29337499999997 Q 434.33581250000003 493.62262499999997 435.40684375 494.89309375 Q 436.477875 496.1635625 438.19153124999997 498.2810625 Q 439.90518749999995 500.3985625 440.76203124999995 501.03378125 Q 441.61887499999995 501.669 442.0473125 502.30424999999997 Q 442.47575 502.93949999999995 443.3325625 503.99825 Q 444.189375 505.057 444.61781249999996 505.4805 Q 445.04624999999993 505.904 445.9030625 506.751 Q 446.759875 507.59799999999996 447.1883125 508.02146875 Q 447.61674999999997 508.44493750000004 448.47356249999996 509.0801875 Q 449.33037499999995 509.7154375 449.54459375 509.9271875 Q 449.75881250000003 510.1389375 450.18721875 510.5624375 Q 450.61562499999997 510.9859375 450.82984374999995 511.1976875 Q 451.04406249999994 511.40943749999997 451.47249999999997 511.62118749999996 Q 451.9009375 511.83293749999996 452.5435625 512.2564375 Q 453.1861875 512.6799374999999 453.82881249999997 512.6799374999999 L 454.4814374999999 512.6799374999999" stroke-linecap="round" />
</g>
</g>
</g>
</svg>