<?xml version="1.0" encoding="UTF-8" standalone="no" ?>
<!DOCTYPE svg PUBLIC "-//W3C//DTD SVG 1.1//EN" "http://www.w3.org/Graphics/SVG/1.1/DTD/svg11.dtd">
<svg xmlns="http://www.w3.org/2000/svg" xmlns:xlink="http://www.w3.org/1999/xlink" version="1.1" width="640" height="480" viewBox="0 0 640 480" xml:space="preserve">
<desc>Created with Fabric.js 4.6.0</desc>
<defs>
</defs>
<g transform="matrix(0.81 0 0 0.81 168.13 271.07)" id="IkOlDWUZDMuu7wNCeyX6O"  >
<path style="stroke: rgb(0,0,0); stroke-width: 1; stroke-dasharray: none; stroke-linecap: butt; stroke-dashoffset: 0; stroke-linejoin: miter; stroke-miterlimit: 4; fill: rgb(255,255,255); fill-opacity: 0; fill-rule: nonzero; opacity: 1;" vector-effect="non-scaling-stroke"  transform=" translate(0, 0)" d="M 0 0" stroke-linecap="round" />
</g>
<g transform="matrix(0.81 0 0 0.81 287.39 331.51)" id="zpJDnZpef2vOeYvtLVf3p"  >
<path style="stroke: rgb(0,0,0); stroke-width: 16; stroke-dasharray: none; stroke-linecap: butt; stroke-dashoffset: 0; stroke-linejoin: miter; stroke-miterlimit: 4; fill: rgb(255,255,255); fill-opacity: 0; fill-rule: nonzero; opacity: 1;" vector-effect="non-scaling-stroke"  transform=" translate(0, 0)" d="M 0 30 L 0 -30" stroke-linecap="round" />
</g>
<g transform="matrix(0.81 0 0 0.81 319.6 330.72)" id="6qHT9Dgmz0arJY34Hj1vd"  >
<path style="stroke: rgb(0,0,0); stroke-width: 16; stroke-dasharray: none; stroke-linecap: butt; stroke-dashoffset: 0; stroke-linejoin: miter; stroke-miterlimit: 4; fill: rgb(255,255,255); fill-opacity: 0; fill-rule: nonzero; opacity: 1;" vector-effect="non-scaling-stroke"  transform=" translate(0, 0)" d="M 0 30 C 0 30 0 -15 0 -30" stroke-linecap="round" />
</g>
<g transform="matrix(0.81 0 0 0.81 351.81 330.74)" id="bmNXKmJ980LufP2B9Wj5b"  >
<path style="stroke: rgb(0,0,0); stroke-width: 16; stroke-dasharray: none; stroke-linecap: butt; stroke-dashoffset: 0; stroke-linejoin: miter; stroke-miterlimit: 4; fill: rgb(255,255,255); fill-opacity: 0; fill-rule: nonzero; opacity: 1;" vector-effect="non-scaling-stroke"  transform=" translate(0, 0)" d="M 0 30 C 0 30 0 -15 0 -30" stroke-linecap="round" />
</g>
<g transform="matrix(0.81 0 0 0.81 320 242.93)" id="A0qn1kJ1cEzsU5u3Zcbqi"  >
<path style="stroke: rgb(80,80,80); stroke-width: 32; stroke-dasharray: none; stroke-linecap: butt; stroke-dashoffset: 0; stroke-linejoin: miter; stroke-miterlimit: 4; fill: none; fill-rule: nonzero; opacity: 1;" vector-effect="non-scaling-stroke"  transform=" translate(0, 0)" d="M -160 13.61744 C -160 -23.30254 -145.33359 -58.71038 -119.22722 -84.81675 L -116.23339 -87.81058 L -116.23339 -87.81058 C -52.039460000000005 -152.00450999999998 52.039460000000005 -152.00450999999998 116.23339 -87.81058 L 118.27006 -85.77391 L 118.27006 -85.77391 C 144.98929 -59.054680000000005 160 -22.815620000000003 160 14.97108 L 160 47.93978 L 160 47.93978 C 160 63.412729999999996 147.4567 75.95603 131.98375 75.95603 L 99.99999999999999 75.95603 L 79.99999999999999 135.95603 L -80.00000000000001 135.95603 L -100.00000000000001 75.95603 L -129.21078 75.95603 L -129.21078 75.95603 C -146.21519 75.95603 -160 62.171229999999994 -160 45.16681 z" stroke-linecap="round" />
</g>
<g transform="matrix(0.81 0 0 0.81 273.29 226.82)" id="XNqp5iHXIwhqAP71gbno3"  >
<path style="stroke: rgb(40,187,188); stroke-width: 0; stroke-dasharray: none; stroke-linecap: butt; stroke-dashoffset: 0; stroke-linejoin: miter; stroke-miterlimit: 4; fill: rgb(0,0,0); fill-rule: nonzero; opacity: 1;" vector-effect="non-scaling-stroke"  transform=" translate(0, 0)" d="M 0 -22.5 C 12.42 -22.5 22.5 -12.42 22.5 0 C 22.5 12.42 12.42 22.5 0 22.5 C -12.42 22.5 -22.5 12.42 -22.5 0 C -22.5 -12.42 -12.42 -22.5 0 -22.5 z" stroke-linecap="round" />
</g>
<g transform="matrix(0.81 0 0 0.81 365.9 226.82)" id="PXMHOmnST7X9lB16UD3Pp"  >
<path style="stroke: rgb(40,187,188); stroke-width: 0; stroke-dasharray: none; stroke-linecap: butt; stroke-dashoffset: 0; stroke-linejoin: miter; stroke-miterlimit: 4; fill: rgb(0,0,0); fill-rule: nonzero; opacity: 1;" vector-effect="non-scaling-stroke"  transform=" translate(0, 0)" d="M 0 -22.5 C 12.42 -22.5 22.5 -12.42 22.5 0 C 22.5 12.42 12.42 22.5 0 22.5 C -12.42 22.5 -22.5 12.42 -22.5 0 C -22.5 -12.42 -12.42 -22.5 0 -22.5 z" stroke-linecap="round" />
</g>
</svg>