<?xml version="1.0" encoding="UTF-8" standalone="no" ?>
<!DOCTYPE svg PUBLIC "-//W3C//DTD SVG 1.1//EN" "http://www.w3.org/Graphics/SVG/1.1/DTD/svg11.dtd">
<svg xmlns="http://www.w3.org/2000/svg" xmlns:xlink="http://www.w3.org/1999/xlink" version="1.1" width="640" height="640" viewBox="0 0 640 640" xml:space="preserve">
<desc>Created with Fabric.js 4.6.0</desc>
<defs>
</defs>
<g transform="matrix(1 0 0 1 265.32 210.52)" id="Ln-GlQZ5TJsn8MpuqgI28"  >
<path style="stroke: rgb(0,0,0); stroke-width: 10; stroke-dasharray: none; stroke-linecap: round; stroke-dashoffset: 0; stroke-linejoin: round; stroke-miterlimit: 10; fill: none; fill-rule: nonzero; opacity: 1;" vector-effect="non-scaling-stroke"  transform=" translate(-265.32, -210.52)" d="M 433.48893749999996 215.81925 Q 433.4789375 215.80925000000002 433.26471875 215.59750000000003 Q 433.0505 215.38575 432.407875 215.174 Q 431.76525 214.96225 428.98056249999996 214.115265625 Q 426.19587499999994 213.26828125 424.05378125 212.63303125 Q 421.9116875 211.99778125 414.20015625 211.15079687500003 Q 406.488625 210.30381250000002 403.4896875 210.30381250000002 Q 400.49075 210.30381250000002 396.84921875 210.30381250000002 Q 393.20768749999996 210.30381250000002 385.06775 210.51556250000002 Q 376.9278125 210.7273125 375.21412499999997 210.7273125 Q 373.5004374999999 210.7273125 368.7878437499999 210.51556250000002 Q 364.0752499999999 210.30381250000002 359.79107812499996 210.0920625 Q 355.50690625 209.8803125 348.2238125 209.4568125 Q 340.94071875 209.03331250000002 335.37128125 209.03331250000002 Q 329.80184375 209.03331250000002 324.018203125 209.03331250000002 Q 318.2345625 209.03331250000002 315.878265625 209.03331250000002 Q 313.52196875 209.03331250000002 306.66728125 208.60981250000003 Q 299.81259374999996 208.1863125 296.59946874999997 208.1863125 Q 293.38634375 208.1863125 290.81582812499994 208.1863125 Q 288.24531249999995 208.1863125 280.96221875 208.60981250000003 Q 273.679125 209.03331250000002 270.680203125 209.24506250000002 Q 267.68128125 209.4568125 264.468140625 210.0920625 Q 261.255 210.7273125 259.54132812499995 211.15079687500003 Q 257.82765624999996 211.57428125 253.11506249999996 211.99778125 Q 248.40246874999997 212.42128125000002 245.61774999999997 212.63303125000002 Q 242.83303124999998 212.84478125 238.33465624999997 212.84478125 Q 233.83628124999996 212.84478125 231.26576562499997 213.05653125 Q 228.69525 213.26828125 225.69632812499998 213.48003125000002 Q 222.69740624999997 213.69178125000002 217.98481249999998 213.69178125000002 Q 213.27221874999998 213.69178125000002 211.77274999999997 213.69178125000002 Q 210.27328124999997 213.69178125000002 207.27435937499996 213.69178125000002 Q 204.27543749999995 213.69178125000002 202.77598437499995 213.69178125000002 Q 201.27653124999995 213.69178125000002 196.13551562499995 213.26828125000003 Q 190.99449999999996 212.84478125 188.20978124999996 212.63303125000002 Q 185.42506249999997 212.42128125000002 183.49718749999997 212.20953125 Q 181.56931249999997 211.99778125 177.92776562499998 211.99778125 Q 174.28621875 211.99778125 172.14412499999997 211.99778125 Q 170.00203124999996 211.99778125 165.50364062499997 211.78603125 Q 161.00525 211.57428125 159.71999999999997 211.36253125000002 Q 158.43474999999995 211.15078125000002 156.50687499999995 211.15078125000002 Q 154.57899999999995 211.15078125000002 153.72215624999995 211.15078125000002 Q 152.86531249999996 211.15078125000002 151.15164062499997 211.15078125000002 Q 149.43796874999998 211.15078125000002 148.581140625 211.15078125000002 Q 147.7243125 211.15078125000002 146.01064062499998 211.15078125000002 Q 144.29696874999996 211.15078125000002 143.44012499999997 210.93904687500003 Q 142.58328124999997 210.7273125 139.79857812499998 210.3038125 Q 137.01387499999998 209.8803125 135.728609375 209.6685625 Q 134.44334375 209.4568125 132.943890625 209.24506250000002 Q 131.4444375 209.03331250000002 129.30234374999998 208.82156250000003 Q 127.16024999999996 208.6098125 126.30342187499997 208.3980625 Q 125.44659374999998 208.1863125 123.94712499999997 208.1863125 Q 122.44765624999997 208.1863125 121.80503124999996 208.1863125 Q 121.16240624999995 208.1863125 119.66293749999997 208.1863125 Q 118.16346874999999 208.1863125 117.52084374999998 208.1863125 Q 116.87821874999997 208.1863125 115.16454687499998 208.1863125 Q 113.450875 208.1863125 112.59404687499998 208.1863125 Q 111.73721874999995 208.1863125 111.09459374999997 208.1863125 Q 110.45196874999999 208.1863125 108.95249999999999 207.97456250000002 Q 107.45303124999998 207.76281250000002 106.81040624999997 207.76281250000002 Q 106.16778124999996 207.76281250000002 104.88253124999997 207.339328125 Q 103.59728124999998 206.91584375000002 103.16885937499998 206.91584375000002 Q 102.74043749999998 206.91584375000002 101.88360937499996 206.91584375000002 Q 101.02678124999994 206.91584375000002 100.81256249999996 206.91584375000002 Q 100.59834374999997 206.91584375000002 100.16992187499997 206.91584375000002 Q 99.74149999999997 206.91584375000002 99.52729687499996 206.91584375000002 Q 99.31309374999995 206.91584375000002 99.09889062499997 206.91584375000002 Q 98.88468749999998 206.91584375000002 98.45626562499999 206.70409375000003 Q 98.02784374999999 206.49234375 97.59942187499999 205.85709375 L 97.16099999999999 205.21184375" stroke-linecap="round" />
</g>
<g transform="matrix(1 0 0 1 146.94 210.94)" id="AjbavnHUK4NmVSjfBja8-"  >
<path style="stroke: rgb(53,237,53); stroke-width: 10; stroke-dasharray: none; stroke-linecap: round; stroke-dashoffset: 0; stroke-linejoin: round; stroke-miterlimit: 10; fill: none; fill-rule: nonzero; opacity: 1;" vector-effect="non-scaling-stroke"  transform=" translate(-146.94, -210.94)" d="M 146.93399999999997 210.94400000000002 L 146.95399999999995 210.94400000000002" stroke-linecap="round" />
</g>
<g transform="matrix(1 0 0 1 141.82 210.43)" id="Bkk4WlXQxX6JQqoil50jb"  >
<path style="stroke: rgb(0,0,0); stroke-width: 10; stroke-dasharray: none; stroke-linecap: round; stroke-dashoffset: 0; stroke-linejoin: round; stroke-miterlimit: 10; fill: none; fill-rule: nonzero; opacity: 1;" vector-effect="non-scaling-stroke"  transform=" translate(-141.82, -210.43)" d="M 149.00199999999995 209.92000000000002 Q 148.99199999999996 209.92000000000002 148.47999999999996 210.43200000000002 Q 147.96799999999996 210.94400000000002 146.43199999999996 210.94400000000002 Q 144.89599999999996 210.94400000000002 144.38399999999996 210.94400000000002 Q 143.87199999999996 210.94400000000002 143.35999999999996 210.94400000000002 Q 142.84799999999996 210.94400000000002 142.33599999999996 210.94400000000002 Q 141.82399999999996 210.94400000000002 141.31199999999995 210.94400000000002 Q 140.79999999999995 210.94400000000002 140.28799999999995 210.94400000000002 Q 139.77599999999995 210.94400000000002 139.26399999999995 210.94400000000002 Q 138.75199999999995 210.94400000000002 138.23999999999995 210.94400000000002 Q 137.72799999999995 210.94400000000002 137.21599999999995 210.94400000000002 Q 136.70399999999995 210.94400000000002 135.67999999999995 210.94400000000002 L 134.64599999999996 210.94400000000002" stroke-linecap="round" />
</g>
<g transform="matrix(1 0 0 1 296.17 259.19)" id="uVVqKJ9s2k22RBELVaHeu"  >
<path style="stroke: rgb(0,0,0); stroke-width: 10; stroke-dasharray: none; stroke-linecap: round; stroke-dashoffset: 0; stroke-linejoin: round; stroke-miterlimit: 10; fill: none; fill-rule: nonzero; opacity: 1;" vector-effect="non-scaling-stroke"  transform=" translate(-296.17, -259.19)" d="M 426.18587499999995 208.17631250000002 Q 426.19587499999994 208.1863125 426.4100625 208.60981250000003 Q 426.62425 209.03331250000002 428.552125 210.93904687500003 Q 430.47999999999996 212.84478125 431.97946874999997 213.69176562500002 Q 433.4789375 214.53875000000002 435.83525 215.38575000000003 Q 438.1915625 216.23275 439.26259374999995 216.4445 Q 440.3336249999999 216.65625000000003 442.26149999999996 216.86800000000002 Q 444.189375 217.07975000000002 445.04621875 217.07975000000002 Q 445.9030625 217.07975000000002 446.97409374999995 217.07975000000002 Q 448.0451249999999 217.07975000000002 450.61565625 217.291484375 Q 453.1861875 217.50321875 454.685625 217.50321875 Q 456.1850625 217.50321875 459.39821875 217.291484375 Q 462.611375 217.07975000000002 463.68240625 216.86800000000002 Q 464.75343749999996 216.65625000000003 466.46712499999995 216.4445 Q 468.18081249999994 216.23275 469.03762499999993 216.23275 Q 469.8944374999999 216.23275 471.39390624999993 216.02100000000002 Q 472.89337499999993 215.80925000000002 473.75021874999993 215.59750000000003 Q 474.6070624999999 215.38575 476.53493749999996 215.174 Q 478.4628125 214.96225 479.53384374999996 214.96225 Q 480.60487499999994 214.96225 482.3185625 214.96225 Q 484.03225000000003 214.96225 487.45959375 214.96225 Q 490.8869375 214.96225 492.1721875 214.96225 Q 493.4574375 214.96225 495.3853125 214.96225 Q 497.31318749999997 214.96225 498.17003124999997 214.96225 Q 499.02687499999996 214.96225 500.95475 214.96225 Q 502.882625 214.96225 503.95365625 214.96225 Q 505.02468749999997 214.96225 507.381 214.96225 Q 509.7373125 214.96225 511.2367812499999 214.96225 Q 512.7362499999999 214.96225 514.2356874999999 214.96225 Q 515.7351249999999 214.96225 517.87721875 214.96225 Q 520.0193125000001 214.96225 520.6619375 215.174 Q 521.3045625 215.38575 522.16140625 215.38575 Q 523.0182500000001 215.38575 523.44665625 215.38575 Q 523.8750625 215.38575 524.51771875 215.38575 Q 525.1603749999999 215.38575 525.58878125 215.59750000000003 Q 526.0171875000001 215.80925000000002 526.2314062500001 216.02100000000002 Q 526.4456250000001 216.23275 526.6598125 216.23275 Q 526.874 216.23275 527.08821875 216.4445 Q 527.3024375 216.65625000000003 527.51665625 216.65625000000003 Q 527.730875 216.65625000000003 527.9450625 217.07973437500002 Q 528.1592499999999 217.50321875 528.3734687499999 218.35021875 Q 528.5876874999999 219.19721875000002 528.8019062499999 220.04420312500002 Q 529.0161249999999 220.89118750000003 529.0161249999999 223.43217187500002 Q 529.0161249999999 225.97315625000002 529.0161249999999 227.455390625 Q 529.0161249999999 228.93762500000003 529.0161249999999 231.47859375000002 Q 529.0161249999999 234.0195625 529.0161249999999 235.07831250000004 Q 529.0161249999999 236.13706250000004 528.8019062499999 238.88978125000003 Q 528.5876874999999 241.6425 528.5876874999999 243.54823437500002 Q 528.5876874999999 245.45396875000003 528.5876874999999 247.57145312500003 Q 528.5876874999999 249.68893750000004 528.5876874999999 253.50039062500002 Q 528.5876874999999 257.31184375 528.3734687499999 258.58234374999995 Q 528.1592499999999 259.85284375 527.73084375 262.39381249999997 Q 527.3024375 264.93478125 527.08821875 266.628765625 Q 526.874 268.32275 526.874 272.981203125 Q 526.874 277.63965625 526.874 279.333640625 Q 526.874 281.027625 526.6598125 283.78034375 Q 526.4456250000001 286.53306249999997 526.2314062500001 287.59181249999995 Q 526.0171875000001 288.6505625 526.0171875000001 289.497546875 Q 526.0171875000001 290.34453125 526.0171875000001 292.038515625 Q 526.0171875000001 293.7325 526.0171875000001 294.36775 Q 526.0171875000001 295.003 526.0171875000001 296.908734375 Q 526.0171875000001 298.81446875 526.0171875000001 299.661453125 Q 526.0171875000001 300.5084375 526.0171875000001 302.202421875 Q 526.0171875000001 303.89640625 526.0171875000001 304.53165624999997 Q 526.0171875000001 305.16690625 526.0171875000001 306.225640625 Q 526.0171875000001 307.284375 526.0171875000001 307.707875 Q 526.0171875000001 308.131375 526.0171875000001 308.554875 Q 526.0171875000001 308.97837499999997 526.0171875000001 309.613609375 Q 526.0171875000001 310.24884375 525.80296875 310.67234375 Q 525.5887499999999 311.09584375 524.73190625 311.942828125 Q 523.8750625 312.7898125 523.44665625 313.0015625 Q 523.0182500000001 313.2133125 521.30459375 313.84856249999996 Q 519.5909374999999 314.4838125 518.3056875 314.6955625 Q 517.0204375000001 314.9073125 514.23571875 315.3308125 Q 511.45099999999996 315.75431249999997 510.16574999999995 315.96604687499996 Q 508.8804999999999 316.17778125 505.02471875 316.60128125 Q 501.1689375 317.02478125 498.17003125 317.23653125 Q 495.171125 317.44828125 492.38640625 317.66003125 Q 489.60168749999997 317.87178124999997 485.96012499999995 317.87178124999997 Q 482.3185624999999 317.87178124999997 480.39068749999996 317.87178124999997 Q 478.4628125 317.87178124999997 473.32181249999996 318.08353124999996 Q 468.18081249999994 318.29528125 464.75346874999997 318.29528125 Q 461.326125 318.29528125 455.970875 318.29528125 Q 450.61562499999997 318.29528125 446.97409374999995 318.50703125 Q 443.33256249999994 318.71878125 437.33471875 318.71878125 Q 431.336875 318.71878125 429.6231875 318.71878125 Q 427.9094999999999 318.71878125 425.76740624999996 318.71878125 Q 423.6253125 318.71878125 417.19906249999997 318.93053125 Q 410.77281249999993 319.14228125 407.34546874999995 319.14228125 Q 403.918125 319.14228125 397.92028124999996 319.14228125 Q 391.92243749999994 319.14228125 387.85246874999996 319.14228125 Q 383.78249999999997 319.14228125 379.06990625 319.14228125 Q 374.3573125 319.14228125 372.42943749999995 319.14228125 Q 370.5015624999999 319.14228125 365.7889687499999 319.565765625 Q 361.0763749999999 319.98924999999997 357.43481249999996 319.98924999999997 Q 353.79325 319.98924999999997 350.580109375 319.98924999999997 Q 347.36696875 319.98924999999997 341.154921875 320.201 Q 334.94287499999996 320.41275 331.08710937499995 320.201 Q 327.23134374999995 319.98924999999997 322.732953125 319.98924999999997 Q 318.2345625 319.98924999999997 316.30668749999995 319.98924999999997 Q 314.3788125 319.98924999999997 308.809375 320.201 Q 303.2399375 320.41275 299.598390625 320.6245 Q 295.95684374999996 320.83625 290.387421875 320.83625 Q 284.818 320.83625 281.39065625 321.048 Q 277.9633125 321.25975 272.60807812499996 321.4715 Q 267.25284374999995 321.68325 265.53917187499997 321.68325 Q 263.8255 321.68325 261.89762499999995 321.68325 Q 259.96975 321.68325 254.82873437499998 321.895 Q 249.68771875 322.10675 246.04617187499997 322.318484375 Q 242.40462499999995 322.53021875 236.62098437499995 322.318484375 Q 230.83734374999995 322.10675 226.98159374999994 322.10675 Q 223.12584374999994 322.10675 217.12798437499995 321.4715 Q 211.13012499999996 320.83625 208.77382812499997 320.83625 Q 206.41753124999997 320.83625 199.77706249999997 320.41274999999996 Q 193.13659374999997 319.98924999999997 189.28082812499997 319.7775 Q 185.42506249999997 319.56575 182.64034374999997 319.354015625 Q 179.85562499999997 319.14228125 172.14410937499997 318.71878125 Q 164.43259374999997 318.29528125 161.64787499999997 318.29528125 Q 158.86315624999997 318.29528125 155.43581249999997 318.08353124999996 Q 152.00846874999996 317.87178124999997 150.29479687499997 317.87178124999997 Q 148.581125 317.87178124999997 144.296953125 317.87178124999997 Q 140.01278125 317.87178124999997 137.2280625 317.87178124999997 Q 134.44334375 317.87178124999997 129.94496875 317.87178124999997 Q 125.44659374999998 317.87178124999997 123.30449999999996 317.87178124999997 Q 121.16240624999995 317.87178124999997 118.80610937499995 317.87178124999997 Q 116.44981249999995 317.87178124999997 112.37984374999996 317.87178124999997 Q 108.30987499999998 317.87178124999997 106.59620312499996 317.87178124999997 Q 104.88253124999994 317.87178124999997 103.16885937499995 317.87178124999997 Q 101.45518749999997 317.87178124999997 100.81256249999996 317.66003125 Q 100.16993749999995 317.44828125 98.88468749999996 317.02478125 Q 97.59943749999996 316.60128125 96.95681249999996 316.38953125 Q 96.31418749999995 316.17778125 95.02892187499995 315.754296875 Q 93.74365624999996 315.3308125 93.10103124999998 315.1190625 Q 92.45840625 314.9073125 91.81578124999999 314.6955625 Q 91.17315624999998 314.4838125 89.45948437499996 314.0603125 Q 87.74581249999994 313.63681249999996 87.10318749999996 313.42506249999997 Q 86.46056249999998 313.2133125 85.17531249999998 312.789828125 Q 83.89006249999997 312.36634375 83.24742968749997 312.15459375 Q 82.60479687499998 311.94284375 81.31954687499997 311.09584375 Q 80.03429687499997 310.24884375 79.60588281249997 310.03709375 Q 79.17746874999997 309.82534375 78.32063281249997 309.40185937499996 Q 77.46379687499996 308.97837499999997 77.03537499999996 308.343125 Q 76.60695312499996 307.707875 75.96432812499997 306.43739062500003 Q 75.32170312499997 305.16690625 75.10749218749997 304.53165624999997 Q 74.89328124999997 303.89640625 74.67907031249997 303.26117187499995 Q 74.46485937499997 302.62593749999996 73.82223437499997 300.93195312499995 Q 73.17960937499996 299.23796875 72.53698437499996 298.17921875 Q 71.89435937499996 297.12046875 71.46594531249997 294.79125 Q 71.03753124999997 292.46203125 70.82332031249997 291.40328124999996 Q 70.60910937499997 290.34453125 69.96648437499996 287.16831249999996 Q 69.32385937499996 283.99209375 69.10964843749996 282.086359375 Q 68.89543749999996 280.18062499999996 68.68122656249996 278.48664062499995 Q 68.46701562499996 276.79265625 68.03860156249996 273.4046875 Q 67.61018749999997 270.01671875 67.39597656249997 268.32275 Q 67.18176562499997 266.62878125 66.75335156249997 263.664296875 Q 66.32493749999998 260.6998125 66.11072656249998 258.794078125 Q 65.89651562499998 256.88834375 65.68230468749998 254.135625 Q 65.46809374999998 251.38290625 65.46809374999998 250.112421875 Q 65.46809374999998 248.8419375 65.46809374999998 246.300953125 Q 65.46809374999998 243.75996875 65.46809374999998 242.27773437500002 Q 65.46809374999998 240.79550000000003 65.03967968749997 237.83103125000002 Q 64.61126562499996 234.86656250000001 64.61126562499996 233.17257812500003 Q 64.61126562499996 231.47859375000002 64.39705468749996 229.996359375 Q 64.18284374999996 228.514125 64.18284374999996 225.76140625 Q 64.18284374999996 223.0086875 63.96863281249996 221.738203125 Q 63.75442187499996 220.46771875000002 63.540210937499964 217.92673437500002 Q 63.325999999999965 215.38575 63.325999999999965 214.115265625 Q 63.325999999999965 212.84478125 63.325999999999965 211.15079687500003 Q 63.325999999999965 209.4568125 63.325999999999965 208.60981250000003 Q 63.325999999999965 207.76281250000002 63.325999999999965 206.06882812500004 Q 63.325999999999965 204.37484375000003 63.325999999999965 203.73960937500001 Q 63.325999999999965 203.104375 63.75442187499996 201.833890625 Q 64.18284374999996 200.56340625 64.39705468749996 200.13990625000002 Q 64.61126562499996 199.71640625 64.82546874999997 199.29290625000002 Q 65.03967187499998 198.86940625000003 65.46809374999998 198.44590625 Q 65.89651562499998 198.02240625000002 66.11072656249998 197.81067187500003 Q 66.32493749999998 197.5989375 67.39597656249997 196.9636875 Q 68.46701562499996 196.3284375 69.10964062499997 196.1166875 Q 69.75226562499998 195.90493750000002 71.46593749999997 195.90493750000002 Q 73.17960937499996 195.90493750000002 74.46486718749996 195.90493750000002 Q 75.75012499999997 195.90493750000002 78.10642187499997 196.1166875 Q 80.46271874999996 196.3284375 81.53375781249997 196.5401875 Q 82.60479687499998 196.75193750000003 83.46163281249997 196.96368750000002 Q 84.31846874999997 197.17543750000002 86.03214062499995 197.81067187500003 Q 87.74581249999994 198.44590625 88.60264843749997 198.86940625 Q 89.45948437499999 199.29290625000002 90.53053124999997 199.71640625000003 Q 91.60157812499995 200.13990625000002 92.24420312499996 200.563390625 Q 92.88682812499997 200.98687500000003 93.95786718749997 201.41037500000002 Q 95.02890624999998 201.833875 95.67154687499996 202.04562500000003 Q 96.31418749999995 202.25737500000002 98.45626562499996 202.68087500000001 Q 100.59834374999997 203.104375 101.88359374999996 203.316125 Q 103.16884374999995 203.52787500000002 104.02568749999995 203.73962500000002 Q 104.88253124999994 203.951375 106.59620312499996 204.37485937500003 Q 108.30987499999998 204.79834375000002 108.95249999999999 205.01009375 Q 109.595125 205.22184375 110.88037499999999 205.64534375 Q 112.16562499999998 206.06884375 112.80824999999999 206.06884375 L 113.460875 206.06884375" stroke-linecap="round" />
</g>
<g transform="matrix(1 0 0 1 214.42 267.23)" id="dMvnjF4vRU-67vzoznfbl"  >
<path style="stroke: rgb(255,243,18); stroke-width: 10; stroke-dasharray: none; stroke-linecap: round; stroke-dashoffset: 0; stroke-linejoin: round; stroke-miterlimit: 10; fill: none; fill-rule: nonzero; opacity: 1;" vector-effect="non-scaling-stroke"  transform=" translate(-214.42, -267.23)" d="M 349.51906249999996 213.25828125 Q 349.50906249999997 213.26828125 349.080640625 213.903515625 Q 348.65221875000003 214.53875000000002 346.72434375 218.77371875 Q 344.79646875 223.0086875 344.15384374999996 226.39665625 Q 343.51121874999995 229.784625 342.65437499999996 232.74909375 Q 341.79753124999996 235.7135625 339.22703125 245.24221875 Q 336.65653125 254.77087500000002 335.1570625 257.94709375 Q 333.65759375 261.1233125 329.80184375 267.89925 Q 325.94609375 274.6751875 323.804 278.06315625 Q 321.66190624999996 281.451125 319.94823437499997 284.62734375 Q 318.2345625 287.8035625 317.5919375 288.4388125 Q 316.94931249999996 289.07406249999997 315.6640625 290.13279687499994 Q 314.3788125 291.19153124999997 314.16460937499994 291.40328124999996 Q 313.95040624999996 291.61503125 313.73618749999997 291.61503125 Q 313.52196875 291.61503125 313.52196875 291.40328124999996 Q 313.52196875 291.19153124999997 314.16459375 288.01531249999994 Q 314.80721874999995 284.83909374999996 316.09246874999997 281.662875 Q 317.37771875 278.48665625 321.4476875 273.19295312500003 Q 325.51765624999996 267.89925 327.87396874999996 265.14653124999995 Q 330.23028124999996 262.39381249999997 333.871828125 255.82962499999996 Q 337.513375 249.2654375 338.584421875 247.14795312500002 Q 339.65546874999995 245.03046875000004 340.51229687499995 243.33648437500003 Q 341.369125 241.6425 342.86859375 238.04278125000002 Q 344.3680625 234.44306250000002 344.79646875 232.96082812500003 Q 345.22487499999994 231.47859375000002 345.22487499999994 229.572859375 Q 345.22487499999994 227.66712500000003 345.22487499999994 227.243640625 Q 345.22487499999994 226.82015625000003 344.36804687499995 226.60840625000003 Q 343.51121874999995 226.39665625 342.22596875 227.243640625 Q 340.94071875 228.09062500000002 335.37128125 231.90209375 Q 329.80184375 235.7135625 326.58871875 238.25453125 Q 323.37559374999995 240.79550000000003 319.09140625 249.688921875 Q 314.80721874999995 258.58234375 313.5219687499999 262.18206250000003 Q 312.23671874999997 265.78178125 310.09462499999995 274.039953125 Q 307.95253125 282.29812499999997 307.30990625 285.05084375 Q 306.66728125 287.8035625 306.02465624999996 289.497546875 Q 305.38203124999995 291.19153124999997 303.88257812499995 294.36775 Q 302.38312499999995 297.54396875 301.9547031249999 298.60270312499995 Q 301.52628124999995 299.6614375 301.097859375 300.29668749999996 Q 300.66943749999996 300.9319375 301.31206249999997 300.5084375 Q 301.9546875 300.08493749999997 302.5973125 299.449703125 Q 303.2399375 298.81446875 305.38203124999995 295.85 Q 307.52412499999997 292.88553125 309.23779687499996 290.132796875 Q 310.95146874999995 287.3800625 312.45093749999995 283.78034375 Q 313.95040624999996 280.18062499999996 316.94932812499997 274.46343749999994 Q 319.94825 268.74625 322.090328125 265.57003124999994 Q 324.23240625 262.39381249999997 327.87396875 256.253125 Q 331.51553125 250.11243750000003 332.372359375 247.99495312500002 Q 333.22918749999997 245.87746875000002 334.30023437499995 242.913 Q 335.37128125 239.94853125 335.79970312499995 239.31328125000002 Q 336.228125 238.67803125000003 336.228125 238.25453125 Q 336.228125 237.83103125 336.01390625 237.83103125 Q 335.79968749999995 237.83103125 332.58656249999996 238.88978125 Q 329.37343749999997 239.94853125 326.37451562499996 241.64251562500002 Q 323.37559374999995 243.33650000000003 317.591953125 250.112421875 Q 311.8083125 256.88834375 308.595171875 259.852828125 Q 305.38203124999995 262.8173125 297.88471874999993 268.95799999999997 Q 290.38740624999997 275.0986875 288.03110937499997 278.06315625 Q 285.6748125 281.027625 282.033265625 285.26259375 Q 278.39171875 289.4975625 277.10646875 290.768046875 Q 275.82121874999996 292.03853125 274.96437499999996 293.097265625 Q 274.10753124999997 294.156 273.250703125 295.21473437500003 Q 272.393875 296.27346875 272.393875 296.48521875 Q 272.393875 296.69696875 272.60807812499996 296.90871875 Q 272.82228124999995 297.12046875 273.46490624999996 297.12046875 Q 274.10753124999997 297.12046875 277.106453125 295.214734375 Q 280.105375 293.30899999999997 282.24746874999994 290.97978125 Q 284.38956249999995 288.6505625 289.74478124999996 281.662875 Q 295.09999999999997 274.6751875 297.24209375 271.92246875 Q 299.3841875 269.16974999999996 301.3120625 266.20528125 Q 303.2399375 263.2408125 305.596234375 256.041375 Q 307.95253125 248.8419375 309.023578125 246.512703125 Q 310.09462499999995 244.18346875 311.59409374999996 240.37201562500002 Q 313.09356249999996 236.56056250000003 313.521984375 234.65482812500002 Q 313.95040624999996 232.74909375000001 314.3788125 230.20810937500002 Q 314.80721874999995 227.66712500000003 314.80721874999995 227.243640625 Q 314.80721874999995 226.82015625000003 314.80721874999995 227.243640625 Q 314.80721874999995 227.66712500000003 313.09354687499996 230.84334375000003 Q 311.37987499999997 234.0195625 309.88042187499997 236.560546875 Q 308.38096874999997 239.10153125000002 305.59624999999994 242.48950000000002 Q 302.81153125 245.87746875000002 296.385265625 252.65340625 Q 289.95899999999995 259.42934375 287.1742812499999 262.39381249999997 Q 284.38956249999995 265.35828125 277.74909374999993 272.769453125 Q 271.10862499999996 280.18062499999996 268.538109375 283.14510937499995 Q 265.96759375 286.10959375 264.03971875 289.2858125 Q 262.11184375 292.46203125 261.46921875 293.94426562499996 Q 260.82659375 295.4265 259.96975 297.96746874999997 Q 259.11290625 300.5084375 258.898703125 301.1436875 Q 258.68449999999996 301.7789375 258.68449999999996 302.2024375 Q 258.68449999999996 302.62593749999996 258.898703125 302.62593749999996 Q 259.11290625 302.62593749999996 260.183953125 301.9906875 Q 261.255 301.3554375 266.61021874999994 298.39096874999996 Q 271.96543749999995 295.4265 274.75015625 292.885515625 Q 277.534875 290.34453125 283.1043125 283.356859375 Q 288.67375 276.3691875 291.45846874999995 273.40470312499997 Q 294.2431875 270.44021875 298.7415625 263.87603125 Q 303.2399375 257.31184375 304.52520312499996 253.923875 Q 305.81046875 250.53590625 306.667296875 248.20668750000002 Q 307.52412499999997 245.87746875000002 308.595171875 242.06600000000003 Q 309.66621875 238.25453125000004 309.66621875 237.19579687500004 Q 309.66621875 236.13706250000004 309.66621875 235.71356250000002 Q 309.66621875 235.2900625 309.02359375 236.348796875 Q 308.38096874999997 237.40753125 307.52412499999997 239.10151562500002 Q 306.66728125 240.79550000000003 302.81153125 245.66570312500002 Q 298.95578125 250.53590625 297.02789062499994 252.44164062500002 Q 295.09999999999997 254.34737500000003 292.31529687499994 256.253109375 Q 289.53059375 258.15884374999996 288.245328125 258.79409375 Q 286.9600625 259.42934375 285.6748125 259.64109375 Q 284.38956249999995 259.85284375 282.67589062499997 260.27632812499996 Q 280.96221875 260.6998125 280.748015625 260.6998125 Q 280.53381249999995 260.6998125 280.31959374999997 260.6998125 Q 280.105375 260.6998125 280.31959374999997 260.6998125 Q 280.53381249999995 260.6998125 281.8190625 260.9115625 Q 283.1043125 261.1233125 285.03218749999996 261.3350625 Q 286.9600625 261.5468125 292.31529687499994 261.9703125 Q 297.67053124999995 262.39381249999997 299.5984062499999 262.1820625 Q 301.52628124999995 261.9703125 302.81153125 261.7585625 Q 304.09678125 261.5468125 306.238875 261.1233125 Q 308.38096874999997 260.6998125 309.23779687499996 260.27632812499996 Q 310.09462499999995 259.85284375 310.95146875 259.21759375 Q 311.8083125 258.58234375 311.8083125 258.37059375 Q 311.8083125 258.15884374999996 311.59409374999996 257.73534374999997 Q 311.37987499999997 257.31184375 309.23779687499996 256.676609375 Q 307.09571874999995 256.04137499999996 295.95685937499996 254.347390625 Q 284.818 252.65340625000002 277.74909375 252.22990625000003 Q 270.6801875 251.80640625000004 264.25392187499995 251.59465625 Q 257.82765624999996 251.38290625 240.47674999999995 250.747671875 Q 223.12584374999994 250.11243750000003 216.27115624999996 249.90068750000003 Q 209.41646874999998 249.68893750000004 195.06446874999997 249.26543750000002 Q 180.71246874999997 248.8419375 174.07199999999997 248.8419375 Q 167.43153124999998 248.8419375 159.71999999999997 250.535921875 Q 152.00846874999996 252.22990625000003 149.65217187499996 253.28864062500003 Q 147.29587499999997 254.34737500000003 144.93957812499997 255.82960937500002 Q 142.58328124999997 257.31184375 142.15487499999998 257.73534374999997 Q 141.72646874999998 258.15884374999996 141.51224999999997 258.58234374999995 Q 141.29803124999995 259.00584375 142.36907812499996 260.27632812499996 Q 143.44012499999997 261.5468125 144.93959374999997 262.18206250000003 Q 146.43906249999998 262.8173125 155.00740624999997 263.87604687500004 Q 163.57574999999997 264.93478125 169.14518749999996 264.93478125 Q 174.71462499999996 264.93478125 185.21085937499996 264.93478125 Q 195.70709374999996 264.93478125 201.06231249999996 264.72303124999996 Q 206.41753124999997 264.51128124999997 219.27006249999997 263.876046875 Q 232.12259374999996 263.2408125 237.47781249999997 263.0290625 Q 242.83303124999998 262.8173125 250.54456249999998 261.5468125 Q 258.25609375 260.27631249999996 262.9686875 259.429328125 Q 267.68128125 258.58234375 272.393875 257.94709375 Q 277.10646875 257.31184375 284.3895625 256.041359375 Q 291.67265625 254.77087500000002 294.67159374999994 254.34737500000003 Q 297.67053124999995 253.92387500000004 300.455234375 253.07689062500003 Q 303.2399375 252.22990625000003 303.668359375 251.59465625 Q 304.09678125 250.95940625 303.882578125 249.688921875 Q 303.66837499999997 248.4184375 301.31207812499997 247.571453125 Q 298.95578125 246.72446875 286.10325 245.24221875 Q 273.25071875 243.75996875 266.610234375 243.54823437500002 Q 259.96975 243.33650000000003 252.47243749999998 243.971734375 Q 244.975125 244.60696875 229.12367187499999 245.87745312500002 Q 213.27221874999998 247.14793750000004 207.48857812499998 247.99493750000002 Q 201.70493749999997 248.8419375 190.13765624999996 250.747671875 Q 178.57037499999996 252.65340625000002 174.92882812499997 253.71214062500002 Q 171.28728124999998 254.77087500000002 164.21839062499998 257.94709375 Q 157.1495 261.1233125 156.07845312499998 261.9703125 Q 155.00740624999997 262.8173125 153.29373437499999 265.35828125 Q 151.5800625 267.89925 151.36585937499999 268.957984375 Q 151.15165624999997 270.01671875 150.93743749999996 271.07546875 Q 150.72321874999994 272.13421875 153.93635937499997 274.4634375 Q 157.1495 276.79265625 161.64789062499997 277.63965625000003 Q 166.14628124999996 278.48665625 177.71354687499996 277.216171875 Q 189.28081249999997 275.94568749999996 193.77920312499998 274.463453125 Q 198.27759375 272.98121875 211.558546875 269.59325 Q 224.8395 266.20528125 230.83734374999997 264.723046875 Q 236.83518749999996 263.2408125 245.83196874999996 259.00584375 Q 254.82874999999996 254.77087500000002 259.54134374999995 251.80640625 Q 264.25393749999995 248.8419375 269.18073437499993 246.512703125 Q 274.10753124999997 244.18346875 280.748015625 241.00725 Q 287.38849999999996 237.83103125 290.17321874999993 236.348796875 Q 292.95793749999996 234.86656250000001 296.599484375 232.53734375000002 Q 300.24103125 230.20812500000002 300.88365624999994 229.36112500000002 Q 301.52628124999995 228.514125 300.88365624999994 227.03189062500002 Q 300.24103125 225.54965625000003 298.0989375 224.49092187500003 Q 295.95684374999996 223.43218750000003 285.24640624999995 222.7969375 Q 274.53596875 222.16168750000003 268.109703125 223.0086875 Q 261.68343749999997 223.85568750000002 253.97190624999996 225.76140625000002 Q 246.26037499999995 227.66712500000003 230.83734374999997 231.47859375000002 Q 215.4143125 235.2900625 209.41646874999998 236.98404687500002 Q 203.41862499999996 238.67803125000003 189.49504687499996 242.48950000000002 Q 175.57146874999995 246.30096875 169.57360937499996 247.99495312500002 Q 163.57574999999997 249.68893750000004 156.72107812499996 252.22990625000003 Q 149.86640624999995 254.77087500000002 147.08168749999996 256.041359375 Q 144.29696874999996 257.31184375 138.72753124999997 258.58234374999995 Q 133.15809374999998 259.85284375 131.87284375 260.06457812499997 Q 130.58759375 260.27631249999996 129.94496875 260.6998125 Q 129.30234374999998 261.1233125 129.73076562499998 261.3350625 Q 130.15918749999997 261.5468125 131.65864062499998 261.9703125 Q 133.15809374999998 262.39381249999997 138.51331249999998 263.240796875 Q 143.86853125 264.08778125 149.43796874999998 264.08778125 Q 155.00740624999997 264.08778125 167.00310937499998 263.664296875 Q 178.99881249999999 263.2408125 184.56823437499997 262.81731249999996 Q 190.13765624999996 262.39381249999997 199.34864062499997 260.911578125 Q 208.55962499999998 259.42934375 214.77168749999998 258.58234374999995 Q 220.98375 257.73534374999997 230.83735937499998 255.61785937499997 Q 240.69096874999997 253.500375 244.11829687499997 252.441640625 Q 247.54562499999997 251.38290625 249.47351562499998 250.535921875 Q 251.40140624999998 249.68893750000004 253.97190625 247.99495312500002 Q 256.54240625 246.30096875 256.970828125 245.66571875000002 Q 257.39925 245.03046875000004 257.39925 243.97173437500004 Q 257.39925 242.91300000000004 256.970828125 242.27775000000003 Q 256.54240625 241.6425 251.82981249999997 239.736765625 Q 247.11721874999995 237.83103125 242.19042187499997 236.98404687500002 Q 237.263625 236.13706250000004 225.05371874999997 235.07831250000004 Q 212.84381249999996 234.0195625 209.63067187499996 234.4430625 Q 206.41753124999997 234.86656250000001 200.41968749999998 235.0783125 Q 194.42184375 235.2900625 184.35403125 236.1370625 Q 174.28621875 236.98406250000002 168.93098437499998 237.407546875 Q 163.57574999999997 237.83103125 157.14948437499996 238.04278125000002 Q 150.72321874999994 238.25453125000004 147.51009374999995 238.46628125000004 Q 144.29696874999996 238.67803125000003 136.37123437499997 239.10153125000002 Q 128.44549999999998 239.52503125 126.08920312499998 239.52503125 Q 123.73290624999998 239.52503125 117.73506249999997 239.52503125 Q 111.73721874999995 239.52503125 109.38092187499996 239.31328125000002 Q 107.02462499999996 239.10153125000002 104.23990624999996 239.10153125000002 Q 101.45518749999997 239.10153125000002 100.81256249999996 238.88978125000003 Q 100.16993749999995 238.67803125000003 99.74151562499995 238.46628125000004 Q 99.31309374999995 238.25453125000004 98.88467187499995 238.25453125000004 Q 98.45624999999995 238.25453125000004 98.67046874999997 238.04278125000002 Q 98.88468749999998 237.83103125 99.95573437499996 237.195796875 Q 101.02678124999994 236.56056250000003 106.59620312499996 235.92531250000002 Q 112.16562499999998 235.2900625 116.44981249999998 235.5018125 Q 120.73399999999998 235.7135625 131.01601562499997 237.831046875 Q 141.29803124999995 239.94853125 146.01062499999995 241.43076562500002 Q 150.72321874999994 242.91300000000004 160.57682812499996 245.24221875000003 Q 170.43043749999998 247.57143750000003 174.286203125 248.63018750000003 Q 178.14196875 249.68893750000004 181.99771875 250.32417187500002 Q 185.85346875 250.95940625 189.709234375 251.17115625 Q 193.565 251.38290625 194.85025 251.17115625 Q 196.13549999999998 250.95940625 198.27759374999997 250.535921875 Q 200.41968749999995 250.11243750000003 201.27651562499997 249.6889375 Q 202.13334375 249.2654375 204.70385937499998 248.4184375 Q 207.27437499999996 247.57143750000003 208.77382812499997 247.35968750000004 Q 210.27328124999997 247.14793750000004 213.05799999999996 246.72445312500003 Q 215.84271874999996 246.30096875 216.69956249999996 246.08921875000001 Q 217.55640624999995 245.87746875000002 218.19903124999996 245.66571875000002 Q 218.84165624999997 245.45396875000003 219.27007812499997 245.45396875000003 Q 219.69849999999997 245.45396875000003 218.62745312499996 245.03046875 Q 217.55640624999995 244.60696875 215.84273437499996 243.971734375 Q 214.12906249999997 243.33650000000003 209.84487499999997 242.48950000000002 Q 205.56068749999997 241.6425 201.70493749999997 241.21900000000002 Q 197.84918749999997 240.79550000000003 188.42399999999998 239.94851562500003 Q 178.99881249999999 239.10153125000002 173.21517187499998 238.67803125000003 Q 167.43153124999998 238.25453125000004 162.71893749999998 237.83103125000002 Q 158.00634374999998 237.40753125 153.93637499999997 236.98404687500002 Q 149.86640624999995 236.56056250000003 147.51009374999995 236.34881250000004 Q 145.15378124999995 236.13706250000004 138.51331249999996 235.07831250000004 Q 131.87284374999996 234.0195625 129.51654687499996 233.80782812500001 Q 127.16024999999996 233.59609375000002 123.09028124999998 232.96084375000004 Q 119.02031249999999 232.32559375000002 116.44981249999998 231.90209375 Q 113.87931249999997 231.47859375000002 109.38092187499996 230.84335937500003 Q 104.88253124999994 230.20812500000002 103.16885937499995 229.996375 Q 101.45518749999997 229.784625 100.38414062499996 229.36112500000002 Q 99.31309374999995 228.93762500000003 97.17099999999996 228.30237500000004 Q 95.02890624999998 227.66712500000003 94.38628124999997 227.243640625 Q 93.74365624999996 226.82015625000003 92.45840624999997 226.60840625000003 Q 91.17315624999998 226.39665625 90.95894531249996 226.39665625 Q 90.74473437499995 226.39665625 90.53053124999997 226.39665625 Q 90.31632812499998 226.39665625 90.53053124999997 226.39665625 Q 90.74473437499995 226.39665625 91.17315624999995 226.39665625 Q 91.60157812499995 226.39665625 95.88575781249995 227.243640625 Q 100.16993749999995 228.09062500000002 103.81148437499996 228.302375 Q 107.45303124999998 228.514125 114.09351562499998 228.72587500000003 Q 120.73399999999998 228.93762500000003 125.44659374999998 229.36112500000002 Q 130.15918749999997 229.784625 136.37123437499997 229.36112500000002 Q 142.58328124999997 228.93762500000003 145.58220312499998 228.72587500000003 Q 148.581125 228.514125 157.79210937499997 228.09062500000002 Q 167.00309374999995 227.66712500000003 171.50148437499996 227.87887500000002 Q 175.99987499999997 228.09062500000002 185.42506249999997 228.93762500000003 Q 194.85024999999996 229.784625 198.06339062499995 229.572875 Q 201.27653124999995 229.36112500000002 206.63174999999995 229.572875 Q 211.98696874999996 229.784625 221.62635937499996 230.41985937500002 Q 231.26574999999997 231.05509375000003 236.62098437499998 231.26684375000002 Q 241.97621875 231.47859375000002 248.40248437499997 231.69034375 Q 254.82874999999996 231.90209375 258.25609375 231.69034375 Q 261.68343749999997 231.47859375000002 269.60915624999996 231.47859375000002 Q 277.534875 231.47859375000002 280.533796875 231.26684375000002 Q 283.53271874999996 231.05509375000003 290.60162499999996 230.63160937500004 Q 297.67053124999995 230.20812500000002 299.81260937499997 229.996375 Q 301.9546875 229.784625 303.66835937499997 229.572875 Q 305.38203124999995 229.36112500000002 307.73832812499995 228.93762500000003 Q 310.09462499999995 228.514125 310.95146875 228.514125 Q 311.8083125 228.514125 312.879359375 228.514125 Q 313.95040624999996 228.514125 314.3788125 228.514125 Q 314.80721874999995 228.514125 313.95039062499995 228.72587500000003 Q 313.09356249999996 228.93762500000003 312.23671874999997 229.14937500000002 Q 311.37987499999997 229.36112500000002 310.09462499999995 229.572875 Q 308.809375 229.784625 305.16782812499997 229.996375 Q 301.52628124999995 230.20812500000002 299.81260937499997 230.20812500000002 Q 298.0989375 230.20812500000002 295.31421875 230.84335937500003 Q 292.5295 231.47859375000002 291.458453125 231.69034375 Q 290.38740624999997 231.90209375 288.88795312499997 232.53734375 Q 287.38849999999996 233.17259375 286.74587499999996 233.38434375000003 Q 286.10324999999995 233.59609375000002 285.88903124999996 233.80782812500001 Q 285.6748125 234.0195625 285.24640624999995 234.8665625 Q 284.818 235.7135625 285.03220312499997 236.1370625 Q 285.24640624999995 236.56056250000003 288.24532812499996 238.88978125000003 Q 291.24424999999997 241.21900000000002 294.243171875 242.48948437500002 Q 297.24209375 243.75996875 301.31206249999997 246.089203125 Q 305.38203124999995 248.4184375 307.095703125 249.688921875 Q 308.809375 250.95940625 310.09462499999995 252.01815625 Q 311.37987499999997 253.07690625 314.59301562499996 255.19437499999998 Q 317.80615624999996 257.31184375 321.23349999999994 259.005828125 Q 324.66084374999997 260.6998125 325.731890625 261.1233125 Q 326.8029375 261.5468125 327.44556249999994 261.7585625 Q 328.08818749999995 261.9703125 328.30239062499993 262.1820625 Q 328.51659374999997 262.39381249999997 328.30239062499993 262.39381249999997 Q 328.08818749999995 262.39381249999997 325.30346875 262.81731249999996 Q 322.51874999999995 263.2408125 320.37665625 263.452546875 Q 318.2345625 263.66428125 308.809375 264.51128125 Q 299.3841875 265.35828125 292.31529687499994 265.78178125 Q 285.24640624999995 266.20528125 273.8933281249999 267.475765625 Q 262.54024999999996 268.74625 257.39924999999994 269.804984375 Q 252.25824999999998 270.86371875 246.68881249999998 271.92246875 Q 241.119375 272.98121875 230.623140625 275.0986875 Q 220.12690625 277.21615625 216.05693749999998 278.06315625 Q 211.98696874999996 278.91015625 207.06015624999998 281.239375 Q 202.13334375 283.56859375 199.777046875 284.41559374999997 Q 197.42075 285.26259375 193.77920312499998 286.32132812500004 Q 190.13765624999996 287.3800625 189.49503124999995 287.5918125 Q 188.85240624999994 287.8035625 188.63820312499996 288.0153125 Q 188.42399999999998 288.2270625 189.066625 288.4388125 Q 189.70925 288.6505625 192.922375 289.07406249999997 Q 196.13549999999998 289.4975625 198.06339062499998 289.2858125 Q 199.99128125 289.07406249999997 203.418625 288.6505625 Q 206.84596875 288.2270625 215.842734375 287.3800625 Q 224.8395 286.53306249999997 229.33789062499997 286.109578125 Q 233.83628124999996 285.68609375 242.19042187499997 285.47434375 Q 250.54456249999998 285.26259375 253.32928124999998 285.05084375 Q 256.114 284.83909374999996 264.2539375 284.62734374999997 Q 272.393875 284.41559374999997 274.964375 284.62734374999997 Q 277.534875 284.83909374999996 281.39064062499995 285.05084375 Q 285.24640624999995 285.26259375 287.1742812499999 285.68609375 Q 289.10215624999995 286.10959375 291.0300468749999 286.744828125 Q 292.95793749999996 287.3800625 294.88581249999993 288.2270625 Q 296.81368749999996 289.07406249999997 297.02789062499994 289.2858125 Q 297.24209375 289.4975625 296.171046875 289.709296875 Q 295.09999999999997 289.92103125 293.17212499999994 290.13278125 Q 291.24424999999997 290.34453125 281.8190625 291.19153125 Q 272.393875 292.03853125 267.68128125 292.46203125 Q 262.9686875 292.88553125 252.04403125 294.36776562499995 Q 241.119375 295.84999999999997 235.54993749999997 296.908734375 Q 229.98049999999995 297.96746874999997 223.98265624999996 299.237953125 Q 217.98481249999998 300.5084375 210.70171874999997 302.837671875 Q 203.41862499999996 305.16690625 199.34865624999998 306.43739062500003 Q 195.2786875 307.707875 188.42399999999998 309.825359375 Q 181.56931249999997 311.94284375 179.42721874999998 312.578078125 Q 177.285125 313.2133125 174.50040624999997 314.0603125 Q 171.71568749999994 314.9073125 171.07306249999996 315.1190625 Q 170.43043749999998 315.3308125 170.21623437499997 315.5425625 Q 170.00203124999996 315.75431249999997 170.43045312499996 315.75431249999997 Q 170.85887499999995 315.75431249999997 171.92990624999996 315.75431249999997 Q 173.00093749999996 315.75431249999997 179.85562499999997 314.69556249999994 Q 186.7103125 313.63681249999996 190.35185937499998 312.57807812499993 Q 193.99340624999996 311.51934374999996 201.06231249999996 307.70787499999994 Q 208.13121874999996 303.89640625 213.48643749999997 302.202421875 Q 218.84165624999997 300.5084375 228.69526562499996 298.17921875 Q 238.54887499999995 295.84999999999997 243.04724999999996 295.4265 Q 247.54562499999997 295.003 253.11506249999996 294.36775 Q 258.68449999999996 293.7325 262.75446875 293.52075 Q 266.8244375 293.30899999999997 272.82228124999995 292.885515625 Q 278.82012499999996 292.46203125 280.533796875 292.46203125 Q 282.24746875 292.46203125 283.961140625 292.67378125 Q 285.6748125 292.88553125 287.38848437499996 293.52076562499997 Q 289.10215624999995 294.156 289.316375 294.36775 Q 289.53059375 294.5795 289.316375 294.79125 Q 289.10215624999995 295.003 288.03110937499997 295.4265 Q 286.9600625 295.84999999999997 279.67696875 298.60271875 Q 272.393875 301.3554375 267.89548437499997 302.41417187499997 Q 263.39709374999995 303.47290625 251.61560937499996 305.378640625 Q 239.83412499999997 307.284375 233.40785937499996 307.496125 Q 226.98159374999994 307.707875 221.19795312499997 307.919625 Q 215.4143125 308.131375 206.845953125 307.919625 Q 198.27759375 307.707875 193.13657812499997 307.28437499999995 Q 187.99556249999995 306.86087499999996 180.92667187499995 305.802140625 Q 173.85778124999996 304.74340624999996 170.43043749999995 304.10815625 Q 167.00309374999995 303.47290625 162.50471874999997 302.202421875 Q 158.00634374999998 300.9319375 157.1495 300.5084375 Q 156.29265625 300.08493749999997 155.43582812499997 299.8731875 Q 154.57899999999995 299.6614375 155.65003124999996 299.449703125 Q 156.72106249999996 299.23796875 162.50470312499996 298.17921875 Q 168.28834374999997 297.12046875 172.14410937499997 296.485234375 Q 175.99987499999997 295.84999999999997 184.99664062499997 294.57949999999994 Q 193.99340624999996 293.30899999999997 196.99234374999997 292.673765625 Q 199.99128125 292.03853125 210.487515625 290.132796875 Q 220.98375 288.2270625 225.05371874999997 286.95657812499996 Q 229.12368749999996 285.68609375 238.12045312499995 283.356859375 Q 247.11721874999995 281.027625 249.68773437499996 279.968890625 Q 252.25824999999998 278.91015625 254.82874999999999 277.85140624999997 Q 257.39925 276.79265625 263.18289062499997 275.098671875 Q 268.96653124999995 273.40468749999997 270.89440625 272.981203125 Q 272.82228124999995 272.55771875 274.535953125 272.13421875 Q 276.249625 271.71071875 276.46384374999997 271.71071875 Q 276.67806249999995 271.71071875 275.607015625 271.28721874999997 Q 274.53596875 270.86371875 272.179671875 270.228484375 Q 269.823375 269.59325 262.54026562499996 268.32275000000004 Q 255.25715624999998 267.05225 249.25931249999996 266.20526562500004 Q 243.26146874999995 265.35828125 230.19471874999996 264.29954687500003 Q 217.12796874999998 263.2408125 212.41537499999998 262.81731249999996 Q 207.70278125 262.39381249999997 198.06339062499998 260.911578125 Q 188.42399999999998 259.42934375 184.56823437499997 259.00584375 Q 180.71246874999997 258.58234375 177.49934374999998 258.15884374999996 Q 174.28621875 257.73534374999997 167.85993749999997 257.31184375 Q 161.43365624999996 256.88834375 159.71999999999997 257.10009375 Q 158.00634374999998 257.31184375 156.50687499999998 257.52359375 Q 155.00740624999997 257.73534374999997 154.79320312499996 257.94709374999996 Q 154.57899999999995 258.15884374999996 154.15057812499995 259.00584374999994 Q 153.72215624999995 259.85284375 154.15057812499995 260.27632812499996 Q 154.57899999999995 260.6998125 156.07845312499995 261.75856250000004 Q 157.57790624999996 262.8173125 162.50471874999997 265.35828125 Q 167.43153124999998 267.89925 169.35940624999998 268.74625000000003 Q 171.28728124999998 269.59325 175.78567187499996 272.55771875 Q 180.28406249999995 275.5221875 182.42614062499996 277.004421875 Q 184.56821874999997 278.48665625 187.78135937499997 281.027625 Q 190.99449999999996 283.56859375 192.06554687499997 284.41559374999997 Q 193.13659374999997 285.26259375 193.99342187499997 286.32132812500004 Q 194.85024999999996 287.3800625 194.85024999999996 287.5918125 Q 194.85024999999996 287.8035625 194.20762499999998 288.2270625 Q 193.565 288.6505625 192.065546875 289.07406249999997 Q 190.56609375 289.4975625 188.20978125 289.709296875 Q 185.85346875 289.92103125 176.42828124999997 289.28579687499996 Q 167.00309374999995 288.6505625 161.64787499999997 288.2270625 Q 156.29265625 287.8035625 147.51009374999998 285.686078125 Q 138.72753124999997 283.56859375 133.58651562499998 282.29810937499997 Q 128.44549999999998 281.027625 122.01923437499997 280.180640625 Q 115.59296874999995 279.33365625 113.45087499999997 279.33365625 Q 111.30878124999998 279.33365625 108.09565624999996 280.180640625 Q 104.88253124999994 281.027625 104.02568749999995 281.662875 Q 103.16884374999995 282.29812499999997 102.95464062499997 282.933359375 Q 102.74043749999998 283.56859375 103.16885937499998 284.83909374999996 Q 103.59728124999998 286.10959375 104.45410937499997 286.744828125 Q 105.31093749999997 287.3800625 108.09565624999996 288.2270625 Q 110.88037499999996 289.07406249999997 112.16562499999998 289.2858125 Q 113.450875 289.4975625 116.02139062499998 289.709296875 Q 118.59190624999997 289.92103125 120.30557812499995 289.92103125 Q 122.01924999999994 289.92103125 125.87499999999994 289.92103125 Q 129.73074999999994 289.92103125 131.65864062499995 290.13278125 Q 133.58653124999995 290.34453125 134.87178124999997 290.55628125 Q 136.15703125 290.76803125 137.87070312499998 291.19153125 Q 139.58437499999997 291.61503125 140.44120312499996 291.82678125 Q 141.29803124999995 292.03853125 142.79749999999996 292.46203125 Q 144.29696874999996 292.88553125 144.93959374999997 293.097265625 Q 145.58221874999998 293.30899999999997 146.86746874999997 293.73249999999996 Q 148.15271874999996 294.156 148.58114062499996 294.36775 Q 149.00956249999996 294.5795 149.65218749999997 295.003 Q 150.29481249999998 295.4265 150.50901562499996 295.63824999999997 Q 150.72321874999994 295.84999999999997 150.93743749999996 296.061734375 Q 151.15165624999997 296.27346875 150.93743749999996 296.27346875 Q 150.72321874999994 296.27346875 149.22376562499997 296.69696875 Q 147.7243125 297.12046875 146.86746874999997 297.33221875 Q 146.01062499999995 297.54396875 142.36907812499996 297.75571874999997 Q 138.72753124999997 297.96746874999997 136.58543749999998 298.17921875 Q 134.44334375 298.39096875 131.016 298.39096875 Q 127.58865624999999 298.39096875 126.51762499999998 298.39096875 Q 125.44659374999998 298.39096875 124.37554687499997 298.39096875 Q 123.30449999999996 298.39096875 121.59082812499997 298.81446875 Q 119.87715624999998 299.23796875 118.80610937499998 299.449703125 Q 117.73506249999997 299.6614375 116.44981249999998 300.0849375 Q 115.16456249999999 300.5084375 114.52193749999998 300.7201875 Q 113.87931249999997 300.9319375 113.23668749999996 301.3554375 Q 112.59406249999995 301.7789375 112.37984374999996 301.9906875 Q 112.16562499999998 302.2024375 111.95142187499997 303.049421875 Q 111.73721874999995 303.89640625 111.95142187499997 304.53165624999997 Q 112.16562499999998 305.16690625 112.37984374999996 305.802140625 Q 112.59406249999995 306.437375 113.87931249999997 307.70787499999994 Q 115.16456249999999 308.97837499999997 116.23560937499997 309.613609375 Q 117.30665624999995 310.24884375 120.09135937499997 311.30759375 Q 122.87606249999999 312.36634375 125.23235937499999 312.789828125 Q 127.58865624999999 313.2133125 132.30126562499998 313.6368125 Q 137.01387499999998 314.0603125 138.513328125 314.2720625 Q 140.01278125 314.4838125 143.01170312499997 314.2720625 Q 146.01062499999995 314.0603125 147.51009374999995 313.84856249999996 Q 149.00956249999996 313.63681249999996 151.58006249999997 313.2133125 Q 154.15056249999998 312.7898125 159.93420312499998 312.15457812499994 Q 165.71784375 311.51934374999996 167.85993749999997 311.09584375 Q 170.00203124999996 310.67234375 174.71462499999996 309.82535937499995 Q 179.42721874999995 308.97837499999997 181.56931249999997 308.766625 Q 183.71140624999998 308.554875 186.49610937499997 308.554875 Q 189.28081249999997 308.554875 189.92345312499998 308.554875 Q 190.56609375 308.554875 190.78029687499998 308.554875 Q 190.99449999999996 308.554875 190.78029687499998 308.343125 Q 190.56609375 308.131375 188.42399999999998 307.07264062499996 Q 186.28190624999996 306.01390625 184.56823437499997 305.16690625 Q 182.8545625 304.31990625 180.92668749999999 303.472921875 Q 178.99881249999999 302.62593749999996 171.71570312499998 301.9906875 Q 164.43259374999997 301.3554375 161.00524999999996 300.9319375 Q 157.57790624999996 300.5084375 152.65110937499998 299.87320312500003 Q 147.7243125 299.23796875 144.51117187499997 299.02621875 Q 141.29803124999995 298.81446875 135.08598437499995 298.17921875 Q 128.87393749999995 297.54396875 126.94604687499995 297.12046875 Q 125.01815624999995 296.69696875 120.09135937499997 295.84998437499996 Q 115.16456249999999 295.003 112.37984374999999 294.5795 Q 109.595125 294.156 107.45303124999998 293.94425 Q 105.31093749999997 293.7325 103.16885937499995 293.52075 Q 101.02678124999994 293.30899999999997 100.16993749999995 293.30899999999997 Q 99.31309374999995 293.30899999999997 97.59942187499996 293.30899999999997 Q 95.88574999999997 293.30899999999997 95.24312499999996 293.30899999999997 Q 94.60049999999995 293.30899999999997 93.74366406249996 293.52075 Q 92.88682812499997 293.7325 92.67261718749998 293.7325 Q 92.45840625 293.7325 92.24420312499998 293.7325 Q 92.02999999999997 293.7325 92.02999999999997 293.94425 Q 92.02999999999997 294.156 92.24420312499998 294.5795 Q 92.45840625 295.003 94.38629687499997 296.696984375 Q 96.31418749999995 298.39096875 99.09889062499997 299.661453125 Q 101.88359374999999 300.9319375 108.30985937499997 303.049421875 Q 114.73612499999996 305.16690625 117.73506249999997 305.802140625 Q 120.73399999999998 306.437375 127.16026562499997 307.70787499999994 Q 133.58653124999995 308.97837499999997 135.51440624999995 309.190109375 Q 137.44228124999995 309.40184375 139.79857812499995 309.40184375 Q 142.15487499999995 309.40184375 143.01170312499997 309.190109375 Q 143.86853125 308.97837499999997 144.72537499999999 308.766625 Q 145.58221874999998 308.554875 146.22484374999996 308.131375 Q 146.86746874999994 307.707875 146.86746874999994 307.496125 Q 146.86746874999994 307.284375 146.65326562499996 305.802140625 Q 146.43906249999998 304.31990625 146.01064062499998 303.472921875 Q 145.58221874999998 302.62593749999996 142.369078125 300.93195312499995 Q 139.1559375 299.23796875 135.94281249999997 298.39096874999996 Q 132.72968749999995 297.54396875 128.01709374999996 296.27348437499995 Q 123.30449999999996 295.003 120.51978124999997 294.5795 Q 117.73506249999997 294.156 112.37984374999996 293.097265625 Q 107.02462499999996 292.03853125 105.31095312499997 291.82678125 Q 103.59728124999998 291.61503125 102.31203124999996 291.40328124999996 Q 101.02678124999994 291.19153124999997 98.88468749999996 290.76803125 Q 96.74259374999997 290.34453125 95.88574999999997 290.13278125 Q 95.02890624999998 289.92103125 94.17207812499998 289.709296875 Q 93.31524999999999 289.4975625 93.10103906249998 289.4975625 Q 92.88682812499997 289.4975625 93.31524218749996 289.2858125 Q 93.74365624999996 289.07406249999997 95.88574999999997 288.2270625 Q 98.02784374999999 287.3800625 101.45518749999997 286.32132812500004 Q 104.88253124999994 285.26259375 111.95142187499997 282.72160937499996 Q 119.02031249999999 280.18062499999996 123.51870312499997 278.27490624999996 Q 128.01709374999996 276.3691875 133.37231249999996 273.82820312499996 Q 138.72753124999997 271.28721874999997 140.44120312499996 270.228484375 Q 142.15487499999995 269.16974999999996 144.93959374999997 267.26401562499996 Q 147.7243125 265.35828125 148.581140625 264.72303124999996 Q 149.43796874999998 264.08778125 150.29481249999998 262.393796875 Q 151.15165624999997 260.6998125 151.15165624999997 259.64107812500004 Q 151.15165624999997 258.58234375 150.72323437499998 257.100109375 Q 150.29481249999998 255.617875 148.79534374999997 252.86515625 Q 147.29587499999997 250.11243750000003 145.58220312499998 248.63018750000003 Q 143.86853125 247.14793750000004 137.01385937499998 244.60696875000002 Q 130.15918749999997 242.066 127.80289062499997 241.21900000000002 Q 125.44659374999998 240.37200000000004 120.73398437499998 239.94851562500003 Q 116.02137499999998 239.52503125 113.02245312499997 239.52503125 Q 110.02353124999996 239.52503125 106.59618749999996 239.94851562500003 Q 103.16884374999995 240.37200000000004 102.09781249999995 240.58375000000004 Q 101.02678124999994 240.79550000000003 100.16993749999995 241.21900000000002 Q 99.31309374999995 241.6425 98.02784374999996 242.27775000000003 Q 96.74259374999997 242.91300000000004 96.31417187499997 243.12475000000003 Q 95.88574999999997 243.33650000000003 95.45732812499998 244.18348437500003 Q 95.02890624999998 245.03046875000004 94.81470312499997 245.87746875000002 Q 94.60049999999995 246.72446875 94.81470312499997 249.26543750000002 Q 95.02890624999998 251.80640625000004 95.45732812499998 253.28864062500003 Q 95.88574999999997 254.77087500000002 99.09889062499997 259.00584375 Q 102.31203124999996 263.2408125 104.66832812499996 265.14653125 Q 107.02462499999996 267.05225 108.95249999999996 268.746234375 Q 110.88037499999996 270.44021875 113.45087499999997 272.981203125 Q 116.02137499999998 275.5221875 116.87821874999997 276.369171875 Q 117.73506249999997 277.21615625 120.30556249999998 278.698390625 Q 122.87606249999999 280.18062499999996 124.16132812499998 280.815875 Q 125.44659374999998 281.451125 128.65971874999997 283.356859375 Q 131.87284374999996 285.26259375 132.72968749999995 285.897828125 Q 133.58653124999995 286.53306249999997 134.01493749999997 286.9565625 Q 134.44334375 287.3800625 132.943890625 287.5918125 Q 131.4444375 287.8035625 130.15918749999997 288.0153125 Q 128.87393749999995 288.2270625 127.37446874999995 288.0153125 Q 125.87499999999994 287.8035625 121.80503124999996 286.95657812499996 Q 117.73506249999997 286.10959375 114.95034374999997 285.68609375 Q 112.16562499999998 285.26259375 107.66723437499996 285.47434375 Q 103.16884374999995 285.68609375 102.09781249999995 285.89784375 Q 101.02678124999994 286.10959375 99.31310937499995 286.533078125 Q 97.59943749999996 286.95656249999996 96.74259374999997 287.16831249999996 Q 95.88574999999997 287.3800625 94.38628906249997 288.2270625 Q 92.88682812499997 289.07406249999997 92.24420312499996 289.497546875 Q 91.60157812499995 289.92103125 90.95895312499997 290.34453125 Q 90.31632812499998 290.76803125 89.88790624999999 291.61503125 Q 89.45948437499999 292.46203125 89.24528124999998 292.885515625 Q 89.03107812499996 293.30899999999997 89.24528124999998 295.002984375 Q 89.45948437499999 296.69696875 89.67369531249997 297.54396875 Q 89.88790624999996 298.39096875 90.53053124999997 299.661453125 Q 91.17315624999998 300.9319375 91.81578124999999 301.5671875 Q 92.45840625 302.2024375 93.95787499999997 303.26117187499995 Q 95.45734374999995 304.31990625 96.52839062499996 304.53165624999997 Q 97.59943749999996 304.74340624999996 100.16993749999997 304.74340624999996 Q 102.74043749999998 304.74340624999996 104.02568749999998 303.89640625 Q 105.31093749999997 303.04940625 106.59618749999996 301.990671875 Q 107.88143749999995 300.9319375 109.38090624999995 298.39096874999996 Q 110.88037499999996 295.84999999999997 111.52299999999997 294.156015625 Q 112.16562499999998 292.46203125 112.37984374999996 286.744828125 Q 112.59406249999995 281.027625 112.16564062499995 278.69840625 Q 111.73721874999995 276.3691875 109.16670312499997 270.440234375 Q 106.59618749999998 264.51128124999997 104.88251562499997 261.9703125 Q 103.16884374999995 259.42934375 100.59834374999997 254.770890625 Q 98.02784374999999 250.11243750000003 96.95679687499998 248.20670312500002 Q 95.88574999999997 246.30096875 93.95787499999997 242.913 Q 92.02999999999997 239.52503125 91.38736718749996 238.46628125 Q 90.74473437499995 237.40753125 89.88790624999996 236.348796875 Q 89.03107812499996 235.2900625 86.46057031249997 233.17257812500003 Q 83.89006249999997 231.05509375000003 82.39060156249997 230.20810937500002 Q 80.89114062499996 229.36112500000002 78.74904687499996 227.878890625 Q 76.60695312499996 226.39665625 75.96432812499997 225.97315625000002 Q 75.32170312499997 225.54965625000003 74.25065624999996 224.91440625 Q 73.17960937499996 224.27915625000003 72.75119531249996 224.06742187500004 Q 72.32278124999996 223.85568750000002 71.68015624999997 223.4321875 Q 71.03753124999997 223.0086875 70.60910937499997 222.58518750000002 Q 70.18068749999998 222.16168750000003 69.96647656249998 221.94993750000003 Q 69.75226562499998 221.7381875 69.32385156249997 221.52643750000001 Q 68.89543749999996 221.31468750000002 69.96648437499996 221.10293750000002 Q 71.03753124999997 220.89118750000003 72.53699218749998 220.89118750000003 Q 74.03645312499998 220.89118750000003 77.89221093749997 221.10293750000002 Q 81.74796874999996 221.31468750000002 83.24742968749996 221.94993750000003 Q 84.74689062499996 222.58518750000002 86.03214843749997 223.0086875 Q 87.31740624999998 223.43218750000003 90.31632812499998 224.06742187500004 Q 93.31524999999999 224.70265625000002 95.88574999999997 224.91440625 Q 98.45624999999995 225.12615625 104.02568749999998 225.54965625 Q 109.595125 225.97315625000002 111.951421875 225.76140625000002 Q 114.30771874999999 225.54965625000003 119.87715624999998 225.12615625 Q 125.44659374999998 224.70265625000002 128.87392187499998 224.27917187500003 Q 132.30124999999998 223.85568750000002 136.79964062499997 223.4321875 Q 141.29803124999995 223.0086875 143.22590624999995 222.7969375 Q 145.15378124999995 222.58518750000002 147.08167187499996 222.37343750000002 Q 149.00956249999996 222.16168750000003 155.43582812499997 221.73818750000004 Q 161.86209374999999 221.31468750000002 164.64681249999998 221.10293750000002 Q 167.43153124999998 220.89118750000003 173.42937499999996 220.89118750000003 Q 179.42721874999995 220.89118750000003 183.06876562499997 220.89118750000003 Q 186.7103125 220.89118750000003 191.63712499999997 220.89118750000003 Q 196.56393749999995 220.89118750000003 198.92023437499995 221.10293750000002 Q 201.27653124999995 221.31468750000002 208.77384374999997 222.58518750000002 Q 216.27115625 223.85568750000002 219.48428124999998 224.49092187500003 Q 222.69740624999997 225.12615625 228.90946874999997 226.60839062500003 Q 235.12153124999998 228.09062500000002 238.33465624999997 228.72587500000003 Q 241.54778124999996 229.36112500000002 243.68987499999997 229.996359375 Q 245.83196875 230.63159375 248.61668749999998 231.05509375000003 Q 251.40140624999998 231.47859375000002 252.68665624999997 231.90209375 Q 253.97190624999996 232.32559375000002 255.89978124999996 232.74909375000001 Q 257.82765624999996 233.17259375 258.47028124999997 233.38434375000003 Q 259.11290625 233.59609375000002 259.96975 234.019578125 Q 260.82659375 234.44306250000002 260.82659375 234.65481250000002 Q 260.82659375 234.86656250000001 261.04079687499996 234.86656250000001 Q 261.255 234.86656250000001 261.46921875 234.65481250000002 Q 261.68343749999997 234.44306250000002 262.54026562499996 234.019578125 Q 263.39709374999995 233.59609375000002 264.25393749999995 233.38434375000003 Q 265.11078124999995 233.17259375 267.89548437499997 233.17259375 Q 270.6801875 233.17259375 272.608078125 233.17259375 Q 274.53596875 233.17259375 278.17751562499996 232.74909375000001 Q 281.8190625 232.32559375000002 283.74693749999994 232.11384375 Q 285.6748125 231.90209375 290.81582812499994 231.90209375 Q 295.95684374999996 231.90209375 298.0989375 231.90209375 Q 300.24103125 231.90209375 303.02575 231.90209375 Q 305.81046875 231.90209375 307.309921875 231.90209375 Q 308.809375 231.90209375 310.30884375 232.32559375 Q 311.8083125 232.74909375000001 316.52090625 233.80782812500001 Q 321.2335 234.86656250000001 323.804 235.50181250000003 Q 326.37449999999995 236.13706250000004 330.23026562499996 237.19579687500004 Q 334.08603124999996 238.25453125000004 335.79970312499995 238.88978125000003 Q 337.513375 239.52503125 341.154921875 241.43076562500002 Q 344.79646875 243.33650000000003 346.72434375 244.39523437500003 Q 348.65221875000003 245.45396875000003 351.65115625 248.20668750000002 Q 354.65009374999994 250.95940625 355.721140625 252.229890625 Q 356.7921875 253.500375 357.649 254.559125 Q 358.5058125 255.617875 359.1484375 257.100109375 Q 359.7910625 258.58234375 359.7910625 259.21759375 Q 359.7910625 259.85284375 359.576875 260.488078125 Q 359.36268749999994 261.1233125 358.29162499999995 261.5468125 Q 357.22056249999997 261.9703125 353.36481249999997 262.6055625 Q 349.50906249999997 263.2408125 347.36696874999996 263.664296875 Q 345.22487499999994 264.08778125 336.870734375 265.35828125 Q 328.51659374999997 266.62878125 324.232421875 267.052265625 Q 319.94825 267.47575 316.30668749999995 268.111 Q 312.665125 268.74625 299.81259375 270.01673437499994 Q 286.9600625 271.28721874999997 281.60484375 271.92246875 Q 276.249625 272.55771875 268.10968749999995 274.039953125 Q 259.96975 275.5221875 255.47135937499996 276.15742187499995 Q 250.97296874999995 276.79265625 242.19040624999997 278.06315625 Q 233.40784374999998 279.33365625 229.55209374999998 280.180640625 Q 225.69634374999998 281.027625 218.627453125 282.509859375 Q 211.5585625 283.99209375 210.487515625 284.62734375 Q 209.41646874999998 285.26259375 208.13121875 286.32132812500004 Q 206.84596875 287.3800625 206.63174999999998 287.8035625 Q 206.41753124999997 288.2270625 206.20332812499996 288.6505625 Q 205.98912499999994 289.07406249999997 207.27437499999996 290.13279687499994 Q 208.55962499999998 291.19153124999997 210.91592187499998 291.82678124999995 Q 213.27221874999998 292.46203125 218.84165624999997 292.885515625 Q 224.41109374999996 293.30899999999997 228.05264062499998 293.30899999999997 Q 231.6941875 293.30899999999997 239.61990624999999 293.73249999999996 Q 247.54562499999997 294.156 250.54456249999998 294.156 Q 253.5435 294.156 260.18396874999996 294.36775 Q 266.8244375 294.5795 270.25178125 294.5795 Q 273.679125 294.5795 275.60699999999997 294.5795 Q 277.534875 294.5795 281.8190625 295.003 Q 286.10324999999995 295.4265 288.6737499999999 295.84998437499996 Q 291.24424999999997 296.27346875 294.885796875 297.33221875000004 Q 298.52734375 298.39096875 299.598390625 298.81446875 Q 300.66943749999996 299.23796875 301.9546875 300.50845312499996 Q 303.2399375 301.7789375 303.45415625 302.41417187499997 Q 303.66837499999997 303.04940625 303.02574999999996 303.89640625 Q 302.38312499999995 304.74340624999996 301.31207812499997 304.95515624999996 Q 300.24103125 305.16690625 298.0989375 305.37865625 Q 295.95684374999996 305.59040625 289.95899999999995 305.80215625 Q 283.96115625 306.01390625 278.6059375 306.649140625 Q 273.25071875 307.284375 266.610234375 308.34310937500004 Q 259.96975 309.40184375 256.114 309.82534375 Q 252.25824999999998 310.24884375 244.76093749999998 311.30759375 Q 237.263625 312.36634375 235.335734375 313.001578125 Q 233.40784374999998 313.63681249999996 230.19471874999996 314.4838125 Q 226.98159374999994 315.3308125 225.91054687499997 315.5425625 Q 224.8395 315.75431249999997 223.76845312499998 316.177796875 Q 222.69740624999997 316.60128125 222.91162499999996 316.60128125 Q 223.12584374999994 316.60128125 225.05371874999994 317.02478125 Q 226.98159374999994 317.44828125 229.33789062499997 317.66003125 Q 231.6941875 317.87178124999997 238.12045312499998 317.87178124999997 Q 244.54671874999997 317.87178124999997 246.68881249999998 317.44828125 Q 248.83090625 317.02478125 252.472453125 316.177796875 Q 256.114 315.3308125 257.82767187499996 314.6955625 Q 259.54134374999995 314.0603125 263.18289062499997 313.213328125 Q 266.8244375 312.36634375 267.89548437499997 312.36634375 Q 268.96653124999995 312.36634375 269.394953125 312.36634375 Q 269.823375 312.36634375 269.60915624999996 312.15459375 Q 269.39493749999997 311.94284375 267.681265625 311.51934374999996 Q 265.96759375 311.09584375 264.68234375 310.88409375 Q 263.39709374999995 310.67234375 256.97082812499997 309.82535937499995 Q 250.54456249999998 308.97837499999997 245.18934374999998 308.343125 Q 239.83412499999997 307.707875 229.33789062499997 306.225640625 Q 218.84165624999997 304.74340624999996 214.55746874999997 304.10815625 Q 210.27328124999997 303.47290625 206.84595312499997 302.83767187499996 Q 203.41862499999996 302.2024375 193.35079687499996 300.720203125 Q 183.28296874999995 299.23796875 179.42721874999995 298.60271875 Q 175.57146874999995 297.96746874999997 167.21731249999996 296.27348437499995 Q 158.86315624999997 294.5795 156.72107812499996 293.94425 Q 154.57899999999995 293.30899999999997 151.15165624999997 292.673765625 Q 147.7243125 292.03853125 146.653265625 291.82678125 Q 145.58221874999998 291.61503125 143.22592187499998 291.19153125 Q 140.86962499999998 290.76803125 139.58437499999997 290.55628125 Q 138.29912499999995 290.34453125 137.22807812499997 290.13278125 Q 136.15703125 289.92103125 134.65756249999998 289.497546875 Q 133.15809374999998 289.07406249999997 132.94389062499997 289.07406249999997 Q 132.72968749999995 289.07406249999997 132.30126562499996 289.07406249999997 Q 131.87284374999996 289.07406249999997 131.23021874999998 289.921046875 Q 130.58759375 290.76803125 130.15917187499997 292.03851562499995 Q 129.73074999999994 293.30899999999997 128.01707812499995 298.390953125 Q 126.30340624999997 303.47290625 125.44657812499997 306.225640625 Q 124.58974999999998 308.97837499999997 123.51870312499997 312.15459375 Q 122.44765624999997 315.3308125 121.80503124999996 316.38954687499995 Q 121.16240624999995 317.44828125 120.73398437499995 318.29528125 Q 120.30556249999995 319.14228125 119.66293749999997 319.98926562500003 Q 119.02031249999999 320.83625 118.80610937499998 321.048 Q 118.59190624999997 321.25975 118.59190624999997 321.048 Q 118.59190624999997 320.83625 118.16348437499997 320.41274999999996 Q 117.73506249999997 319.98924999999997 116.44981249999998 317.87178124999997 Q 115.16456249999999 315.75431249999997 114.52193749999998 313.848578125 Q 113.87931249999997 311.94284375 112.16564062499998 307.919625 Q 110.45196874999999 303.89640625 109.59512499999997 301.5671875 Q 108.73828124999994 299.23796875 107.66723437499996 296.696984375 Q 106.59618749999998 294.156 104.45410937499997 289.28579687499996 Q 102.31203124999996 284.41559374999997 101.45518749999997 282.086375 Q 100.59834374999997 279.75715625 99.09889062499997 274.25170312499995 Q 97.59943749999996 268.74625 96.52839062499996 265.99353125 Q 95.45734374999995 263.2408125 93.52946093749995 259.85284375000003 Q 91.60157812499995 256.464875 90.53053124999997 254.770890625 Q 89.45948437499999 253.07690625 87.53160937499997 250.747671875 Q 85.60373437499996 248.4184375 84.96110156249996 247.99493750000002 Q 84.31846874999997 247.57143750000003 83.46163281249997 247.35968750000004 Q 82.60479687499998 247.14793750000004 80.89113281249998 247.14793750000004 Q 79.17746874999997 247.14793750000004 78.32063281249997 247.14793750000004 Q 77.46379687499996 247.14793750000004 75.96432812499997 248.20668750000002 Q 74.46485937499997 249.2654375 73.60803124999997 250.324171875 Q 72.75120312499996 251.38290625 71.46594531249997 253.923890625 Q 70.18068749999998 256.464875 69.96647656249998 257.94710937499997 Q 69.75226562499998 259.42934375 69.53806249999997 263.664296875 Q 69.32385937499996 267.89925 69.53806249999997 270.440234375 Q 69.75226562499998 272.98121875 69.96647656249998 275.0986875 Q 70.18068749999998 277.21615625 70.60910937499997 279.757140625 Q 71.03753124999997 282.29812499999997 71.25173437499997 282.933359375 Q 71.46593749999997 283.56859375 72.32277343749996 285.05082812499995 Q 73.17960937499996 286.53306249999997 74.25065624999996 287.16831249999996 Q 75.32170312499997 287.8035625 78.10642187499997 288.86229687499997 Q 80.89114062499996 289.92103125 81.74796874999997 290.13278125 Q 82.60479687499998 290.34453125 84.74689062499998 289.70929687499995 Q 86.88898437499998 289.07406249999997 87.96003124999997 288.2270625 Q 89.03107812499996 287.3800625 89.88790624999996 285.474328125 Q 90.74473437499995 283.56859375 92.24419531249995 277.21615625 Q 93.74365624999996 270.86371875 93.95787499999997 267.6875 Q 94.17209374999999 264.51128124999997 93.95787499999997 259.429328125 Q 93.74365624999996 254.34737500000003 93.74365624999996 251.59465625 Q 93.74365624999996 248.8419375 92.88682812499997 243.54823437500002 Q 92.02999999999997 238.25453125000004 91.38736718749996 236.137046875 Q 90.74473437499995 234.0195625 89.67369531249997 231.47859375000002 Q 88.60265625 228.93762500000003 88.17423437499997 228.51412500000004 Q 87.74581249999994 228.09062500000002 87.10318749999996 228.09062500000002 Q 86.46056249999998 228.09062500000002 85.81793749999997 229.572859375 Q 85.17531249999996 231.05509375000003 85.17531249999996 232.32559375000002 Q 85.17531249999996 233.59609375000002 86.03214843749997 236.98404687500005 Q 86.88898437499998 240.37200000000004 87.53160937499997 242.70123437500004 Q 88.17423437499997 245.03046875000004 90.10211718749997 249.26542187500002 Q 92.02999999999997 253.500375 92.88682812499997 254.770875 Q 93.74365624999996 256.04137499999996 96.31417187499997 258.37059375 Q 98.88468749999998 260.6998125 101.24098437499998 261.75856250000004 Q 103.59728124999998 262.8173125 108.09567187499997 263.87604687500004 Q 112.59406249999995 264.93478125 114.95035937499995 265.78178125 Q 117.30665624999995 266.62878125 120.51978124999997 267.68751562499995 Q 123.73290624999998 268.74625 130.15917187499997 270.440234375 Q 136.58543749999995 272.13421875 138.94173437499995 273.19295312500003 Q 141.29803124999995 274.2516875 144.93957812499997 274.8869375 Q 148.581125 275.5221875 150.72321874999997 275.73393749999997 Q 152.86531249999996 275.94568749999996 157.14948437499996 276.1574375 Q 161.43365624999996 276.3691875 163.14732812499997 276.1574375 Q 164.861 275.94568749999996 167.217296875 275.5221875 Q 169.57359375 275.0986875 170.43043749999998 274.8869375 Q 171.28728124999998 274.6751875 171.71570312499998 274.6751875 Q 172.14412499999997 274.6751875 170.00203124999996 274.2516875 Q 167.85993749999994 273.8281875 164.86101562499996 273.40470312499997 Q 161.86209374999999 272.98121875 156.07845312499998 272.34596875 Q 150.29481249999998 271.71071875 146.65326562499996 271.49896875 Q 143.01171874999994 271.28721874999997 135.72860937499996 270.65196875 Q 128.44549999999998 270.01671875 126.30340624999997 270.01671875 Q 124.16131249999995 270.01671875 120.30556249999995 270.01671875 Q 116.44981249999995 270.01671875 114.30771874999996 270.01671875 Q 112.16562499999998 270.01671875 110.02353124999996 269.804984375 Q 107.88143749999995 269.59325 105.52514062499995 269.16975 Q 103.16884374999995 268.74625 102.31201562499996 268.5345 Q 101.45518749999997 268.32275 100.38414062499996 267.89925 Q 99.31309374999995 267.47575 98.88467187499995 267.264 Q 98.45624999999995 267.05225 98.02784374999996 266.628765625 Q 97.59943749999996 266.20528125 97.38521874999998 265.99353125 Q 97.17099999999999 265.78178125 96.74259374999997 265.57003125 Q 96.31418749999995 265.35828125 95.45734374999995 264.087796875 Q 94.60049999999995 262.8173125 94.38629687499997 262.39381249999997 Q 94.17209374999999 261.9703125 93.74367187499999 260.911578125 Q 93.31524999999999 259.85284375 92.886828125 258.79409375 Q 92.45840625 257.73534374999997 92.02999218749997 255.82960937500002 Q 91.60157812499995 253.92387500000004 91.38736718749996 253.07689062500003 Q 91.17315624999998 252.22990625000003 90.31632031249998 250.11242187500002 Q 89.45948437499999 247.99493750000002 89.03107031249999 246.93620312500002 Q 88.60265625 245.87746875000002 88.17423437499997 244.183484375 Q 87.74581249999994 242.4895 87.53160937499996 241.85425 Q 87.31740624999998 241.21900000000002 87.10319531249998 240.583765625 Q 86.88898437499998 239.94853125 86.88898437499998 239.31328125000002 Q 86.88898437499998 238.67803125000003 86.88898437499998 238.46628125000004 Q 86.88898437499998 238.25453125000004 86.46056249999998 237.61929687500003 Q 86.03214062499998 236.98406250000002 85.60372656249997 236.77231250000003 Q 85.17531249999996 236.56056250000003 84.10426562499997 236.56056250000003 Q 83.03321874999997 236.56056250000003 82.60480468749998 236.56056250000003 Q 82.17639062499998 236.56056250000003 81.74796874999997 237.195796875 Q 81.31954687499996 237.83103125 81.10534374999996 238.25453125 Q 80.89114062499996 238.67803125000003 81.10534374999996 241.21900000000002 Q 81.31954687499996 243.75996875 81.96217187499997 245.66570312500002 Q 82.60479687499998 247.57143750000003 83.24742968749997 249.90067187500003 Q 83.89006249999997 252.22990625000003 84.96110156249998 255.40612500000003 Q 86.03214062499998 258.58234375 86.46056249999998 259.64107812500004 Q 86.88898437499998 260.6998125 87.53160937499997 262.393796875 Q 88.17423437499997 264.08778125 88.81685937499998 264.72303124999996 Q 89.45948437499999 265.35828125 90.74474218749998 266.417015625 Q 92.02999999999997 267.47575 93.10104687499998 267.89925 Q 94.17209374999999 268.32275 98.45626562499999 269.16973437499996 Q 102.74043749999998 270.01671875 105.31093749999997 270.22846875 Q 107.88143749999995 270.44021875 112.37982812499996 270.65196875 Q 116.87821874999997 270.86371875 119.87714062499998 270.86371875 Q 122.87606249999999 270.86371875 126.30340624999997 271.07546874999997 Q 129.73074999999994 271.28721874999997 134.01493749999995 271.49896875 Q 138.29912499999995 271.71071875 140.22699999999995 272.13421875 Q 142.15487499999995 272.55771875 146.22484374999996 273.19295312500003 Q 150.29481249999998 273.8281875 152.43690624999996 274.2516875 Q 154.57899999999995 274.6751875 158.86317187499995 275.73392187499996 Q 163.14734374999995 276.79265625 164.86101562499996 277.42790625 Q 166.57468749999998 278.06315624999996 167.85993749999997 278.48665625 Q 169.14518749999996 278.91015625 171.07306249999996 279.33365625 Q 173.00093749999996 279.75715625 174.07198437499997 279.968890625 Q 175.14303124999998 280.18062499999996 177.07092187499998 280.18062499999996 Q 178.99881249999999 280.18062499999996 179.85564062499998 279.968890625 Q 180.71246874999997 279.75715625 182.21193749999998 278.27490624999996 L 183.72140624999997 276.78265625" stroke-linecap="round" />
</g>
</svg>