<?xml version="1.0" encoding="UTF-8" standalone="no" ?>
<!DOCTYPE svg PUBLIC "-//W3C//DTD SVG 1.1//EN" "http://www.w3.org/Graphics/SVG/1.1/DTD/svg11.dtd">
<svg xmlns="http://www.w3.org/2000/svg" xmlns:xlink="http://www.w3.org/1999/xlink" version="1.1" width="640" height="640" viewBox="0 0 640 640" xml:space="preserve">
<desc>Created with Fabric.js 4.6.0</desc>
<defs>
</defs>
<g transform="matrix(1 0 0 1 146.94 210.94)" id="AjbavnHUK4NmVSjfBja8-"  >
<path style="stroke: rgb(53,237,53); stroke-width: 10; stroke-dasharray: none; stroke-linecap: round; stroke-dashoffset: 0; stroke-linejoin: round; stroke-miterlimit: 10; fill: none; fill-rule: nonzero; opacity: 1;" vector-effect="non-scaling-stroke"  transform=" translate(-146.94, -210.94)" d="M 146.93399999999997 210.94400000000002 L 146.95399999999995 210.94400000000002" stroke-linecap="round" />
</g>
<g transform="matrix(1 0 0 1 257.95 208.85)" id="LHSTRnUyrGS2ifzMSYUJC"  >
<path style="stroke: rgb(0,0,0); stroke-width: 10; stroke-dasharray: none; stroke-linecap: round; stroke-dashoffset: 0; stroke-linejoin: round; stroke-miterlimit: 10; fill: none; fill-rule: nonzero; opacity: 1;" vector-effect="non-scaling-stroke"  transform=" translate(-257.95, -208.85)" d="M 137.003875 209.03331250000002 Q 137.01387499999998 209.03331250000002 138.29912499999998 209.03331250000002 Q 139.58437499999997 209.03331250000002 141.29804687499995 209.03331250000002 Q 143.01171874999994 209.03331250000002 144.72539062499996 209.03331250000002 Q 146.43906249999998 209.03331250000002 149.22376562499997 209.4568125 Q 152.00846874999996 209.8803125 160.14840624999997 211.15079687500003 Q 168.28834374999997 212.42128125000002 172.57253124999997 213.05653125000003 Q 176.85671874999997 213.69178125000002 185.21085937499998 214.538765625 Q 193.565 215.38575 196.34971875 215.174 Q 199.1344375 214.96225 208.98804687499998 214.327015625 Q 218.84165624999997 213.69178125000002 223.55424999999997 213.26828125000003 Q 228.26684374999996 212.84478125 238.54887499999998 211.36254687500002 Q 248.83090625 209.8803125 251.615609375 209.03331250000002 Q 254.40031249999998 208.1863125 259.96975 206.91582812500002 Q 265.53918749999997 205.64534375000002 276.89225 203.31610937500002 Q 288.24531249999995 200.98687500000003 293.60054687499996 199.92814062500003 Q 298.95578125 198.86940625000003 307.309921875 197.38717187500004 Q 315.6640625 195.90493750000002 321.01928124999995 195.48143750000003 Q 326.37449999999995 195.0579375 335.58548437499996 194.8461875 Q 344.79646875 194.63443750000002 349.50906249999997 194.8461875 Q 354.22165624999997 195.0579375 357.006359375 195.0579375 Q 359.7910625 195.0579375 366.4315625 195.90493750000002 Q 373.07206249999996 196.75193750000003 377.14203124999995 197.81067187500003 Q 381.21199999999993 198.86940625000003 385.92459374999993 200.35164062500002 Q 390.6371874999999 201.833875 392.56506249999995 202.46912500000002 Q 394.4929375 203.104375 398.3486875 204.37485937500003 Q 402.2044375 205.64534375000002 403.4896875 206.28059375000004 Q 404.7749375 206.91584375000002 406.91703125 207.97457812500002 Q 409.05912499999994 209.03331250000002 409.48756249999997 209.24506250000002 Q 409.916 209.4568125 410.34440624999996 209.8803125 Q 410.77281249999993 210.30381250000002 409.27334375 210.72729687500004 Q 407.77387500000003 211.15078125000002 405.846 211.36253125000002 Q 403.918125 211.57428125 399.20553125 211.57428125 Q 394.4929375 211.57428125 390.6371875 211.78603125 Q 386.7814375 211.99778125 380.569375 211.99778125 Q 374.3573125 211.99778125 372.21521874999996 211.99778125 Q 370.07312499999995 211.99778125 361.71896875 212.42128125 Q 353.3648125 212.84478125 349.5090625 212.84478125 Q 345.6533125 212.84478125 342.011765625 213.05653125 Q 338.37021875 213.26828125 329.58764062499995 213.26828125 Q 320.80506249999996 213.26828125 318.44876562499996 213.48003125000002 Q 316.09246874999997 213.69178125000002 307.95253125 214.115265625 Q 299.81259374999996 214.53875000000002 295.31421875 214.75050000000002 Q 290.81584375 214.96225 281.39064062499995 215.174 Q 271.96543749999995 215.38575 268.538109375 215.38575 Q 265.11078124999995 215.38575 258.89871874999994 215.38575 Q 252.68665625 215.38575 247.75984375 215.38575 Q 242.83303124999998 215.38575 234.47889062499996 215.174 Q 226.12474999999995 214.96225 221.41215624999995 214.75050000000002 Q 216.69956249999996 214.53875000000002 213.48642187499996 214.115265625 Q 210.27328124999997 213.69178125000002 204.06123437499997 213.05653125000003 Q 197.84918749999997 212.42128125000002 193.13659374999997 211.99778125 Q 188.42399999999998 211.57428125 181.78351562499998 211.57428125 Q 175.14303124999998 211.57428125 171.28728124999998 211.99778125 Q 167.43153124999998 212.42128125000002 162.07629687499997 213.05653125000003 Q 156.72106249999996 213.69178125000002 154.79318749999996 214.538765625 Q 152.86531249999996 215.38575 148.58114062499996 217.291484375 Q 144.29696874999996 219.19721875000002 141.51224999999997 220.467703125 Q 138.72753124999997 221.7381875 136.15703124999996 222.37343750000002 Q 133.58653124999995 223.0086875 129.30234374999995 223.0086875 Q 125.01815624999995 223.0086875 115.16454687499996 220.679453125 L 105.30093749999996 218.34021875000002" stroke-linecap="round" />
</g>
<g transform="matrix(1 0 0 1 230.91 214.02)" id="eUYyFBivGMMQyZqnJ-V_T"  >
<path style="stroke: rgb(255,243,18); stroke-width: 10; stroke-dasharray: none; stroke-linecap: round; stroke-dashoffset: 0; stroke-linejoin: round; stroke-miterlimit: 10; fill: none; fill-rule: nonzero; opacity: 1;" vector-effect="non-scaling-stroke"  transform=" translate(-230.91, -214.02)" d="M 230.902 214.01600000000002 L 230.92199999999997 214.01600000000002" stroke-linecap="round" />
</g>
<g transform="matrix(1 0 0 1 229.44 213.5)" id="uXcEzUjvMMSnEwjAyzEVo"  >
<path style="stroke: rgb(0,0,0); stroke-width: 10; stroke-dasharray: none; stroke-linecap: round; stroke-dashoffset: 0; stroke-linejoin: round; stroke-miterlimit: 10; fill: none; fill-rule: nonzero; opacity: 1;" vector-effect="non-scaling-stroke"  transform=" translate(-229.44, -213.5)" d="M 237.06599999999997 214.01600000000002 Q 237.05599999999998 214.01600000000002 236.54399999999998 214.01600000000002 Q 236.03199999999998 214.01600000000002 235.51999999999998 214.01600000000002 Q 235.00799999999998 214.01600000000002 234.49599999999998 214.01600000000002 Q 233.98399999999998 214.01600000000002 233.47199999999998 214.52800000000002 Q 232.95999999999998 215.04000000000002 232.44799999999998 215.04000000000002 Q 231.93599999999998 215.04000000000002 231.42399999999998 215.04000000000002 Q 230.91199999999998 215.04000000000002 230.39999999999998 215.04000000000002 Q 229.88799999999998 215.04000000000002 229.37599999999998 215.04000000000002 Q 228.86399999999998 215.04000000000002 228.35199999999998 215.04000000000002 Q 227.83999999999997 215.04000000000002 227.32799999999997 215.04000000000002 Q 226.81599999999997 215.04000000000002 226.30399999999997 215.04000000000002 Q 225.79199999999997 215.04000000000002 225.27999999999997 215.04000000000002 Q 224.76799999999997 215.04000000000002 224.25599999999997 214.52800000000002 Q 223.74399999999997 214.01600000000002 223.23199999999997 213.50400000000002 Q 222.71999999999997 212.99200000000002 222.20799999999997 212.48000000000002 Q 221.69599999999997 211.96800000000002 222.20799999999997 211.96800000000002 Q 222.71999999999997 211.96800000000002 223.23199999999997 211.96800000000002 Q 223.74399999999997 211.96800000000002 223.74399999999997 212.48000000000002 Q 223.74399999999997 212.99200000000002 224.25599999999997 212.99200000000002 Q 224.76799999999997 212.99200000000002 225.27999999999997 212.99200000000002 Q 225.79199999999997 212.99200000000002 226.30399999999997 212.99200000000002 Q 226.81599999999997 212.99200000000002 227.32799999999997 212.99200000000002 Q 227.83999999999997 212.99200000000002 228.35199999999998 212.99200000000002 Q 228.86399999999998 212.99200000000002 229.37599999999998 212.99200000000002 Q 229.88799999999998 212.99200000000002 230.39999999999998 212.99200000000002 Q 230.91199999999998 212.99200000000002 231.93599999999998 212.99200000000002 L 232.96999999999997 212.99200000000002" stroke-linecap="round" />
</g>
<g transform="matrix(1 0 0 1 303.03 274.68)" id="XDUaDMyAhr5hnF60ImHWH"  >
<path style="stroke: rgb(0,0,0); stroke-width: 10; stroke-dasharray: none; stroke-linecap: round; stroke-dashoffset: 0; stroke-linejoin: round; stroke-miterlimit: 10; fill: none; fill-rule: nonzero; opacity: 1;" vector-effect="non-scaling-stroke"  transform=" translate(-303.03, -274.68)" d="M 278.38171875 208.6198125 Q 278.39171875 208.6098125 278.605921875 208.3980625 Q 278.82012499999996 208.1863125 279.03434374999995 207.97456250000002 Q 279.2485625 207.76281250000002 279.67696875 207.339328125 Q 280.105375 206.91584375000002 280.533796875 206.70409375000003 Q 280.96221875 206.49234375 282.033265625 206.06884375 Q 283.1043125 205.64534375000002 283.96115625 205.64534375000002 Q 284.818 205.64534375000002 286.53165624999997 205.64534375000002 Q 288.24531249999995 205.64534375000002 291.886875 206.49234375000003 Q 295.5284375 207.33934375 297.027890625 207.974578125 Q 298.52734375 208.6098125 300.883640625 209.24506250000002 Q 303.2399375 209.8803125 304.310984375 210.0920625 Q 305.38203124999995 210.30381250000002 307.73832812499995 210.72729687500004 Q 310.09462499999995 211.15078125000002 310.95146875 211.15078125000002 Q 311.8083125 211.15078125000002 313.7361875 211.15078125000002 Q 315.6640625 211.15078125000002 317.377734375 210.93904687500003 Q 319.09140625 210.7273125 321.01928124999995 210.51556250000002 Q 322.94715625 210.30381250000002 326.58871875 209.6685625 Q 330.23028124999996 209.03331250000002 331.51553125 208.82156250000003 Q 332.80078125 208.6098125 334.942859375 208.3980625 Q 337.08493749999997 208.1863125 338.155984375 208.1863125 Q 339.22703125 208.1863125 342.01175 208.1863125 Q 344.79646875 208.1863125 346.2959375 208.1863125 Q 347.79540625 208.1863125 350.580109375 208.60981250000003 Q 353.3648125 209.03331250000002 354.435859375 209.24506250000002 Q 355.50690625 209.4568125 356.363734375 209.6685625 Q 357.22056249999997 209.8803125 358.72003125 210.3038125 Q 360.2195 210.7273125 361.07634375 210.93904687500003 Q 361.9331875 211.15078125000002 363.64684374999996 211.36253125000002 Q 365.36049999999994 211.57428125 366.21734374999994 211.57428125 Q 367.07418749999994 211.57428125 369.21628124999995 211.78603125 Q 371.35837499999997 211.99778125 373.07203124999995 211.99778125 Q 374.78568749999994 211.99778125 378.42724999999996 211.78603125 Q 382.0688125 211.57428125 383.3540625 211.36253125000002 Q 384.6393125 211.15078125000002 387.2098125 211.15078125000002 Q 389.7803125 211.15078125000002 390.63715625 211.15078125000002 Q 391.49399999999997 211.15078125000002 392.56506249999995 211.15078125000002 Q 393.63612499999994 211.15078125000002 396.63503124999994 211.57428125 Q 399.63393749999994 211.99778125 401.5618125 211.99778125 Q 403.4896875 211.99778125 406.27440624999997 212.20953125 Q 409.05912499999994 212.42128125000002 409.91596874999993 212.63303125000002 Q 410.77281249999993 212.84478125 412.91490624999994 212.84478125 Q 415.05699999999996 212.84478125 416.12803125 212.84478125 Q 417.1990625 212.84478125 419.1269375 212.84478125 Q 421.05481249999997 212.84478125 422.12587499999995 212.84478125 Q 423.19693749999993 212.84478125 424.26796874999997 213.05653125 Q 425.339 213.26828125 428.98056249999996 213.48003125000002 Q 432.6221249999999 213.69178125000002 434.33578124999997 213.69178125000002 Q 436.0494375 213.69178125000002 438.83415625 213.69178125000002 Q 441.61887499999995 213.69178125000002 442.6899375 213.69178125000002 Q 443.761 213.69178125000002 445.9030625 213.69178125000002 Q 448.0451249999999 213.69178125000002 449.33037499999995 213.69178125000002 Q 450.61562499999997 213.69178125000002 453.6145625 213.903515625 Q 456.6135 214.11525 458.3271875 214.11525 Q 460.04087499999997 214.11525 462.61137499999995 214.327 Q 465.18187499999993 214.53875000000002 466.0386875 214.75050000000002 Q 466.8955 214.96225 467.75234375 214.96225 Q 468.6091875 214.96225 470.75128125 214.96225 Q 472.89337499999993 214.96225 473.96440624999997 214.96225 Q 475.0354375 214.96225 476.96334375 214.96225 Q 478.89124999999996 214.96225 480.39068749999996 214.96225 Q 481.89012499999995 214.96225 485.5316875 215.174 Q 489.17325 215.38575 490.67271875 215.38575 Q 492.1721875 215.38575 494.7426875 215.174 Q 497.31318749999997 214.96225 498.5984375 214.96225 Q 499.8836875 214.96225 500.74053125 214.96225 Q 501.597375 214.96225 504.167875 214.96225 Q 506.73837499999996 214.96225 508.023625 214.96225 Q 509.308875 214.96225 511.879375 214.96225 Q 514.449875 214.96225 515.30671875 214.96225 Q 516.1635624999999 214.96225 517.8772499999999 214.96225 Q 519.5909374999999 214.96225 520.2335625 214.96225 Q 520.8761875 214.96225 521.733 214.96225 Q 522.5898124999999 214.96225 522.80403125 214.96225 Q 523.0182500000001 214.96225 523.660875 215.174 Q 524.3035 215.38575 524.51771875 215.38575 Q 524.7319375 215.38575 524.94615625 215.38575 Q 525.1603749999999 215.38575 525.58878125 215.38575 Q 526.0171875000001 215.38575 526.2314062500001 215.38575 Q 526.4456250000001 215.38575 526.6598125 215.80925000000002 Q 526.874 216.23275 527.08821875 216.23275 Q 527.3024375 216.23275 527.3024375 216.4445 Q 527.3024375 216.65625000000003 527.3024375 216.86800000000002 Q 527.3024375 217.07975000000002 527.3024375 217.291484375 Q 527.3024375 217.50321875 527.51665625 217.71496875000003 Q 527.730875 217.92671875000002 528.1592812499999 218.77371875 Q 528.5876874999999 219.62071875 528.5876874999999 220.04421875000003 Q 528.5876874999999 220.46771875000002 529.01609375 222.16170312500003 Q 529.4445000000001 223.85568750000002 529.4445000000001 224.91442187500002 Q 529.4445000000001 225.97315625000002 529.65871875 228.09064062500002 Q 529.8729375 230.20812500000002 529.8729375 231.26685937500002 Q 529.8729375 232.32559375000002 529.8729375 234.65482812500002 Q 529.8729375 236.98406250000002 529.8729375 238.25454687500002 Q 529.8729375 239.52503125 529.8729375 240.795515625 Q 529.8729375 242.066 529.8729375 244.81871875000002 Q 529.8729375 247.57143750000003 529.8729375 249.26542187500002 Q 529.8729375 250.95940625 529.8729375 253.923875 Q 529.8729375 256.88834375 529.8729375 258.15884374999996 Q 529.8729375 259.42934375 529.65871875 262.39381249999997 Q 529.4445000000001 265.35828125 529.4445000000001 267.052265625 Q 529.4445000000001 268.74625 529.4445000000001 272.769453125 Q 529.4445000000001 276.79265625 529.4445000000001 278.698390625 Q 529.4445000000001 280.604125 529.4445000000001 283.356859375 Q 529.4445000000001 286.10959375 529.4445000000001 287.591828125 Q 529.4445000000001 289.07406249999997 529.2303125 290.556296875 Q 529.0161249999999 292.03853125 529.0161249999999 295.42650000000003 Q 529.0161249999999 298.81446875 528.8019062499999 300.9319375 Q 528.5876874999999 303.04940625 528.5876874999999 306.22562500000004 Q 528.5876874999999 309.40184375 528.3734687499999 310.46059375 Q 528.1592499999999 311.51934374999996 527.73084375 313.213328125 Q 527.3024375 314.9073125 527.3024375 315.54254687499997 Q 527.3024375 316.17778125 527.08821875 317.44828125000004 Q 526.874 318.71878125 526.874 319.142265625 Q 526.874 319.56575 526.6598125 319.98924999999997 Q 526.4456250000001 320.41275 526.0171875 321.25975 Q 525.5887499999999 322.10675 525.1603437499999 322.53023437499996 Q 524.7319375 322.95371875 523.23246875 324.01246875000004 Q 521.733 325.07121875 520.6619687499999 325.494703125 Q 519.5909374999999 325.9181875 516.592 326.7651875 Q 513.5930625000001 327.6121875 511.87940625 328.0356875 Q 510.16574999999995 328.4591875 506.95259374999995 329.306171875 Q 503.73943749999995 330.15315625 500.95471875 330.57665625 Q 498.17 331.00015625 494.74265625 331.21190624999997 Q 491.31531249999995 331.42365624999996 486.1743125 332.27064062499994 Q 481.0333125 333.117625 478.24859375 333.54112499999997 Q 475.463875 333.964625 466.46709374999995 334.388125 Q 457.4703124999999 334.811625 453.40034374999993 335.023375 Q 449.33037499999995 335.235125 439.04837499999996 335.65860937499997 Q 428.766375 336.08209375 426.62428124999997 336.08209375 Q 424.48218749999995 336.08209375 420.198 336.29384375 Q 415.9138125 336.50559375 406.91703125 336.71734375 Q 397.92024999999995 336.92909375 392.35084374999997 337.14084375 Q 386.7814375 337.35259375 379.71253125 337.77609375 Q 372.643625 338.19959374999996 369.4305 338.623078125 Q 366.217375 339.0465625 357.649015625 339.4700625 Q 349.08065625 339.8935625 345.65331249999997 340.10531249999997 Q 342.22596875 340.31706249999996 333.014984375 340.95231249999995 Q 323.804 341.5875625 321.447703125 341.7993125 Q 319.09140625 342.0110625 313.09356249999996 342.434546875 Q 307.09571874999995 342.85803125 302.81153125 343.06978125 Q 298.52734375 343.28153125 291.886875 343.28153125 Q 285.24640624999995 343.28153125 280.748015625 343.06978125 Q 276.249625 342.85803125 272.60807812499996 342.85803125 Q 268.96653124999995 342.85803125 264.89656249999996 342.85803125 Q 260.82659375 342.85803125 258.25607812499993 342.85803125 Q 255.68556249999995 342.85803125 248.40246874999997 342.64628125 Q 241.119375 342.43453124999996 238.763078125 342.222796875 Q 236.40678125 342.0110625 229.98051562499998 341.5875625 Q 223.55424999999997 341.1640625 219.91270312499998 341.1640625 Q 216.27115625 341.1640625 212.415390625 341.3758125 Q 208.55962499999998 341.5875625 206.84595312499997 341.5875625 Q 205.13228124999995 341.5875625 202.99018749999996 341.7993125 Q 200.84809374999998 342.0110625 194.85024999999996 342.434546875 Q 188.85240624999994 342.85803125 186.28190624999996 342.85803125 Q 183.71140624999998 342.85803125 178.570390625 342.85803125 Q 173.429375 342.85803125 169.35940624999998 343.06978125 Q 165.28943749999996 343.28153125 161.00524999999996 343.49328125 Q 156.72106249999996 343.70503125 155.22160937499996 343.70503125 Q 153.72215624999995 343.70503125 150.50901562499996 343.70503125 Q 147.29587499999997 343.70503125 144.93957812499997 343.70503125 Q 142.58328124999997 343.70503125 139.79857812499998 343.49328125 Q 137.01387499999998 343.28153125 132.94390624999997 343.28153125 Q 128.87393749999995 343.28153125 127.37446874999995 343.28153125 Q 125.87499999999994 343.28153125 123.30449999999996 343.28153125 Q 120.73399999999998 343.28153125 119.44873437499999 343.28153125 Q 118.16346874999999 343.28153125 114.52192187499998 343.06978125 Q 110.88037499999996 342.85803125 108.95249999999996 342.85803125 Q 107.02462499999996 342.85803125 104.88253124999997 342.85803125 Q 102.74043749999998 342.85803125 101.88360937499996 343.06978125 Q 101.02678124999994 343.28153125 100.38414062499996 343.28153125 Q 99.74149999999997 343.28153125 98.67046874999997 343.28153125 Q 97.59943749999996 343.28153125 97.17101562499997 343.06978125 Q 96.74259374999997 342.85803125 95.88574999999997 342.01104687500003 Q 95.02890624999998 341.1640625 94.60049999999998 340.52881249999996 Q 94.17209374999999 339.8935625 93.74367187499999 337.35259375 Q 93.31524999999999 334.811625 92.886828125 333.329390625 Q 92.45840625 331.84715625 91.81578124999999 328.67093750000004 Q 91.17315624999998 325.49471875 90.95894531249996 324.01246875000004 Q 90.74473437499995 322.53021875 90.53053124999997 320.83625 Q 90.31632812499998 319.14228125 89.45949218749999 314.4838125 Q 88.60265625 309.82534375 88.17423437499997 307.496125 Q 87.74581249999994 305.16690625 87.31739843749996 301.5671875 Q 86.88898437499998 297.96746874999997 86.46056249999998 296.27348437499995 Q 86.03214062499998 294.5795 85.17530468749997 290.97978125 Q 84.31846874999997 287.3800625 84.10426562499997 285.05084375 Q 83.89006249999997 282.72162499999996 83.46164062499997 277.639671875 Q 83.03321874999997 272.55771875 82.60480468749998 270.228484375 Q 82.17639062499998 267.89925 81.53376562499997 265.781765625 Q 80.89114062499996 263.66428125 80.03430468749997 259.641078125 Q 79.17746874999997 255.617875 78.74904687499998 253.71214062500002 Q 78.32062499999998 251.80640625000004 77.89221093749997 247.78318750000003 Q 77.46379687499996 243.75996875 77.24958593749996 242.06598437500003 Q 77.03537499999996 240.37200000000004 76.60695312499996 236.98404687500005 Q 76.17853124999996 233.59609375000002 76.17853124999996 232.32559375000002 Q 76.17853124999996 231.05509375000003 76.82116406249996 228.93762500000003 Q 77.46379687499996 226.82015625000003 78.10642187499997 225.54965625000003 Q 78.74904687499998 224.27915625000003 80.46271874999998 222.58517187500001 Q 82.17639062499998 220.89118750000003 83.03322656249998 220.04420312500002 Q 83.89006249999997 219.19721875000002 85.17531249999998 217.92673437500002 Q 86.46056249999998 216.65625000000003 87.10318749999996 216.02100000000002 Q 87.74581249999994 215.38575 88.38844531249995 214.7505 Q 89.03107812499996 214.11525 90.31632812499996 213.26826562500003 Q 91.60157812499995 212.42128125000002 92.45841406249997 211.99778125 Q 93.31524999999999 211.57428125 95.02892187499998 210.515546875 Q 96.74259374999997 209.4568125 98.67046874999997 208.82156250000003 Q 100.59834374999997 208.1863125 104.66831249999996 207.339328125 Q 108.73828124999994 206.49234375 110.23774999999995 206.28059375 Q 111.73721874999995 206.06884375 113.02246874999997 206.06884375 Q 114.30771874999999 206.06884375 116.44981249999998 206.06884375 Q 118.59190624999997 206.06884375 120.09135937499997 206.06884375 Q 121.59081249999997 206.06884375 125.01815624999998 206.49234375000003 Q 128.44549999999998 206.91584375000002 130.15917187499997 207.12759375000002 Q 131.87284374999996 207.33934375 134.65756249999995 207.762828125 Q 137.44228124999995 208.1863125 138.29910937499997 208.3980625 Q 139.1559375 208.6098125 140.86960937499998 208.6098125 Q 142.58328124999997 208.6098125 143.44012499999997 208.6098125 Q 144.29696874999996 208.6098125 146.01064062499998 208.82156250000003 Q 147.7243125 209.03331250000002 148.36693749999998 209.03331250000002 Q 149.00956249999996 209.03331250000002 149.65218749999997 209.03331250000002 Q 150.29481249999998 209.03331250000002 151.58006249999997 209.24506250000002 Q 152.86531249999996 209.4568125 153.72215624999995 209.4568125 Q 154.57899999999995 209.4568125 155.43582812499997 208.82156250000003 L 156.30265624999998 208.17631250000002" stroke-linecap="round" />
</g>
<g transform="matrix(1 0 0 1 160.54 282.51)" id="emZ3suxYL-WGuD6Mm7Ehk"  >
<path style="stroke: rgb(247,47,58); stroke-width: 10; stroke-dasharray: none; stroke-linecap: round; stroke-dashoffset: 0; stroke-linejoin: round; stroke-miterlimit: 10; fill: none; fill-rule: nonzero; opacity: 1;" vector-effect="non-scaling-stroke"  transform=" translate(-160.54, -282.51)" d="M 225.27790624999994 247.14793750000004 Q 225.26790624999995 247.14793750000004 224.62528124999997 247.14793750000004 Q 223.98265625 247.14793750000004 222.05478125 247.14793750000004 Q 220.12690625 247.14793750000004 215.20009374999998 247.14793750000004 Q 210.27328124999997 247.14793750000004 208.34540624999997 247.14793750000004 Q 206.41753124999997 247.14793750000004 200.20546874999997 247.35968750000004 Q 193.99340624999996 247.57143750000003 189.70923437499997 247.57143750000003 Q 185.42506249999997 247.57143750000003 176.21407812499996 246.93620312500002 Q 167.00309374999995 246.30096875 162.50471874999997 246.08921875000001 Q 158.00634374999998 245.87746875000002 152.865328125 245.87746875000002 Q 147.7243125 245.87746875000002 144.08274999999998 245.87746875000002 Q 140.44118749999996 245.87746875000002 134.65756249999995 246.08921875000001 Q 128.87393749999995 246.30096875 127.37446874999995 246.30096875 Q 125.87499999999994 246.30096875 124.37553124999997 246.30096875 Q 122.87606249999999 246.30096875 122.66185937499998 246.51271875 Q 122.44765624999997 246.72446875 124.37553124999997 247.359703125 Q 126.30340624999997 247.99493750000002 129.51654687499996 248.20668750000002 Q 132.72968749999995 248.4184375 137.87070312499995 247.99493750000002 Q 143.01171874999994 247.57143750000003 145.15379687499995 246.93620312500002 Q 147.29587499999997 246.30096875 154.36476562499996 244.81873437500002 Q 161.43365624999996 243.33650000000003 164.43259374999997 242.27775000000003 Q 167.43153124999998 241.21900000000002 173.00095312499997 239.10153125000002 Q 178.57037499999996 236.98406250000002 181.78351562499995 235.92531250000002 Q 184.99665624999994 234.86656250000001 187.78137499999997 233.59607812500002 Q 190.56609375 232.32559375000002 193.56501562499997 229.784609375 Q 196.56393749999995 227.243625 197.42076562499997 226.184890625 Q 198.27759375 225.12615625 199.1344375 223.432171875 Q 199.99128125 221.7381875 199.99128125 221.31468750000002 Q 199.99128125 220.89118750000003 199.34865624999998 220.04420312500002 Q 198.70603124999997 219.19721875000002 196.56393749999998 218.56196875 Q 194.42184375 217.92671875000002 186.06768749999998 217.92671875000002 Q 177.71353124999996 217.92671875000002 172.57253124999997 218.56196875 Q 167.43153124999998 219.19721875000002 162.71893749999998 220.04420312500002 Q 158.00634374999998 220.89118750000003 150.08060937499997 223.64392187500002 Q 142.15487499999995 226.39665625 136.37123437499997 228.090640625 Q 130.58759375 229.784625 122.66185937499998 231.90209375 Q 114.73612499999996 234.0195625 110.88037499999996 235.07831250000004 Q 107.02462499999996 236.13706250000004 103.59728124999995 237.19579687500004 Q 100.16993749999995 238.25453125000004 99.52731249999997 238.46628125000004 Q 98.88468749999998 238.67803125000003 98.02784374999999 239.10153125000002 Q 97.17099999999999 239.52503125 99.31309374999998 239.94851562500003 Q 101.45518749999997 240.37200000000004 104.88253124999997 240.58375000000004 Q 108.30987499999998 240.79550000000003 118.59190624999997 240.79550000000003 Q 128.87393749999995 240.79550000000003 134.01493749999997 240.37201562500002 Q 139.1559375 239.94853125 146.86746874999997 238.67803125 Q 154.57899999999995 237.40753125 159.71999999999997 236.77229687500002 Q 164.861 236.13706250000004 172.14410937499997 235.07831250000004 Q 179.42721874999995 234.0195625 183.49718749999997 233.38432812500002 Q 187.56715624999998 232.74909375000001 191.63712499999997 231.47860937500002 Q 195.70709374999996 230.20812500000002 196.99234374999997 229.784625 Q 198.27759375 229.36112500000002 199.34864062499997 228.93762500000003 Q 200.41968749999995 228.514125 201.70493749999997 228.302375 Q 202.9901875 228.09062500000002 203.20440624999998 228.09062500000002 Q 203.41862499999996 228.09062500000002 197.63498437499996 229.14937500000002 Q 191.85134374999996 230.20812500000002 186.71032812499996 230.41985937500002 Q 181.56931249999997 230.63159375 170.43045312499996 230.41985937500002 Q 159.29159374999995 230.20812500000002 155.86424999999997 230.41985937500002 Q 152.43690625 230.63159375 143.868546875 231.47859375000002 Q 135.3001875 232.32559375000002 132.30126562499998 232.74909375000001 Q 129.30234374999998 233.17259375 127.58867187499996 233.59607812500002 Q 125.87499999999994 234.0195625 124.16132812499995 234.8665625 Q 122.44765624999997 235.7135625 122.01923437499997 235.92531250000002 Q 121.59081249999997 236.13706250000004 121.16240624999998 236.77229687500002 Q 120.73399999999998 237.40753125 120.94820312499996 237.83103125000002 Q 121.16240624999995 238.25453125000004 123.94712499999997 239.94851562500003 Q 126.73184375 241.6425 130.37339062499998 242.912984375 Q 134.01493749999997 244.18346875 137.65648437499996 245.45396875 Q 141.29803124999995 246.72446875 152.22268749999995 250.112421875 Q 163.14734374999995 253.500375 168.28835937499997 255.19435937499998 Q 173.429375 256.88834375 183.71139062499998 259.852828125 Q 193.99340624999996 262.8173125 196.13549999999998 263.240796875 Q 198.27759375 263.66428125 205.77490625 264.72303124999996 Q 213.27221874999998 265.78178125 216.48535937499997 266.20528125 Q 219.69849999999997 266.62878125 222.91162499999996 266.84051562499997 Q 226.12474999999995 267.05225 226.98159374999997 267.05225 Q 227.8384375 267.05225 228.26684375 267.05225 Q 228.69525 267.05225 228.48104687499998 266.84051562499997 Q 228.26684374999996 266.62878125 222.69740624999997 265.35828125 Q 217.12796874999998 264.08778125 213.48642187499996 263.452546875 Q 209.84487499999994 262.8173125 204.06123437499997 262.6055625 Q 198.27759375 262.39381249999997 193.350796875 261.9703125 Q 188.42399999999998 261.5468125 181.99773437499996 261.5468125 Q 175.57146874999995 261.5468125 171.28728124999995 261.7585625 Q 167.00309374999995 261.9703125 163.57574999999997 261.9703125 Q 160.14840625 261.9703125 156.50685937499998 262.1820625 Q 152.86531249999996 262.39381249999997 151.58006249999997 262.39381249999997 Q 150.29481249999998 262.39381249999997 148.58114062499996 262.6055625 Q 146.86746874999994 262.8173125 146.22484374999996 262.8173125 Q 145.58221874999998 262.8173125 145.36799999999997 263.0290625 Q 145.15378124999995 263.2408125 145.36799999999997 263.2408125 Q 145.58221874999998 263.2408125 146.01064062499998 263.452546875 Q 146.43906249999998 263.66428125 152.65110937499998 264.29953125 Q 158.86315624999997 264.93478125 163.14734374999998 264.93478125 Q 167.43153124999998 264.93478125 170.43045312499999 264.72303124999996 Q 173.429375 264.51128124999997 180.71246874999997 264.08778125 Q 187.99556249999995 263.66428125 189.92345312499995 263.452546875 Q 191.85134374999996 263.2408125 193.99342187499997 262.6055625 Q 196.13549999999998 261.9703125 196.778125 261.5468125 Q 197.42075 261.1233125 197.849171875 260.488078125 Q 198.27759375 259.85284375 198.27759375 259.64109375 Q 198.27759375 259.42934375 196.34971875 258.58234374999995 Q 194.42184375 257.73534374999997 191.422921875 257.100109375 Q 188.42399999999998 256.464875 185.21085937499998 256.25312499999995 Q 181.99771875 256.04137499999996 173.429359375 256.88835937499994 Q 164.861 257.73534374999997 161.21945312499997 258.79409375 Q 157.57790624999996 259.85284375 153.72215624999995 261.546828125 Q 149.86640624999995 263.2408125 147.93851562499995 264.723046875 Q 146.01062499999995 266.20528125 141.72645312499995 270.016734375 Q 137.44228124999995 273.8281875 135.51440624999995 275.310421875 Q 133.58653124999995 276.79265625 131.65864062499995 279.333640625 Q 129.73074999999994 281.874625 129.30234374999995 282.933359375 Q 128.87393749999995 283.99209375 129.94496874999996 285.686078125 Q 131.01599999999996 287.3800625 132.72967187499998 288.2270625 Q 134.44334375 289.07406249999997 136.37123437499997 289.70929687499995 Q 138.29912499999995 290.34453125 141.94067187499996 290.97978125 Q 145.58221874999998 291.61503125 149.43796874999998 291.61503125 Q 153.29371874999998 291.61503125 161.00525 291.61503125 Q 168.71678125 291.61503125 171.92990625 291.40328124999996 Q 175.14303124999998 291.19153124999997 182.64034374999997 290.55628125 Q 190.13765624999996 289.92103125 192.06553124999996 289.709296875 Q 193.99340624999996 289.4975625 196.99234374999997 288.86231250000003 Q 199.99128125 288.2270625 201.0623125 287.59181249999995 Q 202.13334375 286.95656249999996 203.418609375 286.321328125 Q 204.70387499999998 285.68609375 205.98912499999997 284.62734375 Q 207.27437499999996 283.56859375 207.27437499999996 283.14510937499995 Q 207.27437499999996 282.72162499999996 206.84595312499997 281.874625 Q 206.41753124999997 281.027625 205.77490624999996 280.60412499999995 Q 205.13228124999995 280.18062499999996 201.49073437499996 279.333640625 Q 197.84918749999997 278.48665625 193.35079687499996 278.27490624999996 Q 188.85240624999994 278.06315624999996 181.35509374999995 279.121890625 Q 173.85778124999996 280.18062499999996 169.14518749999996 281.239375 Q 164.43259374999997 282.29812499999997 160.79104687499998 283.356859375 Q 157.1495 284.41559374999997 152.8653125 286.321328125 Q 148.581125 288.2270625 145.58220312499998 289.074046875 Q 142.58328124999997 289.92103125 136.15701562499996 291.61501562499996 Q 129.73074999999994 293.30899999999997 128.23129687499997 293.73249999999996 Q 126.73184375 294.156 124.58974999999998 295.84998437499996 Q 122.44765624999997 297.54396875 121.80503124999996 298.39096874999996 Q 121.16240624999995 299.23796875 120.30556249999995 300.93195312499995 Q 119.44871874999995 302.62593749999996 119.23451562499997 303.472921875 Q 119.02031249999999 304.31990625 119.23451562499997 305.16690625 Q 119.44871874999995 306.01390625 124.37553124999997 309.82535937499995 Q 129.30234374999998 313.63681249999996 133.15810937499998 315.119046875 Q 137.01387499999998 316.60128125 142.58329687499997 318.29526562499996 Q 148.15271874999996 319.98924999999997 152.65110937499998 320.6245 Q 157.1495 321.25975 164.43259374999997 321.68325 Q 171.71568749999994 322.10675 174.71460937499995 322.318484375 Q 177.71353124999996 322.53021875 183.49717187499996 322.53021875 Q 189.28081249999997 322.53021875 190.78028124999997 322.53021875 Q 192.27974999999998 322.53021875 193.77921874999998 322.95371875 Q 195.2786875 323.37721875 195.70709374999998 323.37721875 Q 196.13549999999998 323.37721875 196.13549999999998 323.58896875 Q 196.13549999999998 323.80071875 192.922375 324.64771874999997 Q 189.70925 325.49471875 186.710328125 325.918203125 Q 183.71140624999998 326.3416875 176.42829687499997 326.3416875 Q 169.14518749999996 326.3416875 165.07521874999998 326.3416875 Q 161.00525 326.3416875 155.86423437499997 326.7651875 Q 150.72321874999994 327.1886875 147.72429687499996 327.4004375 Q 144.72537499999999 327.6121875 137.87068749999997 328.670921875 Q 131.01599999999996 329.72965625 128.65970312499996 330.15315625 Q 126.30340624999997 330.57665625 125.01815624999998 331.21190624999997 Q 123.73290624999998 331.84715625 121.37660937499999 332.905890625 Q 119.02031249999999 333.964625 118.37768749999998 334.599875 Q 117.73506249999997 335.235125 117.09243749999996 336.50560937499995 Q 116.44981249999995 337.77609375 116.44981249999995 338.41132812499995 Q 116.44981249999995 339.0465625 116.87823437499995 340.10531249999997 Q 117.30665624999995 341.1640625 117.52085937499996 341.5875625 Q 117.73506249999997 342.0110625 118.80610937499998 342.858046875 Q 119.87715624999998 343.70503125 121.16240624999998 344.12853125 Q 122.44765624999997 344.55203124999997 124.58974999999998 345.187265625 Q 126.73184375 345.8225 131.23021874999998 346.246 Q 135.72859374999996 346.66949999999997 137.22806249999996 346.88125 Q 138.72753124999997 347.093 142.15487499999998 347.093 Q 145.58221874999998 347.093 148.15271874999996 346.88125 Q 150.72321874999994 346.66949999999997 157.36370312499994 346.034265625 Q 164.00418749999994 345.39903125 166.36048437499997 344.97553125 Q 168.71678125 344.55203124999997 173.000953125 343.49328125 Q 177.285125 342.43453124999996 179.42721874999998 341.587546875 Q 181.56931249999997 340.7405625 184.35403124999996 339.68182812500004 Q 187.13874999999996 338.62309375 187.99557812499995 337.98784375 Q 188.85240624999994 337.35259375 189.28082812499997 336.71734375 Q 189.70925 336.08209375 189.49503124999998 334.811609375 Q 189.28081249999997 333.54112499999997 188.20978124999996 332.905890625 Q 187.13874999999996 332.27065625 183.28298437499996 330.364921875 Q 179.42721874999995 328.4591875 176.21407812499996 327.8239375 Q 173.00093749999996 327.1886875 164.64679687499998 326.5534375 Q 156.29265625 325.9181875 153.72215624999998 326.1299375 Q 151.15165624999997 326.3416875 147.93851562499998 326.97693749999996 Q 144.72537499999999 327.6121875 137.22806249999996 328.882671875 Q 129.73074999999994 330.15315625 127.16024999999996 331.00015625000003 Q 124.58974999999998 331.84715625 120.51978124999997 333.752875 Q 116.44981249999995 335.65859374999997 114.95034374999997 336.50559375 Q 113.450875 337.35259375 111.523 338.41132812499995 Q 109.595125 339.4700625 109.38092187499998 339.6818125 Q 109.16671874999997 339.8935625 109.38092187499998 340.10531249999997 Q 109.595125 340.31706249999996 110.45195312499999 340.52881249999996 Q 111.30878124999998 340.7405625 112.59404687499998 340.7405625 Q 113.87931249999997 340.7405625 117.94928124999996 339.89356250000003 Q 122.01924999999994 339.0465625 125.01817187499995 338.199578125 Q 128.01709374999996 337.35259375 133.37231249999996 335.446859375 Q 138.72753124999997 333.54112499999997 141.08382812499997 332.27064062499994 Q 143.44012499999997 331.00015625 149.22376562499997 328.459171875 Q 155.00740624999997 325.9181875 158.64895312499996 324.647703125 Q 162.29049999999995 323.37721875 168.28835937499997 321.683234375 Q 174.28621875 319.98924999999997 177.713546875 319.142265625 Q 181.140875 318.29528125 187.13873437499998 316.601296875 Q 193.13659374999997 314.9073125 194.85026562499996 313.84856249999996 Q 196.56393749999995 312.7898125 198.27760937499997 311.73107812499995 Q 199.99128125 310.67234375 202.13335937499997 308.97835937499997 Q 204.27543749999995 307.284375 205.13228124999995 306.43739062500003 Q 205.98912499999994 305.59040625 206.63174999999995 304.108171875 Q 207.27437499999996 302.62593749999996 207.27437499999996 301.9906875 Q 207.27437499999996 301.3554375 206.63174999999995 300.296703125 Q 205.98912499999994 299.23796875 205.13228124999995 298.60271875 Q 204.27543749999995 297.96746874999997 202.99018749999996 297.54396875 Q 201.70493749999997 297.12046875 193.99342187499997 295.84998437499996 Q 186.28190624999996 294.5795 182.85456249999996 294.156 Q 179.42721874999995 293.7325 170.43043749999995 292.88551562500004 Q 161.43365624999996 292.03853125 158.86315624999997 291.82678125 Q 156.29265625 291.61503125 152.8653125 290.97978125 Q 149.43796874999998 290.34453125 147.72429687499996 289.70929687499995 Q 146.01062499999995 289.07406249999997 140.86960937499995 286.95657812499996 Q 135.72859374999996 284.83909374999996 134.01492187499997 284.20384375 Q 132.30124999999998 283.56859375 130.15917187499997 282.72160937499996 Q 128.01709374999996 281.874625 127.37446874999998 281.874625 Q 126.73184375 281.874625 126.51762499999998 281.874625 Q 126.30340624999997 281.874625 126.51762499999998 281.874625 Q 126.73184375 281.874625 127.58867187499999 282.29812499999997 Q 128.44549999999998 282.72162499999996 133.15809374999998 282.933359375 Q 137.87068749999997 283.14509375 139.58435937499996 282.72160937499996 Q 141.29803124999995 282.29812499999997 144.93957812499997 280.18064062499997 Q 148.581125 278.06315624999996 151.15164062499997 276.792671875 Q 153.72215624999995 275.5221875 159.07737499999996 273.40470312499997 Q 164.43259374999997 271.28721874999997 166.36046874999997 270.440234375 Q 168.28834374999997 269.59325 170.85885937499998 268.111015625 Q 173.429375 266.62878125 174.07199999999997 265.99353125 Q 174.71462499999996 265.35828125 175.14304687499995 264.72303124999996 Q 175.57146874999995 264.08778125 175.57146874999995 262.18204687499997 Q 175.57146874999995 260.27631249999996 174.92884374999997 258.79407812499994 Q 174.28621875 257.31184375 171.07307812499997 254.135625 Q 167.85993749999994 250.95940625 164.86101562499996 249.477171875 Q 161.86209374999999 247.99493750000002 157.57790624999998 246.72445312500003 Q 153.29371874999998 245.45396875000003 151.36584374999998 245.03046875 Q 149.43796874999998 244.60696875 143.44012499999997 244.18346875 Q 137.44228124999995 243.75996875 133.80073437499996 243.97171875 Q 130.15918749999997 244.18346875 128.01709374999996 244.18346875 Q 125.87499999999994 244.18346875 121.37660937499996 245.03046875 Q 116.87821874999997 245.87746875000002 114.73614062499996 246.51270312500003 Q 112.59406249999995 247.14793750000004 108.95249999999996 248.20668750000002 Q 105.31093749999997 249.2654375 103.81148437499996 249.900671875 Q 102.31203124999996 250.53590625 100.81256249999996 252.22989062500002 Q 99.31309374999995 253.92387500000004 99.09889062499997 254.98262499999998 Q 98.88468749999998 256.04137499999996 99.09889062499997 258.37059375 Q 99.31309374999995 260.6998125 100.16993749999995 261.9703125 Q 101.02678124999994 263.2408125 102.52623437499994 264.723046875 Q 104.02568749999995 266.20528125 107.45303124999995 269.38149999999996 Q 110.88037499999996 272.55771875 112.59404687499998 273.616453125 Q 114.30771874999999 274.6751875 118.16348437499997 277.42790625 Q 122.01924999999994 280.18062499999996 125.23237499999996 281.662859375 Q 128.44549999999998 283.14509375 134.01493749999997 285.262578125 Q 139.58437499999997 287.3800625 141.29804687499995 287.5918125 Q 143.01171874999994 287.8035625 146.65326562499996 288.0153125 Q 150.29481249999998 288.2270625 153.07953124999997 287.8035625 Q 155.86424999999997 287.3800625 159.50579687499996 285.897828125 Q 163.14734374999995 284.41559374999997 164.43259374999997 282.72160937499996 Q 165.71784375 281.027625 166.78889062499996 279.121890625 Q 167.85993749999994 277.21615625 168.28835937499997 273.40470312499997 Q 168.71678125 269.59325 168.28835937499997 267.052265625 Q 167.85993749999994 264.51128124999997 165.71784374999996 259.429328125 Q 163.57574999999997 254.34737500000003 162.29049999999998 252.44164062500002 Q 161.00525 250.53590625 158.22053125 247.3596875 Q 155.4358125 244.18346875 154.57898437499998 243.336484375 Q 153.72215624999995 242.4895 152.22268749999995 241.219015625 Q 150.72321874999994 239.94853125 150.08059374999996 239.52503125 Q 149.43796874999998 239.10153125000002 148.79534374999997 239.10153125000002 Q 148.15271874999996 239.10153125000002 147.29589062499997 239.52503125 Q 146.43906249999998 239.94853125 146.01064062499998 241.007265625 Q 145.58221874999998 242.066 144.51117187499997 247.359703125 Q 143.44012499999997 252.65340625000002 143.22592187499995 254.98262499999998 Q 143.01171874999994 257.31184375 142.58329687499995 262.60554687499996 Q 142.15487499999995 267.89925 142.15487499999995 271.07546875 Q 142.15487499999995 274.2516875 142.36907812499996 278.910140625 Q 142.58328124999997 283.56859375 142.58328124999997 285.05082812499995 Q 142.58328124999997 286.53306249999997 142.58328124999997 288.0153125 Q 142.58328124999997 289.4975625 143.01170312499997 291.82678125 Q 143.44012499999997 294.156 143.65432812499998 295.003 Q 143.86853125 295.84999999999997 144.08274999999998 296.908734375 Q 144.29696874999996 297.96746874999997 144.29696874999996 298.17921875 Q 144.29696874999996 298.39096875 144.72537499999996 298.17921875 Q 145.15378124999995 297.96746874999997 145.79642187499996 297.54396875 Q 146.43906249999998 297.12046875 147.51009374999998 295.214734375 Q 148.581125 293.30899999999997 149.22376562499997 291.40328124999996 Q 149.86640624999995 289.4975625 150.72323437499998 283.145109375 Q 151.5800625 276.79265625 151.5800625 273.8281875 Q 151.5800625 270.86371875 151.36585937499999 267.47574999999995 Q 151.15165624999997 264.08778125 149.86639062499998 257.73534374999997 Q 148.581125 251.38290625 147.29587499999997 248.4184375 Q 146.01062499999995 245.45396875000003 143.01170312499997 241.21901562500003 Q 140.01278125 236.98406250000002 137.87068749999997 235.50181250000003 Q 135.72859374999996 234.0195625 132.30126562499996 233.59607812500002 Q 128.87393749999995 233.17259375 127.58867187499996 233.59607812500002 Q 126.30340624999997 234.0195625 125.23235937499996 234.4430625 Q 124.16131249999995 234.86656250000001 121.80501562499995 237.195796875 Q 119.44871874999995 239.52503125 117.73504687499997 241.6425 Q 116.02137499999998 243.75996875 113.66507812499998 248.630171875 Q 111.30878124999998 253.500375 110.23774999999998 255.82960937499996 Q 109.16671874999997 258.15884374999996 108.30987499999998 262.817296875 Q 107.45303124999998 267.47575 107.66723437499996 269.593234375 Q 107.88143749999995 271.71071875 108.52407812499996 276.580921875 Q 109.16671874999997 281.451125 109.59512499999997 283.356859375 Q 110.02353124999996 285.26259375 110.66615624999997 288.43881250000004 Q 111.30878124999998 291.61503125 111.73720312499998 293.097265625 Q 112.16562499999998 294.5795 112.80824999999999 295.84998437499996 Q 113.450875 297.12046875 114.30771874999999 299.449703125 Q 115.16456249999999 301.7789375 115.59296874999998 302.625921875 Q 116.02137499999998 303.47290625 116.87821874999997 304.31990625000003 Q 117.73506249999997 305.16690625 118.16348437499997 305.37865625 Q 118.59190624999997 305.59040625 119.87715624999996 305.16690625 Q 121.16240624999995 304.74340624999996 121.80503124999996 304.10815625 Q 122.44765624999997 303.47290625 123.51870312499997 300.72018749999995 Q 124.58974999999998 297.96746874999997 124.58974999999998 295.63823437499997 Q 124.58974999999998 293.30899999999997 123.73290624999998 286.74481249999997 Q 122.87606249999999 280.18062499999996 122.01923437499997 276.369171875 Q 121.16240624999995 272.55771875 120.30556249999995 268.95799999999997 Q 119.44871874999995 265.35828125 117.09242187499996 259.00584375 Q 114.73612499999996 252.65340625000002 113.02245312499997 249.26543750000002 Q 111.30878124999998 245.87746875000002 108.95248437499998 241.21901562500003 Q 106.59618749999998 236.56056250000003 105.95356249999998 235.29006250000003 Q 105.31093749999997 234.0195625 103.81148437499996 232.749078125 Q 102.31203124999996 231.47859375000002 101.66940624999995 231.47859375000002 Q 101.02678124999994 231.47859375000002 100.38414062499996 231.47859375000002 Q 99.74149999999997 231.47859375000002 98.88467187499998 231.90209375 Q 98.02784374999999 232.32559375000002 97.59942187499999 232.96084375000004 Q 97.17099999999999 233.59609375000002 96.52837499999998 235.29007812500004 Q 95.88574999999997 236.98406250000002 95.45732812499998 238.04279687500002 Q 95.02890624999998 239.10153125000002 94.60049999999998 242.06600000000003 Q 94.17209374999999 245.03046875000004 93.95787499999997 247.14795312500002 Q 93.74365624999996 249.2654375 93.52945312499997 253.07689062499998 Q 93.31524999999999 256.88834375 93.10103906249998 259.429328125 Q 92.88682812499997 261.9703125 93.31524218749996 269.59323437499995 Q 93.74365624999996 277.21615625 93.95787499999997 279.757140625 Q 94.17209374999999 282.29812499999997 94.60049999999998 284.203859375 Q 95.02890624999998 286.10959375 96.09995312499998 290.132796875 Q 97.17099999999999 294.156 97.81362499999997 296.485234375 Q 98.45624999999995 298.81446875 99.95571874999996 302.2024375 Q 101.45518749999997 305.59040625 102.52623437499997 307.284390625 Q 103.59728124999998 308.97837499999997 105.73935937499996 311.94284374999995 Q 107.88143749999995 314.9073125 108.95248437499995 315.96604687499996 Q 110.02353124999996 317.02478125 111.52299999999997 318.718765625 Q 113.02246874999997 320.41275 113.87929687499997 321.048 Q 114.73612499999996 321.68325 115.37874999999997 322.318484375 Q 116.02137499999998 322.95371875 117.09242187499999 323.80071875 Q 118.16346874999999 324.64771874999997 118.59189062499999 324.85946875 Q 119.02031249999999 325.07121875 120.30556249999998 325.07121875 Q 121.59081249999997 325.07121875 122.23343749999998 324.64771874999997 Q 122.87606249999999 324.22421875 124.58973437499998 322.318484375 Q 126.30340624999997 320.41275 126.73182812499996 318.718765625 Q 127.16024999999996 317.02478125 127.58867187499996 313.001578125 Q 128.01709374999996 308.97837499999997 128.01709374999996 306.649140625 Q 128.01709374999996 304.31990625 127.37446874999998 298.60271875 Q 126.73184375 292.88553125 126.08921874999999 290.132796875 Q 125.44659374999998 287.3800625 124.58974999999998 284.41559374999997 Q 123.73290624999998 281.451125 122.44765624999997 275.73392187499996 Q 121.16240624999995 270.01671875 120.51978124999997 268.111 Q 119.87715624999998 266.20528125 119.23453124999997 264.087796875 Q 118.59190624999997 261.9703125 118.37768749999998 261.5468125 Q 118.16346874999999 261.1233125 117.73506249999997 260.6998125 Q 117.30665624999995 260.27631249999996 116.87823437499995 260.27631249999996 Q 116.44981249999995 260.27631249999996 116.02139062499995 260.27631249999996 Q 115.59296874999995 260.27631249999996 115.37876562499997 260.6998125 Q 115.16456249999999 261.1233125 114.73614062499999 262.817296875 Q 114.30771874999999 264.51128124999997 114.30771874999999 265.993515625 Q 114.30771874999999 267.47575 115.37876562499997 272.557703125 Q 116.44981249999995 277.63965625 116.87823437499995 279.333640625 Q 117.30665624999995 281.027625 118.80610937499995 284.41559374999997 Q 120.30556249999995 287.8035625 121.37660937499996 289.921046875 Q 122.44765624999997 292.03853125 125.23237499999996 296.061734375 Q 128.01709374999996 300.08493749999997 129.94496874999996 301.990671875 Q 131.87284374999996 303.89640625 133.80071874999996 305.590390625 Q 135.72859374999996 307.284375 138.08489062499996 309.40185937499996 Q 140.44118749999996 311.51934374999996 141.51223437499996 312.15457812499994 Q 142.58328124999997 312.7898125 144.72537499999996 314.0603125 Q 146.86746874999994 315.3308125 147.72429687499996 315.5425625 Q 148.581125 315.75431249999997 152.436890625 315.96604687499996 Q 156.29265625 316.17778125 158.86315624999997 316.17778125 Q 161.43365624999996 316.17778125 165.28942187499996 315.33079687500003 Q 169.14518749999996 314.4838125 171.07306249999996 313.213328125 Q 173.00093749999996 311.94284375 177.71354687499996 308.766625 Q 182.42615624999996 305.59040625 184.99665624999997 303.896421875 Q 187.56715624999998 302.2024375 189.066625 300.50845312499996 Q 190.56609375 298.81446875 192.70817187499998 294.5795 Q 194.85024999999996 290.34453125 195.49287499999997 287.16831249999996 Q 196.13549999999998 283.99209375 196.34971874999997 278.27490624999996 Q 196.56393749999995 272.55771875 196.56393749999995 270.440234375 Q 196.56393749999995 268.32275 196.13551562499995 264.51128125 Q 195.70709374999996 260.6998125 195.27867187499996 259.005828125 Q 194.85024999999996 257.31184375 194.20762499999998 255.82960937500002 Q 193.565 254.34737500000003 193.350796875 253.923875 Q 193.13659374999997 253.500375 192.92237499999996 253.500375 Q 192.70815624999994 253.500375 192.27974999999995 254.347375 Q 191.85134374999996 255.194375 191.63712499999997 256.253109375 Q 191.42290624999998 257.31184375 191.85132812499998 260.48806249999996 Q 192.27974999999998 263.66428125 192.70817187499998 265.993515625 Q 193.13659374999997 268.32275 194.63604687499998 274.4634375 Q 196.13549999999998 280.604125 196.56392187499998 282.509859375 Q 196.99234374999997 284.41559374999997 197.42076562499997 287.59181249999995 Q 197.84918749999997 290.76803125 198.27760937499997 292.250265625 Q 198.70603124999997 293.7325 199.13443749999996 295.426484375 Q 199.56284374999996 297.12046875 200.20546874999997 300.29668749999996 Q 200.84809374999998 303.47290625 201.06231249999996 304.955140625 Q 201.27653124999995 306.437375 201.91915624999996 308.554859375 Q 202.56178124999997 310.67234375 202.77598437499998 311.30759375 Q 202.9901875 311.94284375 203.418609375 312.789828125 Q 203.84703125 313.63681249999996 204.27545312499998 313.42506249999997 Q 204.70387499999998 313.2133125 206.41754687499997 310.88409375 Q 208.13121874999996 308.554875 209.20224999999996 306.013890625 Q 210.27328124999997 303.47290625 210.70170312499997 301.1436875 Q 211.13012499999996 298.81446875 212.20117187499997 293.097265625 Q 213.27221874999998 287.3800625 213.70064062499998 284.83909374999996 Q 214.12906249999997 282.29812499999997 214.12906249999997 276.369171875 Q 214.12906249999997 270.44021875 213.91484374999996 267.47574999999995 Q 213.70062499999995 264.51128124999997 213.05799999999996 259.852828125 Q 212.41537499999998 255.194375 211.77274999999997 253.50039062500002 Q 211.13012499999996 251.80640625000004 210.05907812499996 249.26543750000002 Q 208.98803124999995 246.72446875 208.77382812499997 245.87746875000002 Q 208.55962499999998 245.03046875000004 207.702796875 244.18348437500003 Q 206.84596875 243.33650000000003 206.41754687499997 242.913 Q 205.98912499999994 242.4895 205.56070312499995 242.066 Q 205.13228124999995 241.6425 204.27545312499996 241.43075000000002 Q 203.41862499999996 241.21900000000002 202.99020312499997 241.21900000000002 Q 202.56178124999997 241.21900000000002 202.13335937499997 241.6425 Q 201.70493749999997 242.066 201.27651562499997 242.70125000000002 Q 200.84809374999998 243.33650000000003 200.20546874999997 247.78320312500003 Q 199.56284374999996 252.22990625000003 199.56284374999996 254.347390625 Q 199.56284374999996 256.464875 199.56284374999996 261.123328125 Q 199.56284374999996 265.78178125 199.56284374999996 268.95799999999997 Q 199.56284374999996 272.13421875 199.56284374999996 275.0986875 Q 199.56284374999996 278.06315624999996 199.56284374999996 281.45112499999993 Q 199.56284374999996 284.83909374999996 199.77706249999997 286.321328125 Q 199.99128125 287.8035625 200.41968749999998 290.344546875 Q 200.84809374999998 292.88553125 201.06231249999996 293.52076562499997 Q 201.27653124999995 294.156 201.49073437499996 295.003 Q 201.70493749999997 295.84999999999997 201.91914062499998 295.84999999999997 Q 202.13334375 295.84999999999997 203.418609375 295.003 Q 204.70387499999998 294.156 205.13228124999998 292.673765625 Q 205.56068749999997 291.19153124999997 206.20332812499998 289.07404687499996 Q 206.84596875 286.95656249999996 207.48859374999998 281.662875 Q 208.13121874999996 276.3691875 208.13121874999996 274.251703125 Q 208.13121874999996 272.13421875 207.48859374999998 268.32275 Q 206.84596875 264.51128124999997 206.41754687499997 263.240796875 Q 205.98912499999994 261.9703125 205.13228124999995 259.641078125 Q 204.27543749999995 257.31184375 203.63281249999997 256.253109375 Q 202.9901875 255.194375 202.13335937499997 254.135640625 Q 201.27653124999995 253.07690625 201.06231249999996 253.07690625 Q 200.84809374999998 253.07690625 199.77706249999997 253.71214062500002 Q 198.70603124999997 254.34737500000003 198.06339062499998 255.19437499999998 Q 197.42075 256.04137499999996 196.778125 257.311859375 Q 196.13549999999998 258.58234375 195.49287499999997 261.5468125 Q 194.85024999999996 264.51128124999997 194.63604687499998 266.84051562499997 Q 194.42184375 269.16974999999996 193.993421875 274.463453125 Q 193.565 279.75715625 193.565 281.662875 Q 193.565 283.56859375 193.565 286.74481249999997 Q 193.565 289.92103125 193.565 291.19153125 Q 193.565 292.46203125 193.77920312499998 295.63824999999997 Q 193.99340624999996 298.81446875 194.20762499999998 300.50845312499996 Q 194.42184375 302.2024375 194.42184375 303.26117187499995 Q 194.42184375 304.31990625 194.42184375 306.013890625 Q 194.42184375 307.707875 194.42184375 308.343125 Q 194.42184375 308.97837499999997 194.42184375 309.40185937499996 Q 194.42184375 309.82534375 194.20762499999998 310.03709375 Q 193.99340624999996 310.24884375 193.13657812499997 309.82534375 Q 192.27974999999998 309.40184375 191.20870312499997 308.34310937500004 Q 190.13765624999996 307.284375 187.35293749999997 304.10815625 Q 184.56821874999997 300.9319375 182.85454687499998 299.026203125 Q 181.140875 297.12046875 179.213 295.003 Q 177.285125 292.88553125 172.14410937499997 288.8623125 Q 167.00309374999995 284.83909374999996 164.00417187499997 283.14510937499995 Q 161.00525 281.451125 157.36370312499997 279.333640625 Q 153.72215624999995 277.21615625 152.22268749999995 276.58092187499994 Q 150.72321874999994 275.94568749999996 148.79534374999994 275.3104375 Q 146.86746874999994 274.6751875 145.36799999999997 274.8869375 Q 143.86853125 275.0986875 139.79856249999997 276.58092187499994 Q 135.72859374999996 278.06315624999996 133.58651562499998 279.333640625 Q 131.4444375 280.604125 129.94496875 281.874609375 Q 128.44549999999998 283.14509375 126.73182812499996 285.05082812499995 Q 125.01815624999995 286.95656249999996 124.37553124999997 287.8035625 Q 123.73290624999998 288.6505625 122.66185937499998 290.768046875 Q 121.59081249999997 292.88553125 121.16240624999998 293.94426562499996 Q 120.73399999999998 295.003 120.30557812499998 297.54396875 Q 119.87715624999998 300.08493749999997 119.66293749999997 301.567171875 Q 119.44871874999995 303.04940625 119.66293749999997 305.802140625 Q 119.87715624999998 308.554875 119.87715624999998 309.40185937499996 Q 119.87715624999998 310.24884375 120.30557812499998 311.519328125 Q 120.73399999999998 312.7898125 120.94820312499996 313.42506249999997 Q 121.16240624999995 314.0603125 121.37660937499996 314.9073125 Q 121.59081249999997 315.75431249999997 122.01923437499997 317.448296875 Q 122.44765624999997 319.14228125 122.66185937499998 319.98926562500003 Q 122.87606249999999 320.83625 123.09028124999998 322.53023437499996 Q 123.30449999999996 324.22421875 123.30449999999996 324.85946875 Q 123.30449999999996 325.49471875 123.30449999999996 326.76520312499997 Q 123.30449999999996 328.0356875 123.30449999999996 328.670921875 Q 123.30449999999996 329.30615625 123.09028124999998 330.36490625 Q 122.87606249999999 331.42365624999996 122.66185937499998 331.63540624999996 Q 122.44765624999997 331.84715625 122.44765624999997 332.05890625 Q 122.44765624999997 332.27065625 122.23345312499995 332.05890625 Q 122.01924999999994 331.84715625 121.59082812499994 331.21190624999997 Q 121.16240624999995 330.57665625 119.44873437499996 328.0356875 Q 117.73506249999997 325.49471875 116.66401562499996 323.588984375 Q 115.59296874999995 321.68325 113.02246874999997 317.44828125 Q 110.45196874999999 313.2133125 108.95249999999999 311.09584375 Q 107.45303124999998 308.97837499999997 105.73935937499996 306.437390625 Q 104.02568749999995 303.89640625 101.88359374999996 299.661453125 Q 99.74149999999997 295.4265 98.88467187499998 293.52076562499997 Q 98.02784374999999 291.61503125 96.74259374999997 288.2270625 Q 95.45734374999995 284.83909374999996 95.24312499999996 282.933359375 Q 95.02890624999998 281.027625 94.60049999999998 276.580921875 Q 94.17209374999999 272.13421875 93.95787499999997 269.804984375 Q 93.74365624999996 267.47575 93.31524218749996 264.08778125000003 Q 92.88682812499997 260.6998125 92.88682812499997 259.217578125 Q 92.88682812499997 257.73534374999997 92.67261718749998 254.770875 Q 92.45840625 251.80640625000004 92.45840625 249.90067187500003 Q 92.45840625 247.99493750000002 92.45840625 246.300953125 Q 92.45840625 244.60696875 92.45840625 242.27775 Q 92.45840625 239.94853125 92.67261718749998 239.10153125000002 Q 92.88682812499997 238.25453125000004 93.31524218749996 237.19579687500004 Q 93.74365624999996 236.13706250000004 93.95787499999997 235.71356250000002 Q 94.17209374999999 235.2900625 94.60049999999998 234.443078125 Q 95.02890624999998 233.59609375000002 95.24312499999996 233.17259375000003 Q 95.45734374999995 232.74909375000001 96.31417187499997 232.11384375 Q 97.17099999999999 231.47859375000002 97.81362499999997 231.05509375000003 Q 98.45624999999995 230.63159375 99.74151562499995 230.63159375 Q 101.02678124999994 230.63159375 104.88253124999994 231.26684375000002 Q 108.73828124999994 231.90209375 110.45195312499996 232.32559375 Q 112.16562499999998 232.74909375000001 115.16454687499998 234.019578125 Q 118.16346874999999 235.2900625 120.30556249999998 236.560546875 Q 122.44765624999997 237.83103125 127.58867187499996 241.00725 Q 132.72968749999995 244.18346875 134.65756249999995 245.66570312500002 Q 136.58543749999995 247.14793750000004 139.37015624999995 250.74765625000003 Q 142.15487499999995 254.34737500000003 143.22592187499995 255.82960937500002 Q 144.29696874999996 257.31184375 145.58221874999995 258.79407812499994 Q 146.86746874999994 260.27631249999996 149.22376562499997 263.02904687499995 Q 151.5800625 265.78178125 152.8653125 267.26401562499996 Q 154.15056249999998 268.74625 157.149484375 271.71071874999996 Q 160.14840625 274.6751875 161.21945312499997 276.369171875 Q 162.29049999999995 278.06315624999996 164.21839062499996 280.815875 Q 166.14628124999996 283.56859375 166.57468749999995 284.41559374999997 Q 167.00309374999995 285.26259375 167.64571874999996 286.533078125 Q 168.28834374999997 287.8035625 168.28834374999997 288.4388125 Q 168.28834374999997 289.07406249999997 168.28834374999997 290.344546875 Q 168.28834374999997 291.61503125 168.28834374999997 292.25028125 Q 168.28834374999997 292.88553125 168.28834374999997 293.30901562500003 Q 168.28834374999997 293.7325 168.50256249999998 294.79125 Q 168.71678125 295.84999999999997 168.71678125 296.27348437499995 Q 168.71678125 296.69696875 168.71678125 297.54396875 Q 168.71678125 298.39096875 168.71678125 298.60271875 Q 168.71678125 298.81446875 168.71678125 299.449703125 L 168.71678125 300.09493749999996" stroke-linecap="round" />
</g>
</svg>