<?xml version="1.0" encoding="UTF-8" standalone="no" ?>
<!DOCTYPE svg PUBLIC "-//W3C//DTD SVG 1.1//EN" "http://www.w3.org/Graphics/SVG/1.1/DTD/svg11.dtd">
<svg xmlns="http://www.w3.org/2000/svg" xmlns:xlink="http://www.w3.org/1999/xlink" version="1.1" width="640" height="640" viewBox="0 0 640 640" xml:space="preserve">
<desc>Created with Fabric.js 4.6.0</desc>
<defs>
</defs>
<g transform="matrix(1 0 0 1 245.6 344.08)" id="YT5T6JUgNK5agqpE_k90a"  >
<path style="stroke: rgb(142,139,139); stroke-width: 10; stroke-dasharray: none; stroke-linecap: round; stroke-dashoffset: 0; stroke-linejoin: round; stroke-miterlimit: 10; fill: none; fill-rule: nonzero; opacity: 1;" vector-effect="non-scaling-stroke"  transform=" translate(-197.17, -286.74)" d="M 172.13412499999998 225.11615625000002 Q 172.14412499999997 225.12615625 172.35832812499999 225.33790625 Q 172.57253125 225.54965625000003 172.78673437499998 226.39664062500003 Q 173.00093749999996 227.243625 173.21515624999998 228.302375 Q 173.429375 229.36112500000002 174.286203125 232.53734375 Q 175.14303124999998 235.7135625 175.57145312499998 237.831046875 Q 175.99987499999997 239.94853125 176.42829687499997 244.606984375 Q 176.85671874999997 249.2654375 176.85671874999997 251.80640625 Q 176.85671874999997 254.34737500000003 176.85671874999997 259.217578125 Q 176.85671874999997 264.08778125 176.64249999999998 267.05224999999996 Q 176.42828125 270.01671875 176.214078125 275.310421875 Q 175.99987499999997 280.604125 176.214078125 282.933359375 Q 176.42828125 285.26259375 176.64249999999998 287.8035625 Q 176.85671874999997 290.34453125 177.28512499999997 295.84998437499996 Q 177.71353124999996 301.3554375 178.14195312499996 304.31990625000003 Q 178.57037499999996 307.284375 179.21299999999997 312.578078125 Q 179.85562499999997 317.87178124999997 180.06984374999996 320.201 Q 180.28406249999995 322.53021875 180.28406249999995 326.1299375 Q 180.28406249999995 329.72965625 180.06984374999996 331.00015625000003 Q 179.85562499999997 332.27065625 179.64142187499996 334.176375 Q 179.42721874999995 336.08209375 179.42721874999995 336.92909375 Q 179.42721874999995 337.77609375 179.42721874999995 339.046578125 Q 179.42721874999995 340.31706249999996 179.42721874999995 340.7405625 Q 179.42721874999995 341.1640625 179.42721874999995 341.5875625 Q 179.42721874999995 342.0110625 179.64142187499996 342.858046875 Q 179.85562499999997 343.70503125 180.06984374999996 344.12853125 Q 180.28406249999995 344.55203124999997 180.71246874999997 345.187265625 Q 181.140875 345.8225 181.35509374999998 346.03425 Q 181.56931249999997 346.246 182.42614062499996 346.66949999999997 Q 183.28296874999995 347.093 184.13981249999995 347.30475 Q 184.99665624999994 347.5165 187.56715624999995 347.94 Q 190.13765624999996 348.3635 190.99449999999996 348.3635 Q 191.85134374999996 348.3635 192.92237499999996 348.15175 Q 193.99340624999996 347.94 196.34971874999997 347.72825 Q 198.70603124999997 347.5165 199.77706249999997 347.30475 Q 200.84809374999998 347.093 202.34756249999998 347.093 Q 203.84703125 347.093 204.48965624999997 347.093 Q 205.13228124999995 347.093 206.84595312499997 347.093 Q 208.55962499999998 347.093 210.05909375 346.88125 Q 211.5585625 346.66949999999997 213.4864375 346.66949999999997 Q 215.4143125 346.66949999999997 215.842734375 346.45775 Q 216.27115625 346.246 217.12798437499998 345.822515625 Q 217.98481249999998 345.39903125 218.199015625 345.18728125 Q 218.41321875 344.97553125 218.62743749999998 344.55203125 Q 218.84165624999997 344.12853125 219.27007812499997 342.64629687499996 Q 219.69849999999997 341.1640625 219.91270312499998 339.893578125 Q 220.12690625 338.62309375 220.555328125 336.505609375 Q 220.98375 334.388125 221.41215624999998 333.11764062500004 Q 221.84056249999998 331.84715625 222.05478124999996 328.882671875 Q 222.26899999999995 325.9181875 222.05478124999996 324.22420312500003 Q 221.84056249999998 322.53021875 221.84056249999998 319.35400000000004 Q 221.84056249999998 316.17778125 221.62635937499996 314.0603125 Q 221.41215624999995 311.94284375 221.19795312499997 309.613609375 Q 220.98375 307.284375 220.34112499999998 303.47290625 Q 219.69849999999997 299.6614375 219.27007812499997 297.54396875 Q 218.84165624999997 295.4265 217.77060937499996 290.97978125 Q 216.69956249999996 286.53306249999997 216.27114062499996 284.20384375 Q 215.84271874999996 281.874625 214.77167187499995 277.427921875 Q 213.70062499999995 272.98121875 213.05799999999996 270.863734375 Q 212.41537499999998 268.74625 211.98696875 265.35828125 Q 211.5585625 261.9703125 211.34434374999998 260.27632812499996 Q 211.13012499999996 258.58234375 211.13012499999996 257.100109375 Q 211.13012499999996 255.617875 210.91592187499998 252.86515625 Q 210.70171875 250.11243750000003 210.70171875 249.05368750000002 Q 210.70171875 247.99493750000002 210.27329687499997 246.300953125 Q 209.84487499999994 244.60696875 209.63067187499996 243.971734375 Q 209.41646874999998 243.33650000000003 209.20224999999996 242.48950000000002 Q 208.98803124999995 241.6425 208.98803124999995 241.43075000000002 Q 208.98803124999995 241.21900000000002 208.77382812499997 240.79550000000003 Q 208.55962499999998 240.37200000000004 208.55962499999998 240.16026562500002 Q 208.55962499999998 239.94853125 208.34542187499997 239.73678125 Q 208.13121874999996 239.52503125 207.70279687499996 238.88978125000003 Q 207.27437499999996 238.25453125000004 207.06017187499998 237.83103125000002 Q 206.84596875 237.40753125 206.20332812499998 236.77229687500002 Q 205.56068749999997 236.13706250000004 205.34648437499996 235.71356250000002 Q 205.13228124999995 235.2900625 204.48965624999997 234.86656250000001 Q 203.84703125 234.44306250000002 203.63282812499997 234.2313125 Q 203.41862499999996 234.0195625 202.77598437499998 233.59607812500002 Q 202.13334375 233.17259375 201.70493749999997 232.96084375 Q 201.27653124999995 232.74909375000001 200.41968749999995 232.32559375 Q 199.56284374999996 231.90209375 198.70601562499996 231.69034375 Q 197.84918749999997 231.47859375000002 196.99234374999997 230.84335937500003 Q 196.13549999999998 230.20812500000002 194.42182812499996 229.36112500000002 Q 192.70815624999994 228.514125 192.06553124999996 228.514125 Q 191.42290624999998 228.514125 190.13765624999996 228.514125 Q 188.85240624999994 228.514125 188.20978124999996 228.302375 Q 187.56715624999998 228.09062500000002 186.49610937499997 228.09062500000002 Q 185.42506249999997 228.09062500000002 184.56823437499997 227.87887500000002 Q 183.71140624999998 227.66712500000003 182.21193749999998 227.66712500000003 Q 180.71246874999997 227.66712500000003 180.06984374999996 227.66712500000003 Q 179.42721874999995 227.66712500000003 178.99879687499995 227.66712500000003 Q 178.57037499999996 227.66712500000003 177.71354687499996 227.66712500000003 Q 176.85671874999997 227.66712500000003 176.42829687499997 227.87887500000002 Q 175.99987499999997 228.09062500000002 175.14304687499998 228.51412500000004 Q 174.28621875 228.93762500000003 173.64357812499998 229.14937500000002 L 172.99093749999997 229.371125" stroke-linecap="round" />
</g>
<g transform="matrix(1 0 0 1 315.77 344.08)" id="graQYKbOzTKMfq7swNLre"  >
<path style="stroke: rgb(142,139,139); stroke-width: 10; stroke-dasharray: none; stroke-linecap: round; stroke-dashoffset: 0; stroke-linejoin: round; stroke-miterlimit: 10; fill: none; fill-rule: nonzero; opacity: 1;" vector-effect="non-scaling-stroke"  transform=" translate(-290.17, -269.38)" d="M 275.83121874999995 211.98778125 Q 275.82121874999996 211.99778125 275.60699999999997 212.63303125 Q 275.39278125 213.26828125 275.17857812499994 213.69176562500002 Q 274.96437499999996 214.11525 274.32174999999995 215.59750000000003 Q 273.679125 217.07975000000002 273.250703125 217.92673437500002 Q 272.82228124999995 218.77371875000003 272.3938593749999 219.62071875000004 Q 271.96543749999995 220.46771875000002 270.25178124999996 224.70267187500002 Q 268.538125 228.93762500000003 267.68128125 231.90209375 Q 266.8244375 234.86656250000001 266.610234375 236.137046875 Q 266.39603124999996 237.40753125 266.1818125 240.37201562500002 Q 265.96759375 243.33650000000003 265.96759375 245.24221875000003 Q 265.96759375 247.14793750000004 265.96759375 251.80640625 Q 265.96759375 256.464875 266.1818125 258.79409375 Q 266.39603124999996 261.1233125 266.82443749999993 263.240796875 Q 267.25284374999995 265.35828125 267.89548437499997 269.593234375 Q 268.538125 273.8281875 268.32390624999994 275.73392187499996 Q 268.10968749999995 277.63965625 267.6812656249999 281.451125 Q 267.25284374999995 285.26259375 267.03864062499997 286.95657812499996 Q 266.8244375 288.6505625 266.8244375 291.61503125 Q 266.8244375 294.5795 266.8244375 296.27348437499995 Q 266.8244375 297.96746874999997 266.610234375 300.72018749999995 Q 266.39603124999996 303.47290625 266.39603124999996 304.53165624999997 Q 266.39603124999996 305.59040625 266.1818125 307.707875 Q 265.96759375 309.82534375 265.96759375 310.88409375000003 Q 265.96759375 311.94284375 266.1818125 313.00157812500004 Q 266.39603124999996 314.0603125 266.82443749999993 315.33079687500003 Q 267.25284374999995 316.60128125 267.4670625 317.23653125 Q 267.68128125 317.87178124999997 268.109703125 318.71876562499995 Q 268.538125 319.56575 268.75232812499996 320.201 Q 268.96653124999995 320.83625 269.823359375 322.106734375 Q 270.6801875 323.37721875 271.108609375 324.01246875 Q 271.53703125 324.64771874999997 272.393875 325.28295312499995 Q 273.25071875 325.9181875 273.679125 326.1299375 Q 274.10753124999997 326.3416875 274.535953125 326.5534375 Q 274.96437499999996 326.76518749999997 276.035421875 327.1886875 Q 277.10646875 327.6121875 277.74909375 327.8239375 Q 278.39171875 328.0356875 279.462765625 328.2474375 Q 280.53381249999995 328.4591875 281.17643749999996 328.4591875 Q 281.8190625 328.4591875 283.1043125 328.4591875 Q 284.38956249999995 328.4591875 285.460609375 328.4591875 Q 286.53165624999997 328.4591875 289.74479687499996 328.4591875 Q 292.95793749999996 328.4591875 294.67159374999994 328.2474375 Q 296.38525 328.0356875 298.7415625 327.40043749999995 Q 301.097875 326.76518749999997 301.954703125 326.5534375 Q 302.81153125 326.3416875 303.45415625 326.1299375 Q 304.09678125 325.9181875 305.38203124999995 325.494703125 Q 306.66728125 325.07121875 307.095703125 324.85946875 Q 307.52412499999997 324.64771874999997 308.595171875 324.22421875 Q 309.66621875 323.80071875 310.094640625 323.58896875 Q 310.5230625 323.37721875 311.1656875 322.95371875 Q 311.8083125 322.53021875 312.022515625 322.318484375 Q 312.23671874999997 322.10675 312.66514062499994 321.4715 Q 313.09356249999996 320.83625 313.09356249999996 320.201 Q 313.09356249999996 319.56575 313.09356249999996 318.930515625 Q 313.09356249999996 318.29528125 313.09356249999996 316.813046875 Q 313.09356249999996 315.3308125 313.307765625 314.0603125 Q 313.52196875 312.7898125 313.52196875 310.03709375 Q 313.52196875 307.284375 313.73618749999997 306.013890625 Q 313.95040624999996 304.74340624999996 314.16460937499994 301.7789375 Q 314.3788125 298.81446875 314.3788125 297.332234375 Q 314.3788125 295.84999999999997 314.3788125 293.309015625 Q 314.3788125 290.76803125 314.16460937499994 289.28579687499996 Q 313.95040624999996 287.8035625 313.521984375 284.20384375000003 Q 313.09356249999996 280.604125 312.87934375 279.121890625 Q 312.665125 277.63965625 312.45092187499995 276.15742187499995 Q 312.23671874999997 274.6751875 312.23671874999997 271.71071874999996 Q 312.23671874999997 268.74625 312.022515625 267.475765625 Q 311.8083125 266.20528125 311.8083125 263.452546875 Q 311.8083125 260.6998125 311.8083125 259.217578125 Q 311.8083125 257.73534374999997 311.8083125 254.98262499999998 Q 311.8083125 252.22990625000003 311.8083125 250.95942187500003 Q 311.8083125 249.68893750000004 311.8083125 248.63018750000003 Q 311.8083125 247.57143750000003 311.8083125 245.24221875000003 Q 311.8083125 242.91300000000004 311.8083125 241.64250000000004 Q 311.8083125 240.37200000000004 311.8083125 238.25453125000004 Q 311.8083125 236.13706250000004 311.8083125 235.29006250000003 Q 311.8083125 234.44306250000002 311.8083125 231.69034375 Q 311.8083125 228.93762500000003 311.8083125 228.09062500000002 Q 311.8083125 227.243625 311.59409374999996 225.76139062500002 Q 311.37987499999997 224.27915625000003 311.37987499999997 223.85567187500004 Q 311.37987499999997 223.43218750000003 310.95146875 222.58518750000002 Q 310.5230625 221.7381875 310.30884374999994 221.31468750000002 Q 310.09462499999995 220.89118750000003 309.88042187499997 220.467703125 Q 309.66621875 220.04421875000003 309.23779687499996 219.19721875000002 Q 308.809375 218.35021875 308.809375 218.13846875000002 Q 308.809375 217.92671875000002 308.380953125 217.29148437500004 Q 307.95253125 216.65625000000003 307.95253125 216.4445 Q 307.95253125 216.23275 307.52412499999997 215.80925000000002 Q 307.09571874999995 215.38575 306.6672968749999 215.174 Q 306.23887499999995 214.96225 305.38203124999995 214.53875 Q 304.52518749999996 214.11525 303.88256249999995 213.903515625 Q 303.2399375 213.69178125000002 302.383109375 213.48003125000002 Q 301.52628124999995 213.26828125 299.81260937499997 212.84478125 Q 298.0989375 212.42128125000002 297.24209375 212.20953125 Q 296.38525 211.99778125 294.45737499999996 211.78603125 Q 292.5295 211.57428125 291.886875 211.36253125000002 Q 291.24424999999997 211.15078125000002 289.95899999999995 211.15078125000002 Q 288.67375 211.15078125000002 288.031125 211.15078125000002 Q 287.38849999999996 211.15078125000002 286.53165624999997 211.15078125000002 Q 285.6748125 211.15078125000002 285.24640624999995 211.15078125000002 Q 284.818 211.15078125000002 284.17535937499997 211.15078125000002 Q 283.53271874999996 211.15078125000002 281.81904687499997 210.72729687500004 Q 280.105375 210.30381250000002 279.248546875 210.30381250000002 Q 278.39171875 210.30381250000002 277.10646875 210.30381250000002 Q 275.82121874999996 210.30381250000002 275.17859375 210.30381250000002 Q 274.53596875 210.30381250000002 273.679125 210.30381250000002 Q 272.82228124999995 210.30381250000002 272.60807812499996 210.30381250000002 Q 272.393875 210.30381250000002 271.53703125 210.30381250000002 Q 270.6801875 210.30381250000002 270.25178125 210.30381250000002 Q 269.823375 210.30381250000002 268.96653125 210.30381250000002 Q 268.10968749999995 210.30381250000002 267.6812656249999 210.30381250000002 L 267.24284374999996 210.30381250000002" stroke-linecap="round" />
</g>
<g transform="matrix(1 0 0 1 145.24 224.36)" id="X_KXDHj8j5-52zLSG4SYH"  >
<path style="stroke: rgb(142,139,139); stroke-width: 10; stroke-dasharray: none; stroke-linecap: round; stroke-dashoffset: 0; stroke-linejoin: round; stroke-miterlimit: 10; fill: none; fill-rule: nonzero; opacity: 1;" vector-effect="non-scaling-stroke"  transform=" translate(-152.87, -76.9)" d="M 154.58899999999994 37.083953125 Q 154.57899999999995 37.093953125 154.57899999999995 37.5174453125 Q 154.57899999999995 37.940937500000004 154.36478124999996 38.1526875 Q 154.15056249999998 38.364437499999994 154.15056249999998 38.7879296875 Q 154.15056249999998 39.211421875 153.93635937499997 40.4819140625 Q 153.72215624999995 41.75240625000001 153.72215624999995 42.8111484375 Q 153.72215624999995 43.869890625 153.72215624999995 48.316593749999996 Q 153.72215624999995 52.763296874999995 153.50793749999997 55.939515625 Q 153.29371874999998 59.115734375 153.07951562499997 63.7741953125 Q 152.86531249999996 68.43265625 152.86531249999996 70.7618828125 Q 152.86531249999996 73.091109375 152.65110937499998 77.96131249999999 Q 152.43690625 82.831515625 152.43690625 85.1607421875 Q 152.43690625 87.48996875 152.43690625 91.5131796875 Q 152.43690625 95.536390625 152.43690625 97.653875 Q 152.43690625 99.771359375 152.43690625 101.67708593750001 Q 152.43690625 103.5828125 152.008484375 107.18253125 Q 151.5800625 110.78224999999999 151.5800625 112.052734375 Q 151.5800625 113.32321875000001 151.36585937499999 115.01720312500001 L 151.14165624999998 116.72118750000001" stroke-linecap="round" />
</g>
<g transform="matrix(1 0 0 1 159.59 194.6)" id="LrP1p6kuB2JGlvtaryNwm"  >
<path style="stroke: rgb(142,139,139); stroke-width: 10; stroke-dasharray: none; stroke-linecap: round; stroke-dashoffset: 0; stroke-linejoin: round; stroke-miterlimit: 10; fill: none; fill-rule: nonzero; opacity: 1;" vector-effect="non-scaling-stroke"  transform=" translate(-163.78, -56.36)" d="M 147.7143125 37.083953125 Q 147.7243125 37.093953125 147.93851562499998 37.093953125 Q 148.15271874999996 37.093953125 149.43796874999995 37.5174453125 Q 150.72321874999994 37.940937500000004 152.43689062499996 37.940937500000004 Q 154.15056249999998 37.940937500000004 157.79210937499997 37.7291875 Q 161.43365624999996 37.5174375 162.93312499999996 37.5174375 Q 164.43259374999997 37.5174375 165.71784374999996 37.5174375 Q 167.00309374999995 37.5174375 168.71676562499997 37.7291875 Q 170.43043749999998 37.940937500000004 171.28728124999998 38.3644375 Q 172.14412499999997 38.7879375 173.64357812499998 40.270171875 Q 175.14303124999998 41.75240625000001 176.214078125 43.234640625000004 Q 177.285125 44.716875 178.57037499999998 48.31659375 Q 179.85562499999997 51.916312500000004 179.85562499999997 55.7277734375 Q 179.85562499999997 59.53923437499999 179.42721874999998 61.23321874999999 Q 178.99881249999999 62.92720312499999 178.570390625 64.1976875 Q 178.14196875 65.468171875 177.49934374999998 66.73866406249999 Q 176.85671874999997 68.00915625 175.14304687499998 70.12663281249999 Q 173.429375 72.244109375 172.78674999999998 72.87935937499999 Q 172.14412499999997 73.51460937499999 170.43045312499999 74.3616015625 Q 168.71678125 75.20859374999999 167.85993749999997 75.4203359375 Q 167.00309374999995 75.63207812499999 165.28942187499996 75.63207812499999 Q 163.57574999999997 75.63207812499999 162.29049999999998 75.2085859375 Q 161.00525 74.78509375 158.648953125 72.879359375 Q 156.29265625 70.973625 155.65003124999998 69.9148828125 Q 155.00740624999997 68.856140625 154.57898437499998 67.79740625 Q 154.15056249999998 66.738671875 153.29373437499999 64.62118749999999 Q 152.43690625 62.503703125 152.22268749999998 61.6567109375 Q 152.00846874999996 60.80971875 151.58006249999997 59.750984375 Q 151.15165624999997 58.69225 150.93743749999996 58.26875 Q 150.72321874999994 57.84524999999999 150.29481249999995 56.99825781249999 Q 149.86640624999995 56.15126562499999 149.65218749999997 55.7277734375 Q 149.43796874999998 55.30428125 149.00954687499998 54.88078125 Q 148.581125 54.457281249999994 148.581125 54.24553125 Q 148.581125 54.033781250000004 148.36692187499997 53.822039062500004 Q 148.15271874999996 53.610296875 148.15271874999996 53.398546875 Q 148.15271874999996 53.186796875 147.93851562499998 52.5515546875 Q 147.7243125 51.916312500000004 147.7243125 51.4928125 Q 147.7243125 51.069312499999995 147.7243125 50.222320312499996 Q 147.7243125 49.375328124999996 147.7243125 48.95183593749999 Q 147.7243125 48.52834374999999 147.7243125 47.89310156249999 Q 147.7243125 47.257859374999995 147.7243125 47.04610937499999 Q 147.7243125 46.83435937499999 147.7243125 46.410859374999994 Q 147.7243125 45.987359375 147.7243125 45.563867187499994 L 147.7243125 45.130374999999994" stroke-linecap="round" />
</g>
<g transform="matrix(1 0 0 1 252.5 211.22)" id="FUyEWDs9A8V2fPxBh_mBu"  >
<path style="stroke: rgb(142,139,139); stroke-width: 10; stroke-dasharray: none; stroke-linecap: round; stroke-dashoffset: 0; stroke-linejoin: round; stroke-miterlimit: 10; fill: none; fill-rule: nonzero; opacity: 1;" vector-effect="non-scaling-stroke"  transform=" translate(-252.5, -65.47)" d="M 252.69665625 27.767031250000002 Q 252.68665625 27.777031250000004 252.68665625 27.988781250000002 Q 252.68665625 28.20053125 252.472453125 29.2592734375 Q 252.25824999999998 30.318015624999997 251.61560937499996 35.39996875 Q 250.97296874999995 40.481921875 250.75876562499997 43.0228984375 Q 250.54456249999998 45.563874999999996 250.75876562499997 51.4928125 Q 250.97296874999995 57.42175 251.18718749999996 60.3862265625 Q 251.40140624999998 63.350703124999995 251.61560937499996 68.22090625 Q 251.82981249999995 73.091109375 252.04403124999996 75.4203359375 Q 252.25824999999998 77.7495625 252.472453125 80.71403125 Q 252.68665625 83.6785 252.90085937499998 88.1252109375 Q 253.11506249999996 92.571921875 253.11506249999996 94.05415625 Q 253.11506249999996 95.536390625 253.54348437499996 98.07736718749999 Q 253.97190624999996 100.61834375 254.18610937499997 101.8888359375 L 254.41031249999997 103.169328125" stroke-linecap="round" />
</g>
<g transform="matrix(1 0 0 1 215.78 211.22)" id="BGr6V7uR-p-mjHVBRv0nm"  >
<path style="stroke: rgb(142,139,139); stroke-width: 10; stroke-dasharray: none; stroke-linecap: round; stroke-dashoffset: 0; stroke-linejoin: round; stroke-miterlimit: 10; fill: none; fill-rule: nonzero; opacity: 1;" vector-effect="non-scaling-stroke"  transform=" translate(-230.86, -54.03)" d="M 254.41031249999997 54.04378125 Q 254.40031249999998 54.033781250000004 254.18610937499997 53.6102890625 Q 253.97190624999996 53.186796875 253.54348437499996 52.5515546875 Q 253.11506249999996 51.916312500000004 249.68771874999996 49.1635859375 Q 246.26037499999995 46.410859375 244.11829687499997 45.3521171875 Q 241.97621875 44.293375 238.54887499999998 43.234640625 Q 235.12153124999998 42.17590625 233.83628124999998 41.96415625 Q 232.55103125 41.75240625000001 229.55209374999998 41.75240625000001 Q 226.55315624999997 41.75240625000001 224.83949999999996 41.75240625000001 Q 223.12584374999994 41.75240625000001 221.19795312499997 41.75240625000001 Q 219.2700625 41.75240625000001 216.271140625 42.59939843750001 Q 213.27221874999998 43.44639062500001 212.62959374999997 43.8698828125 Q 211.98696874999996 44.293375 210.70171874999997 46.410859374999994 Q 209.41646874999998 48.52834374999999 208.77384374999997 49.79882812499999 Q 208.13121874999996 51.069312499999995 207.27437499999996 54.669031249999996 Q 206.41753124999997 58.26875 206.20332812499996 60.174484375 Q 205.98912499999994 62.08021875 206.20332812499996 64.8329375 Q 206.41753124999997 67.58565625 206.84595312499997 68.8561484375 Q 207.27437499999996 70.126640625 208.34542187499997 71.608875 Q 209.41646874999998 73.091109375 212.415390625 75.6320859375 Q 215.4143125 78.1730625 216.69956249999998 79.0200546875 Q 217.98481249999998 79.867046875 220.34110937499997 80.2905390625 Q 222.69740624999997 80.71403125 223.76845312499998 80.71403125 Q 224.8395 80.71403125 227.62421874999998 79.8670390625 Q 230.40893749999998 79.02004687499999 232.33681249999998 78.17305468749998 Q 234.26468749999998 77.32606249999999 238.97728124999998 75.4203359375 Q 243.68987499999997 73.51460937499999 245.61774999999997 72.66761718749999 Q 247.54562499999997 71.82062499999999 248.83089062499997 70.9736328125 Q 250.11615624999996 70.126640625 252.04403124999996 67.1621640625 Q 253.97190624999996 64.1976875 254.40032812499996 62.715453124999996 Q 254.82874999999996 61.23321874999999 255.25715624999995 58.69224218749999 Q 255.68556249999995 56.15126562499999 255.68556249999995 55.304273437499994 Q 255.68556249999995 54.457281249999994 255.68556249999995 52.975046875 Q 255.68556249999995 51.4928125 255.47135937499996 50.8575703125 Q 255.25715624999998 50.222328125000004 255.25715624999998 49.1635859375 Q 255.25715624999998 48.10484375 255.25715624999998 47.6813515625 Q 255.25715624999998 47.257859374999995 255.25715624999998 46.410867187499996 Q 255.25715624999998 45.563874999999996 255.25715624999998 45.352124999999994 Q 255.25715624999998 45.14037499999999 255.25715624999998 44.505132812499994 Q 255.25715624999998 43.869890625 255.25715624999998 42.5993984375 Q 255.25715624999998 41.32890625 255.25715624999998 40.693664062500005 Q 255.25715624999998 40.05842187500001 255.25715624999998 38.152687500000006 Q 255.25715624999998 36.246953125000005 255.25715624999998 35.6117109375 Q 255.25715624999998 34.976468749999995 255.04295312499997 33.705984375 Q 254.82874999999996 32.435500000000005 254.61453124999997 31.800250000000005 Q 254.40031249999998 31.165000000000003 253.97190625 30.318007812500003 Q 253.5435 29.471015625000003 253.32928124999998 29.0475234375 Q 253.11506249999996 28.624031249999998 252.90085937499998 28.41228125 Q 252.68665625 28.20053125 252.472453125 27.777039062500002 Q 252.25824999999998 27.353546875000003 251.82982812499998 27.353546875000003 Q 251.40140624999998 27.353546875000003 250.97298437499998 27.353546875000003 Q 250.54456249999998 27.353546875000003 250.33035937499997 27.353546875000003 Q 250.11615624999996 27.353546875000003 249.90193749999997 27.777039062500002 L 249.67771875 28.210531250000003" stroke-linecap="round" />
</g>
<g transform="matrix(1 0 0 1 310.46 218.87)" id="rv_cZ9VvAjvaNMprXu8Mk"  >
<path style="stroke: rgb(142,139,139); stroke-width: 10; stroke-dasharray: none; stroke-linecap: round; stroke-dashoffset: 0; stroke-linejoin: round; stroke-miterlimit: 10; fill: none; fill-rule: nonzero; opacity: 1;" vector-effect="non-scaling-stroke"  transform=" translate(-327.28, -51.49)" d="M 308.39096874999996 16.756140625 Q 308.38096874999997 16.766140625000002 307.95254687499994 17.8248828125 Q 307.52412499999997 18.883625 307.095703125 20.154109375 Q 306.66728125 21.424593750000003 304.953609375 24.600812500000004 Q 303.2399375 27.777031250000004 302.16890624999996 29.0475234375 Q 301.097875 30.318015624999997 300.24103125 31.376757812500003 Q 299.3841875 32.435500000000005 298.52735937499995 35.39996875 Q 297.67053124999995 38.364437499999994 297.884734375 40.481914062499996 Q 298.0989375 42.599390625 298.52735937499995 46.8343515625 Q 298.95578125 51.069312499999995 299.169984375 52.763296874999995 Q 299.3841875 54.457281249999994 299.81260937499997 56.99825781249999 Q 300.24103125 59.53923437499999 300.669453125 60.809726562499996 Q 301.097875 62.08021875 302.16890624999996 63.7741953125 Q 303.2399375 65.468171875 303.668359375 66.103421875 Q 304.09678125 66.738671875 305.16782812499997 67.3739140625 Q 306.23887499999995 68.00915625 306.88149999999996 68.22090625 Q 307.52412499999997 68.43265625 309.02359375 68.6443984375 Q 310.5230625 68.856140625 311.1656875 68.6443984375 Q 311.8083125 68.43265625 313.09356249999996 67.79740625 Q 314.3788125 67.16215625 318.44878124999997 64.8329296875 Q 322.51874999999995 62.503703125 324.4466249999999 61.44496875 Q 326.37449999999995 60.386234375 329.37342187499996 57.6335078125 Q 332.37234374999997 54.88078125 333.657609375 53.186796875 Q 334.94287499999996 51.4928125 337.29917187499996 48.10484375 Q 339.65546874999995 44.716875 340.94071875 42.811140625 Q 342.22596875 40.90540625 344.15384374999996 37.3056953125 Q 346.08171875 33.705984375 346.72434375 32.6472421875 Q 347.36696875 31.5885 347.795390625 30.9532578125 Q 348.22381249999995 30.318015624999997 348.438015625 29.894515625 Q 348.65221875000003 29.471015625000003 349.080640625 29.894515625 Q 349.50906249999997 30.318015624999997 349.937484375 31.1650078125 Q 350.36590625 32.012 350.794328125 35.39996875 Q 351.22274999999996 38.7879375 351.22274999999996 40.9054140625 Q 351.22274999999996 43.022890625 351.22274999999996 47.4696015625 Q 351.22274999999996 51.916312500000004 351.00853125 54.0337890625 Q 350.7943125 56.15126562499999 350.36589062499996 59.962726562499995 Q 349.93746874999994 63.7741875 350.1516875 65.468171875 Q 350.36590625 67.16215625 350.580109375 68.6443984375 Q 350.7943125 70.126640625 351.65115625 73.091109375 Q 352.508 76.055578125 353.150625 77.5378125 Q 353.79325 79.02004687499999 354.650078125 81.5610234375 Q 355.50690625 84.102 356.149546875 85.1607421875 L 356.8021875 86.229484375" stroke-linecap="round" />
</g>
<g transform="matrix(1 0 0 1 393.06 202.58)" id="nhmvNZbC51mpWvrsyAcAh"  >
<path style="stroke: rgb(142,139,139); stroke-width: 10; stroke-dasharray: none; stroke-linecap: round; stroke-dashoffset: 0; stroke-linejoin: round; stroke-miterlimit: 10; fill: none; fill-rule: nonzero; opacity: 1;" vector-effect="non-scaling-stroke"  transform=" translate(-399.21, -67.76)" d="M 427.9194999999999 21.41459375 Q 427.9094999999999 21.424593750000003 427.69531249999994 21.63634375 Q 427.48112499999996 21.84809375 426.4100625 22.27159375 Q 425.339 22.69509375 424.05375 23.330335937500003 Q 422.76849999999996 23.965578125000004 421.05484375 24.812570312500004 Q 419.3411875 25.659562500000003 415.05699999999996 27.777039062500002 Q 410.77281249999993 29.894515625 409.05912499999994 30.9532578125 Q 407.34543749999995 32.012 404.13231249999995 33.917734375 Q 400.91918749999996 35.82346875 399.84815625 36.670453125 Q 398.777125 37.5174375 397.27765625 39.211421875 Q 395.7781875 40.90540625 395.1355625 41.7523984375 Q 394.4929375 42.599390625 394.27871875 43.4463828125 Q 394.0645 44.293375 393.63609375 46.410859374999994 Q 393.20768749999996 48.52834374999999 393.20768749999996 49.3753359375 Q 393.20768749999996 50.222328125000004 393.63609375 52.3398046875 Q 394.0645 54.457281249999994 394.707125 55.7277734375 Q 395.34975000000003 56.998265625 398.3486875 60.5979765625 Q 401.34762499999994 64.1976875 403.06128125 65.891671875 Q 404.7749375 67.58565625 407.55965625 69.9148828125 Q 410.34437499999996 72.244109375 411.20121874999995 73.0911015625 Q 412.05806249999995 73.93809375 412.70068749999996 74.78508593749999 Q 413.34331249999997 75.63207812499999 414.20015624999996 77.5378125 Q 415.05699999999996 79.443546875 415.48540625 80.71403125 Q 415.9138125 81.984515625 416.34221875 85.372484375 Q 416.77062499999994 88.760453125 416.77062499999994 90.0309453125 Q 416.77062499999994 91.30143749999999 416.34221875 93.4189140625 Q 415.9138125 95.536390625 415.48540625 96.5951328125 Q 415.05699999999996 97.653875 413.34331249999997 99.9831015625 Q 411.629625 102.312328125 410.13015624999997 103.3710703125 Q 408.63068749999996 104.4298125 406.91703125 105.488546875 Q 405.203375 106.54728125 402.632875 107.8177734375 Q 400.06237500000003 109.088265625 398.9913125 109.7235078125 Q 397.92024999999995 110.35875 395.56396874999996 111.2057421875 Q 393.20768749999996 112.05273437499999 391.70821874999996 112.47623437499999 Q 390.20874999999995 112.899734375 386.13878124999997 113.3232265625 Q 382.0688125 113.74671875 380.14093749999995 113.95846875 Q 378.2130624999999 114.17021874999999 375.8567499999999 113.74671875 Q 373.5004374999999 113.32321875000001 372.0009999999999 112.8997265625 L 370.49156249999993 112.466234375" stroke-linecap="round" />
</g>
<g transform="matrix(1 0 0 1 468.53 208.92)" id="mCz-Wq2UFUOKp1H-13VoA"  >
<path style="stroke: rgb(142,139,139); stroke-width: 10; stroke-dasharray: none; stroke-linecap: round; stroke-dashoffset: 0; stroke-linejoin: round; stroke-miterlimit: 10; fill: none; fill-rule: nonzero; opacity: 1;" vector-effect="non-scaling-stroke"  transform=" translate(-494.32, -74.54)" d="M 472.0365625 34.54296875000001 Q 472.0365625 34.552968750000005 472.0365625 35.188218750000004 Q 472.0365625 35.82346875 472.0365625 37.5174453125 Q 472.0365625 39.211421875 472.0365625 40.4819140625 Q 472.0365625 41.75240625000001 472.0365625 43.022890625 Q 472.0365625 44.293375 472.0365625 47.0461015625 Q 472.0365625 49.798828125 472.0365625 52.1280546875 Q 472.0365625 54.457281249999994 471.82234375 58.4804921875 Q 471.60812500000003 62.503703125 471.39390625 63.9859375 Q 471.17968749999994 65.468171875 470.96549999999996 66.73866406249999 Q 470.7513125 68.00915625 470.32287499999995 70.55013281250001 Q 469.8944374999999 73.091109375 469.8944374999999 74.36159375 Q 469.8944374999999 75.63207812499999 470.10865624999997 78.5965546875 Q 470.322875 81.56103125 470.53709375 83.46675781249999 Q 470.7513125 85.372484375 470.7513125 88.1252109375 Q 470.7513125 90.8779375 470.7513125 91.9366796875 Q 470.7513125 92.995421875 470.96549999999996 94.90114843750001 Q 471.17968749999994 96.806875 471.17968749999994 97.6538671875 Q 471.17968749999994 98.500859375 471.39390625 99.136109375 Q 471.60812500000003 99.771359375 472.03653125 100.83009375 Q 472.46493749999996 101.888828125 472.67915624999995 102.312328125 Q 472.89337499999993 102.735828125 473.32178124999996 103.58282031249999 Q 473.7501875 104.4298125 473.96440624999997 104.8533046875 Q 474.17862499999995 105.276796875 474.60703125 105.70029687499999 Q 475.0354375 106.123796875 475.24965625 106.3355390625 Q 475.463875 106.54728125 475.67809374999996 106.75903124999999 Q 475.89231249999995 106.97078125 476.10653125 107.18253125 Q 476.32075000000003 107.39428124999999 476.5349375 107.60603125 Q 476.749125 107.81778125000001 476.96334375 108.0295234375 Q 477.17756249999996 108.241265625 477.39178124999995 108.45301562499999 Q 477.60599999999994 108.66476562499999 477.8201875 108.876515625 Q 478.034375 109.088265625 478.034375 109.300015625 Q 478.034375 109.511765625 478.24859375 109.511765625 Q 478.4628125 109.511765625 478.67703124999997 109.7235078125 Q 478.89124999999996 109.93525000000001 479.1054375 110.35875 Q 479.31962500000003 110.78224999999999 479.53384375 110.78224999999999 Q 479.7480625 110.78224999999999 479.96228125 110.994 Q 480.1765 111.20575000000001 480.819125 111.6292421875 Q 481.46175 112.05273437499999 481.89015624999996 112.264484375 Q 482.3185624999999 112.476234375 483.60381249999995 113.1114765625 Q 484.88906249999997 113.74671875 485.5316875 113.95846875 Q 486.1743125 114.17021874999999 487.4595625 114.17021874999999 Q 488.7448125 114.17021874999999 489.3874375 114.38196875 Q 490.03006249999993 114.59371875000001 491.31534374999995 114.38196875 Q 492.600625 114.17021874999999 493.24325 113.95846875 Q 493.885875 113.74671875 494.5285 113.53496875 Q 495.171125 113.32321875000001 496.24215625 113.32321875000001 Q 497.31318749999997 113.32321875000001 497.74159375 113.1114765625 Q 498.17 112.899734375 499.02684375 112.687984375 Q 499.8836875 112.476234375 500.312125 112.476234375 Q 500.74056249999995 112.476234375 501.38318749999996 112.476234375 Q 502.0258125 112.476234375 502.23999999999995 112.264484375 Q 502.45418749999993 112.05273437499999 503.09681249999994 111.6292421875 Q 503.73943749999995 111.20575000000001 504.38206249999996 110.994 Q 505.02468749999997 110.78224999999999 506.3099375 110.35875 Q 507.5951875 109.93525000000001 508.23784374999997 109.7235078125 Q 508.8804999999999 109.511765625 509.52312499999994 109.300015625 Q 510.16574999999995 109.088265625 511.4509999999999 108.664765625 Q 512.7362499999999 108.241265625 513.5930625 108.0295234375 Q 514.449875 107.81778125000001 515.73515625 107.18253125000001 Q 517.0204375000001 106.54728125 517.87725 106.1237890625 L 518.7440624999999 105.69029687499999" stroke-linecap="round" />
</g>
<g transform="matrix(1 0 0 1 478.34 163.92)" id="BmUfZc08JR7NFkBdXumHK"  >
<path style="stroke: rgb(142,139,139); stroke-width: 10; stroke-dasharray: none; stroke-linecap: round; stroke-dashoffset: 0; stroke-linejoin: round; stroke-miterlimit: 10; fill: none; fill-rule: nonzero; opacity: 1;" vector-effect="non-scaling-stroke"  transform=" translate(-497.96, -67.37)" d="M 471.59812500000004 69.703140625 Q 471.60812500000003 69.703140625 471.82234375 69.703140625 Q 472.0365625 69.703140625 472.46496874999997 69.703140625 Q 472.89337499999993 69.703140625 473.10759375 69.703140625 Q 473.3218125 69.703140625 474.39284375 70.12663281249999 Q 475.463875 70.550125 475.8923125 70.550125 Q 476.32075000000003 70.550125 477.82018750000003 70.550125 Q 479.31962500000003 70.550125 483.38959375 70.550125 Q 487.4595625 70.550125 491.10112499999997 70.12663281249999 Q 494.74268749999993 69.703140625 496.02793749999995 69.49139062500001 Q 497.31318749999997 69.279640625 499.2410625 68.8561484375 Q 501.1689375 68.43265625 502.66840625 68.22090625 Q 504.1678749999999 68.00915625 508.0236249999999 67.58565625 Q 511.8793749999999 67.16215625 514.2356874999999 66.95041406249999 Q 516.5919999999999 66.738671875 519.1624999999999 66.526921875 Q 521.733 66.315171875 522.375625 66.10342187500001 Q 523.0182500000001 65.891671875 523.660875 65.04467968750001 L 524.3135 64.1876875" stroke-linecap="round" />
</g>
<g transform="matrix(1 0 0 1 486.69 200.75)" id="q3M-XGh5tZYBhH_m7UIiT"  >
<path style="stroke: rgb(142,139,139); stroke-width: 10; stroke-dasharray: none; stroke-linecap: round; stroke-dashoffset: 0; stroke-linejoin: round; stroke-miterlimit: 10; fill: none; fill-rule: nonzero; opacity: 1;" vector-effect="non-scaling-stroke"  transform=" translate(-506.74, -36.88)" d="M 472.0265625 40.05842187500001 Q 472.0365625 40.05842187500001 472.6791875 40.05842187500001 Q 473.3218125 40.05842187500001 473.9644375 40.05842187500001 Q 474.6070624999999 40.05842187500001 475.46390625 40.05842187500001 Q 476.32075000000003 40.05842187500001 476.74915625 40.05842187500001 Q 477.17756249999996 40.05842187500001 477.8201875 39.846671875000006 Q 478.4628125 39.634921875 478.67703124999997 39.634921875 Q 478.89124999999996 39.634921875 479.31965625 39.423171875 Q 479.7480625 39.211421875 482.104375 38.3644296875 Q 484.4606875 37.5174375 486.17434375 37.3056953125 Q 487.888 37.093953125 490.8869375 36.670453125 Q 493.885875 36.246953125000005 495.81374999999997 35.8234609375 Q 497.74162499999994 35.39996875 498.59843749999993 35.18821875 Q 499.4552499999999 34.976468749999995 500.52631249999996 34.5529765625 Q 501.597375 34.129484375000004 504.167875 33.917734375 Q 506.73837499999996 33.705984375 508.66625 33.705984375 Q 510.594125 33.705984375 512.9504375 33.705984375 Q 515.30675 33.705984375 518.519875 34.3412265625 Q 521.733 34.976468749999995 522.80403125 35.18821875 Q 523.8750625 35.39996875 526.01715625 35.8234609375 Q 528.1592499999999 36.246953125000005 529.01609375 36.246953125000005 Q 529.8729375 36.246953125000005 531.8008125 36.246953125000005 Q 533.7286875 36.246953125000005 535.0139375 36.458703125 Q 536.2991875 36.670453124999995 538.012875 37.0939453125 Q 539.7265625 37.5174375 540.15496875 37.5174375 Q 540.5833749999999 37.5174375 541.0118124999999 37.5174375 L 541.4502499999999 37.5174375" stroke-linecap="round" />
</g>
</svg>