<?xml version="1.0" encoding="UTF-8" standalone="no" ?>
<!DOCTYPE svg PUBLIC "-//W3C//DTD SVG 1.1//EN" "http://www.w3.org/Graphics/SVG/1.1/DTD/svg11.dtd">
<svg xmlns="http://www.w3.org/2000/svg" xmlns:xlink="http://www.w3.org/1999/xlink" version="1.1" width="500" height="500" viewBox="0 0 500 500" xml:space="preserve">
<desc>Created with Fabric.js 4.6.0</desc>
<defs>
</defs>
<g transform="matrix(0.45 0 0 0.45 335.88 344.12)" id="6EanGH9yJ14WjtpDVCAR1"  >
<path style="stroke: rgb(0,0,0); stroke-width: 48; stroke-dasharray: none; stroke-linecap: butt; stroke-dashoffset: 0; stroke-linejoin: miter; stroke-miterlimit: 4; fill: rgb(252,200,117); fill-rule: nonzero; opacity: 1;" vector-effect="non-scaling-stroke"  transform=" translate(0, 0)" d="M 0 -114.46977 C 63.18731 -114.46977 114.46977 -63.18731 114.46977 0 C 114.46977 63.18731 63.18731 114.46977 0 114.46977 C -63.18731 114.46977 -114.46977 63.18731 -114.46977 0 C -114.46977 -63.18731 -63.18731 -114.46977 0 -114.46977 z" stroke-linecap="round" />
</g>
<g transform="matrix(0.45 0 0 0.45 160 344.49)" id="8BRnSeGG_gSh3QdGxLjQb"  >
<path style="stroke: rgb(0,0,0); stroke-width: 48; stroke-dasharray: none; stroke-linecap: butt; stroke-dashoffset: 0; stroke-linejoin: miter; stroke-miterlimit: 4; fill: rgb(252,200,117); fill-rule: nonzero; opacity: 1;" vector-effect="non-scaling-stroke"  transform=" translate(0, 0)" d="M 0 -114.46977 C 63.18731 -114.46977 114.46977 -63.18731 114.46977 0 C 114.46977 63.18731 63.18731 114.46977 0 114.46977 C -63.18731 114.46977 -114.46977 63.18731 -114.46977 0 C -114.46977 -63.18731 -63.18731 -114.46977 0 -114.46977 z" stroke-linecap="round" />
</g>
<g transform="matrix(1 0 0 1 251.05 250)" id="BLQT-N3Dldxm6VH4NqdSW"  >
<path style="stroke: rgb(0,0,0); stroke-width: 18; stroke-dasharray: none; stroke-linecap: butt; stroke-dashoffset: 0; stroke-linejoin: miter; stroke-miterlimit: 4; fill: rgb(252,200,117); fill-rule: nonzero; opacity: 1;" vector-effect="non-scaling-stroke"  transform=" translate(0, 0)" d="M 0 -114.46977 C 63.18731 -114.46977 114.46977 -63.18731 114.46977 0 C 114.46977 63.18731 63.18731 114.46977 0 114.46977 C -63.18731 114.46977 -114.46977 63.18731 -114.46977 0 C -114.46977 -63.18731 -63.18731 -114.46977 0 -114.46977 z" stroke-linecap="round" />
</g>
<g transform="matrix(1 0 0 1 280 360)" id="7OYC_NWgYv1L8xiYI3Vu4"  >
<path style="stroke: rgb(0,0,0); stroke-width: 1; stroke-dasharray: none; stroke-linecap: butt; stroke-dashoffset: 0; stroke-linejoin: miter; stroke-miterlimit: 4; fill: rgb(255,255,255); fill-opacity: 0; fill-rule: nonzero; opacity: 1;" vector-effect="non-scaling-stroke"  transform=" translate(0, 0)" d="M 0 0" stroke-linecap="round" />
</g>
</svg>