<?xml version="1.0" encoding="UTF-8" standalone="no" ?>
<!DOCTYPE svg PUBLIC "-//W3C//DTD SVG 1.1//EN" "http://www.w3.org/Graphics/SVG/1.1/DTD/svg11.dtd">
<svg xmlns="http://www.w3.org/2000/svg" xmlns:xlink="http://www.w3.org/1999/xlink" version="1.1" width="500" height="500" viewBox="0 0 500 500" xml:space="preserve">
<desc>Created with Fabric.js 4.6.0</desc>
<defs>
</defs>
<g transform="matrix(0.45 0 0 0.45 335.88 344.12)" id="6EanGH9yJ14WjtpDVCAR1"  >
<path style="stroke: rgb(0,0,0); stroke-width: 48; stroke-dasharray: none; stroke-linecap: butt; stroke-dashoffset: 0; stroke-linejoin: miter; stroke-miterlimit: 4; fill: rgb(51,149,75); fill-rule: nonzero; opacity: 1;" vector-effect="non-scaling-stroke"  transform=" translate(0, 0)" d="M 0 -114.46977 C 63.18731 -114.46977 114.46977 -63.18731 114.46977 0 C 114.46977 63.18731 63.18731 114.46977 0 114.46977 C -63.18731 114.46977 -114.46977 63.18731 -114.46977 0 C -114.46977 -63.18731 -63.18731 -114.46977 0 -114.46977 z" stroke-linecap="round" />
</g>
<g transform="matrix(0.45 0 0 0.45 160 344.49)" id="8BRnSeGG_gSh3QdGxLjQb"  >
<path style="stroke: rgb(0,0,0); stroke-width: 48; stroke-dasharray: none; stroke-linecap: butt; stroke-dashoffset: 0; stroke-linejoin: miter; stroke-miterlimit: 4; fill: rgb(51,149,75); fill-rule: nonzero; opacity: 1;" vector-effect="non-scaling-stroke"  transform=" translate(0, 0)" d="M 0 -114.46977 C 63.18731 -114.46977 114.46977 -63.18731 114.46977 0 C 114.46977 63.18731 63.18731 114.46977 0 114.46977 C -63.18731 114.46977 -114.46977 63.18731 -114.46977 0 C -114.46977 -63.18731 -63.18731 -114.46977 0 -114.46977 z" stroke-linecap="round" />
</g>
<g transform="matrix(1 0 0 1 251.05 250)" id="BLQT-N3Dldxm6VH4NqdSW"  >
<path style="stroke: rgb(0,0,0); stroke-width: 18; stroke-dasharray: none; stroke-linecap: butt; stroke-dashoffset: 0; stroke-linejoin: miter; stroke-miterlimit: 4; fill: rgb(51,149,75); fill-rule: nonzero; opacity: 1;" vector-effect="non-scaling-stroke"  transform=" translate(-114.47, -114.47)" d="M 114.46977 0 C 177.65708 0 228.93954 51.28246 228.93954 114.46977 C 228.93954 177.65708 177.65708 228.93954 114.46977 228.93954 C 51.28246 228.93954 0 177.65708 0 114.46977 C 0 51.28246 51.28246 0 114.46977 0 z" stroke-linecap="round" />
</g>
<g transform="matrix(1 0 0 1 280 360)" id="7OYC_NWgYv1L8xiYI3Vu4"  >
<path style="stroke: rgb(0,0,0); stroke-width: 1; stroke-dasharray: none; stroke-linecap: butt; stroke-dashoffset: 0; stroke-linejoin: miter; stroke-miterlimit: 4; fill: rgb(255,255,255); fill-opacity: 0; fill-rule: nonzero; opacity: 1;" vector-effect="non-scaling-stroke"  transform=" translate(0, 0)" d="M 0 0" stroke-linecap="round" />
</g>
<g transform="matrix(1 0 0 1 297.63 198.46)" id="OWGFvcslsFZNPOJkYHHN4"  >
<path style="stroke: rgb(0,0,0); stroke-width: 18; stroke-dasharray: none; stroke-linecap: round; stroke-dashoffset: 0; stroke-linejoin: round; stroke-miterlimit: 10; fill: none; fill-rule: nonzero; opacity: 1;" vector-effect="non-scaling-stroke"  transform=" translate(-297.63, -198.46)" d="M 302.03971456888013 151.62728245787903 Q 302.03171456888015 151.63528245787904 301.7839444995045 152.87413280475715 Q 301.5361744301289 154.11298315163523 300.792864222002 155.10406342913774 Q 300.04955401387514 156.09514370664021 299.5540138751239 156.83845391476706 Q 299.05847373637266 157.58176412289393 298.5629335976214 158.07730426164517 Q 298.0673934588702 158.5728444003964 297.8196233894946 159.06838453914764 Q 297.571853320119 159.56392467789888 297.0763131813677 160.05946481665012 Q 296.5807730426165 160.55500495540136 296.33300297324087 161.0505450941526 Q 296.08523290386523 161.54608523290383 295.589692765114 162.5371655104063 Q 295.09415262636276 163.5282457879088 294.5986124876115 164.51932606541126 Q 294.1030723488603 165.51040634291374 293.35976214073344 166.74925668979182 Q 292.6164519326066 167.98810703666993 292.1209117938554 169.22695738354804 Q 291.6253716551041 170.46580773042612 291.12983151635285 171.4568880079286 Q 290.63429137760164 172.44796828543107 290.13875123885043 173.19127849355795 Q 289.64321110009917 173.9345887016848 289.39544103072353 174.67789890981163 Q 289.1476709613479 175.4212091179385 289.1476709613479 175.66897918731414 Q 289.1476709613479 175.91674925668977 288.89990089197227 176.16451932606537 Q 288.6521308225967 176.412289395441 288.6521308225967 176.90782953419225 Q 288.6521308225967 177.40336967294348 288.40436075322106 178.14667988107033 Q 288.1565906838454 178.8899900891972 287.6610505450942 180.12884043607528 Q 287.16551040634295 181.3676907829534 287.16551040634295 182.11100099108023 Q 287.16551040634295 182.8543111992071 286.9177403369673 182.8543111992071 Q 286.66997026759174 182.8543111992071 288.1565906838455 183.59762140733397 Q 289.64321110009917 184.34093161546082 290.63429137760164 184.83647175421206 Q 291.6253716551041 185.3320118929633 292.6164519326066 185.82755203171453 Q 293.60753221010907 186.32309217046577 294.3508424182359 186.5708622398414 Q 295.09415262636276 186.818632309217 295.83746283448966 187.31417244796825 Q 296.5807730426165 187.80971258671948 297.0763131813677 187.80971258671948 Q 297.571853320119 187.80971258671948 297.8196233894946 188.0574826560951 Q 298.0673934588702 188.30525272547072 298.5629335976214 188.55302279484636 Q 299.05847373637266 188.80079286422196 299.80178394449956 189.2963330029732 Q 300.5450941526264 189.79187314172444 301.28840436075325 190.03964321110004 Q 302.03171456888015 190.28741328047568 302.775024777007 190.5351833498513 Q 303.51833498513383 190.7829534192269 304.26164519326073 191.27849355797815 Q 305.0049554013876 191.7740336967294 305.5004955401388 191.7740336967294 Q 305.99603567889005 191.7740336967294 306.4915758176413 192.021803766105 Q 306.98711595639253 192.26957383548063 307.2348860257681 192.51734390485626 Q 307.48265609514374 192.76511397423187 307.7304261645194 192.76511397423187 Q 307.978196233895 192.76511397423187 308.22596630327064 192.76511397423187 Q 308.4737363726462 192.76511397423187 308.4737363726462 193.2606541129831 Q 308.4737363726462 193.75619425173434 308.22596630327064 194.99504459861245 Q 307.978196233895 196.23389494549056 307.7304261645194 197.22497522299304 Q 307.48265609514374 198.21605550049551 306.9871159563925 199.70267591674923 Q 306.49157581764126 201.18929633300294 305.99603567889005 202.67591674925666 Q 305.5004955401388 204.16253716551037 305.0049554013875 205.6491575817641 Q 304.5094152626363 207.1357779980178 303.76610505450947 209.36570862239836 Q 303.0227948463826 211.59563924677894 302.03171456888015 213.82556987115953 Q 301.0406342913776 216.05550049554012 300.04955401387514 218.7809712586719 Q 299.05847373637266 221.50644202180374 297.8196233894946 224.23191278493556 Q 296.5807730426165 226.95738354806736 295.83746283448966 229.18731417244794 Q 295.09415262636276 231.4172447968285 294.1030723488603 233.64717542120908 Q 293.1119920713578 235.87710604558967 292.61645193260654 237.61149653121902 Q 292.1209117938553 239.34588701684834 291.6253716551041 240.83250743310205 Q 291.12983151635285 242.31912784935577 290.8820614469772 243.31020812685824 Q 290.63429137760164 244.30128840436072 290.386521308226 244.79682854311196 L 290.1307512388504 245.3003686818632" stroke-linecap="round" />
</g>
<g transform="matrix(1 0 0 1 204.16 176.39)" id="FcJx45G3ZYFSUhJR7KQ_B"  >
<path style="stroke: rgb(0,0,0); stroke-width: 18; stroke-dasharray: none; stroke-linecap: round; stroke-dashoffset: 0; stroke-linejoin: round; stroke-miterlimit: 10; fill: none; fill-rule: nonzero; opacity: 1;" vector-effect="non-scaling-stroke"  transform=" translate(-204.16, -176.39)" d="M 209.35770862239846 145.40626468031516 Q 209.36570862239847 145.41426468031517 209.8612487611497 145.6620347496908 Q 210.35678889990095 145.9098048190664 212.09117938553027 147.39642523532012 Q 213.8255698711596 148.88304565157384 215.3121902874133 150.12189599845195 Q 216.79881070366702 151.36074634533006 218.28543111992073 152.10405655345693 Q 219.77205153617444 152.84736676158377 220.76313181367692 153.342906900335 Q 221.7542120911794 153.83844703908625 222.24975222993064 154.08621710846188 Q 222.74529236868187 154.33398717783749 222.9930624380575 154.33398717783749 Q 223.24083250743314 154.33398717783749 223.24083250743314 154.5817572472131 Q 223.24083250743314 154.82952731658872 223.24083250743314 155.8206075940912 Q 223.24083250743314 156.81168787159368 222.24975222993066 158.2983082878474 Q 221.2586719524282 159.7849287041011 220.01982160555008 161.51931918973042 Q 218.78097125867197 163.25370967535977 216.79881070366702 165.48364029974033 Q 214.81665014866206 167.71357092412092 212.8344895936571 169.9435015485015 Q 210.85232903865216 172.1734321728821 208.6223984142716 174.65113286663828 Q 206.39246778989104 177.12883356039447 204.6580773042617 179.35876418477505 Q 202.92368681863235 181.5886948091556 200.9415262636274 184.56193564166304 Q 198.95936570862244 187.53517647417047 196.9772051536175 190.50841730667793 Q 194.99504459861254 193.48165813918536 193.2606541129832 195.95935883294155 Q 191.52626362735384 198.43705952669774 189.79187314172452 200.91476022045393 Q 188.0574826560952 203.39246091421012 186.5708622398415 205.37462146921507 L 185.07624182358776 207.36478202422003" stroke-linecap="round" />
</g>
<g transform="matrix(0.37 0 0 0.37 220 329.84)" id="DiLspha0bw2_kznjtlNWn"  >
<path style="stroke: rgb(0,0,0); stroke-width: 12; stroke-dasharray: none; stroke-linecap: butt; stroke-dashoffset: 0; stroke-linejoin: miter; stroke-miterlimit: 4; fill: rgb(247,47,58); fill-rule: nonzero; opacity: 1;" vector-effect="non-scaling-stroke"  transform=" translate(0, 0)" d="M 0 -34.44004 C 19.0109 -34.44004 34.44004 -19.010900000000003 34.44004 0 C 34.44004 19.0109 19.010900000000003 34.44004 0 34.44004 C -19.0109 34.44004 -34.44004 19.010900000000003 -34.44004 0 C -34.44004 -19.0109 -19.010900000000003 -34.44004 0 -34.44004 z" stroke-linecap="round" />
</g>
<g transform="matrix(0.37 0 0 0.37 280 329.86)" id="josTrVKfjhtydWw-vSMc8"  >
<path style="stroke: rgb(0,0,0); stroke-width: 12; stroke-dasharray: none; stroke-linecap: butt; stroke-dashoffset: 0; stroke-linejoin: miter; stroke-miterlimit: 4; fill: rgb(247,47,58); fill-rule: nonzero; opacity: 1;" vector-effect="non-scaling-stroke"  transform=" translate(0, 0)" d="M 0 -34.44004 C 19.0109 -34.44004 34.44004 -19.010900000000003 34.44004 0 C 34.44004 19.0109 19.010900000000003 34.44004 0 34.44004 C -19.0109 34.44004 -34.44004 19.010900000000003 -34.44004 0 C -34.44004 -19.0109 -19.010900000000003 -34.44004 0 -34.44004 z" stroke-linecap="round" />
</g>
</svg>